<svg width="41" height="45" fill="none" xmlns="http://www.w3.org/2000/svg"><path d="M12.396 20.658c0-.747-.606-1.352-1.353-1.352H4.04c-.747 0-1.353.605-1.353 1.352v18.933h9.71V20.658zm26.079-7.644c0-.747-.606-1.352-1.353-1.352h-7.005c-.746 0-1.352.605-1.352 1.352v26.577h9.71V13.014zm-13.04 10.128c0-.747-.605-1.352-1.352-1.352h-7.005c-.747 0-1.352.605-1.352 1.352v16.45h9.71v-16.45zm14.177 19.154H1.55a1.352 1.352 0 100 2.704h38.062a1.352 1.352 0 000-2.704zM9.633 15.492c.04 0 .08-.002.121-.005.122-.011 3.04-.28 7.18-1.748 3.802-1.347 9.417-4.01 14.578-9.05.026-.025.049-.052.072-.079v2.081a1.352 1.352 0 102.704 0V1.352A1.35 1.35 0 0032.937 0h-5.34a1.352 1.352 0 000 2.704h2.083c-.02.017-.039.032-.057.05-4.78 4.668-9.98 7.147-13.503 8.404-3.838 1.371-6.577 1.633-6.604 1.635a1.352 1.352 0 00.118 2.7z" fill="#4E7D96"/></svg>