<svg width="1227" height="692" fill="none" xmlns="http://www.w3.org/2000/svg"><path d="M1226.22 515.134c.48 1.812.06 3.866-1.75 4.351-.91.242-2.15 1.059-3.05 1.301-1.81.486-3.87.065-4.35-1.747-.48-1.812-.06-3.866 1.75-4.351.91-.242 2.14-1.059 3.05-1.302.9-.242 2.38-.153 2.96.179.57.331 1.14.663 1.39 1.569zm-15.58 7.082c.48 1.812.06 3.866-1.75 4.351-.91.243-2.14 1.06-3.05 1.302-1.81.485-3.86.064-4.35-1.747-.48-1.812-.06-3.866 1.75-4.351.91-.243 2.15-1.059 3.05-1.302.33-.574 1.81-.485 2.96.178.57.332 1.15.664 1.39 1.569zm-16.48 7.326c1.39 1.569.39 3.291-1.18 4.682-.9.243-2.14 1.059-3.05 1.302-1.81.485-3.86.064-4.34-1.748-.49-1.811-.07-3.866 1.75-4.351.9-.242 2.14-1.059 3.04-1.301.91-.243 2.39-.154 2.96.178.58.332 1.15.663.82 1.238zm-15.58 7.082c.49 1.812.06 3.866-1.75 4.351-.9.242-2.14 1.059-3.05 1.302-1.81.485-3.86.064-4.34-1.748-.49-1.812-.07-3.866 1.75-4.351.9-.242 2.14-1.059 3.04-1.301.91-.243 2.39-.154 2.96.178 1.15.663 1.72.995 1.39 1.569zm-15.57 7.083c1.05 2.143.06 3.865-1.51 5.256-.91.243-2.15 1.059-3.05 1.302-1.81.485-3.87.064-4.35-1.747-.48-1.812-.06-3.866 1.75-4.351.33-.574 1.57-1.391 2.48-1.634.9-.242 2.38-.153 2.95.179 1.15.663 1.73.995 1.73.995zm-15.91 7.656c.48 1.812.06 3.866-1.75 4.351-.91.243-2.15 1.059-3.05 1.302-1.81.485-3.87.064-4.35-1.748-.48-1.811-.06-3.865 1.75-4.35.91-.243 2.14-1.06 3.05-1.302.91-.243 2.39-.153 2.96.178 1.15.664 1.72.995 1.39 1.569zm-15.58 7.083c1.06 2.143.06 3.866-1.51 5.257-.9.242-2.14 1.059-3.05 1.301-1.81.485-3.86.064-4.34-1.747-.49-1.812-.06-3.866 1.75-4.351.9-.243 2.14-1.059 3.05-1.302.9-.242 2.38-.153 2.95.179.34-.575.58.331 1.15.663zm-15.91 7.657c.49 1.811.07 3.865-1.75 4.35-.9.243-2.14 1.06-3.04 1.302-1.82.485-3.87.064-4.35-1.747-.49-1.812-.06-3.866 1.75-4.351.9-.243 2.14-1.059 3.05-1.302.9-.242 2.38-.153 2.95.178.58.332 1.15.664 1.39 1.57zm-15.57 7.082c.48 1.812.06 3.866-1.75 4.351-.91.243-2.15 1.059-3.05 1.302-1.81.485-3.87.064-4.35-1.748-.48-1.811-.06-3.866 1.75-4.351.91-.242 2.14-1.059 3.05-1.301.91-.243 2.38-.154 2.96.178.57.332 1.15.663 1.39 1.569zm-16.15 6.751c.48 1.812.06 3.866-1.75 4.351-.91.242-2.15 1.059-3.05 1.302-1.81.485-3.87.064-4.35-1.748-.48-1.812-.06-3.866 1.75-4.351.91-.242 2.14-1.059 3.05-1.301.91-.243 2.38-.154 2.96.178.57.332 1.15.663 1.39 1.569zm-15.58 7.083c.49 1.811.06 3.865-1.75 4.35-.9.243-2.14 1.06-3.05 1.302-1.81.485-3.86.064-4.34-1.747-.49-1.812-.07-3.866 1.75-4.351.9-.243 2.14-1.059 3.04-1.302.91-.242 2.39-.153 2.96.178.58.332 1.15.664 1.39 1.57zm-16.15 6.75c.49 1.812.06 3.866-1.75 4.351-.9.243-2.14 1.059-3.05 1.302-1.81.485-3.86.064-4.34-1.748-.49-1.811-.07-3.865 1.75-4.35.9-.243 2.14-1.06 3.04-1.302.91-.243 2.39-.153 2.96.178.58.332 1.15.664 1.39 1.569zm-15.82 6.177c.49 1.812.07 3.866-1.75 4.351-.9.242-2.14 1.059-3.04 1.302-1.82.485-3.87.064-4.35-1.748-.49-1.811-.06-3.866 1.75-4.351.9-.242 2.14-1.059 3.05-1.301.9-.243 2.38-.154 2.95.178.58.332.82 1.238 1.39 1.569zm-16.15 6.751c.49 1.812-.51 3.534-2.32 4.019-.9.243-2.14 1.059-3.05 1.302-1.81.485-3.86.064-4.35-1.748-.48-1.811-.06-3.865 1.75-4.35.91-.243 2.15-1.06 3.05-1.302.91-.243 2.39-.153 2.96.178 1.15.664 1.72.995 1.96 1.901zm-16.39 5.845c.49 1.812.06 3.866-1.75 4.351-.9.242-2.14 1.059-3.046 1.302-1.811.485-3.864.064-4.348-1.748-.483-1.812-.061-3.866 1.75-4.351.906-.242 2.143-1.059 3.049-1.301.905-.243 2.385-.154 2.955.178.58.332 1.15.663 1.39 1.569zm-15.815 6.177c.483 1.811-.513 3.534-1.75 4.351-.906.242-2.143 1.059-3.049 1.301-1.811.485-3.532-.51-4.348-1.747-.483-1.812.513-3.534 1.75-4.351.906-.242 2.143-1.059 3.049-1.302.906-.242 2.385-.153 2.959.179 0 0 .815 1.237 1.389 1.569zm-16.392 5.845c.484 1.812-.512 3.534-1.75 4.351-.905.242-2.143 1.059-3.048 1.301-1.812.485-3.533-.51-4.348-1.747-.484-1.812.512-3.534 1.75-4.351.905-.242 2.143-1.059 3.048-1.302.906-.242 1.812-.485 2.959.179.574.331.816 1.237 1.389 1.569zm-16.391 5.845c.483 1.812-.513 3.534-2.324 4.019-.906.243-2.143 1.059-3.049 1.302-1.811.485-3.532-.51-4.016-2.322-.483-1.812.513-3.534 2.324-4.019.906-.243 2.143-1.059 3.049-1.302.905-.242 1.811-.485 2.958.179-.331.574.816 1.237 1.058 2.143zm-16.966 5.513c.484 1.812-.512 3.534-2.323 4.019-.906.243-2.143 1.06-3.623.97-1.811.485-3.532-.51-4.016-2.321-.483-1.812.513-3.534 2.324-4.019.906-.243 2.143-1.06 3.049-1.302.905-.243 1.811-.485 2.959.178.815 1.238 1.389 1.569 1.63 2.475zm-16.059 5.271c.483 1.812-.513 3.534-2.324 4.019-.905.243-2.143 1.059-3.622.97-1.812.485-3.533-.51-4.016-2.321-.484-1.812.512-3.535 2.323-4.02.906-.242 2.144-1.059 3.623-.969.906-.243 1.811-.486 2.959.178-.332.574.815 1.237 1.057 2.143zm-16.634 4.939c.484 1.812-.512 3.535-2.323 4.02-.906.242-2.143 1.059-3.623.97-1.811.485-3.532-.51-4.016-2.322-.483-1.812.513-3.534 2.324-4.019l3.623-.97c.905-.243 1.811-.485 2.958.178.242.906.816 1.238 1.057 2.143zm-16.633 4.94c.484 1.811-.512 3.534-2.323 4.019l-3.623.97c-1.811.485-3.532-.51-4.016-2.322-.483-1.812.513-3.534 2.324-4.019l3.622-.97c.906-.243 1.812-.485 2.959.178-.332.574.815 1.238 1.057 2.144zm-17.207 4.607c.484 1.812-.512 3.534-2.323 4.019l-3.623.97c-1.811.485-3.532-.51-4.016-2.321-.483-1.812.512-3.534 2.324-4.019l3.622-.971c.906-.242 1.812-.485 2.959.179.574.331.815 1.237 1.057 2.143zm-16.301 4.365c.483 1.812-.513 3.534-2.324 4.019-.905.243-2.385.154-3.622.97-1.812.485-3.533-.51-4.016-2.321-.484-1.812.512-3.534 2.323-4.019l3.623-.97c.905-.243 1.479.089 2.627.752.332-.574 1.147.663 1.389 1.569zm-16.875 4.034c.483 1.811-.513 3.534-2.324 4.019-.906.242-2.385.153-3.622.97-1.812.485-3.533-.51-4.016-2.322-.484-1.812.512-3.534 2.323-4.019.906-.243 2.385-.153 3.623-.97.905-.243 1.479.089 2.627.752.331-.574 1.147.664 1.389 1.57zm-17.449 3.701c.483 1.812-.512 3.534-2.324 4.019-.905.243-2.385.154-3.29.396-1.812.485-3.533-.51-4.016-2.321-.484-1.812.512-3.535 2.323-4.02.906-.242 2.385-.153 3.291-.395.906-.243 1.479.089 2.053.42 1.479.09 1.721.995 1.963 1.901zm-16.543 3.46c.483 1.811-.513 3.534-2.897 3.687-.906.243-2.386.153-3.291.396-1.811.485-3.532-.51-3.684-2.896-.484-1.812.512-3.534 2.897-3.687.906-.243 2.385-.154 3.291-.396.574.331 1.479.089 2.053.42.574.332 1.389 1.57 1.631 2.476zm-17.117 3.127c.483 1.812-.844 4.108-2.897 3.688-.906.242-2.385.153-3.291.395-1.811.485-4.106-.841-3.684-2.895-.483-1.812.844-4.109 2.897-3.688.906-.242 2.385-.153 3.291-.396.906-.242 1.479.089 2.053.421 1.147.663 1.389 1.569 1.631 2.475zm-17.117 3.128c.484 1.811-1.418 3.776-2.897 3.687-.906.243-2.385.153-3.291.396-1.811.485-3.774-1.416-3.684-2.896-.483-1.812 1.418-3.777 2.898-3.687.905-.243 2.384-.154 3.29-.396.906-.243 1.479.089 2.053.421.574.331 1.389 1.569 1.631 2.475zm-17.358 2.221c.483 1.812-1.418 3.777-2.898 3.688-.905.242-2.385.153-3.29.396-1.812.485-3.775-1.416-3.684-2.896-.484-1.812 1.418-3.777 2.897-3.688.906-.242 2.385-.153 3.291-.395.573.331 1.479.089 2.053.42 1.147.664 1.389 1.57 1.631 2.475zm-16.785 2.554c.483 1.811-1.418 3.776-2.898 3.687-.905.243-2.385.154-3.29.396-1.812.485-3.774-1.416-3.684-2.896-.484-1.811 1.418-3.776 2.897-3.687.906-.243 2.385-.154 3.291-.396.905-.243 1.479.089 2.053.421.573.331 1.389 1.569 1.631 2.475zm-17.359 2.221c.483 1.812-1.418 3.777-2.897 3.688-.906.242-2.385.153-3.291.396-1.811.485-3.774-1.416-3.684-2.896-.483-1.812 1.418-3.777 2.897-3.688.906-.242 2.385-.153 3.291-.395.906-.243 1.479.089 2.053.42.906-.242 1.721.995 1.631 2.475zm-17.6 1.316c.483 1.812-1.418 3.777-2.898 3.688-.905.242-2.385.153-3.29.396-1.812.485-3.774-1.416-3.684-2.896-.484-1.812 1.418-3.777 2.897-3.688.906-.242 2.385-.153 3.291-.395.905-.243 1.479.089 2.053.42 1.479.089 1.721.995 1.631 2.475zm-16.695 1.074c.483 1.811-1.418 3.776-3.471 3.356-.906.242-2.385.153-3.291.395-1.811.485-3.774-1.415-3.352-3.47-.483-1.811 1.418-3.776 3.471-3.355.906-.243 2.385-.154 3.291-.396.906-.243 1.479.089 2.053.421.242.905 1.057 2.143 1.299 3.049zm-17.842.41c.483 1.811-1.418 3.776-3.471 3.356-.906.242-2.385.153-3.291.395-1.811.485-3.774-1.415-3.352-3.47-.483-1.811 1.418-3.776 3.471-3.355.906-.243 2.385-.154 3.291-.396.905-.243 1.479.089 2.053.421.815 1.237 1.631 2.475 1.299 3.049zm-17.269.741c-.09 1.48-1.418 3.777-3.471 3.356-1.479-.089-2.385.154-3.864.064-1.479-.089-3.774-1.415-3.352-3.469.09-1.48 1.418-3.777 3.471-3.356.906-.243 2.385-.154 3.291-.396.573.331 1.479.089 2.053.421 1.147.663 1.963 1.9 1.872 3.38zm-16.936.168c-.422 2.054-1.992 3.445-3.471 3.356-1.479-.089-2.385.153-3.864.064-2.053-.421-3.442-1.99-3.352-3.47.422-2.054 1.991-3.445 3.471-3.356 1.479.089 2.385-.153 3.532.51.574.332 1.479.089 2.053.421.906-.242 1.721.995 1.631 2.475zm-17.178-.738c-.422 2.054-1.992 3.445-3.471 3.356-1.48-.09-2.385.153-3.533-.51-2.053-.421-3.442-1.99-3.352-3.47.423-2.055 1.992-3.445 3.471-3.356 1.48.089 2.385-.154 3.533.51.573.331 1.479.089 1.479.089.815 1.237 1.631 2.475 1.873 3.381zm-17.752-1.07c-.422 2.054-1.992 3.445-3.471 3.356-1.48-.09-2.385.153-3.533-.51-2.053-.421-3.442-1.99-3.352-3.47.423-2.055 1.992-3.445 3.471-3.356 1.48.089 2.385-.153 3.533.51.573.332 1.479.089 1.479.089 1.721.995 1.631 2.475 1.873 3.381zm-17.178-.738c-.423 2.054-1.992 3.445-4.045 3.024-1.479-.089-2.053-.421-3.532-.51-2.053-.421-3.443-1.99-3.021-4.044.423-2.055 1.992-3.445 4.045-3.025 1.479.09 2.053.421 3.532.51l1.148.664c1.147.663 1.963 1.901 1.873 3.381zm-17.089-2.219c-.422 2.054-1.991 3.445-4.044 3.024-1.48-.089-2.053-.42-3.533-.51-2.053-.42-3.442-1.99-3.02-4.044.423-2.054 1.992-3.445 4.045-3.024 1.479.089 2.053.421 3.532.51l1.148.663c1.147.664 1.963 1.901 1.872 3.381zm-17.088-2.218c-.422 2.054-1.991 3.445-4.044 3.024-1.48-.089-2.053-.421-3.533-.51-2.053-.421-3.442-1.99-3.02-4.044.422-2.054 1.992-3.445 4.045-3.024 1.479.089 2.053.421 3.532.51l1.148.663c1.147.663 1.963 1.901 1.872 3.381zm-17.661-2.55c-.422 2.054-1.992 3.445-4.045 3.024-1.479-.089-2.053-.421-3.532-.51-2.053-.421-3.442-1.99-3.02-4.044.422-2.054 1.991-3.445 4.044-3.024 1.48.089 2.053.421 3.533.51l1.147.663c2.053.421 2.537 2.233 1.873 3.381zm-16.756-2.792c-.423 2.054-2.566 3.113-4.045 3.024-1.479-.089-2.053-.421-3.532-.51-2.053-.421-3.111-2.564-3.02-4.044.422-2.055 2.565-3.114 4.044-3.025 1.48.09 2.053.421 3.533.51l1.147.664c1.479.089 2.295 1.326 1.873 3.381zm-16.998-3.699c-.422 2.054-2.566 3.114-4.619 2.693-1.479-.089-2.053-.421-3.2-1.084-2.053-.421-3.11-2.564-2.688-4.619.422-2.054 2.565-3.113 4.286-2.118 1.148.663 2.053.421 3.201 1.084l1.147.663c1.479.09 2.295 1.327 1.873 3.381zm-16.666-4.272c-.422 2.054-2.566 3.113-4.287 2.118-1.147-.663-2.053-.421-3.2-1.084-2.053-.421-3.11-2.564-2.114-4.287.422-2.054 2.565-3.113 4.286-2.118 1.147.663 2.053.421 3.2 1.084l.574.332c1.147.663 1.963 1.901 1.541 3.955zM220.834 518.411c1.147.664 1.389 1.569 2.536 2.233 1.389 1.569 1.873 3.381.303 4.771-1.569 1.391-3.38 1.876-4.769.307-1.148-.663-1.39-1.569-2.537-2.232-1.389-1.57-1.873-3.381-.303-4.772 1.237-.817 3.049-1.302 4.196-.638l.574.331zm240.349 144.314c-.422 2.054-2.565 3.113-4.286 2.118-1.148-.663-2.053-.421-3.201-1.084-2.053-.421-3.11-2.564-2.114-4.287.422-2.054 2.565-3.113 4.286-2.118 1.148.663 2.053.421 3.201 1.084l.573.332c1.721.995 2.205 2.806 1.541 3.955zM233.184 530.148c1.148.663 1.39 1.569 2.537 2.232 1.389 1.57 1.873 3.381.303 4.772-1.569 1.391-3.381 1.876-4.77.307-1.147-.664-1.389-1.569-2.536-2.233-1.389-1.569-1.873-3.381-.303-4.771 1.237-.817 3.048-1.302 4.196-.639l.573.332zm211.665 127.73c-.422 2.054-2.565 3.113-4.286 2.118-1.148-.663-2.053-.421-3.201-1.084-2.053-.421-3.11-2.564-2.114-4.287.422-2.054 2.565-3.113 4.286-2.118 1.148.663 2.053.421 3.201 1.084l.573.332c1.148.663 1.631 2.475 1.541 3.955zM246.441 541.642c1.147.663 1.389 1.569 2.536 2.233 1.39 1.569 1.873 3.38.304 4.771-1.57 1.391-3.381 1.876-4.77.307-1.148-.664-1.39-1.569-2.537-2.233-1.389-1.569-1.873-3.38-.303-4.771.664-1.149 3.049-1.302 4.77-.307zm181.832 110.484c-.422 2.054-2.565 3.113-4.286 2.118-1.147-.663-2.053-.421-3.201-1.084-1.721-.995-3.11-2.564-2.114-4.287.996-1.722 2.565-3.113 4.286-2.118 1.148.663 2.054.421 3.201 1.084l.574.332c1.721.995 2.204 2.806 1.54 3.955zm-168.244-99.564c1.148.663 1.389 1.569 2.537 2.232 1.721.995 1.872 3.381.303 4.772-.996 1.723-3.381 1.876-4.77.307-1.147-.664-1.389-1.569-2.537-2.233-1.721-.995-1.872-3.381-.303-4.771.664-1.149 2.475-1.634 4.77-.307-.574-.332-.574-.332 0 0zm152.001 93.237c-.996 1.722-3.14 2.782-4.287 2.118-1.147-.663-1.721-.995-3.2-1.084-1.721-.995-2.205-2.807-2.115-4.287.996-1.722 3.139-2.781 4.287-2.118 1.147.663 1.721.995 3.2 1.084l.574.332c1.721.995 2.204 2.807 1.541 3.955zM273.044 563.15c1.147.664 1.721.995 2.536 2.233 1.721.995 1.873 3.381.877 5.103-.996 1.723-3.381 1.876-5.102.881-1.147-.663-1.721-.995-2.536-2.233-1.721-.995-1.873-3.38-.877-5.103 1.569-1.391 3.381-1.876 5.102-.881zm123.315 76.654c-.995 1.722-2.807 2.207-4.86 1.787-1.147-.664-1.721-.995-3.2-1.084-1.721-.995-2.205-2.807-1.783-4.861.996-1.723 2.807-2.208 4.86-1.787 1.148.663 1.722.995 3.201 1.084l.574.332c1.147.663 1.631 2.475 1.208 4.529zm-109.395-66.308c1.147.663 1.721.995 2.537 2.233 1.721.995 1.872 3.38.876 5.103-.995 1.722-3.38 1.876-5.101.881-1.148-.664-1.722-.995-2.537-2.233-1.721-.995-1.873-3.381-.877-5.103 1.57-1.391 3.381-1.876 5.102-.881zm93.483 59.407c-.995 1.723-2.807 2.208-4.86 1.787l-2.868-1.658c-1.721-.995-2.205-2.807-1.783-4.861.996-1.723 2.808-2.208 4.861-1.787l2.868 1.658c1.721.995 2.205 2.807 1.782 4.861zm-79.231-49.635l2.869 1.658c1.721.995 1.872 3.381.877 5.103-.996 1.723-3.381 1.876-5.102.881l-2.869-1.658c-1.721-.995-1.872-3.381-.877-5.104 1.57-1.39 3.381-1.875 5.102-.88zm63.41 41.254c-.996 1.723-2.807 2.208-4.528 1.213l-2.869-1.658c-1.721-.995-2.204-2.807-1.209-4.53.996-1.722 2.807-2.207 4.529-1.212l2.868 1.658c1.721.995 1.873 3.381 1.209 4.529zm-49.158-31.483l2.869 1.659c1.721.995 1.873 3.38 1.209 4.529-.996 1.722-3.381 1.876-4.529 1.212l-2.868-1.658c-1.721-.995-1.873-3.381-1.209-4.529.996-1.723 2.807-2.208 4.528-1.213zm33.91 23.434c-.996 1.723-2.807 2.208-4.528 1.213l-2.869-1.659c-1.721-.995-2.204-2.806-1.209-4.529.996-1.722 2.807-2.207 4.529-1.212l2.868 1.658c1.721.995 1.873 3.381 1.209 4.529zm-18.994-14.81l2.869 1.658c1.721.995 2.205 2.807 1.209 4.529-.996 1.723-2.807 2.208-4.528 1.213l-2.869-1.659c-1.721-.995-2.204-2.806-1.209-4.529.664-1.148 2.807-2.207 4.528-1.212z" fill="url(#paint0_linear_11:3576)" fill-opacity=".2"/><path d="M20.348 192.604l.967 3.623c.483 1.812-.513 3.534-2.324 4.019-1.811.485-3.532-.51-4.016-2.321-.241-.906-.151-2.386-.967-3.624-.483-1.811.513-3.534 2.324-4.019.905-.242 1.48.089 2.627.753.332-.574 1.147.663 1.389 1.569zm4.02 16.879l.966 3.623c.484 1.812-.512 3.535-2.323 4.02-1.811.485-3.532-.51-4.016-2.322l-.967-3.623c-.483-1.812.512-3.535 2.324-4.02.905-.242 1.81-.485 2.958.179 0 0 .816 1.237 1.057 2.143zm4.351 16.305c.242.906 1.057 2.143.967 3.623.484 1.812-.512 3.534-2.323 4.019-1.812.486-3.533-.509-4.016-2.321-.242-.906-1.058-2.143-.967-3.623-.484-1.812.512-3.535 2.323-4.02.906-.242 1.811-.485 2.959.179.573.331.815 1.237 1.057 2.143zm5.831 16.394c.242.906 1.057 2.143 1.299 3.049.483 1.812-.512 3.534-2.324 4.019-1.81.485-3.532-.51-4.015-2.321-.242-.906-1.058-2.143-1.3-3.049-.483-1.812.513-3.534 2.324-4.019.906-.243 1.811-.486 2.959.178-.332.574.815 1.237 1.057 2.143zm5.257 16.063c.242.905 1.057 2.143 1.3 3.049.483 1.811.06 3.866-1.75 4.351-1.812.485-3.865.064-4.349-1.748-.241-.906-1.057-2.143-1.298-3.049-.484-1.812.512-3.534 1.75-4.351.905-.242 2.384-.153 2.958.178.574.332 1.148.664 1.39 1.57zm6.405 16.725c.242.906 1.057 2.144 1.299 3.05.483 1.811.061 3.865-1.75 4.35-1.811.485-3.864.065-4.348-1.747-.241-.906-1.057-2.143-1.299-3.049-.483-1.812-.061-3.866 1.75-4.351.906-.243 2.385-.153 2.959.178.332-.574 1.147.664 1.389 1.569zm6.163 15.82c.242.906 1.057 2.144 1.299 3.05.483 1.811.061 3.865-1.75 4.35-1.811.485-3.864.065-4.348-1.747-.242-.906-1.057-2.143-1.299-3.049-.483-1.812-.061-3.866 1.75-4.351.906-.243 2.385-.153 2.959.178.573.332 1.147.664 1.389 1.569zm7.068 15.578c.242.906 1.058 2.143 1.3 3.049.483 1.812.06 3.866-1.75 4.351-1.812.485-3.865.064-4.348-1.748-.242-.906-1.058-2.143-1.3-3.049-.483-1.811-.06-3.866 1.75-4.351.906-.242 2.386-.153 2.96.179.573.331 1.147.663 1.388 1.569zm7.069 15.577c.242.906 1.057 2.144 1.299 3.05.483 1.811.061 3.865-1.75 4.35-1.811.485-3.864.064-4.348-1.747-.242-.906-1.057-2.143-1.299-3.049-.483-1.812-.061-3.866 1.75-4.351.906-.243 2.385-.154 2.959.178.573.332 1.147.663 1.389 1.569zm7.642 15.909c.242.906 1.057 2.144 1.3 3.05.483 1.811.06 3.865-1.177 4.682-1.811.485-3.864.064-4.68-1.173-.242-.906-1.057-2.144-1.299-3.049-.483-1.812-.061-3.866 1.176-4.683 1.238-.817 2.385-.153 2.959.178.906-.242 1.48.09 1.721.995zm7.974 15.335c.242.906 1.057 2.144 1.3 3.05.483 1.811.06 3.865-1.177 4.682-1.811.485-3.864.064-4.68-1.173-.242-.906-1.057-2.144-1.299-3.049-.483-1.812-.061-3.866 1.176-4.683 1.238-.817 2.386-.153 2.96.178.905-.242 1.478.09 1.72.995zm8.306 14.761c.816 1.238 1.058 2.144 1.3 3.049.815 1.238.06 3.866-1.177 4.683-1.237.816-3.864.064-4.68-1.173-.241-.906-1.057-2.144-1.872-3.381-.816-1.238-.062-3.866 1.176-4.683 1.237-.816 2.717-.727 3.864-.064.574.332.816 1.238 1.39 1.569zm8.88 15.093c.816 1.237 1.057 2.143 1.873 3.38 1.389 1.57.061 3.866-1.176 4.683-1.57 1.391-3.865.064-4.68-1.173-.242-.906-1.057-2.144-1.873-3.381-.815-1.238-.061-3.866 1.176-4.683 1.238-.816 2.717-.727 3.865-.064-.332.574.242.906.815 1.238zm8.88 15.092c.815 1.238 1.057 2.143 2.204 2.807 1.39 1.569.636 4.197-1.176 4.682-1.569 1.391-3.864.064-4.679-1.173-.242-.906-1.058-2.143-2.205-2.807-1.389-1.569-.061-3.866 1.176-4.682 1.238-.817 2.717-.728 3.864-.064 0 0 .242.905.816 1.237zm9.212 14.518c.815 1.238 1.057 2.144 2.204 2.807 1.389 1.569.062 3.866-1.176 4.683-1.569 1.39-3.864.064-4.68-1.174-.241-.906-1.389-1.569-2.204-2.806-1.389-1.57-.635-4.198 1.176-4.683 1.237-.817 2.717-.727 3.864-.064-.332.574.242.906.816 1.237z" fill="url(#paint1_linear_11:3576)" fill-opacity=".2"/><path d="M7.372 7.369c.612-1.177.33-2.071.354-3.554.024-1.482-.846-2.682-2.61-3.6 0 0-.894.284-1.482-.022C2.152.17.646 1.63.317 3.701.293 5.183.575 6.077.55 7.56c-.024 1.483 1.434 2.988 3.504 3.317 1.481.022 2.987-1.437 3.317-3.508z" fill="url(#paint2_linear_11:3576)" fill-opacity=".2"/><path d="M7.98 24.877c.023-1.483-.259-2.377-.235-3.86.024-1.482-.846-2.682-1.434-2.988-.588-.305-1.482-.023-2.07-.328-1.482-.023-2.987 1.437-3.317 3.508-.024 1.482.258 2.376.234 3.859-.024 1.482 1.434 2.988 3.504 3.316 1.482.023 2.987-1.436 3.317-3.507z" fill="url(#paint3_linear_11:3576)" fill-opacity=".2"/><path d="M8.587 42.384c.023-1.482-.259-2.376-.235-3.859.024-1.482-.846-2.682-1.434-2.988-.588-.305-1.482-.023-2.07-.328-1.481-.023-2.987 1.436-3.317 3.507-.024 1.483.258 2.377.234 3.86-.33 2.07 1.434 2.988 3.504 3.316 2.07.329 2.988-1.437 3.318-3.508z" fill="url(#paint4_linear_11:3576)" fill-opacity=".2"/><path d="M9.5 59.304c.024-1.483-.258-2.377-.235-3.86-.282-.894-1.152-2.093-1.434-2.987-.588-.306-1.481-.023-2.07-.329-2.07-.328-2.987 1.437-3.317 3.508-.024 1.482-.048 2.965.234 3.859-.33 2.071 1.434 2.988 3.504 3.317 2.07.328 2.988-1.437 3.318-3.508z" fill="url(#paint5_linear_11:3576)" fill-opacity=".2"/><path d="M10.107 76.812c.024-1.483-.258-2.377-.234-3.86.024-1.482-1.152-2.093-1.434-2.987-.588-.306-1.482-.023-2.07-.33-2.07-.328-2.988 1.438-3.318 3.509-.023 1.482-.047 2.965.235 3.859-.33 2.07 1.434 2.988 3.504 3.316 2.07.329 2.987-1.436 3.317-3.507z" fill="url(#paint6_linear_11:3576)" fill-opacity=".2"/><path d="M10.714 94.32c.024-1.483-.258-2.377-.234-3.86.024-1.482-.846-2.682-1.434-2.988-.588-.305-1.482-.023-2.07-.328-2.07-.329-3.293 2.025-3.317 3.507-.024 1.483-.048 2.966.234 3.86-.33 2.07 1.434 2.988 3.504 3.316 2.07.329 2.987-1.436 3.317-3.507z" fill="url(#paint7_linear_11:3576)" fill-opacity=".2"/><path d="M11.627 111.239c.024-1.483-.258-2.377-.234-3.859-.282-.894-1.152-2.094-1.434-2.988-.588-.306-1.482-.023-2.07-.329-2.07-.328-3.293 2.025-3.317 3.508-.024 1.482-.048 2.965.234 3.859-.33 2.071 2.022 3.294 3.504 3.317 2.07.328 3.293-2.026 3.317-3.508z" fill="url(#paint8_linear_11:3576)" fill-opacity=".2"/><path d="M12.54 128.158c-.281-.894-.563-1.788-.54-3.27.024-1.483-.258-2.377-1.128-3.577-.588-.306-1.176-.611-2.07-.328-2.07-.329-3.293 2.025-3.317 3.507v.002c-.024 1.482-.048 2.964.234 3.858-.33 2.071 2.022 3.293 3.504 3.316 2.07.329 3.294-2.025 3.317-3.508z" fill="url(#paint9_linear_11:3576)" fill-opacity=".2"/><path d="M14.042 145.383c-.282-.894-.564-1.788-.54-3.27-.283-.894-1.152-2.094-1.435-2.988-.588-.306-1.175-.612-2.07-.329-2.07-.328-3.88 1.72-3.317 3.508.282.894.258 2.377.54 3.271-.33 2.071 1.717 3.882 3.504 3.316 2.07.329 3.882-1.719 3.318-3.508z" fill="url(#paint10_linear_11:3576)" fill-opacity=".2"/><path d="M15.543 162.608c-.282-.894-.564-1.788-.54-3.27-.282-.894-1.152-2.094-1.434-2.988-.588-.306-1.176-.612-2.07-.329-2.07-.328-3.882 1.72-3.318 3.508.282.894.259 2.377.54 3.271-.33 2.071 1.717 3.882 3.504 3.316 2.07.329 3.882-1.719 3.318-3.508z" fill="url(#paint11_linear_11:3576)" fill-opacity=".2"/><path d="M17.044 179.834c-.588-.306-.564-1.789-.54-3.271-.282-.894-1.152-2.094-1.434-2.988-.588-.306-1.176-.612-2.07-.329-1.482-.023-3.294 2.025-2.73 3.814-.33 2.071-.047 2.965.235 3.859-.024 1.482 2.022 3.294 3.81 2.728 1.481.023 3.293-2.025 2.729-3.813z" fill="url(#paint12_linear_11:3576)" fill-opacity=".2"/><defs><linearGradient id="paint0_linear_11:3576" x1="-18" y1="-12.5" x2="1238.5" y2="541.5" gradientUnits="userSpaceOnUse"><stop stop-color="#fff"/><stop offset=".505" stop-color="#fff" stop-opacity=".49"/><stop offset="1" stop-color="#fff"/></linearGradient><linearGradient id="paint1_linear_11:3576" x1="-18" y1="-12.5" x2="1238.5" y2="541.5" gradientUnits="userSpaceOnUse"><stop stop-color="#fff"/><stop offset=".505" stop-color="#fff" stop-opacity=".49"/><stop offset="1" stop-color="#fff"/></linearGradient><linearGradient id="paint2_linear_11:3576" x1="-18" y1="-12.5" x2="1238.5" y2="541.5" gradientUnits="userSpaceOnUse"><stop stop-color="#fff"/><stop offset=".505" stop-color="#fff" stop-opacity=".49"/><stop offset="1" stop-color="#fff"/></linearGradient><linearGradient id="paint3_linear_11:3576" x1="-18" y1="-12.5" x2="1238.5" y2="541.5" gradientUnits="userSpaceOnUse"><stop stop-color="#fff"/><stop offset=".505" stop-color="#fff" stop-opacity=".49"/><stop offset="1" stop-color="#fff"/></linearGradient><linearGradient id="paint4_linear_11:3576" x1="-18" y1="-12.5" x2="1238.5" y2="541.5" gradientUnits="userSpaceOnUse"><stop stop-color="#fff"/><stop offset=".505" stop-color="#fff" stop-opacity=".49"/><stop offset="1" stop-color="#fff"/></linearGradient><linearGradient id="paint5_linear_11:3576" x1="-18" y1="-12.5" x2="1238.5" y2="541.5" gradientUnits="userSpaceOnUse"><stop stop-color="#fff"/><stop offset=".505" stop-color="#fff" stop-opacity=".49"/><stop offset="1" stop-color="#fff"/></linearGradient><linearGradient id="paint6_linear_11:3576" x1="-18" y1="-12.5" x2="1238.5" y2="541.5" gradientUnits="userSpaceOnUse"><stop stop-color="#fff"/><stop offset=".505" stop-color="#fff" stop-opacity=".49"/><stop offset="1" stop-color="#fff"/></linearGradient><linearGradient id="paint7_linear_11:3576" x1="-18" y1="-12.5" x2="1238.5" y2="541.5" gradientUnits="userSpaceOnUse"><stop stop-color="#fff"/><stop offset=".505" stop-color="#fff" stop-opacity=".49"/><stop offset="1" stop-color="#fff"/></linearGradient><linearGradient id="paint8_linear_11:3576" x1="-18" y1="-12.5" x2="1238.5" y2="541.5" gradientUnits="userSpaceOnUse"><stop stop-color="#fff"/><stop offset=".505" stop-color="#fff" stop-opacity=".49"/><stop offset="1" stop-color="#fff"/></linearGradient><linearGradient id="paint9_linear_11:3576" x1="-18" y1="-12.5" x2="1238.5" y2="541.5" gradientUnits="userSpaceOnUse"><stop stop-color="#fff"/><stop offset=".505" stop-color="#fff" stop-opacity=".49"/><stop offset="1" stop-color="#fff"/></linearGradient><linearGradient id="paint10_linear_11:3576" x1="-18" y1="-12.5" x2="1238.5" y2="541.5" gradientUnits="userSpaceOnUse"><stop stop-color="#fff"/><stop offset=".505" stop-color="#fff" stop-opacity=".49"/><stop offset="1" stop-color="#fff"/></linearGradient><linearGradient id="paint11_linear_11:3576" x1="-18" y1="-12.5" x2="1238.5" y2="541.5" gradientUnits="userSpaceOnUse"><stop stop-color="#fff"/><stop offset=".505" stop-color="#fff" stop-opacity=".49"/><stop offset="1" stop-color="#fff"/></linearGradient><linearGradient id="paint12_linear_11:3576" x1="-18" y1="-12.5" x2="1238.5" y2="541.5" gradientUnits="userSpaceOnUse"><stop stop-color="#fff"/><stop offset=".505" stop-color="#fff" stop-opacity=".49"/><stop offset="1" stop-color="#fff"/></linearGradient></defs></svg>