<svg width="45" height="45" fill="none" xmlns="http://www.w3.org/2000/svg"><g clip-path="url(#clip0_11:3479)" fill="#4E7D96"><path d="M36.131 13.396l2.695-2.695-2.652-2.652-2.882 2.882a18.632 18.632 0 00-8.917-3.337V3.75h3.75V0h-11.25v3.75h3.75v3.844a18.632 18.632 0 00-8.917 3.337L8.826 8.05 6.174 10.7l2.695 2.694a18.75 18.75 0 1027.262 0zM22.5 41.25a15 15 0 1115-15 15.017 15.017 0 01-15 15z"/><path d="M22.5 15v11.25H11.25A11.25 11.25 0 1022.5 15z"/></g><defs><clipPath id="clip0_11:3479"><path fill="#fff" d="M0 0h45v45H0z"/></clipPath></defs></svg>