<svg width="1051" height="816" fill="none" xmlns="http://www.w3.org/2000/svg"><g opacity=".5" clip-path="url(#clip0_347:23)" fill="#4E7D96"><path d="M4 769.5l4-3c.1-.1.3-.1.4.1.1.2.1.3-.1.4l-4 2.9c-.1.1-.3.1-.4-.1 0 0 0-.2.1-.3zm13.9-9.8l4.2-2.7c.2-.1.4-.1.5.1.1.2.1.4-.1.5l-4.2 2.7c-.2.1-.4.1-.5-.1-.1-.1 0-.4.1-.5zm14.4-9l4.3-2.5c.2-.1.5-.1.6.1.1.2.1.5-.1.6l-4.3 2.5c-.2.1-.4 0-.5-.1-.3-.2-.2-.5 0-.6zm14.8-8.3l4.4-2.3c.2-.1.5 0 .6.2.1.2 0 .5-.2.6l-4.4 2.3c-.2.1-.5 0-.6-.2-.1-.3-.1-.5.2-.6zm15.1-7.8l4.5-2.1c.3-.1.6 0 .7.2.1.3 0 .6-.2.7l-4.5 2.1c-.3.1-.6 0-.7-.2-.2-.2-.1-.5.2-.7zm15.4-7l4.6-2c.3-.1.6 0 .8.3.1.3 0 .6-.3.8l-4.6 1.9c-.3.1-.6 0-.7-.3-.2-.3-.1-.6.2-.7zm15.7-6.6l4.7-1.8c.3-.1.7 0 .8.4.1.4 0 .7-.4.8l-4.7 1.8c-.3.1-.7 0-.8-.4-.1-.3.1-.6.4-.8zm15.9-5.9l4.7-1.6c.4-.1.8.1.9.4.1.4-.1.8-.4.9l-4.7 1.6c-.4.1-.7-.1-.9-.4-.1-.4 0-.8.4-.9zm16.1-5.4l4.8-1.5c.4-.1.8.1.9.5.1.4-.1.8-.5.9l-4.8 1.5c-.4.1-.8-.1-.9-.5-.1-.4.1-.8.5-.9zm16.2-4.9l4.8-1.3c.4-.1.9.1 1 .6.1.4-.1.9-.6 1l-4.8 1.3c-.4.1-.9-.1-1-.6 0-.5.2-.9.6-1zm16.4-4.5l4.8-1.2c.5-.1.9.2 1 .6.1.5-.2.9-.6 1l-4.8 1.2c-.5.1-.9-.2-1-.6-.1-.4.2-.8.6-1zm16.6-3.9l4.9-1.1c.5-.1 1 .2 1.1.7.1.5-.2 1-.7 1.1l-4.9 1c-.5.1-1-.2-1.1-.7-.1-.4.2-.9.7-1zm16.6-3.5l4.9-.9c.5-.1 1 .2 1.1.8.1.5-.2 1-.8 1.1l-4.9.9c-.5.1-1-.2-1.1-.8-.1-.5.3-1 .8-1.1zm16.7-3l4.9-.8c.6-.1 1.1.3 1.2.8.1.6-.3 1.1-.8 1.2l-4.9.8c-.5.1-1.1-.3-1.2-.8-.1-.6.2-1.1.8-1.2zm16.8-2.6l4.9-.7c.6-.1 1.1.3 1.2.9.1.6-.3 1.1-.9 1.2l-4.9.7c-.6.1-1.1-.3-1.2-.9-.1-.6.3-1.2.9-1.2zm16.8-2.2l5-.6c.6-.1 1.1.4 1.2 1 .1.6-.4 1.1-1 1.2l-4.9.6c-.6.1-1.1-.4-1.2-.9-.1-.7.3-1.3.9-1.3zm16.9-1.9l5-.5c.6-.1 1.2.4 1.2 1 .1.6-.4 1.2-1 1.2l-5 .4c-.6.1-1.1-.4-1.2-1-.1-.5.4-1 1-1.1zm16.9-1.4l5-.4c.6 0 1.2.4 1.2 1.1 0 .7-.4 1.2-1.1 1.2l-5 .3c-.6 0-1.2-.4-1.2-1.1 0-.5.5-1 1.1-1.1zm16.9-1.1l5-.2c.7 0 1.2.5 1.2 1.1 0 .7-.5 1.2-1.1 1.2l-5 .2c-.6 0-1.2-.5-1.2-1.1 0-.6.5-1.1 1.1-1.2zm17-.7l5-.1c.7 0 1.2.5 1.3 1.2 0 .7-.5 1.2-1.2 1.3l-5 .1c-.7 0-1.2-.5-1.2-1.2-.1-.7.4-1.3 1.1-1.3zm17-.4l5-.1c.7 0 1.3.5 1.3 1.2s-.5 1.3-1.2 1.3h-5c-.7 0-1.2-.5-1.2-1.2-.1-.6.4-1.2 1.1-1.2zm17 0h5c.7 0 1.3.6 1.3 1.3 0 .7-.6 1.3-1.3 1.3l-5-.1c-.7 0-1.3-.6-1.3-1.3 0-.7.6-1.2 1.3-1.2zm16.9.2l5 .1c.7 0 1.3.6 1.3 1.4 0 .7-.6 1.3-1.4 1.3l-5-.2c-.7 0-1.3-.6-1.3-1.3 0-.7.7-1.3 1.4-1.3zm17 .6l5 .2c.7 0 1.3.7 1.3 1.4s-.7 1.3-1.4 1.3l-5-.2c-.7 0-1.3-.7-1.3-1.4.1-.8.7-1.4 1.4-1.3zm17 .8l5 .3c.8 0 1.3.7 1.3 1.5s-.7 1.3-1.5 1.3l-5-.3c-.8 0-1.3-.7-1.3-1.5.1-.8.7-1.3 1.5-1.3zm16.9 1.1l5 .4c.8.1 1.4.7 1.3 1.5-.1.8-.7 1.4-1.5 1.3l-5-.4c-.8-.1-1.4-.7-1.3-1.5.1-.8.8-1.3 1.5-1.3zm17 1.4l5 .5c.8.1 1.4.8 1.3 1.6-.1.8-.8 1.4-1.6 1.3l-5-.5c-.8-.1-1.4-.8-1.3-1.6.1-.8.8-1.3 1.6-1.3zm16.8 1.7l5 .5c.8.1 1.4.8 1.3 1.6-.1.8-.8 1.4-1.6 1.3l-4.9-.6c-.8-.1-1.4-.8-1.3-1.6 0-.7.7-1.3 1.5-1.2zm16.9 1.9l5 .6c.8.1 1.4.9 1.3 1.7-.1.8-.9 1.4-1.7 1.3l-4.9-.6c-.8-.1-1.4-.9-1.3-1.7 0-.8.8-1.4 1.6-1.3zm16.9 2.2l4.9.7c.8.1 1.4.9 1.3 1.7-.1.8-.9 1.4-1.7 1.3l-4.9-.7c-.8-.1-1.4-.9-1.3-1.7 0-.9.8-1.5 1.7-1.3zm16.8 2.2l4.9.6c.9.1 1.5.9 1.4 1.8-.1.9-.9 1.5-1.8 1.4l-5-.6c-.9-.1-1.5-.9-1.4-1.8.2-.9 1-1.5 1.9-1.4zm16.8 1.8l5 .5c.9.1 1.5.9 1.5 1.8-.1.9-.9 1.5-1.8 1.5l-5-.5c-.9-.1-1.5-.9-1.4-1.8 0-.9.8-1.6 1.7-1.5zm16.8 1.5l5 .4c.9.1 1.6.9 1.5 1.8-.1.9-.9 1.6-1.8 1.5l-5-.4c-.9-.1-1.6-.9-1.5-1.8.1-.9.9-1.5 1.8-1.5zm16.9 1.2l5 .3c.9 0 1.6.8 1.6 1.8 0 .9-.8 1.6-1.8 1.6l-5-.3c-.9-.1-1.6-.8-1.6-1.8.1-1 .9-1.7 1.8-1.6zm16.9.7l5 .1c.9 0 1.7.8 1.6 1.7 0 .9-.8 1.7-1.7 1.6l-5-.2c-.9 0-1.7-.8-1.6-1.7 0-.8.8-1.5 1.7-1.5zm17 .3h5c.9 0 1.7.8 1.7 1.7 0 .9-.8 1.7-1.7 1.7h-5c-.9 0-1.7-.8-1.7-1.7-.1-.9.7-1.7 1.7-1.7zm16.9 0l5-.1c1 0 1.7.7 1.8 1.7 0 1-.7 1.7-1.7 1.8l-5 .1c-.9 0-1.7-.7-1.8-1.7 0-1 .7-1.8 1.7-1.8zm16.9-.5l5-.2c1 0 1.8.7 1.8 1.6 0 1-.7 1.8-1.6 1.8l-5 .2c-1 0-1.8-.7-1.8-1.6 0-.9.6-1.8 1.6-1.8zm16.9-1l5-.4c1-.1 1.8.6 1.9 1.6.1 1-.6 1.8-1.6 1.9l-5 .4c-1 .1-1.8-.7-1.9-1.6-.1-1 .6-1.8 1.6-1.9zm16.8-1.4l4.9-.5c1-.1 1.8.6 1.9 1.6.1 1-.6 1.8-1.6 1.9l-5 .5c-1 .1-1.8-.6-1.9-1.6 0-1 .7-1.8 1.7-1.9zm16.8-1.9l4.9-.6c1-.1 1.9.6 2 1.5.1 1-.6 1.9-1.5 2l-5 .6c-1 .1-1.8-.6-2-1.5 0-1 .7-1.9 1.6-2zm16.8-2.4l4.9-.8c1-.2 1.9.5 2 1.5.2 1-.5 1.9-1.5 2l-4.9.8c-1 .2-1.9-.5-2-1.5-.1-1 .5-1.8 1.5-2zm16.6-2.8l4.9-.9c1-.2 1.9.5 2.1 1.4.2 1-.4 1.9-1.4 2.1l-4.9.9c-1 .2-1.9-.5-2.1-1.4-.2-1 .5-1.9 1.4-2.1zm16.6-3.4l4.9-1.1c1-.2 1.9.4 2.1 1.4.2 1-.4 1.9-1.4 2.1l-4.9 1.1c-1 .2-1.9-.4-2.1-1.4-.2-.9.4-1.9 1.4-2.1zm16.5-3.8l4.8-1.2c1-.2 2 .3 2.2 1.3.2 1-.3 2-1.3 2.2l-4.9 1.2c-1 .2-2-.3-2.2-1.3-.2-1 .4-2 1.4-2.2zm16.3-4.4l4.8-1.4c1-.3 2 .3 2.3 1.2.3 1-.3 2-1.2 2.3l-4.8 1.4c-1 .3-2-.3-2.3-1.2-.3-1 .2-2 1.2-2.3zm16.2-4.9l4.7-1.5c1-.3 2 .2 2.3 1.2.3 1-.2 2-1.2 2.3l-4.8 1.5c-1 .3-2-.2-2.3-1.2-.3-1 .3-2 1.3-2.3zm16-5.5l4.7-1.7c1-.3 2 .1 2.4 1.1.3 1-.1 2-1.1 2.4l-4.7 1.7c-1 .3-2-.1-2.4-1.1-.4-1 .1-2 1.1-2.4zm15.8-6l4.6-1.9c.9-.4 2 .1 2.4 1 .4.9-.1 2-1 2.4l-4.6 1.9c-.9.4-2-.1-2.4-1-.5-.9 0-2 1-2.4zm15.6-6.5l4.5-2c.9-.4 2 0 2.5.9.4.9 0 2-.9 2.5l-4.6 2c-.9.4-2 0-2.5-1-.4-.8 0-1.9 1-2.4zm15.3-7l4.5-2.2c.9-.5 2.1-.1 2.5.9.5.9.1 2.1-.9 2.5l-4.5 2.2c-.9.5-2.1.1-2.5-.9-.4-.9 0-2 .9-2.5zm15.1-7.6l4.4-2.3c.9-.5 2.1-.1 2.6.8s.1 2.1-.8 2.6l-4.4 2.3c-.9.5-2.1.1-2.5-.8-.6-.9-.2-2.1.7-2.6zm14.8-8.1l4.3-2.5c.9-.5 2.1-.2 2.6.7.5.9.2 2.1-.7 2.6l-4.3 2.5c-.9.5-2.1.2-2.6-.7-.5-.9-.2-2.1.7-2.6zm14.6-8.6l4.2-2.6c.9-.6 2.1-.3 2.6.6.6.9.3 2.1-.6 2.6l-4.2 2.7c-.9.6-2.1.3-2.6-.6-.6-1-.3-2.2.6-2.7zm14.2-9.2l4.1-2.8c.9-.6 2.1-.4 2.7.5.6.9.4 2.1-.5 2.7l-4.1 2.8c-.9.6-2.1.4-2.7-.5-.7-.9-.4-2.1.5-2.7zm13.8-9.7l4-2.9c.9-.6 2.1-.4 2.7.4.6.9.4 2.1-.4 2.7l-4 3c-.9.6-2.1.4-2.7-.4-.7-.9-.5-2.1.4-2.8zm13.5-10.1l3.9-3.1c.8-.7 2.1-.5 2.7.3.6.8.5 2.1-.3 2.7l-3.9 3.1c-.8.7-2.1.5-2.7-.3-.6-.8-.6-2.1.3-2.7zm13.1-10.7l3.8-3.2c.8-.7 2.1-.6 2.8.2.7.8.6 2.1-.2 2.8l-3.8 3.3c-.8.7-2.1.6-2.8-.2-.8-1-.7-2.2.2-2.9zm12.6-11.2l3.6-3.4c.8-.7 2-.7 2.8.1.7.8.7 2-.1 2.8l-3.7 3.4c-.8.7-2 .7-2.8-.1-.6-.8-.6-2 .2-2.8zm12.3-11.6l3.5-3.5c.8-.8 2-.8 2.8 0 .8.8.8 2 0 2.8l-3.5 3.5c-.8.8-2 .8-2.8 0-.8-.8-.8-2 0-2.8zm11.7-12.1l3.4-3.6c.7-.8 2-.9 2.8-.1.8.7.9 2 .1 2.8l-3.4 3.7c-.7.8-2 .9-2.8.1-.8-.8-.8-2.1-.1-2.9zm11.3-12.6l3.2-3.8c.7-.8 2-.9 2.8-.2.8.7.9 2 .2 2.8l-3.3 3.8c-.7.8-2 .9-2.8.2-.7-.6-.8-1.9-.1-2.8zm10.8-13l3.1-3.9c.7-.9 1.9-1 2.8-.3.9.7 1 1.9.3 2.8l-3.1 3.9c-.7.9-1.9 1-2.8.3-.8-.6-1-1.9-.3-2.8zm10.2-13.4l2.9-4c.6-.9 1.9-1.1 2.8-.5.9.6 1.1 1.9.5 2.8l-2.9 4.1c-.6.9-1.9 1.1-2.8.5-.9-.7-1.1-2-.5-2.9zm9.7-13.8l2.7-4.2c.6-.9 1.8-1.2 2.7-.6.9.6 1.2 1.8.6 2.7l-2.7 4.2c-.6.9-1.8 1.2-2.7.6-.9-.6-1.2-1.8-.6-2.7zm9-14.3l2.5-4.3c.5-.9 1.7-1.2 2.7-.7.9.5 1.2 1.7.7 2.7l-2.5 4.3c-.5.9-1.7 1.2-2.7.7-1-.5-1.3-1.7-.7-2.7zm8.2-14.7l2.3-4.4c.5-1 1.7-1.3 2.6-.8 1 .5 1.3 1.7.8 2.6l-2.3 4.5c-.5 1-1.7 1.3-2.6.8-.9-.5-1.3-1.7-.8-2.7zm7.5-15.1l2-4.5c.4-1 1.6-1.4 2.6-1 1 .4 1.4 1.6 1 2.6l-2.1 4.6c-.4 1-1.6 1.4-2.6 1-.9-.5-1.3-1.7-.9-2.7zm6.6-15.5l1.7-4.6c.4-1 1.5-1.5 2.5-1.1 1 .4 1.5 1.5 1.1 2.5l-1.8 4.7c-.4 1-1.5 1.5-2.5 1.1-.9-.4-1.4-1.6-1-2.6zm5.5-15.9l1.4-4.7c.3-1 1.4-1.6 2.4-1.3 1 .3 1.6 1.4 1.3 2.4l-1.4 4.8c-.3 1-1.4 1.6-2.4 1.3-1-.4-1.6-1.4-1.3-2.5zm4.1-16.2l.9-4.8v-.1c.2-1 1.2-1.7 2.2-1.5 1 .2 1.7 1.2 1.5 2.2l-.9 5c-.2 1-1.2 1.7-2.2 1.5-1-.2-1.7-1.2-1.5-2.3zm2.3-16.6l.2-4.9v-.1c0-1 .9-1.9 1.9-1.8 1 0 1.9.9 1.8 1.9l-.2 5.1c0 1-.9 1.9-2 1.8-1 0-1.9-.9-1.8-2h.1zm-.6-16.6l-.6-4.9v-.1c-.1-1 .6-2 1.6-2.1 1-.1 2 .6 2.1 1.6l.6 5c.1 1-.6 2-1.6 2.1-1 .2-1.9-.5-2.1-1.6zm-2.6-16.5l-1.1-4.8v-.1c-.2-1 .4-2 1.4-2.2 1-.2 2 .4 2.2 1.4l1.1 4.9c.2 1-.4 2-1.4 2.2-1 .2-2-.4-2.2-1.4zm-4.4-16.3l-1.6-4.7c-.3-1 .2-2 1.2-2.3 1-.3 2 .2 2.3 1.2l1.6 4.8c.3 1-.2 2-1.2 2.4-.9.2-1.9-.3-2.3-1.4zm-5.8-15.7l-2-4.5c-.4-.9 0-2 1-2.4.9-.4 2 0 2.4 1l2 4.6c.4.9 0 2-1 2.4-.9.3-2-.1-2.4-1.1zm-7.2-15.2l-2.3-4.4c-.5-.9-.1-2 .8-2.5s2-.1 2.5.8l2.4 4.4c.5.9.1 2-.8 2.5-1 .5-2.1.1-2.6-.8zm-8.3-14.7l-2.6-4.2c-.5-.9-.3-2 .6-2.5.9-.5 2-.3 2.5.6l2.7 4.3c.5.9.3 2-.6 2.5-.9.5-2 .2-2.6-.7zm-9.2-14l-2.9-4c-.6-.8-.4-1.9.4-2.5.8-.6 1.9-.4 2.5.4l2.9 4.1c.6.8.4 1.9-.4 2.5-.8.6-1.9.3-2.5-.5zm-10.2-13.5l-3.1-3.8c-.6-.8-.5-1.9.3-2.5.8-.6 1.9-.5 2.5.2l3.2 3.9c.6.8.5 1.9-.2 2.5-.9.6-2 .5-2.7-.3zm-11-12.8l-3.4-3.6c-.7-.7-.6-1.9.1-2.5.7-.7 1.9-.6 2.5.1l3.4 3.7c.7.7.6 1.9-.1 2.5-.6.6-1.8.6-2.5-.2zm-11.7-12.1l-3.6-3.4c-.7-.7-.7-1.8-.1-2.5s1.8-.7 2.5-.1l3.6 3.5c.7.7.7 1.8.1 2.5s-1.7.7-2.5 0zm-90.3-41.4l-4.8-1.4c-.9-.3-1.4-1.2-1.1-2.1.3-.9 1.2-1.4 2.1-1.1l4.8 1.4c.9.3 1.4 1.2 1.2 2.1-.4.9-1.3 1.4-2.2 1.1zm-16.3-4.7l-4.8-1.4c-.9-.3-1.4-1.2-1.2-2.1.2-.9 1.2-1.4 2.1-1.2l4.8 1.4c.9.3 1.4 1.2 1.2 2.1-.2.9-1.2 1.4-2.1 1.2zm-16.3-4.6l-4.8-1.3c-.9-.2-1.4-1.2-1.2-2.1.2-.9 1.2-1.4 2.1-1.2l4.8 1.3c.9.2 1.4 1.2 1.2 2.1-.2.9-1.2 1.5-2.1 1.2zm-16.4-4.3l-4.8-1.2c-.9-.2-1.4-1.1-1.2-2 .2-.9 1.1-1.4 2-1.2l4.8 1.2c.9.2 1.4 1.1 1.2 2-.1.9-1.1 1.4-2 1.2zm-16.4-4.2l-4.8-1.2c-.9-.2-1.4-1.1-1.2-2 .2-.9 1.1-1.4 1.9-1.2l4.9 1.2c.9.2 1.4 1.1 1.2 2-.2.9-1.1 1.4-2 1.2zm-16.5-3.9l-4.9-1.1c-.9-.2-1.4-1-1.2-1.9.2-.9 1-1.4 1.9-1.2l4.9 1.1c.9.2 1.4 1 1.2 1.9-.2.9-1 1.4-1.9 1.2zm-16.5-3.6l-4.9-1c-.8-.2-1.4-1-1.2-1.8.2-.8 1-1.4 1.8-1.2l4.9 1c.8.2 1.4 1 1.2 1.8-.2.8-.9 1.3-1.8 1.2zm-16.6-3.4l-4.9-1c-.8-.2-1.4-1-1.2-1.8.2-.8 1-1.4 1.8-1.2l4.9.9c.8.2 1.4 1 1.2 1.8-.1.9-.9 1.4-1.8 1.3zm-16.6-3.2l-4.9-.9c-.8-.1-1.3-.9-1.2-1.7.1-.8.9-1.3 1.7-1.2l4.9.9c.8.1 1.4.9 1.2 1.7-.1.8-.9 1.4-1.7 1.2zm-16.7-2.8l-4.9-.8c-.8-.1-1.3-.9-1.2-1.7.1-.8.9-1.3 1.7-1.2l4.9.8c.8.1 1.3.9 1.2 1.7-.1.8-.9 1.3-1.7 1.2zm-16.8-2.6l-4.9-.7c-.8-.1-1.3-.8-1.2-1.6.1-.8.8-1.3 1.6-1.2l5 .7c.8.1 1.3.8 1.2 1.6-.2.8-.9 1.3-1.7 1.2zm-16.8-2.2l-4.9-.6c-.8-.1-1.3-.8-1.2-1.5.1-.8.8-1.3 1.5-1.2l5 .6c.8.1 1.3.8 1.2 1.5-.1.8-.8 1.3-1.6 1.2zm-16.8-1.8l-5-.5c-.7-.1-1.3-.7-1.2-1.5.1-.7.7-1.3 1.5-1.2l5 .4c.7.1 1.3.7 1.2 1.5-.1.8-.7 1.4-1.5 1.3zm-16.9-1.4l-5-.3c-.7 0-1.3-.7-1.2-1.4 0-.7.7-1.3 1.4-1.2l5 .3c.7 0 1.3.7 1.2 1.4 0 .7-.6 1.2-1.4 1.2zm-152.5-4.7l-5-.3c-.6 0-1-.5-1-1.1 0-.6.5-1 1.1-1l5 .2c.6 0 1 .5 1 1.1 0 .6-.5 1.1-1.1 1.1zm-16.9-1l-5-.3c-.5 0-.9-.5-.9-1s.5-.9 1-.9l5 .3c.5 0 1 .5.9 1 0 .5-.5.9-1 .9zm-17-1.1l-5-.3c-.5 0-.9-.5-.8-1 0-.5.5-.9 1-.8l5 .3c.5 0 .9.5.9 1-.1.5-.5.9-1.1.8zm-16.9-1.2l-5-.4c-.5 0-.8-.4-.8-.9s.4-.8.9-.8l5 .3c.5 0 .8.4.8.9 0 .6-.4 1-.9.9zm-16.9-1.3l-5-.4c-.4 0-.8-.4-.7-.9 0-.4.4-.8.9-.7l5 .4c.4 0 .8.4.7.9-.1.4-.5.8-.9.7zm-16.9-1.4l-5-.4c-.4 0-.7-.4-.7-.8s.4-.7.8-.7l5 .4c.4 0 .7.4.7.8s-.4.7-.8.7zm-16.9-1.5l-5-.5c-.4 0-.6-.4-.6-.7 0-.4.4-.6.7-.6l5 .5c.4 0 .7.4.6.8-.1.4-.3.5-.7.5zm-16.9-1.7l-5-.5c-.3 0-.6-.3-.6-.7 0-.3.3-.6.7-.6l5 .5c.4 0 .6.3.6.7 0 .3-.3.6-.7.6zm-16.9-1.9l-5-.6c-.3 0-.5-.3-.5-.6s.3-.5.6-.5l5 .5c.3 0 .6.3.5.6 0 .4-.2.6-.6.6zm-16.8-2l-5-.6c-.3 0-.5-.3-.4-.6 0-.3.3-.5.6-.4l5 .6c.3 0 .5.3.5.6-.2.2-.4.4-.7.4zm-16.8-2.3l-4.9-.7c-.3 0-.4-.3-.4-.5 0-.3.3-.4.5-.4l4.9.7c.3 0 .4.3.4.5 0 .3-.3.5-.5.4zm-16.8-2.4l-4.9-.8c-.2 0-.4-.2-.3-.5 0-.2.2-.4.5-.3l4.9.7c.2 0 .4.2.4.5-.2.2-.4.4-.6.4zm-16.8-2.8l-4.9-.9c-.2 0-.3-.2-.3-.4s.2-.3.4-.3l4.9.8c.2 0 .3.2.3.4s-.2.4-.4.4zm-16.7-3.1l-4.9-1c-.2 0-.3-.2-.2-.3 0-.2.2-.3.3-.2l4.9 1c.2 0 .3.2.2.4.1 0-.1.1-.3.1zm-16.5-3.6l-4.8-1.2c-.1 0-.2-.1-.2-.3 0-.1.1-.2.3-.2l4.9 1.1c.1 0 .2.2.2.3-.2.2-.3.3-.4.3zm-47.3-18.4l-1.7-1.8 1.7 1.8z"/></g><g opacity=".5" clip-path="url(#clip1_347:23)" fill="#4E7D96"><path d="M-3.3 40.3l2.6 1.6c.7.4.9 1.3.5 2s-1.3.9-2 .5l-2.5-1.6c-.7-.4-.9-1.3-.4-2 .2-.7 1.1-.9 1.8-.5zM9.6 48l2.6 1.5c.8.5 1.1 1.5.6 2.3-.5.8-1.5 1.1-2.3.6l-2.6-1.6c-.8-.5-1-1.5-.5-2.2.4-.8 1.4-1 2.2-.6zm13 7.5l2.6 1.5c.9.5 1.2 1.6.7 2.4-.5.8-1.6 1.2-2.4.7l-2.6-1.5c-.9-.6-1.2-1.6-.7-2.5.5-.8 1.5-1.1 2.4-.6zm13.1 7.3l2.6 1.4c.9.5 1.2 1.6.8 2.5-.4.9-1.6 1.2-2.5.8L33.9 66c-.9-.5-1.2-1.6-.7-2.5.5-.9 1.6-1.2 2.5-.7zM49 69.9l2.7 1.4c.9.5 1.3 1.7.8 2.6-.5.9-1.7 1.3-2.6.8l-2.7-1.4c-.9-.5-1.3-1.7-.8-2.6.4-.9 1.6-1.3 2.6-.8zm13.3 6.9l2.7 1.3c1 .5 1.4 1.7.9 2.6-.5 1-1.7 1.4-2.6.9l-2.7-1.4c-1-.5-1.4-1.7-.9-2.6.5-.9 1.6-1.3 2.6-.8zm13.5 6.6l2.7 1.3c1 .5 1.4 1.7.9 2.7-.5 1-1.7 1.4-2.7.9L74 87c-1-.5-1.4-1.7-.9-2.7.5-1 1.7-1.4 2.7-.9zm13.6 6.4l2.7 1.2c1 .4 1.4 1.6 1 2.6-.4 1-1.6 1.4-2.6 1l-2.8-1.2c-1-.4-1.4-1.6-1-2.6.5-1.1 1.7-1.5 2.7-1zm13.7 6l2.8 1.2c1 .4 1.4 1.5 1 2.5-.4 1-1.5 1.4-2.5 1l-2.8-1.2c-1-.4-1.5-1.5-1-2.5.4-.9 1.5-1.4 2.5-1zm13.9 5.7l2.8 1.1c1 .4 1.4 1.5 1 2.4-.4.9-1.4 1.4-2.4 1.1l-2.8-1.1c-1-.4-1.5-1.5-1.1-2.4.4-1 1.5-1.5 2.5-1.1zm14 5.4l2.8 1c.9.3 1.4 1.3 1.1 2.2-.3.9-1.3 1.4-2.2 1.1l-2.9-1c-.9-.3-1.4-1.3-1.1-2.3.3-1 1.3-1.4 2.3-1zm14.2 4.9l2.9.9c.9.3 1.3 1.2 1 2.1-.3.8-1.2 1.3-2 1.1l-2.9-.9c-.9-.3-1.4-1.2-1.1-2.1.2-.9 1.1-1.4 2.1-1.1-.1 0-.1 0 0 0zm14.3 4.4l2.9.8c.8.2 1.2 1 1 1.8-.2.8-1 1.2-1.8 1l-2.9-.8c-.8-.2-1.3-1-1.1-1.8.2-.8 1.1-1.2 1.9-1zm74 10.4l1.5-.1-1.5.1c0 .1 0 .1 0 0z"/></g><g opacity=".2" clip-path="url(#clip2_347:23)" fill="#4E7D96"><path d="M949.691 172.861C947.279 165.026 940.044 159 931 159c-9.044 0-16.279 6.026-18.691 13.861H890l8.441 77.742h65.118L972 172.861h-22.309zM931 199.377c-10.25 0-18.088-7.834-18.088-18.079 0-10.245 7.838-18.079 18.088-18.079s18.088 7.834 18.088 18.079c0 10.245-7.838 18.079-18.088 18.079z"/><path d="M928.588 177.682l13.868-8.437-12.059 12.053-1.809-3.616z"/></g><g opacity=".5" fill="#4E7D96"><path d="M171.58 159c-3.619 0-6.58-2.979-6.58-6.62V82.542c0-4.303 3.619-7.943 7.896-7.943h12.83v-3.31c.329-3.31 2.961-6.289 6.58-6.289s6.251 2.979 6.251 6.289v3.31h32.899v-3.31c0-3.31 2.632-6.289 6.251-6.289 3.29 0 6.251 2.979 6.251 6.289v3.31h14.146v3.31h-12.172v5.626c0 4.634-3.619 8.275-8.225 8.275s-8.225-3.641-8.225-8.275V77.91H200.86v5.626c0 4.634-3.619 8.275-8.225 8.275-4.935 0-8.554-3.641-8.554-8.275V77.91h-11.185c-2.303 0-4.606 1.985-4.606 4.633v69.838c0 1.655 1.316 3.31 3.29 3.31h87.84c1.645 0 3.29-1.324 3.29-3.31V82.542c0-2.648-1.974-4.633-4.606-4.633v-3.31c4.277 0 7.896 3.64 7.896 7.943v69.838c0 3.641-2.961 6.62-6.58 6.62h-87.84zm20.726-72.486a2.958 2.958 0 002.961-2.979V71.29a2.958 2.958 0 00-2.961-2.98 2.958 2.958 0 00-2.961 2.98v12.246a2.958 2.958 0 002.961 2.98zm42.44-15.225v12.246a2.958 2.958 0 002.961 2.98 2.958 2.958 0 002.961-2.98V71.29a2.958 2.958 0 00-2.961-2.98 2.958 2.958 0 00-2.961 2.98zm-56.257 80.098c-3.29 0-5.922-2.648-5.922-5.957v-44.353h85.537v44.353c0 3.309-2.632 5.957-5.922 5.957h-73.693zm-2.632-5.957c0 1.324.987 2.316 2.303 2.316h74.022c1.316 0 2.303-.992 2.303-2.316v-41.043h-78.957v41.043h.329z"/><path d="M187.042 118.951v-8.606h11.515v8.606h-11.515zm22.701 0v-8.606h11.514v8.606h-11.514zm22.7 0v-8.606h11.515v8.606h-11.515zm-45.401 11.915v-8.605h11.515v8.605h-11.515zm45.73-8.275v7.944h10.857v-7.944h-10.857zm8.554 5.958h-5.922v-3.972h5.922v3.972zm-31.583 2.317v-8.605h11.514v8.605h-11.514zm-22.701 12.247v-8.606h11.515v8.606h-11.515zm22.701 0v-8.606h11.514v8.606h-11.514zm22.7 0v-8.606h11.515v8.606h-11.515z"/></g><g opacity=".7" fill="#4E7D96"><path d="M572.472 194h-3.531c-9.631-.637-18.941-8.591-18.941-19.41 0-4.772 1.926-10.181 6.421-15.59 4.494-5.728 6.099-20.364 10.594-28 .321-.637 2.568-3.819 6.42-4.137 2.248 0 4.495 1.273 6.421 4.455l.321.318v.318s.642 3.818 2.247 9.546c1.606 5.727 4.495 13.045 8.989 19.727 2.89 4.136 4.495 9.227 4.495 14s-1.605 9.545-5.458 13.045c-4.173 3.818-9.952 5.728-17.978 5.728zm-2.568-61.41c-4.173 6.364-5.458 21-10.915 28-4.174 5.091-5.779 9.864-5.779 13.682 0 8.909 7.705 15.909 16.052 16.546h3.531c14.768-.318 19.904-7.318 19.904-15.273 0-4.136-1.284-8.591-3.852-12.409-8.989-13.046-11.557-27.682-11.878-30.227-1.605-2.228-2.89-2.864-3.532-2.864-1.605 0-3.531 2.227-3.531 2.545z"/><path d="M574.399 129.409c-.643-.318-1.285-1.273-.964-1.909 1.927-5.728 6.1-15.591 12.521-17.5.963-.318 1.605.318 1.926 1.272.321.955-.321 1.591-1.284 1.91-3.532.318-8.989 10.181-10.273 15.272 0 .637-.642.955-1.284.955h-.642z"/><path d="M578.251 123.364c-.642-.319-.963-.955-.963-1.591 0-.637.642-1.273 1.284-1.273 1.605-.318 5.458-2.545 10.273-2.545 2.247 0 4.494.318 7.384 1.59.321.319.963.637.963 1.273 0 .637 0 .955-.321 1.273-2.568 2.545-6.1 3.182-8.989 3.182-5.137-.318-9.31-1.909-9.631-1.909zm9.31-1.273c1.605 0 3.21-.318 4.494-.636-.963-.319-2.247-.319-3.21-.319-1.926 0-3.531.319-4.815.637.963 0 2.247.318 3.531.318zM607.144 187c-8.989 0-14.447-4.773-14.768-4.773-.642-.636-.642-1.591 0-2.227.642-.637 1.606-.637 2.248 0 0 0 .963.954 3.21 1.909 2.247.954 5.458 2.227 9.31 2.227 4.494 0 9.631-1.273 15.731-5.409C630.9 173.318 633.79 166 633.79 159c0-10.182-6.421-19.409-12.521-20.046h-1.605c-3.852 0-7.384 1.591-12.52 1.591-1.926 0-4.174-.318-6.421-.954-1.284-.637-2.568-.955-3.531-.955-5.458 0-9.952 5.091-12.199 9.227-.321.637-1.285.955-2.248.637-.642-.318-.963-1.273-.642-2.227 2.569-4.773 7.384-11.137 14.768-11.137 1.284 0 2.889.318 4.173.637 1.926.636 3.853.954 5.458.954 4.173 0 8.026-1.591 12.52-1.591h2.247c8.668 1.273 15.089 11.773 15.089 23.227 0 7.955-3.531 16.546-12.52 22.591-5.779 4.773-11.879 6.046-16.694 6.046z"/><path d="M607.144 138.318l-.321-.636s0-3.819-.321-7.955-.642-8.909-1.284-9.545c-.642-.319-.642-1.273 0-1.91.642-.636 1.605-.954 2.247-.318 1.284 1.273 1.284 2.546 1.926 4.455.321 1.909.642 4.136.642 6.363.321 4.137.321 8.273.321 8.91 0 .636-.321 1.272-.963 1.59-.321 0-.321.319-.642.319-.963-.319-1.284-.637-1.605-1.273z"/><path d="M608.107 132.591c-.321-.318-.642-.955-.642-1.273.321-5.727 2.568-11.773 10.915-13.363.321 0 .963 0 1.284.318.321.318.642.636.642 1.272-.642 11.455-10.915 13.364-10.915 13.364h-.321c-.321 0-.642 0-.963-.318zm2.889-3.5l1.927-.955c1.605-1.272 3.531-3.181 4.173-6.363-4.173 1.591-5.458 3.818-6.1 7.318z"/></g><path d="M593.961 213.074c0-.463.462-1.157.923-1.157h.922c.462 0 1.153.463 1.153.926s-.461 1.157-.922 1.157h-1.153c-.461 0-.923-.463-.923-.926zm-2.998.926h-1.153c-.461 0-.923-.463-.923-1.157 0-.463.462-.926 1.154-.926h.922c.461 0 .923.463.923 1.157 0 .463-.462.926-.923.926zm8.303-1.157c0-.463.23-1.158.922-1.158.231 0 .692 0 .923-.231.461 0 1.153.231 1.153.926 0 .463-.231 1.157-.923 1.157-.461 0-.692 0-1.153.232-.461 0-.922-.463-.922-.926zm-13.607.694c-.462 0-.692 0-1.153-.231-.462 0-.923-.695-.923-1.158 0-.463.692-.926 1.153-.926.231 0 .692 0 .923.232.461 0 .922.694.922 1.157 0 .695-.23.926-.922.926zm18.68-1.389c-.23-.463.231-1.157.923-1.157.231 0 .692-.232.922-.232.462-.231 1.154.232 1.154.695.23.463-.231 1.157-.692 1.157-.231 0-.692.232-.923.232h-.23c-.692 0-.923-.232-1.154-.695zm-23.985.463c-.23 0-.692-.231-.922-.231-.462-.232-.923-.695-.692-1.158.23-.463.692-.926 1.153-.694.231 0 .692.231.922.231.462.232.923.695.692 1.158 0 .463-.461.926-1.153.694.231.232 0 .232 0 0zm29.059-1.62c-.23-.463.231-1.158.692-1.389.231 0 .692-.232.923-.232.461-.231 1.153.232 1.383.695.231.463-.23 1.157-.691 1.389-.231 0-.692.231-.923.231h-.231c-.691 0-.922-.231-1.153-.694zm-34.133.463c-.23 0-.691-.232-.922-.232-.461-.231-.923-.694-.692-1.389.231-.463.692-.926 1.384-.694.23 0 .692.231.922.231.462.232.923.695.692 1.389-.23.463-.461.695-.922.695h-.462zm39.207-2.084c-.231-.463 0-1.157.692-1.389.231-.231.692-.231.922-.462.462-.232 1.154 0 1.384.694.231.463 0 1.157-.461 1.389-.231.231-.692.231-.923.463h-.461c-.692 0-1.153-.463-1.153-.695zm-44.28.232c-.231-.232-.692-.232-.923-.463-.461-.232-.692-.926-.461-1.389.231-.463.922-.694 1.384-.463.23.232.692.232.922.463.461.231.692.926.692 1.389-.231.463-.461.694-.922.694-.462 0-.462-.231-.692-.231zm48.893-2.315c-.231-.463 0-1.157.461-1.389.231-.231.692-.231.922-.463.462-.231 1.154 0 1.384.463.231.463 0 1.158-.461 1.389-.231.232-.692.232-.923.463h-.461c-.23.231-.692 0-.922-.463zm-53.737.232c-.23-.232-.691-.232-.922-.463-.461-.232-.692-.926-.461-1.389.23-.463.922-.695 1.383-.463.231.231.692.231.923.463.461.231.692.926.461 1.389-.23.463-.461.463-.922.463h-.462zm58.349-2.547c-.23-.463-.23-1.157.461-1.389.231-.231.692-.463.923-.463.461-.231 1.153-.231 1.384.232.23.463.23 1.157-.231 1.389-.231.231-.692.463-.922.463-.231 0-.462.231-.462.231-.461 0-.922-.231-1.153-.463zm-62.961 0c-.231-.231-.692-.463-.923-.463-.461-.231-.691-.926-.23-1.389.23-.463.922-.694 1.384-.231.23.231.691.463.922.463.461.231.692.926.231 1.389-.231.231-.462.463-.923.463 0-.232-.23-.232-.461-.232zm67.343-2.778c-.231-.463-.231-1.157.231-1.388.23-.232.461-.463.922-.695.461-.231 1.153-.231 1.384.232.231.463.231 1.157-.231 1.388-.23.232-.461.463-.922.695-.231.231-.461.231-.692.231 0 0-.461-.231-.692-.463zm-71.725-.231c-.231-.232-.461-.463-.923-.694-.461-.463-.461-.926-.23-1.389.461-.463.922-.463 1.384-.232.23.232.461.463.922.695.461.231.461.926.231 1.388-.231.232-.461.463-.923.463 0 0-.23-.231-.461-.231zm75.876-3.009c-.461-.463-.23-1.158.231-1.389l.692-.695c.461-.463 1.153-.231 1.384 0 .461.463.23 1.158 0 1.389l-.692.695c-.231.231-.461.231-.692.231-.231.232-.692 0-.923-.231zm-80.027-.463l-.692-.695c-.461-.463-.461-1.157 0-1.389.461-.463 1.153-.463 1.384 0l.691.695c.462.463.462.926 0 1.389-.23.231-.461.463-.691.463-.231 0-.462-.232-.692-.463zm83.948-3.01c-.461-.462-.461-1.157 0-1.388l.692-.695c.461-.463 1.153-.463 1.384 0 .461.463.461 1.158 0 1.389l-.692.694c-.231.232-.461.232-.692.232-.231 0-.461 0-.692-.232zm-87.638-.462l-.692-.695c-.461-.463-.461-1.157 0-1.389.461-.463 1.153-.463 1.384 0 .23 0 .461.232.691.463.462.463.462 1.158 0 1.389-.23.232-.461.232-.691.232-.231.231-.462.231-.692 0zm91.328-3.241c-.461-.463-.461-.926-.231-1.389l.692-.695c.462-.463.923-.463 1.384-.231.461.463.461.926.231 1.389-.231.231-.462.463-.692.926-.231.231-.461.463-.692.463-.461-.232-.692-.463-.692-.463zm-94.788-.695c-.23-.231-.461-.463-.692-.926-.461-.463-.23-1.157.231-1.388.461-.463 1.153-.232 1.384.231l.692.694c.461.463.23 1.158-.231 1.389-.231.232-.461.232-.692.232-.23 0-.692 0-.692-.232zm98.017-3.472c-.461-.231-.692-.926-.231-1.389.231-.231.461-.463.692-.926.231-.463.923-.694 1.384-.231.461.231.692.926.231 1.389-.231.231-.462.694-.692.926-.231.231-.462.463-.923.463-.231 0-.461-.232-.461-.232zm-101.246-.926c-.23-.231-.461-.694-.691-.926-.231-.463-.231-1.157.23-1.389.461-.231 1.153-.231 1.384.232.231.231.461.463.461.926.231.463.231 1.157-.23 1.389-.231.231-.462.231-.692.231l-.462-.463zm104.013-3.472c-.461-.232-.691-.926-.461-1.389.231-.231.231-.694.461-.926.231-.463.923-.694 1.384-.463.461.232.692.926.461 1.389-.23.232-.461.695-.461.926-.23.231-.461.463-.922.463-.231.231-.231 0-.462 0zm-106.78-.926c-.231-.231-.231-.694-.461-.926-.231-.463 0-1.157.461-1.389.461-.231 1.153 0 1.384.463.23.232.23.695.461.926.231.463 0 1.158-.461 1.389-.231 0-.231.231-.462.231-.461-.231-.691-.462-.922-.694zm109.317-3.704c-.461-.231-.692-.926-.461-1.389.231-.231.231-.694.461-.925.231-.463.923-.695 1.384-.463.461.231.692.925.461 1.388-.23.232-.23.695-.461.926-.231.463-.461.695-.922.695-.231 0-.462 0-.462-.232zm-111.854-1.157c-.231-.232-.231-.695-.461-.926-.231-.463 0-1.157.461-1.389.461-.231 1.153 0 1.384.463.23.232.23.695.461.926.231.463 0 1.157-.461 1.389h-.461c-.231.231-.692 0-.923-.463zm113.93-3.472c-.461-.232-.923-.695-.692-1.389.231-.232.231-.695.461-.926.231-.463.692-.926 1.384-.695.461.232.923.695.692 1.389-.231.232-.231.695-.461.926-.231.463-.462.695-.923.695h-.461zm-115.775-1.389c-.231-.232-.231-.695-.461-.926-.231-.463 0-1.158.692-1.389.461-.231 1.153 0 1.383.694 0 .232.231.695.231.926.231.463 0 1.158-.692 1.389h-.461c-.231 0-.692-.231-.692-.694zm117.389-3.704c-.461-.231-.922-.694-.692-1.389 0-.231.231-.694.231-.926.231-.463.692-.926 1.153-.694.461.231.923.694.692 1.157 0 .232-.231.695-.231.926-.23.463-.461.695-.922.695 0 .231 0 .231-.231.231zm-119.003-1.389c0-.231-.231-.694-.231-.926-.231-.463.231-1.157.692-1.157.461-.232 1.153.231 1.153.694 0 .232.231.695.231.926.23.463-.231 1.158-.692 1.158h-.231c-.461.231-.922-.232-.922-.695zm120.387-3.703c-.461 0-.922-.695-.922-1.158 0-.231.23-.694.23-.926 0-.463.692-.926 1.153-.926.462 0 .923.695.923 1.158 0 .463-.231.694-.231 1.157-.23.463-.461.695-1.153.695zm-121.54-1.389c0-.463 0-.695-.231-1.158 0-.463.231-1.157.922-1.157.462 0 1.154.231 1.154.926 0 .231 0 .694.23.926 0 .463-.23 1.157-.922 1.157h-.231c-.461.232-.922-.231-.922-.694zm122.232-3.704c-.461 0-.923-.463-.923-1.157v-.926c0-.463.462-.926 1.154-.926.461 0 .922.463.922 1.157v1.157c0 .232-.461.695-1.153.695zm-122.924-1.62v-1.158c0-.463.461-1.157.922-1.157s1.153.463 1.153.926v.926c0 .463-.461 1.157-.922 1.157-.692.231-1.153-.231-1.153-.694zm123.385-3.473c-.461 0-.922-.463-.922-1.157v-1.157c0-.463.461-1.158 1.153-1.158.461 0 1.153.463 1.153 1.158v1.157c-.461.694-.923 1.157-1.384 1.157zM531 151.731v-1.388c0-.463.461-.926 1.153-.926.461 0 .923.463.923 1.157v1.157c0 .463-.462 1.158-.923 1.158-.692 0-1.153-.463-1.153-1.158zm122.463-4.398v-.926c0-.463.461-1.157.923-1.157.461 0 1.153.463 1.153.926v1.157c0 .463-.462 1.158-.923 1.158-.692-.232-1.153-.695-1.153-1.158zm-121.31 0c-.692 0-.922-.463-.922-1.157v-1.157c0-.463.461-.926 1.153-.926.461 0 .922.463.922 1.157v.926c0 .694-.461 1.157-1.153 1.157zm120.618-5.092c0-.232 0-.695-.23-.926 0-.463.23-1.158.922-1.158.461 0 1.153.232 1.153.926 0 .463.231.695.231 1.158 0 .463-.231 1.157-.923 1.157h-.23c-.231-.231-.692-.694-.923-1.157zm-119.926 0c-.461 0-.922-.695-.922-1.158 0-.463.23-.694.23-1.157 0-.463.692-.926 1.153-.926.462 0 .923.694.923 1.157 0 .232-.231.695-.231.926-.23.695-.692 1.158-1.153 1.158zm119.004-5.093c0-.231-.231-.694-.231-.926-.231-.463.231-1.157.692-1.157.461-.232 1.153.231 1.384.694 0 .232.23.695.23.926.231.463-.23 1.158-.692 1.158h-.23c-.692.231-1.153-.232-1.153-.695zm-118.081 0c-.462-.231-.923-.694-.692-1.389 0-.231.23-.694.23-.926.231-.463.692-.926 1.384-.694.461.231.923.694.692 1.389 0 .231-.231.694-.231.926-.23.463-.461.694-.922.694h-.461zm116.697-4.861c0-.231-.231-.694-.231-.926-.23-.463 0-1.157.692-1.389.461-.231 1.153 0 1.384.695.231.231.231.694.231.926.23.463 0 1.157-.692 1.388h-.231c-.692 0-1.153-.231-1.153-.694zm-115.314-.231c-.461-.232-.922-.695-.692-1.389.231-.232.231-.695.462-.926.23-.463.692-.926 1.383-.695.462.232.923.695.692 1.389 0 .232-.23.695-.461.926-.231.463-.461.695-.922.695h-.462zm113.469-4.63c-.231-.232-.231-.695-.461-.926-.231-.463 0-1.157.461-1.389.461-.231 1.153 0 1.384.463.23.232.23.695.461.926.231.463 0 1.157-.461 1.389h-.462c-.461.231-.691 0-.922-.463zm-111.624-.232c-.461-.231-.692-.925-.461-1.388.231-.232.231-.695.461-.926.231-.463.923-.695 1.384-.463.461.231.692.926.461 1.389-.23.231-.23.694-.461.925-.231.463-.461.695-.922.695-.231-.232-.231-.232-.462-.232zm109.318-4.398c-.231-.231-.231-.694-.462-.926-.23-.463 0-1.157.462-1.389.461-.231 1.153 0 1.383.463.231.232.231.695.462.926.23.463 0 1.158-.462 1.389-.23 0-.23.232-.461.232-.23 0-.692-.232-.922-.695zm-107.011-.463c-.462-.231-.692-.926-.462-1.389.231-.231.462-.694.462-.925.23-.463.922-.695 1.383-.463.462.231.692.925.462 1.388-.231.232-.231.695-.462.926-.23.232-.461.463-.922.463-.231.232-.231.232-.461 0zm104.474-3.935c-.231-.231-.462-.463-.462-.926-.23-.463-.23-1.157.231-1.389.461-.231 1.153-.231 1.384.232.231.231.461.694.692.926.23.463.23 1.157-.231 1.389-.23 0-.461.231-.461.231-.692 0-.923 0-1.153-.463zm-101.707-.463c-.461-.231-.692-.926-.231-1.389.231-.231.462-.694.692-.926.231-.463.923-.694 1.384-.231.461.231.692.926.231 1.389-.231.231-.461.463-.692.926-.231.231-.461.463-.923.463-.23 0-.461 0-.461-.232zm98.709-3.704l-.692-.694c-.462-.463-.231-1.157.23-1.389.462-.463 1.153-.231 1.384.232.231.231.461.463.692.926.461.463.231 1.157-.231 1.388-.23.232-.461.232-.692.232l-.691-.695zm-95.711-.462c-.461-.463-.692-1.158-.23-1.621.23-.231.461-.463.692-.926.461-.463.922-.463 1.383-.231.462.463.462.926.231 1.389l-.692.694c-.231.232-.461.463-.922.463-.231.463-.462.232-.462.232zm92.482-3.473l-.692-.694c-.461-.463-.461-1.158 0-1.389.461-.463 1.153-.463 1.384 0l.692.694c.461.463.461 1.158 0 1.389-.231.232-.462.232-.692.232-.231.231-.692 0-.692-.232zm-89.253-.463c-.461-.463-.461-1.157 0-1.389.231-.463.461-.694.692-.925a1.111 1.111 0 011.614 0c.462.462.462 1.157 0 1.388l-.692.695c-.23.231-.461.463-.922.463-.231 0-.461-.232-.692-.232zm85.563-3.009l-.692-.694c-.461-.463-.461-.926 0-1.389.461-.463.922-.463 1.384 0 .23 0 .461.231.692.463.461.463.461 1.157 0 1.389-.231.231-.462.231-.692.231-.231.232-.462.232-.692 0zm-81.873-.694c-.231-.463-.231-1.158.231-1.621l.692-.694c.461-.463 1.153-.232 1.383.231.462.463.231 1.158-.23 1.389 0 .232-.231.463-.462.695-.23.231-.461.231-.691.231-.462 0-.692 0-.923-.231zm77.952-2.547c-.231-.231-.461-.463-.922-.694-.462-.232-.462-.926-.231-1.389.231-.463.922-.463 1.384-.231.23.231.461.462.922.694.462.463.462.926.231 1.389-.231.231-.461.463-.923.463 0 0-.23-.232-.461-.232zm-73.801-.926c-.23-.463-.23-1.157.231-1.388.231-.232.461-.463.923-.695.461-.231 1.153-.231 1.383.232.231.463.231 1.157-.23 1.388-.231.232-.462.463-.923.695-.23.231-.461.231-.692.231-.23 0-.692-.231-.692-.463zm69.65-2.083c-.231-.231-.461-.463-.923-.463-.461-.231-.692-.926-.23-1.389.23-.694.922-.694 1.383-.463.231.232.692.463.923.463.461.232.692.926.231 1.389-.231.232-.462.463-.923.463-.231.232-.461 0-.461 0zm-65.498-.926c-.231-.463-.231-1.157.23-1.389.231-.231.692-.463.923-.463.461-.231 1.153-.231 1.384.463.23.463.23 1.158-.462 1.39-.23.23-.692.462-.922.462-.231 0-.461.232-.461.232-.231-.232-.462-.232-.692-.695zm61.116-1.62c-.231-.232-.692-.232-.923-.463-.461-.232-.691-.926-.461-1.39.231-.462.923-.694 1.384-.462.231.231.692.231.922.463.462.231.692.926.462 1.389-.231.463-.462.463-.923.463h-.461zm-56.734-.926c-.231-.463 0-1.158.461-1.389.23-.231.692-.231.922-.463.462-.231 1.153 0 1.384.463.231.463 0 1.157-.461 1.389-.231.231-.692.231-.923.463h-.461c-.231 0-.692-.232-.922-.463zm51.891-1.389c-.231-.231-.692-.231-.923-.463-.461-.231-.692-.926-.692-1.389.231-.463.923-.694 1.384-.463.461.232.923.232 1.153.463.461.232.692.926.461 1.389 0 .463-.461.694-.922.694 0 0-.231-.231-.461-.231zm-47.048-.926c-.231-.463 0-1.157.461-1.389.231-.231.692-.231.923-.463.461-.231 1.153 0 1.383.695.231.463 0 1.157-.692 1.389-.23.231-.691.231-.922.462h-.461c-.231 0-.692-.231-.692-.694zm42.435-.694c-.23 0-.692-.232-.922-.232-.462-.231-.923-.694-.692-1.389.23-.463.692-.926 1.384-.694.23 0 .691.231.922.231.461.232.923.695.692 1.39-.231.462-.461.694-.923.694h-.461zm-37.592-1.158c-.231-.463.231-1.157.692-1.389.23 0 .692-.231.922-.231.692 0 1.153.231 1.384.926.231.463-.231 1.157-.692 1.389-.23 0-.692.231-.922.231h-.231c-.692 0-1.153-.463-1.153-.926zm32.518-.231c-.23 0-.691-.232-.922-.232-.461-.231-.923-.694-.692-1.157.231-.463.692-.926 1.153-.695.231 0 .692.232.923.232.461.231.922.694.692 1.157 0 .463-.462.695-.923.695h-.231zm-27.444-1.158c-.231-.463.23-1.157.692-1.157.461 0 .691-.232.922-.232.461 0 1.153.232 1.153.926 0 .463-.23 1.158-.922 1.158-.231 0-.692.231-.923.231h-.23c-.231 0-.692-.463-.692-.926zm22.371.232c-.231 0-.692 0-.923-.232-.461 0-.922-.694-.922-1.157 0-.463.691-.926 1.153-.926.461 0 .692 0 1.153.231.461 0 .922.695.922 1.158-.23.463-.692.926-1.383.926.23 0 .23 0 0 0zm-17.297-1.158c0-.463.23-1.157.922-1.157.461 0 .692 0 1.153-.231.461 0 1.153.462 1.153.925s-.461 1.158-.922 1.158c-.231 0-.692 0-.923.231h-.23c-.692 0-1.153-.463-1.153-.926zm12.223.463h-.923c-.461 0-.922-.463-.922-1.157 0-.463.461-.926 1.153-.926h1.153c.231 0 .692.694.692 1.157 0 .695-.461.926-1.153.926.23 0 .23 0 0 0zm-7.15-.926c0-.463.462-1.157.923-1.157h1.153c.461 0 1.153.463 1.153.926s-.461 1.157-.922 1.157h-.923c-.922 0-1.384-.463-1.384-.926z" fill="#4E7D96" opacity=".5"/><g clip-path="url(#clip3_347:23)"><path d="M922.516 310.95c-206.615-132.56-236.045 80.958-383.648 11.046-147.604-69.912-293.54-217.453-409.59-55.384-116.05 162.068 154.886 208.676 71.906 302.345-82.98 93.518 84.8 168.272 132.889 176.898h475.882S1129.13 443.358 922.516 310.95z" fill="#4E7D96" fill-opacity=".25"/><path d="M922.516 310.95c-68.416-43.884-117.415-49.786-157.767-40.707 60.073 52.359 122.573 130.896 87.075 212.913-62.045 143.758-273.97 140.58-381.07-13.619-107.1-154.199-265.019-123.632-233.011 11.501 12.44 52.812-5.764 75.208-32.767 83.077-1.213 1.513-2.427 3.178-3.944 4.691-82.98 93.518 84.8 168.272 132.889 176.898h476.034c0 .151 319.175-302.346 112.561-434.754z" fill="#4E7D96" fill-opacity=".1"/><path d="M589.08 565.779H182.373c-8.495 0-15.473-6.961-15.473-15.435v-270.87c0-8.474 6.978-15.435 15.473-15.435H589.08c8.495 0 15.474 6.961 15.474 15.435v271.022c0 8.474-6.979 15.283-15.474 15.283z" fill="#0F3854"/><path d="M620.027 549.134H213.32c-8.495 0-15.474-6.961-15.474-15.435V262.677c0-8.474 6.979-15.435 15.474-15.435h406.707c8.495 0 15.473 6.961 15.473 15.435v271.022c0 8.474-6.978 15.435-15.473 15.435z" fill="#fff"/><path opacity=".5" d="M624.578 553.371H208.921c-8.496 0-15.322-6.81-15.322-15.284v-279.95c0-8.474 6.826-15.283 15.322-15.283h415.657c8.495 0 15.322 6.809 15.322 15.283v279.95c-.152 8.474-6.979 15.284-15.322 15.284zm-415.657-301.74c-3.641 0-6.675 3.026-6.675 6.658v279.949c0 3.632 3.034 6.659 6.675 6.659h415.657c3.641 0 6.675-3.027 6.675-6.659V258.289c0-3.632-3.034-6.658-6.675-6.658H208.921z" fill="#2B7EA3"/><path d="M223.18 284.165c6.87 0 12.44-5.555 12.44-12.408s-5.57-12.409-12.44-12.409c-6.87 0-12.439 5.556-12.439 12.409 0 6.853 5.569 12.408 12.439 12.408z" fill="#2B7EA3"/><path d="M223.18 277.961c3.435 0 6.22-2.778 6.22-6.204 0-3.427-2.785-6.205-6.22-6.205-3.435 0-6.219 2.778-6.219 6.205 0 3.426 2.784 6.204 6.219 6.204z" fill="#fff"/><path d="M509.517 513.395c9.005-8.982 9.005-23.546 0-32.528-9.004-8.983-23.604-8.983-32.609 0-9.005 8.982-9.005 23.546 0 32.528 9.005 8.983 23.605 8.983 32.609 0z" fill="#888A98"/><path d="M511.507 502.367c2.927-12.363-4.748-24.752-17.141-27.671-12.394-2.919-24.813 4.737-27.74 17.099-2.926 12.363 4.749 24.752 17.142 27.671 12.394 2.919 24.813-4.736 27.739-17.099z" fill="#383C54"/><path opacity=".6" d="M504.864 500.802c2.06-8.703-3.343-17.424-12.067-19.479-8.725-2.055-17.467 3.334-19.527 12.037-2.06 8.703 3.342 17.424 12.067 19.479 8.724 2.055 17.467-3.334 19.527-12.037z" fill="#140F10"/><path d="M638.686 371.025c12.735 0 23.058-10.298 23.058-23.001 0-12.703-10.323-23.001-23.058-23.001s-23.058 10.298-23.058 23.001c0 12.703 10.323 23.001 23.058 23.001z" fill="#888A98"/><path d="M634.59 371.025c12.735 0 23.059-10.298 23.059-23.001 0-12.703-10.324-23.001-23.059-23.001-12.735 0-23.058 10.298-23.058 23.001 0 12.703 10.323 23.001 23.058 23.001z" fill="#383C54"/><path opacity=".6" d="M646.064 359.417c6.339-6.323 6.339-16.575 0-22.898s-16.616-6.323-22.955 0c-6.339 6.323-6.339 16.575 0 22.898s16.616 6.323 22.955 0z" fill="#140F10"/><path d="M576.641 370.571s23.513 4.994 34.132 1.362c10.468-3.631 33.071-23.304 28.672-25.876-4.551-2.573-9.709-1.967-15.17 2.724-5.462 4.691-10.013 8.474-10.013 8.474l-8.646-.908s8.798-5.902 11.832-8.777c3.034-2.875 3.793-5.75 1.062-7.566-2.731-1.816-15.018 6.507-21.39 7.869-6.371 1.362-11.529 2.27-13.046 5.901l-12.439 2.119 5.006 14.678z" fill="#FFC19A"/><path d="M584.378 353.926l-106.949 14.375s-54.005-93.367-100.273-80.655c-46.421 12.56 31.553 136.04 90.261 145.422 58.708 9.382 124.546-63.102 124.546-63.102l-7.585-16.04z" fill="#FFA285"/><path d="M616.993 377.835c15.5 0 28.065-12.534 28.065-27.995s-12.565-27.995-28.065-27.995c-15.5 0-28.064 12.534-28.064 27.995s12.564 27.995 28.064 27.995z" fill="#888A98"/><path d="M611.987 377.835c15.5 0 28.064-12.534 28.064-27.995s-12.564-27.995-28.064-27.995-28.065 12.534-28.065 27.995 12.565 27.995 28.065 27.995z" fill="#383C54"/><path opacity=".35" d="M625.871 363.74c7.701-7.682 7.701-20.138 0-27.82-7.702-7.683-20.188-7.683-27.89 0-7.701 7.682-7.701 20.138 0 27.82 7.702 7.682 20.188 7.682 27.89 0z" fill="#383C54"/><path opacity=".33" d="M421.149 340.004l-12.743 54.779c18.355 19.672 39.745 35.107 59.011 38.134 6.675 1.059 13.501 1.059 20.176.303-44.903-20.429-66.444-93.216-66.444-93.216z" fill="#140F10"/><path d="M398.394 280.685s46.42 15.435 53.398 59.924c6.826 44.489-14.867 204.288-14.867 204.288H304.947c-.152-.152-82.373-295.082 93.447-264.212z" fill="url(#paint0_linear_347:23)"/><path d="M421.604 260.861l-11.985 36.47s-23.816-1.816-34.587-12.56l19.114-32.232 27.458 8.322z" fill="#FFA285"/><path opacity=".33" d="M329.37 524.014c2.731-14.981 45.814-25.12 45.814-25.12s-40.808-9.685-55.978-40.857c-8.495-17.554-20.631-62.346-29.581-98.058-14.412 78.385 15.322 184.766 15.322 184.766l32.918-.151c-5.157-5.448-9.86-12.863-8.495-20.58z" fill="#140F10"/><path d="M454.978 480.13s12.439-4.237 17.293 0c4.703 4.237 19.115 14.981 19.115 14.981s-2.428 4.388-8.496 3.783c-6.068-.605-13.349-5.902-13.349-5.902l2.427 8.172s27.913 11.803 23.817 17.856c-4.096 6.053-26.699 6.81-35.043 2.119-8.192-4.691-16.08-16.192-16.08-16.192l-19.418-8.172 11.53-18.159 18.204 1.514z" fill="#FFC19A"/><path d="M454.978 480.13l-108.769-46.305S373.06 320.18 328.763 301.87c-44.448-18.461-58.707 126.81-18.052 170.089 40.656 43.278 133.951 32.837 133.951 32.837l10.316-24.666z" fill="#FFA285"/><path opacity=".33" d="M414.929 281.139l6.675-20.278-27.458-8.322-4.854 8.322 25.637 20.278z" fill="#140F10"/><path d="M375.183 170.975c6.524-23.153 30.037-14.225 30.037-14.225 17.446-14.073 38.38.908 51.275 13.771 5.157-4.994 12.136-8.02 19.721-8.02 15.776 0 28.519 12.711 28.519 28.449 0 15.737-12.743 28.449-28.519 28.449-6.22 0-11.833-1.968-16.536-5.297-8.04 4.54-25.637-4.691-35.497-6.961-11.075-2.572-22.907 39.496-22.907 39.496l-20.025-8.777c.152 0-12.591-43.884-6.068-66.885z" fill="url(#paint1_linear_347:23)"/><path opacity=".33" d="M375.184 170.975c6.523-23.153 30.036-14.225 30.036-14.225 17.446-14.073 38.38.908 51.275 13.771 5.157-4.994 12.136-8.02 19.721-8.02 14.108 0 25.789 10.29 28.064 23.758a28.254 28.254 0 00-22.603-11.198c-7.737 0-14.715 3.026-19.721 8.02-13.046-12.863-33.829-27.693-51.275-13.771 0 0-23.513-8.928-30.036 14.225-4.4 15.737 0 41.009 3.337 55.536l-2.579-1.06c0-.151-12.743-44.035-6.219-67.036z" fill="#140F10"/><path d="M471.361 216.977s-3.185 56.747-21.238 65.372c-18.052 8.777-56.736-28.448-56.736-28.448s-32.463-14.074-18.962-28.147c13.501-14.224 23.817-.908 23.817-.908s-3.489-41.765 14.411-40.403c17.901 1.362 26.093 18.159 38.684 24.06 12.439 5.902 20.631 0 20.024 8.474z" fill="#FFA285"/><path d="M434.043 227.57c-.607 2.119.152 4.388 1.669 4.842 1.517.454 3.337-.907 4.096-3.026.606-2.119-.152-4.388-1.669-4.842-1.517-.454-3.489.908-4.096 3.026zm25.637 7.718c-.607 2.118.152 4.388 1.669 4.842 1.517.454 3.337-.908 4.096-3.026.607-2.119-.152-4.389-1.669-4.843-1.668-.605-3.489.908-4.096 3.027z" fill="#333"/><path d="M455.736 232.412l4.096 16.797-11.529-3.48c0-1.362.607-2.421 1.972-3.027l2.579.606 2.882-10.896z" fill="#F49476"/><path d="M446.938 219.247s-12.592-9.987-20.177-2.421l-1.061-3.632s13.501-6.355 21.238 3.632l2.275-1.664-2.275 4.085zm11.377 4.994s13.956-1.967 14.108 7.718l2.882-2.27s-4.399-11.501-15.473-7.264l-.455-2.421-1.062 4.237z" fill="#402A22"/><path d="M451.792 260.256l-23.514-9.685s-1.668 14.83 4.096 16.646c9.254 2.724 19.418-6.961 19.418-6.961z" fill="#343456"/><path d="M428.127 257.23c.91-.303 1.972-.454 3.034-.454 5.309 0 9.709 4.388 9.709 9.684v.454c-2.731.908-5.613 1.211-8.344.303-3.337-1.059-4.248-5.75-4.399-9.987z" fill="#FC6B76"/><path d="M482.432 524.886c14.32-5.917 21.121-22.293 15.189-36.578-5.932-14.285-22.349-21.068-36.669-15.151-14.32 5.917-21.12 22.294-15.189 36.578 5.932 14.285 22.349 21.068 36.669 15.151z" fill="#888A98"/><path d="M477.277 524.902c14.321-5.917 21.121-22.294 15.189-36.579-5.932-14.284-22.349-21.067-36.669-15.15-14.32 5.917-21.12 22.293-15.189 36.578 5.932 14.284 22.349 21.068 36.669 15.151z" fill="#383C54"/><path opacity=".35" d="M480.476 512.931c7.701-7.682 7.701-20.138 0-27.82-7.701-7.683-20.188-7.683-27.889 0-7.702 7.682-7.702 20.138 0 27.82 7.701 7.682 20.188 7.682 27.889 0z" fill="#383C54"/><path opacity=".5" d="M612.442 467.116h-69.327a5.432 5.432 0 01-5.461-5.448 5.431 5.431 0 015.461-5.447h69.327a5.431 5.431 0 015.461 5.447 5.432 5.432 0 01-5.461 5.448zm0 29.66h-69.327a5.432 5.432 0 01-5.461-5.448 5.432 5.432 0 015.461-5.448h69.327a5.432 5.432 0 015.461 5.448 5.432 5.432 0 01-5.461 5.448zm0 24.968h-69.327a5.432 5.432 0 01-5.461-5.448 5.431 5.431 0 015.461-5.447h69.327a5.431 5.431 0 015.461 5.447 5.432 5.432 0 01-5.461 5.448z" fill="#2B7EA3"/><path opacity=".5" d="M252.307 376.019h-20.935c-7.888 0-14.411-6.356-14.411-14.376v-21.034c0-7.869 6.371-14.376 14.411-14.376h21.086c7.889 0 14.412 6.356 14.412 14.376v21.034c-.152 8.02-6.523 14.376-14.563 14.376zm0 141.488h-20.935c-7.888 0-14.411-6.356-14.411-14.376v-21.034c0-7.869 6.371-14.376 14.411-14.376h21.086c7.889 0 14.412 6.356 14.412 14.376v21.034c-.152 8.02-6.523 14.376-14.563 14.376zm0-70.668h-20.935c-7.888 0-14.411-6.356-14.411-14.376v-21.034c0-7.869 6.371-14.376 14.411-14.376h21.086c7.889 0 14.412 6.356 14.412 14.376v21.034c-.152 7.869-6.523 14.376-14.563 14.376z" stroke="#2B7EA3" stroke-width="4" stroke-miterlimit="10"/><path opacity=".5" d="M332.556 278.112h-81.311a5.431 5.431 0 01-5.461-5.447 5.432 5.432 0 015.461-5.448h81.311a5.432 5.432 0 015.461 5.448c0 2.875-2.427 5.447-5.461 5.447z" fill="#2B7EA3"/><path d="M578.006 320.18l-60.376 34.805c-5.613 3.178-12.591-.757-12.591-7.264v-69.609c0-6.355 6.978-10.441 12.591-7.263l60.376 34.804c5.613 3.329 5.613 11.35 0 14.527z" fill="#2B7EA3" fill-opacity=".5"/><path opacity=".7" d="M573.968 322.282l-60.377 34.805c-5.613 3.178-12.591-.757-12.591-7.264v-69.457c0-6.356 6.978-10.442 12.591-7.264l60.377 34.805c5.613 3.177 5.613 11.197 0 14.375z" fill="#2B7EA3"/><path d="M877.158 751h-634.56c-6.827 0-12.44-5.599-12.44-12.409 0-6.809 5.613-12.408 12.44-12.408h634.56c6.827 0 12.44 5.599 12.44 12.408 0 6.81-5.613 12.409-12.44 12.409z" fill="#0F3854"/><path d="M778.098 735.716c48.761 0 88.29-39.43 88.29-88.07 0-48.64-39.529-88.071-88.29-88.071s-88.289 39.431-88.289 88.071 39.528 88.07 88.289 88.07z" fill="#125A82"/><path opacity=".3" d="M778.098 559.575c-3.185 0-6.371.151-9.405.454 31.553 13.468 53.55 44.641 53.55 80.958 0 45.398-34.588 82.775-78.884 87.466a88.536 88.536 0 0034.739 7.112c48.696 0 88.29-39.344 88.29-88.071-.152-48.423-39.594-87.919-88.29-87.919z" fill="#04273A"/><path opacity=".19" d="M690.416 657.784h175.365c.455-3.329.607-6.658.607-10.138 0-12.409-2.579-24.212-7.13-34.805H696.939c-4.551 10.744-7.13 22.396-7.13 34.805 0 3.48.152 6.809.607 10.138zm133.04-85.649h-90.868c-10.164 6.204-19.114 14.376-26.092 23.909h143.053c-6.978-9.533-15.777-17.705-26.093-23.909zM712.109 706.208c16.232 18.159 39.745 29.508 65.989 29.508 26.244 0 49.758-11.349 65.99-29.508H712.109zm152.003-39.344H691.933c2.123 9.533 5.764 18.612 10.77 26.633h150.638c5.006-8.021 8.647-16.949 10.771-26.633z" fill="#000"/><path d="M815.72 526.284c-22.604-9.231-68.113-.757-68.113-.757l-3.945 9.533c-22.451 9.383-81.614 32.838-104.217 51.602L662.2 709.991l9.557.605s.455-1.967 1.062-5.296c3.944-19.067 15.776-83.985 1.82-96.696 0 0 113.623-10.441 137.288-32.232 17.294-13.468 3.793-50.088 3.793-50.088z" fill="#F4A076"/><path d="M815.72 526.284c-22.604-9.231-68.113-.757-68.113-.757l-3.945 9.533c-13.653 5.751-40.959 16.646-65.382 28.601 4.551 10.592 13.349 29.962 21.086 42.219 34.891-4.388 95.874-14.224 112.561-29.357 17.294-13.619 3.793-50.239 3.793-50.239z" fill="#102E43"/><path d="M592.266 451.378c7.456 0 13.501-6.029 13.501-13.467 0-7.439-6.045-13.468-13.501-13.468-7.457 0-13.501 6.029-13.501 13.468 0 7.438 6.044 13.467 13.501 13.467z" fill="#888A98"/><path d="M597.794 451.225c7.448-.357 13.196-6.669 12.839-14.099-.358-7.43-6.685-13.164-14.134-12.807-7.448.356-13.196 6.668-12.839 14.098.357 7.43 6.685 13.164 14.134 12.808z" fill="#383C54"/><path opacity=".34" d="M597.575 446.082c4.608 0 8.344-3.726 8.344-8.323 0-4.596-3.736-8.323-8.344-8.323-4.608 0-8.343 3.727-8.343 8.323 0 4.597 3.735 8.323 8.343 8.323z" fill="url(#paint2_radial_347:23)"/><path d="M674.639 706.511s-3.186-4.237-8.647 1.362c0 0-4.248-3.33-7.888-2.119-3.641 1.211 0 6.658 0 6.658s-5.613 4.843-10.164 2.724c-4.551-2.118-8.495 3.632-7.13 8.172l32.464 1.21 1.365-18.007z" fill="#4E7D96"/><path d="M616.69 438.062s-2.883-5.297-5.917-5.297c-2.882 0-11.074-.756-11.074-.756s-.455 2.269 1.669 3.934c2.275 1.665 6.371 2.119 6.371 2.119l-3.337 1.967s-13.046-4.54-13.501-1.211c-.455 3.329 6.978 10.593 11.225 11.501 4.248.908 10.468-.454 10.468-.454l9.102 3.178 3.489-12.712-8.495-2.269z" fill="#F9B28A"/><path d="M616.69 438.062l86.165 12.105s57.646-80.504 62.349-42.068c3.792 30.719-16.536 69.609-54.764 72.787-38.228 3.178-97.998-31.173-97.998-31.173l4.248-11.651z" fill="url(#paint3_linear_347:23)"/><path opacity=".24" d="M708.165 480.886c.758 0 1.668 0 2.427-.151 36.408-2.875 56.584-38.436 55.067-68.398L725.913 436.7c0 .151-1.517 29.054-17.748 44.186z" fill="#000"/><path d="M791.751 345.754s7.13-16.797 26.699-14.527c19.57 2.27 26.851 27.541 17.901 39.495-8.95 11.955 5.309 17.251 5.309 17.251s-22.299.454-26.547-12.408l-1.82 5.145s-10.316-2.421-8.041-14.073c2.276-11.652-11.225-11.955-11.225-11.955l-2.276-8.928z" fill="url(#paint4_linear_347:23)"/><path d="M724.851 343.787s-2.882-18.31 10.164-26.633c13.047-8.323 56.129-7.566 60.984 24.363 4.854 31.929-28.065 38.285-29.43 38.739-1.365.454-41.718-36.469-41.718-36.469z" fill="url(#paint5_linear_347:23)"/><path d="M726.672 428.377c10.467-14.376 21.541-18.461 22.755-27.39 0 0 22.148-17.705 41.566-7.868 19.266 9.836-5.462 80.807 10.619 97.755 35.497 37.68 31.098 75.208 25.03 79.596 0 0-52.185-27.843-78.429-31.021 0 0 0-62.346-12.894-77.024-13.046-14.678-19.266-19.672-8.647-34.048z" fill="url(#paint6_linear_347:23)"/><path d="M742.449 381.618l10.619 27.995s18.507-2.27 26.396-11.047l-16.081-24.363-20.934 7.415z" fill="#FFA285"/><path d="M725.003 340.458s-18.507 35.863 3.489 52.812c12.44 9.533 42.628-12.106 42.628-12.106s26.851 6.204 21.238-8.02c-5.613-14.225-16.99-7.567-16.99-7.567s4.096-22.093-9.406-26.33c-13.349-4.237-13.349-1.664-24.12-1.059s-11.529-5.599-16.839 2.27z" fill="#FFC19A"/><path d="M748.82 356.952c-.152 1.816-1.365 3.026-2.579 3.026-1.213-.151-2.124-1.664-1.972-3.48.152-1.816 1.365-3.027 2.579-3.027 1.365.303 2.276 1.816 1.972 3.481zm-20.783-1.967c-.151 1.816-1.365 3.026-2.579 3.026-1.213-.151-2.123-1.664-1.972-3.48.152-1.816 1.366-3.027 2.579-3.027 1.365.152 2.124 1.816 1.972 3.481z" fill="#333"/><path d="M731.83 354.077l-7.889 10.895 9.406.908c.303-.908.303-1.967-.455-2.724l-1.972-.302.91-8.777z" fill="#F3B690"/><path d="M741.083 345.905s12.44-12.408 20.783 2.119l-1.972 1.362c-.151 0-3.337-11.198-18.811-3.481zm-8.495-.151s-6.978-12.56-11.832 1.816l1.213 1.513s1.821-11.047 10.619-3.329z" fill="#402A22"/><path d="M744.876 371.328l-11.529 7.112s6.371 8.323 11.377 4.54c5.006-3.632.152-11.652.152-11.652z" fill="#343456"/><path d="M736.229 381.315c2.276 1.967 5.613 3.783 8.495 1.665 1.214-.908 1.821-2.27 2.124-3.481-2.427-.908-6.068-1.21-10.619 1.816z" fill="#FC6B76"/><path d="M822.85 522.047c-23.514-6.507-75.243 3.631-75.243 3.631l-.456 11.804c-21.086 11.954-72.057 43.884-92.385 65.069L691.781 722.4l9.557-.454s.152-1.967.455-5.448c1.669-19.521 5.917-85.195-9.557-96.242 0 0 111.651-23.607 132.586-47.97 15.625-15.586-1.972-50.239-1.972-50.239z" fill="#F9B28A"/><path d="M703.765 717.254s-3.64-3.783-8.343 2.422c0 0-4.703-2.876-8.04-1.211-3.489 1.513.758 6.658.758 6.658s-5.006 5.448-9.86 3.935c-4.855-1.514-8.04 4.691-6.068 9.079l32.312-2.572-.759-18.311z" fill="#4E7D96"/><path d="M822.85 522.047c-23.514-6.507-75.243 3.631-75.243 3.631l-.456 11.804c-11.984 6.809-33.525 19.974-53.701 33.896 4.702 9.685 14.411 29.508 22.755 43.279 33.98-8.474 93.902-25.271 108.768-42.371 15.474-15.586-2.123-50.239-2.123-50.239z" fill="#0F3854"/><path d="M608.194 451.682c7.457 0 13.502-6.03 13.502-13.468s-6.045-13.468-13.502-13.468c-7.456 0-13.501 6.03-13.501 13.468s6.045 13.468 13.501 13.468z" fill="#888A98"/><path d="M612.897 451.378c7.457 0 13.501-6.03 13.501-13.468s-6.044-13.468-13.501-13.468c-7.456 0-13.501 6.03-13.501 13.468s6.045 13.468 13.501 13.468z" fill="#383C54"/><path opacity=".34" d="M613.352 446.233c4.608 0 8.344-3.726 8.344-8.323 0-4.596-3.736-8.323-8.344-8.323-4.608 0-8.343 3.727-8.343 8.323 0 4.597 3.735 8.323 8.343 8.323z" fill="#383C54"/><path d="M659.905 488.716l-8.39 1.325 7.208 45.436 8.39-1.324-7.208-45.437z" fill="#888A98"/><path d="M672.298 520.804l-22.925 3.618 1.921 12.107 22.924-3.619-1.92-12.106zm-5.45-34.973l-22.925 3.619 1.921 12.107 22.924-3.619-1.92-12.107z" fill="#383C54"/><path d="M672.818 505.25s-5.612-3.027-8.191-1.362c-2.579 1.664-10.316 5.599-10.316 5.599s.759 2.27 3.793 2.421c2.882.151 6.826-1.816 6.826-1.816l-1.82 3.632s-14.26 3.48-12.743 6.658c1.517 3.178 12.136 5.296 16.383 3.783 4.248-1.513 8.951-6.356 8.951-6.356l9.86-2.421-4.247-13.165-8.496 3.027z" fill="#F9AD82"/><path d="M672.819 505.25l83.131-38.437s-.758-65.372 30.947-72.787c31.705-7.414 25.334 70.971-6.675 95.486-32.009 24.514-104.369 28.297-104.369 28.297l-3.034-12.559z" fill="url(#paint7_linear_347:23)"/></g><defs><linearGradient id="paint0_linear_347:23" x1="369.137" y1="324.442" x2="589.398" y2="604.207" gradientUnits="userSpaceOnUse"><stop stop-color="#4E7D96"/><stop offset="1"/></linearGradient><linearGradient id="paint1_linear_347:23" x1="32.858" y1="256.086" x2="189.431" y2="-135.236" gradientUnits="userSpaceOnUse"><stop/><stop offset="1" stop-color="#C4C4C4"/></linearGradient><linearGradient id="paint3_linear_347:23" x1="688.838" y1="412.104" x2="724.456" y2="544.329" gradientUnits="userSpaceOnUse"><stop stop-color="#4E7D96"/><stop offset="1"/></linearGradient><linearGradient id="paint4_linear_347:23" x1="662.444" y1="393.607" x2="784.308" y2="199.541" gradientUnits="userSpaceOnUse"><stop/><stop offset="1" stop-color="#C4C4C4"/></linearGradient><linearGradient id="paint5_linear_347:23" x1="538.284" y1="386.943" x2="669.292" y2="133.624" gradientUnits="userSpaceOnUse"><stop/><stop offset="1" stop-color="#C4C4C4"/></linearGradient><linearGradient id="paint6_linear_347:23" x1="775.872" y1="421.287" x2="926.059" y2="605.532" gradientUnits="userSpaceOnUse"><stop stop-color="#4E7D96"/><stop offset="1"/></linearGradient><linearGradient id="paint7_linear_347:23" x1="799.5" y1="408" x2="718.822" y2="612.646" gradientUnits="userSpaceOnUse"><stop stop-color="#4E7D96"/><stop offset="1"/></linearGradient><clipPath id="clip0_347:23"><path fill="#fff" transform="translate(0 102)" d="M0 0h1051v714H0z"/></clipPath><clipPath id="clip1_347:23"><path fill="#fff" d="M0 0h235v128H0z"/></clipPath><clipPath id="clip2_347:23"><path fill="#fff" transform="translate(890 159)" d="M0 0h82v91H0z"/></clipPath><clipPath id="clip3_347:23"><path fill="#fff" transform="translate(100 151)" d="M0 0h892.147v600H0z"/></clipPath><radialGradient id="paint2_radial_347:23" cx="0" cy="0" r="1" gradientUnits="userSpaceOnUse" gradientTransform="matrix(8.2684 -.3958 .39483 8.24802 597.529 437.727)"><stop offset=".574" stop-color="#140F10"/><stop offset=".798" stop-color="#140F10"/><stop offset="1" stop-color="#140F10"/></radialGradient></defs></svg>