<svg width="1920" height="1620" fill="none" xmlns="http://www.w3.org/2000/svg"><g opacity=".5" clip-path="url(#clip0_45:503)" fill="#4E7D96"><path d="M190 888l1.2.9-1.2-.9zm11.4 7.2l2.6 1.5c.1 0 .1.1.1.2s-.1.1-.2.1l-2.6-1.5s-.1-.1 0-.1c0-.2.1-.2.1-.2zm13.4 6.9l2.7 1.3c.1.1.2.2.1.3-.1.1-.2.2-.3.1l-2.7-1.3c-.1-.1-.2-.2-.1-.3 0-.1.2-.2.3-.1zm13.8 5.9l2.8 1.1c.2.1.3.3.2.5-.1.2-.3.3-.5.2l-2.8-1.1c-.2-.1-.2-.3-.2-.4.1-.3.3-.4.5-.3zm14.1 5.1l2.9.9c.2.1.4.3.3.6-.1.2-.3.4-.6.3l-2.9-1c-.2-.1-.3-.3-.3-.5.2-.3.4-.4.6-.3zm14.4 4.3l2.9.8c.3.1.5.4.4.6-.1.3-.4.5-.6.4l-2.9-.8c-.3-.1-.4-.4-.4-.6 0-.3.3-.5.6-.4zm14.6 3.6l2.9.6c.3.1.5.4.5.7-.1.3-.4.5-.7.5l-2.9-.7c-.3-.1-.5-.4-.5-.7 0-.3.3-.5.7-.4zm14.7 2.8l3 .5c.4.1.6.4.6.8-.1.4-.4.6-.8.6l-3-.5c-.4-.1-.6-.4-.6-.8.1-.4.4-.6.8-.6zm14.9 2.2l3 .3c.4.1.7.4.7.9-.1.4-.4.7-.9.7l-3-.4c-.4-.1-.7-.4-.7-.9.1-.4.4-.7.9-.6zm14.9 1.4l3 .2c.5 0 .8.4.8.9s-.4.8-.9.8l-3-.2c-.5 0-.8-.4-.8-.9s.4-.8.9-.8zm15 .8l3 .1c.5 0 .9.5.9 1s-.5.9-1 .9l-3-.1c-.5 0-.9-.5-.9-1s.4-.9 1-.9zm15 .2l3-.1c.6 0 1 .4 1.1 1 0 .6-.4 1-1 1.1h-3c-.6 0-1-.5-1-1-.2-.6.3-1 .9-1zm14.9-.6l3-.2c.6 0 1.1.4 1.2 1.1.1.7-.4 1.1-1.1 1.2l-3 .1c-.6 0-1.1-.4-1.2-1 .1-.6.5-1.1 1.1-1.2zm15-1.1l3-.3c.7-.1 1.3.4 1.3 1.1 0 .7-.4 1.3-1.1 1.3l-3 .3c-.7.1-1.2-.4-1.3-1.1 0-.7.4-1.2 1.1-1.3zm14.9-1.8l3-.4c.7-.1 1.3.4 1.4 1.1.1.7-.4 1.3-1.1 1.4l-3 .4c-.7.1-1.3-.4-1.4-1.1-.1-.6.4-1.3 1.1-1.4zm14.8-2.3l2.9-.5c.7-.1 1.4.3 1.5 1.1.1.7-.3 1.4-1.1 1.5l-3 .5c-.7.1-1.4-.4-1.5-1.1 0-.7.5-1.4 1.2-1.5zm14.7-2.9l2.9-.7c.7-.2 1.5.3 1.6 1 .2.7-.3 1.5-1 1.6l-2.9.6c-.7.2-1.5-.3-1.6-1-.2-.6.2-1.4 1-1.5zm14.5-3.5l2.9-.8c.8-.2 1.5.3 1.7 1 .2.8-.3 1.5-1 1.7l-2.9.8c-.8.2-1.5-.3-1.7-1-.2-.8.3-1.5 1-1.7zm14.5-4.1l2.9-.9c.8-.2 1.6.2 1.8 1 .2.8-.2 1.6-1 1.8l-2.9.9c-.8.2-1.6-.2-1.8-1-.2-.7.2-1.5 1-1.8zm14.2-4.6l2.8-1c.8-.3 1.7.1 1.9.9.3.8-.1 1.7-.9 1.9l-2.9 1c-.8.3-1.7-.2-1.9-1-.2-.6.2-1.5 1-1.8zm14.1-5l2.8-1.1c.8-.3 1.7.1 2 .9.3.8-.1 1.7-.9 2l-2.8 1.1c-.8.3-1.7-.1-2-.9-.3-.8.1-1.7.9-2zm13.9-5.6l2.8-1.2c.8-.4 1.8 0 2.1.9.3.9 0 1.8-.9 2.1l-2.8 1.2c-.8.3-1.8 0-2.1-.9-.3-.8.1-1.8.9-2.1zm13.8-6l2.7-1.2c.9-.4 1.8 0 2.2.8.4.8 0 1.8-.8 2.2l-2.8 1.2c-.8.4-1.8 0-2.2-.9-.3-.7.1-1.7.9-2.1zm13.7-6.2l2.7-1.3c.9-.4 1.9 0 2.3.8.4.8 0 1.9-.8 2.3l-2.7 1.3c-.9.4-1.9 0-2.3-.8-.5-.9-.1-1.9.8-2.3zm13.5-6.6l2.7-1.3c.9-.4 2-.1 2.4.8.4.9.1 2-.8 2.4l-2.7 1.3c-.9.4-1.9.1-2.4-.8s-.1-1.9.8-2.4zm13.3-6.9l2.6-1.4c.9-.5 2-.1 2.5.8s.1 2-.8 2.5l-2.7 1.4c-.9.5-2 .1-2.5-.8-.3-.9 0-2 .9-2.5zm13.1-7.2l2.6-1.5c.9-.5 2.1-.2 2.6.7.5.9.2 2.1-.7 2.6l-2.6 1.5c-.9.5-2.1.2-2.6-.7-.5-.9-.2-2.1.7-2.6zm13-7.6l2.6-1.6c.9-.6 2.1-.3 2.7.6.6.9.3 2.1-.6 2.7l-2.6 1.6c-.9.6-2.1.3-2.7-.7-.6-.8-.4-2 .6-2.6zm12.6-8l2.5-1.7c.9-.6 2.2-.4 2.8.6.6.9.4 2.2-.6 2.8l-2.5 1.7c-.9.6-2.1.3-2.7-.6-.7-1-.4-2.2.5-2.8zm12.4-8.5l2.4-1.7c.9-.7 2.2-.5 2.9.5.7.9.5 2.2-.5 2.9l-2.5 1.7c-.9.7-2.2.4-2.8-.5-.7-.9-.5-2.2.5-2.9zm12-8.9l2.4-1.8c.9-.7 2.2-.6 2.9.4.7.9.6 2.2-.4 2.9l-2.4 1.9c-.9.7-2.2.5-2.9-.4-.7-1-.6-2.3.4-3zm11.6-9.4l2.3-1.9c.9-.8 2.2-.7 3 .2.8.9.7 2.2-.2 3l-2.3 2c-.9.8-2.2.6-3-.3-.8-.9-.7-2.2.2-3zm11.2-9.9l2.2-2c.9-.8 2.2-.8 3 .1.8.9.8 2.2-.1 3l-2.2 2.1c-.9.8-2.2.7-3-.1-.8-.9-.8-2.3.1-3.1zm10.8-10.3l2.1-2.1c.9-.9 2.2-.9 3.1 0 .9.9.9 2.2 0 3.1l-2.1 2.1c-.9.8-2.2.8-3.1 0-.8-.9-.8-2.3 0-3.1zm10.4-10.8l2-2.2c.8-.9 2.2-.9 3.1-.1.9.8.9 2.2.1 3.1l-2.1 2.2c-.8.9-2.2.9-3.1.1-.8-.8-.8-2.2 0-3.1zm10.1-11.1l2-2.2c.8-.9 2.2-1 3.2-.2s1 2.2.2 3.2l-2 2.2c-.8.9-2.2 1-3.2.2-.9-.8-1-2.2-.2-3.2zm9.9-11.2l2-2.3c.8-.9 2.3-1 3.2-.2.9.8 1 2.3.2 3.2l-2 2.3c-.8.9-2.2 1-3.2.2-.9-.9-1-2.3-.2-3.2zm10-11.4l2-2.3c.8-.9 2.3-1 3.2-.2.9.8 1 2.3.2 3.2l-2 2.2c-.8.9-2.3 1-3.2.2-.9-.8-1.1-2.1-.2-3.1zm10.1-11.1l2.1-2.2c.9-.9 2.3-1 3.3-.1.9.9 1 2.3.1 3.3l-2.1 2.2c-.9.9-2.3 1-3.3.1s-1-2.4-.1-3.3zm10.5-10.9l2.2-2.1c.9-.9 2.4-.9 3.3 0 .9.9.9 2.4 0 3.3l-2.1 2.1c-.9.9-2.4.9-3.3-.1-1-.8-1-2.3-.1-3.2zm11.1-10.3l2.3-2c1-.9 2.5-.8 3.3.2.9 1 .8 2.5-.2 3.3l-2.3 1.9c-1 .9-2.5.7-3.3-.2-.8-.9-.8-2.4.2-3.2zm11.7-9.7l2.4-1.8c1.1-.8 2.6-.6 3.4.5.8 1.1.6 2.6-.5 3.4l-2.4 1.8c-1.1.8-2.6.6-3.4-.5-.7-1.1-.5-2.6.5-3.4zm12.3-8.9l2.5-1.7c1.1-.7 2.6-.4 3.3.7.7 1.1.4 2.6-.7 3.3l-2.5 1.6c-1.1.7-2.6.4-3.3-.7-.7-1.1-.4-2.5.7-3.2zm12.9-8.1l2.6-1.5c1.2-.7 2.6-.3 3.3.9.7 1.2.3 2.6-.9 3.3l-2.6 1.5c-1.2.7-2.6.3-3.3-.9-.7-1.2-.3-2.7.9-3.3zm13.3-7.4l2.7-1.4c1.2-.6 2.6-.1 3.3 1.1.7 1.2.1 2.6-1.1 3.3l-2.7 1.4c-1.2.6-2.6.1-3.3-1.1-.6-1.2-.1-2.7 1.1-3.3zm13.7-6.6l2.8-1.2c1.2-.5 2.7 0 3.2 1.3.5 1.2 0 2.7-1.3 3.2l-2.7 1.2c-1.2.5-2.7 0-3.2-1.3-.6-1.2-.1-2.6 1.2-3.2zm14.1-5.6l2.9-1c1.3-.5 2.7.2 3.1 1.5.5 1.3-.2 2.7-1.5 3.1l-2.8 1c-1.3.5-2.7-.2-3.1-1.5-.4-1.3.1-2.7 1.4-3.1zm14.4-4.8l2.9-.8c1.3-.4 2.7.4 3 1.7.4 1.3-.4 2.7-1.7 3l-2.9.8c-1.3.4-2.6-.4-3-1.7-.3-1.2.4-2.6 1.7-3zm14.8-3.6l3-.6c1.3-.3 2.6.6 2.9 1.9.3 1.3-.6 2.6-1.9 2.9l-2.9.6c-1.3.3-2.6-.6-2.9-1.9-.3-1.3.4-2.7 1.8-2.9zm15-2.7l3-.4c1.3-.2 2.6.8 2.8 2.1.2 1.3-.8 2.6-2.1 2.8l-2.9.4c-1.3.2-2.6-.8-2.8-2.1-.3-1.4.6-2.6 2-2.8zm15.1-1.6l3-.2c1.4-.1 2.5.9 2.6 2.3.1 1.4-.9 2.5-2.3 2.6l-3 .2c-1.4.1-2.5-.9-2.6-2.3-.1-1.3.9-2.5 2.3-2.6zm15.1-.6h3c1.4 0 2.5 1.1 2.5 2.5s-1.1 2.5-2.5 2.5h-3c-1.4 0-2.5-1.1-2.5-2.5.1-1.4 1.2-2.5 2.5-2.5zm15.2.2l3 .1c1.4.1 2.4 1.2 2.4 2.6 0 1.4-1.2 2.4-2.6 2.4l-3-.1c-1.4-.1-2.4-1.2-2.4-2.6 0-1.4 1.2-2.4 2.6-2.4zm15.1 1l3 .3c1.4.1 2.4 1.3 2.3 2.7-.1 1.4-1.3 2.4-2.7 2.3l-3-.3c-1.4-.1-2.4-1.3-2.3-2.7.1-1.4 1.4-2.4 2.7-2.3zm15.1 1.6l3 .4c1.4.2 2.3 1.4 2.1 2.8-.2 1.4-1.4 2.3-2.8 2.1l-3-.4c-1.4-.2-2.3-1.4-2.2-2.8.1-1.4 1.5-2.2 2.9-2.1zm14.9 2.2l3 .5c1.4.2 2.3 1.5 2.1 2.8-.2 1.3-1.5 2.3-2.8 2.1l-3-.5c-1.4-.2-2.3-1.5-2.1-2.8.2-1.4 1.5-2.3 2.8-2.1zm14.9 2.5l3 .5c1.3.2 2.2 1.5 2 2.9-.2 1.4-1.5 2.2-2.9 2l-2.9-.5c-1.3-.2-2.2-1.5-2-2.9.2-1.3 1.5-2.2 2.8-2zm14.8 2.8l3 .6c1.3.3 2.2 1.6 1.9 2.9-.3 1.3-1.6 2.2-2.9 1.9l-2.9-.6c-1.3-.3-2.2-1.6-1.9-2.9.3-1.3 1.5-2.1 2.8-1.9zm14.8 3.1l2.9.6c1.3.3 2.2 1.6 1.9 2.9-.3 1.3-1.6 2.2-2.9 1.9l-2.9-.6c-1.3-.3-2.2-1.6-1.9-2.9.2-1.4 1.6-2.2 2.9-1.9zm14.7 3.1l2.9.6c1.3.3 2.2 1.6 1.9 2.9-.3 1.3-1.6 2.2-2.9 1.9l-2.9-.6c-1.3-.3-2.2-1.6-1.9-2.9.3-1.3 1.6-2.2 2.9-1.9zm14.7 3.2l2.9.6c1.3.3 2.2 1.6 1.9 2.9-.3 1.3-1.6 2.2-2.9 1.9l-2.9-.6c-1.3-.3-2.2-1.6-1.9-2.9.3-1.4 1.6-2.2 2.9-1.9zm14.7 3.1l2.9.6c1.3.3 2.2 1.6 1.9 2.9-.3 1.3-1.6 2.2-2.9 1.9l-2.9-.6c-1.3-.3-2.2-1.6-1.9-2.9.3-1.3 1.6-2.2 2.9-1.9zm14.7 3.1l2.9.6c1.3.3 2.2 1.5 1.9 2.9-.3 1.3-1.5 2.2-2.9 1.9l-2.9-.6c-1.3-.3-2.2-1.5-1.9-2.9.3-1.3 1.6-2.2 2.9-1.9zm14.7 2.9l2.9.6c1.3.3 2.2 1.5 1.9 2.8-.3 1.3-1.5 2.2-2.8 1.9l-3-.6c-1.3-.3-2.2-1.5-1.9-2.8.4-1.2 1.6-2.1 2.9-1.9zm14.8 2.8l3 .5c1.3.2 2.2 1.5 1.9 2.8-.3 1.3-1.5 2.2-2.8 1.9l-3-.5c-1.3-.2-2.2-1.5-1.9-2.8.2-1.2 1.5-2.1 2.8-1.9zm14.8 2.6l3 .5c1.3.2 2.2 1.4 2 2.8-.2 1.3-1.4 2.2-2.8 2l-3-.5c-1.3-.2-2.2-1.4-2-2.8.2-1.3 1.4-2.2 2.8-2zm14.7 2.3l3 .4c1.3.2 2.2 1.3 2.1 2.6-.2 1.3-1.3 2.2-2.6 2.1l-3-.4c-1.3-.2-2.2-1.3-2.1-2.6.1-1.3 1.3-2.3 2.6-2.1zm14.9 1.5l3 .2c1.3.1 2.3 1.2 2.2 2.5-.1 1.3-1.2 2.3-2.5 2.2l-3-.2c-1.3-.1-2.3-1.2-2.2-2.5 0-1.3 1.1-2.3 2.5-2.2zm14.9.7l3 .1c1.3 0 2.3 1.1 2.3 2.4 0 1.3-1.1 2.3-2.4 2.3l-3-.1c-1.3 0-2.3-1.1-2.3-2.4 0-1.3 1.1-2.3 2.4-2.3zm14.9.1l3-.1c1.3 0 2.3 1 2.3 2.2 0 1.3-1 2.3-2.2 2.3l-3 .1c-1.3 0-2.3-1-2.3-2.2 0-1.2.9-2.3 2.2-2.3zm15-.5l3-.2c1.2-.1 2.3.9 2.4 2.1.1 1.2-.9 2.3-2.1 2.4l-3 .2c-1.3.1-2.3-.9-2.4-2.1-.1-1.2.8-2.3 2.1-2.4zm14.9-.9l3-.2c1.2-.1 2.3.8 2.4 2.1.1 1.2-.8 2.3-2 2.4l-3 .2c-1.2.1-2.3-.8-2.4-2.1-.2-1.2.7-2.3 2-2.4zm14.9-1.4l3-.3c1.2-.1 2.3.8 2.4 2 .1 1.2-.7 2.3-2 2.4l-3 .3c-1.2.1-2.3-.8-2.4-2-.1-1.1.8-2.2 2-2.4zm14.9-1.6l3-.4c1.2-.1 2.3.7 2.4 1.9.1 1.2-.7 2.3-1.9 2.4l-3 .4c-1.2.2-2.3-.7-2.5-1.9-.1-1.2.8-2.3 2-2.4zm14.9-2l3-.4c1.2-.2 2.3.6 2.4 1.8.2 1.2-.6 2.3-1.8 2.4l-3 .4c-1.2.2-2.3-.6-2.5-1.8-.1-1.1.7-2.2 1.9-2.4zm14.8-2.3l3-.5c1.2-.2 2.3.6 2.4 1.8.2 1.2-.6 2.3-1.8 2.4l-3 .5c-1.2.2-2.3-.6-2.5-1.8-.1-1.1.7-2.2 1.9-2.4zm14.8-2.4l3-.5c1.1-.2 2.2.6 2.4 1.7.2 1.1-.6 2.2-1.7 2.4l-3 .5c-1.1.2-2.2-.5-2.5-1.7-.1-1.1.6-2.2 1.8-2.4zm14.8-2.7l3-.6c1.1-.2 2.2.5 2.4 1.6.2 1.1-.5 2.2-1.6 2.4l-3 .6c-1.1.2-2.2-.5-2.4-1.6-.3-1.1.4-2.2 1.6-2.4zm14.7-2.9l2.9-.6c1.1-.2 2.1.5 2.4 1.6.2 1.1-.5 2.1-1.5 2.4l-3 .6c-1.1.2-2.1-.5-2.4-1.5-.2-1.2.5-2.3 1.6-2.5zm14.7-3.1l2.9-.6c1-.2 2.1.4 2.3 1.5.2 1-.4 2.1-1.5 2.3l-2.9.7c-1.1.2-2.1-.4-2.3-1.5-.2-1.1.4-2.2 1.5-2.4zm14.7-3.2l2.9-.7c1-.2 2 .4 2.3 1.4.2 1-.4 2-1.4 2.3l-2.9.7a2 2 0 01-2.3-1.4c-.3-1 .4-2.1 1.4-2.3zm14.6-3.4l2.9-.7c1-.2 2 .4 2.2 1.4.2 1-.4 2-1.4 2.2l-2.9.7c-1 .2-2-.4-2.2-1.4-.2-1 .4-2 1.4-2.2zm14.6-3.5l2.9-.7c1-.2 1.9.3 2.2 1.3.2 1-.3 1.9-1.3 2.2l-2.9.7c-1 .2-1.9-.3-2.2-1.3-.2-1 .4-2 1.3-2.2zm14.6-3.7l2.9-.7c.9-.2 1.9.3 2.1 1.2.2.9-.3 1.9-1.2 2.1l-2.9.8c-.9.2-1.9-.3-2.1-1.2-.3-1 .3-1.9 1.2-2.2zm14.6-3.7l2.9-.8c.9-.2 1.8.3 2.1 1.2.2.9-.3 1.8-1.2 2.1l-2.9.8c-.9.2-1.8-.3-2.1-1.2-.3-.9.3-1.9 1.2-2.1zm14.5-3.9l2.9-.8c.9-.2 1.8.3 2 1.1.2.9-.3 1.8-1.1 2l-2.9.8c-.9.2-1.8-.3-2-1.1-.3-.8.2-1.7 1.1-2zm14.5-3.9l2.9-.8c.8-.2 1.7.3 1.9 1.1.2.8-.3 1.7-1.1 1.9l-2.9.8c-.8.2-1.7-.3-2-1.1-.3-.8.4-1.7 1.2-1.9zm14.5-4.1l2.9-.8c.8-.2 1.7.2 1.9 1.1.2.8-.2 1.6-1 1.9l-2.9.8c-.8.2-1.7-.2-1.9-1.1-.2-.9.2-1.6 1-1.9zm14.5-4l2.9-.8c.8-.2 1.6.2 1.8 1 .2.8-.2 1.6-1 1.8l-2.9.8c-.8.2-1.6-.2-1.8-1-.3-.8.2-1.6 1-1.8zm254-85.4l1.5-.2-1.5.2z"/></g><g opacity=".15" clip-path="url(#clip1_45:503)" fill="#4E7D96"><path d="M147.65 1529.51c-1.339.08-19.264 1.43-49.288-6.18-16.092-3.87-28.274-14.17-35.181-26.12-6.608-11.44-8.46-24.23-3.074-32.89 2.953-4.48 5.987-7.62 10.141-10.02 11.424-6.6 25.713-5.85 32.189-5.43 2.871-5.82 8.532-18.79 19.956-25.4 4.154-2.4 8.909-3.76 14.265-4.08l-.138 2.16-.137 2.16c-4.837.02-8.772 1.6-11.887 3.4-10.905 6.3-16.266 19.8-18.918 24.8l-.138 2.16-1.639-.44c-5.656-.2-20.546-1.99-31.45 4.31-3.635 2.1-6.45 4.42-8.884 8.6-3.91 6.42-2.658 18.17 3.348 28.57 6.307 10.91 17.67 20.99 32.641 24.12 25.627 5.99 42.294 6.07 47.13 6.04 2.214-3.36 10.472-17.83 18.297-43.85 4.46-15.05 1.707-29.41-4.6-40.32-6.007-10.4-15.267-16.83-23.081-17.17l.138-2.16.137-2.16c10.492.18 20.353 7.65 26.96 19.09 6.908 11.95 9.743 27.64 5.064 43.52-9.221 29.59-18.517 44.67-19.255 45.79 0 0-.519.3-.738 1.12-.519.3-1.039.6-1.858.38z"/><path d="M156.53 1463.37l-15.058 8.7c-.52.3-.52.3-.82-.22l-7.402-6.81 3.574 14.57c.3.52-.219.82-.219.82-.52.3-.52.3-.82-.22l-3.66-2.74-5.193 3 5.976 18.74c.301.52-.219.82-.219.82-.519.3-.819-.22-.819-.22l-20.617-29.69 5.951 13.9c.3.52-.219.82-.219.82l-5.193 3 .545 4.54c.3.52-.219.82-.219.82-.519.3-.519.3-.82-.22l-3.66-2.74-3.115 1.8c-.52.3-.52.3-.82-.22l-3.96-3.26 1.445 6.1c.3.52-.219.82-.219.82l-12.462 7.2c-.82-.22-1.339.08-1.64-.44-.3-.52.22-.82.22-.82l11.423-6.6-1.527-7.44c-.3-.52.22-.82.22-.82.519-.3.519-.3.819.22l5.9 4.22 3.116-1.8c.519-.3.519-.3.819.22l2.24 1.48-.163-2.68c-.3-.52.219-.82.219-.82l4.673-2.7-8.816-21.25c-.3-.52.219-.82.219-.82.519-.3.82.22.82.22l21.817 31.76-4.611-13.97c-.301-.52.219-.82.219-.82l6.231-3.6c.519-.3.519-.3.819.21l2.24 1.48-3.354-15.39c-.3-.52.219-.82.219-.82.519-.3.519-.3.819.22l9.123 8.59 14.539-8.4c.519-.3.82.22.82.22.819.22.6 1.04.6 1.04z"/><path d="M132.989 1500.55c-.519.3-1.339.08-1.639-.44l-17.694-25.83 4.067 9.44c.3.52.081 1.34-.438 1.64l-4.673 2.7.244 4.02c.3.51-.219.81-.738 1.11-.219.82-1.039.61-1.339.09l-2.841-2.52-3.115 1.8c-.52.3-1.339.08-1.339.08l-3.141-3.04.845 5.06c.3.52-.219.82-.738 1.12l-11.943 6.9c-.52.3-1.34.08-1.64-.44-.3-.52-.081-1.34.438-1.64l11.424-6.6-1.527-7.44c-.3-.52.219-.82.738-1.12.52-.3 1.34-.08 1.34-.08l5.38 4.52 2.596-1.5c.519-.3 1.339-.08 1.339-.08l1.12.74-.081-1.34s.218-.82.738-1.12l4.673-2.7-9.035-20.43c-.3-.52-.082-1.34.438-1.64.519-.3 1.339-.08 1.639.44l20.016 28.64-3.329-10.55c-.301-.52-.082-1.34.437-1.64l6.232-3.6c.519-.31 1.339-.09 1.339-.09l1.119.74-2.972-13.53c-.3-.52-.081-1.34.438-1.64 0 0 .819.22 1.12.74l8.302 8.37 14.021-8.1c.519-.3 1.338-.08 1.639.44.3.52.081 1.34-.438 1.64l-15.059 8.7c-.519.3-1.339.08-1.639-.44l-5.462-5.85 3.191 12.71c.301.52.082 1.34-.438 1.64-.519.3-1.338.08-1.338.08l-2.841-2.52-4.154 2.4 5.156 18.52c.301.52.082 1.34-.438 1.64zm-22.337-31.47s.82.22 0 0l21.436 29.91.301.52-.301-.52-5.976-18.74s-.3-.51.219-.81l5.193-3.01s.519-.3.82.22l3.66 2.74.519-.3-3.573-14.57s-.3-.52.219-.82c0 0 .519-.3.819.22l7.402 6.81 15.059-8.7-14.54 8.4s-.519.3-.819-.22l-9.123-8.59-.519.3 3.354 15.39s.301.52-.218.82c0 0-.52.3-.82-.22l-2.24-1.48-6.231 3.61 5.131 13.67-.219.82s-.519.3-.82-.22l-21.817-31.76 8.297 21.55s.3.52-.219.82l-4.674 2.7.163 2.68s.301.52-.219.82c0 0-.519.3-.819-.22l-1.721-1.78-3.635 2.1s-.519.3-.819-.22l-5.381-4.52-.52.3 1.528 7.44s.3.52-.22.82l-11.423 6.6 11.943-6.9-1.446-6.1s-.3-.52.22-.82c0 0 .519-.3.819.22l4.78 3.48 3.116-1.8s.519-.3.819.22l3.66 2.74.52-.3-.545-4.54s-.3-.52.219-.82l5.193-3-6.552-14.94c-.219.82 0 0 0 0z"/></g><g opacity=".2" clip-path="url(#clip2_45:503)" fill="#4E7D96"><path d="M-7.456 1214.59l2.635-3.52c.878-1.1 2.415-1.32 3.512-.44 1.098.88 1.318 2.42.44 3.52l-2.635 3.52c-.878 1.1-2.415 1.32-3.513.44-1.097-1.1-1.317-2.64-.439-3.52zm9.66-12.32l3.074-3.3c.878-1.1 2.634-1.1 3.732-.22 1.098.88 1.098 2.64.22 3.74l-2.854 3.08c-.879 1.1-2.635 1.1-3.733.22-1.317-.88-1.317-2.42-.439-3.52zm10.978-11.22l3.293-3.08c1.098-1.1 2.854-.88 3.952.22 1.097 1.1.878 2.86-.22 3.96l-3.293 2.86c-1.098 1.1-2.854.88-3.732-.22-1.318-1.1-1.098-2.64 0-3.74zm11.855-10.11l3.513-2.64c1.317-.88 3.074-.66 3.952.44.878 1.32.658 3.08-.44 3.96l-3.512 2.63c-1.317.88-3.074.66-3.952-.65-1.098-1.1-.878-2.86.44-3.74zm12.734-9.24l3.732-2.42c1.318-.88 3.074-.44 3.952.88.878 1.32.44 3.08-.878 3.96l-3.732 2.2c-1.318.88-3.074.44-3.952-.88-.878-1.1-.44-2.86.878-3.74zm13.392-7.7l3.952-1.98c1.317-.66 3.074-.22 3.952 1.32.659 1.32.22 3.08-1.317 3.96l-3.952 1.98c-1.317.66-3.074.22-3.952-1.32-.658-1.54 0-3.3 1.317-3.96zm14.271-6.82l4.171-1.76c1.537-.66 3.294.22 3.733 1.54.658 1.54-.22 3.3-1.537 3.74l-3.952 1.54c-1.537.66-3.293-.22-3.732-1.54-.879-1.1-.22-2.86 1.317-3.52zm14.49-5.5l4.171-1.54c1.537-.66 3.294.22 3.733 1.76.659 1.54-.22 3.3-1.757 3.74l-4.171 1.54c-1.537.44-3.293-.22-3.732-1.76-.659-1.54.22-3.08 1.756-3.74zm14.49-5.06l4.172-1.32c1.537-.44 3.293.44 3.732 1.98.439 1.54-.439 3.3-1.976 3.74l-4.171 1.32c-1.537.44-3.294-.44-3.733-1.98-.439-1.54.44-3.3 1.976-3.74zm14.71-4.62l4.171-1.32c1.537-.44 3.294.44 3.733 1.98.439 1.54-.439 3.3-1.976 3.74l-4.172 1.32c-1.536.44-3.293-.44-3.732-1.98-.439-1.54.439-3.3 1.976-3.74zm14.929-4.4l4.172-1.1a3.01 3.01 0 013.732 2.2c.439 1.76-.439 3.3-2.196 3.74l-4.171 1.1a3.009 3.009 0 01-3.732-2.2c-.439-1.54.658-3.3 2.195-3.74zm14.93-3.74l4.39-1.1c1.757-.44 3.294.66 3.733 2.2.439 1.54-.659 3.3-2.196 3.74l-4.171 1.1c-1.756.44-3.293-.66-3.732-2.2-.659-1.76.439-3.52 1.976-3.74zm15.148-3.74l4.391-.88c1.757-.44 3.293.66 3.732 2.42.44 1.76-.658 3.3-2.415 3.74l-4.39.88c-1.757.44-3.294-.66-3.733-2.42-.439-1.54.659-3.3 2.415-3.74zm15.149-3.08l4.391-.88c1.756-.44 3.513.66 3.732 2.42.439 1.76-.658 3.52-2.415 3.74l-4.391.88c-1.756.44-3.293-.88-3.732-2.42-.439-1.76.659-3.52 2.415-3.74zm15.149-3.08l4.391-.88c1.756-.44 3.513.88 3.732 2.64.439 1.76-.878 3.52-2.634 3.74l-4.391.88c-1.757.22-3.513-.88-3.733-2.64-.219-1.76.879-3.3 2.635-3.74zm15.149-2.86l4.391-.88c1.756-.22 3.512.88 3.732 2.64.219 1.76-.878 3.52-2.635 3.74l-4.391.66c-1.756.22-3.512-.88-3.732-2.64-.439-1.54.878-3.08 2.635-3.52zm15.148-2.64l4.391-.66c1.757-.22 3.513.88 3.733 2.64.219 1.76-.878 3.52-2.635 3.74l-4.391.66c-1.756.22-3.513-.88-3.732-2.64-.439-1.54.878-3.3 2.634-3.74zm15.149-2.42l4.391-.66c1.757-.22 3.513.88 3.733 2.64.219 1.76-.879 3.52-2.635 3.74l-4.391.66c-1.756.22-3.513-.88-3.732-2.64-.22-1.76.878-3.52 2.634-3.74zm15.149-2.64l4.391-.66c1.756-.22 3.293.88 3.732 2.64.22 1.76-.878 3.3-2.634 3.74l-4.391.88c-1.757.22-3.513-.88-3.733-2.64-.219-1.98.879-3.74 2.635-3.96zm15.149-2.85l4.391-.88c1.756-.44 3.293.88 3.732 2.42.439 1.75-.878 3.29-2.415 3.73l-4.391.88c-1.756.44-3.293-.66-3.732-2.42-.439-1.54.658-3.29 2.415-3.73zm14.929-3.08l4.172-.88c1.756-.44 3.293.66 3.732 2.42.439 1.76-.659 3.29-2.415 3.73l-4.391 1.1c-1.757.44-3.293-.66-3.732-2.41 0-1.76.878-3.52 2.634-3.96zm14.929-3.52l4.172-1.1a3.009 3.009 0 013.732 2.2 3.017 3.017 0 01-2.195 3.74l-4.172 1.1a3.009 3.009 0 01-3.732-2.2 3.017 3.017 0 012.195-3.74zm14.49-4.4l4.172-1.32c1.537-.44 3.293.22 3.952 1.98.439 1.54-.22 3.3-1.976 3.74l-4.172 1.54c-1.536.44-3.293-.22-3.951-1.98-.44-1.54.439-3.3 1.975-3.96zm14.271-5.06l3.952-1.76c1.537-.66 3.293 0 3.952 1.54.658 1.54 0 3.3-1.537 3.96l-4.171 1.76c-1.537.66-3.294 0-3.952-1.54-.659-1.54.219-3.3 1.756-3.96zm13.612-6.38l3.732-1.98c1.537-.88 3.294-.22 3.952 1.1.878 1.54.22 3.3-1.097 3.96l-3.952 2.2c-1.537.88-3.294.22-3.952-1.1-.659-1.54-.22-3.52 1.317-4.18zm12.953-7.7l3.513-2.42c1.317-.88 3.074-.66 3.952.66.878 1.32.659 3.08-.659 3.96l-3.732 2.64c-1.317.88-3.074.66-4.171-.66-.659-1.54-.22-3.3 1.097-4.18zm12.075-9.24l3.294-2.86c1.097-1.1 3.073-.88 4.171.22 1.098 1.1.878 3.08-.219 3.96l-3.294 3.08c-1.097 1.1-3.073.88-4.171-.22-1.098-1.1-1.098-3.08.219-4.18zm10.758-10.56l2.854-3.3c1.098-1.1 2.855-1.32 3.952-.22 1.098 1.1 1.318 2.86.22 3.96l-2.854 3.3c-1.098 1.1-2.854 1.32-3.952.22-1.317-.88-1.317-2.64-.22-3.96zm9.441-11.66l2.415-3.52c.878-1.32 2.634-1.54 3.952-.66 1.317.88 1.537 2.64.658 3.96l-2.634 3.74c-.878 1.32-2.635 1.54-3.952.66-1.098-1.1-1.317-2.86-.439-4.18zm8.123-12.75l2.196-3.74c.658-1.32 2.415-1.76 3.732-1.1 1.317.66 1.756 2.42 1.098 3.74l-2.196 3.96c-.658 1.32-2.415 1.76-3.732 1.1-1.317-.88-1.976-2.42-1.098-3.96 0 .22 0 .22 0 0zm7.026-13.42l1.756-3.96c.659-1.32 2.196-1.98 3.513-1.32 1.317.66 1.976 2.2 1.317 3.52l-1.756 4.18c-.659 1.32-2.196 1.98-3.513 1.32-1.317-.66-1.976-2.2-1.317-3.74zm5.927-14.08l1.537-4.18c.439-1.32 1.976-1.98 3.294-1.54 1.317.44 1.975 1.98 1.536 3.08l-1.536 4.18c-.44 1.32-1.976 1.98-3.294 1.54-1.317-.22-1.976-1.54-1.537-3.08 0 .22 0 .22 0 0zm5.05-14.299l1.317-4.179c.439-1.32 1.757-1.98 2.854-1.54 1.318.44 1.976 1.76 1.537 2.86l-1.317 4.179c-.439 1.32-1.756 1.98-3.074 1.54-1.097-.22-1.756-1.54-1.317-2.86zm4.172-14.738l1.097-4.179c.22-1.1 1.537-1.98 2.635-1.54 1.098.22 1.976 1.54 1.537 2.64l-1.098 4.399c-.22 1.32-1.537 1.98-2.635 1.76-1.097-.22-1.976-1.76-1.536-3.08zm3.512-14.958l1.098-4.399c.22-1.1 1.537-1.76 2.635-1.54 1.097.22 1.756 1.32 1.536 2.64l-1.097 4.179c-.22 1.1-1.537 1.98-2.635 1.54-1.098 0-1.976-1.32-1.537-2.42zm4.391-14.958l1.537-4.179c.439-1.1 1.537-1.54 2.635-1.1 1.097.44 1.536 1.54 1.097 2.64l-1.536 4.179c-.44 1.1-1.537 1.54-2.635 1.32-1.098-.22-1.537-1.76-1.098-2.86zm5.928-14.517l1.976-3.96c.439-.88 1.537-1.32 2.635-.88.878.44 1.317 1.54.878 2.42l-1.976 3.959c-.439.88-1.537 1.32-2.635.88-1.098-.44-1.317-1.319-.878-2.419zm7.684-13.639l2.415-3.739c.439-.88 1.537-1.1 2.415-.44.878.44 1.098 1.54.439 2.42l-2.195 3.739c-.439.88-1.537 1.1-2.415.66-1.098-.66-1.317-1.76-.659-2.64zm8.782-12.758l2.854-3.519c.659-.66 1.537-.88 2.415-.22.659.66.878 1.54.22 2.199l-2.635 3.52c-.658.66-1.537.88-2.415.22-.878-.66-.878-1.54-.439-2.2zm10.319-11.878l3.074-3.08c.658-.66 1.536-.66 1.975 0 .659.66.659 1.54 0 1.98l-3.073 3.08c-.659.66-1.537.66-2.196 0-.439-.22-.439-1.32.22-1.98 0 .22 0 0 0 0zm11.416-10.559l3.513-2.859c.439-.44 1.317-.44 1.756.22.44.439.44 1.319-.219 1.759l-3.293 2.86c-.659.44-1.318.44-1.976-.22-.439-.22-.439-1.1.219-1.76 0 .22 0 .22 0 0zm12.515-9.018l3.732-2.42c.439-.22 1.098-.22 1.537.44.219.44.219 1.1-.22 1.54l-3.732 2.419c-.439.44-1.317.22-1.537-.22-.439-.879-.22-1.539.22-1.759zm13.611-7.699l3.952-1.76c.439-.22.879 0 1.098.44.22.44 0 .88-.439 1.1l-3.952 1.979c-.439.22-1.098 0-1.317-.44-.22-.44 0-1.099.658-1.319-.219 0-.219 0 0 0zm14.271-5.94l4.172-1.319c.439 0 .658 0 .878.44 0 .44 0 .66-.439.879l-4.172 1.32c-.439.22-.878 0-.878-.44-.22-.22 0-.66.439-.88zm15.149-3.299l4.391-.44c.219 0 .439.22.439.44s-.22.44-.439.44l-4.391.44c-.22 0-.659-.22-.659-.44.22-.22.22-.44.659-.44zm15.368-.22l4.391.66c.22 0 .22.22.22.22 0 .22-.22.22-.22.22l-4.391-.44c-.219 0-.219-.22-.219-.44l.219-.22zm15.149 4.179l1.976.88-1.976-.88z"/></g><g opacity=".12" clip-path="url(#clip3_45:503)" fill="#396D89"><path d="M712.36 162.352c-30.182 10.159-46.312 42.656-36.153 72.838 10.159 30.183 42.657 46.312 72.839 36.153 30.182-10.159 46.312-42.656 36.153-72.839-10.16-30.182-42.657-46.312-72.839-36.152zm34.005 101.026c-25.571 8.607-53.586-5.298-62.193-30.869-8.607-25.571 5.298-53.586 30.869-62.193 25.571-8.607 53.586 5.298 62.193 30.869 8.607 25.571-5.298 53.586-30.869 62.193z"/><path d="M713.683 184.308l1.677-.565-1.834-5.449-1.258.423-.282-.838c.838-.283 1.116-.843 1.394-1.403l1.258-.423 2.258 6.707 1.676-.565.424 1.258-4.611 1.552-.283-.838-.419.141zm6.01-1.556c1.81-2.943 2.503-5.043 2.08-6.301-.283-.838-.843-1.116-1.681-.834-.42.141-1.117.843-1.395 1.403l-1.121-.556c.557-1.121.835-1.681 2.092-2.105 1.677-.564 2.798-.008 3.362 1.669.423 1.258-.27 3.358-1.382 5.599l1.257-.423 2.096-.706.424 1.258-5.45 1.834-.282-.838zm25.099 69.022c-.56-.279-.979-.137-1.398.004-.839.282-1.395 1.402-.69 3.498.279-.56.976-1.261 1.395-1.402 1.258-.424 2.797-.009 3.362 1.668.564 1.677-.411 2.939-1.669 3.362-1.677.564-3.357-.27-4.204-2.785-.988-2.934.266-4.756 1.523-5.18.839-.282 1.818-.145 2.379.133l-.698.702zm.851 3.913c-.282-.838-.843-1.116-1.681-.834-.419.141-.697.702-.975 1.262.423 1.257 1.544 1.814 2.382 1.531 0 0 .556-1.12.274-1.959zm21.534-49.716c.56.278 1.54.415 2.378.132.839-.282 1.117-.842.835-1.68-.283-.839-.843-1.117-2.939-.411l-.423-1.258c1.677-.564 1.955-1.125 1.673-1.963-.283-.838-.843-1.117-1.681-.834-.42.141-1.117.842-1.395 1.402l-.701-.697c.697-.701.975-1.262 2.233-1.685 1.676-.564 2.797-.008 3.22 1.25.283.838.146 1.817-.693 2.1.98.137 1.959.274 2.382 1.531.424 1.258-.411 2.939-2.087 3.503-1.258.423-2.237.286-2.939-.411l.137-.979zm-38.3 8.225c.419-.142.56.278.282.838l-.689 3.499c.141.419-.278.56-.839.282l-23.798-6.924c-.419.141-.56-.278-.282-.838-.141-.419.278-.56.838-.282l24.488 3.425zm.564 1.676c-.278.56-.278.56.282.839l2.242 1.112c.56.278.56.278.838-.282l16.545-34.037c.278-.561.278-.561-.282-.839-.561-.278-.561-.278-.839.282l-18.786 32.925z"/><path d="M734.476 215.578a3.964 3.964 0 01-2.503 5.042 3.965 3.965 0 01-5.043-2.502 3.965 3.965 0 012.503-5.043 3.964 3.964 0 015.043 2.503z"/><path d="M759.697 230.889l-27.591-12.647.137-.98 27.732 13.067-.278.56zm-68.395.62c.561.279.98.137 1.399-.004.838-.282 1.395-1.402.689-3.498-.137.979-.415 1.539-1.253 1.822-1.258.423-2.798.008-3.362-1.669-.565-1.677.411-2.939 1.668-3.362 1.677-.564 3.358.27 4.205 2.785.987 2.935-.266 4.757-1.524 5.18-.838.282-1.818.145-2.378-.133l.556-1.121zm1.806-4.341c-.423-1.257-1.544-1.814-2.382-1.531-.839.282-1.117.842-.694 2.1.283.838.843 1.116 1.681.834.839-.282 1.117-.843 1.395-1.403z"/></g><g opacity=".2" clip-path="url(#clip4_45:503)" fill="#4E7D96"><path d="M1470 1538.83v-4.4c0-.44.44-.88.88-.88s.88.44.88.88l-.22 4.4c0 .44-.44.88-.88.88-.22 0-.66-.44-.66-.88zm.44-15.4l.22-4.4c0-.66.66-1.1 1.1-1.1.65 0 1.09.66 1.09 1.1l-.22 4.4c0 .66-.65 1.1-1.09.88-.88.22-1.32-.44-1.1-.88zm.88-15.4l.44-4.4c0-.66.65-1.32 1.53-1.1.66 0 1.32.66 1.1 1.54l-.44 4.4c0 .66-.66 1.1-1.32 1.1-.87-.22-1.31-.88-1.31-1.54zm1.75-15.4l.66-4.39c.22-.88.88-1.32 1.76-1.32.88.22 1.32.88 1.32 1.76l-.66 4.39c-.22.88-.88 1.32-1.76 1.1-.88 0-1.54-.88-1.32-1.54zm2.42-15.39l.88-4.4c.22-.88 1.09-1.54 1.97-1.32.88.22 1.54 1.1 1.32 1.98l-.88 4.18c-.22.88-1.1 1.54-1.97 1.32-.88 0-1.54-.88-1.32-1.76zm3.07-15.18l1.1-4.4c.22-.88 1.32-1.54 2.2-1.32.87.22 1.53 1.32 1.31 2.2l-1.09 4.4c-.22.88-1.32 1.54-2.2 1.32-.88-.22-1.54-1.1-1.32-2.2zm4.17-14.96l1.32-4.18c.22-1.1 1.32-1.54 2.42-1.32 1.09.22 1.53 1.32 1.31 2.42l-1.31 4.18c-.22 1.1-1.32 1.54-2.42 1.32-1.1-.44-1.76-1.32-1.32-2.42zm4.83-14.74l1.54-4.18c.44-1.1 1.54-1.54 2.64-1.1 1.09.44 1.53 1.54 1.09 2.64l-1.53 3.96c-.44 1.1-1.54 1.54-2.64 1.1-1.1-.22-1.54-1.32-1.1-2.42zm5.71-14.51l1.76-3.96c.44-1.1 1.75-1.54 2.85-1.1 1.1.44 1.54 1.76 1.1 2.86l-1.76 3.95c-.44 1.1-1.75 1.54-2.85 1.1-1.1-.44-1.54-1.76-1.1-2.85zm6.81-13.86l2.19-3.96c.66-1.1 1.98-1.54 3.08-.88 1.09.66 1.53 1.98.88 3.08l-2.2 3.74c-.66 1.1-1.98 1.54-3.07.88-1.1-.44-1.54-1.76-.88-2.86zm7.68-13.64l2.42-3.74c.66-1.1 2.19-1.54 3.29-.66 1.1.66 1.54 2.2.66 3.3l-2.42 3.52c-.65 1.1-2.19 1.32-3.29.66-1.1-.44-1.32-1.98-.66-3.08zm8.78-12.76l2.64-3.52c.88-1.1 2.41-1.32 3.51-.44 1.1.88 1.32 2.42.44 3.52l-2.63 3.52c-.88 1.1-2.42 1.32-3.52.44-1.09-1.1-1.31-2.64-.44-3.52zm9.66-12.32l3.08-3.3c.88-1.1 2.63-1.1 3.73-.22 1.1.88 1.1 2.64.22 3.74l-2.85 3.08c-.88 1.1-2.64 1.1-3.74.22-1.31-.88-1.31-2.42-.44-3.52zm10.98-11.22l3.29-3.08c1.1-1.1 2.86-.88 3.96.22 1.09 1.1.87 2.86-.22 3.96l-3.3 2.86c-1.09 1.1-2.85.88-3.73-.22-1.32-1.1-1.1-2.64 0-3.74zm11.86-10.11l3.51-2.64c1.32-.88 3.07-.66 3.95.44.88 1.32.66 3.08-.44 3.96l-3.51 2.63c-1.32.88-3.07.66-3.95-.65-1.1-1.1-.88-2.86.44-3.74zm12.73-9.24l3.73-2.42c1.32-.88 3.08-.44 3.96.88.87 1.32.43 3.08-.88 3.96l-3.74 2.2c-1.31.88-3.07.44-3.95-.88-.88-1.1-.44-2.86.88-3.74zm13.39-7.7l3.96-1.98c1.31-.66 3.07-.22 3.95 1.32.66 1.32.22 3.08-1.32 3.96l-3.95 1.98c-1.32.66-3.08.22-3.95-1.32-.66-1.54 0-3.3 1.31-3.96zm14.27-6.82l4.18-1.76c1.53-.66 3.29.22 3.73 1.54.66 1.54-.22 3.3-1.54 3.74l-3.95 1.54c-1.54.66-3.29-.22-3.73-1.54-.88-1.1-.22-2.86 1.31-3.52zm14.49-5.5l4.18-1.54c1.53-.66 3.29.22 3.73 1.76.66 1.54-.22 3.3-1.76 3.74l-4.17 1.54c-1.54.44-3.29-.22-3.73-1.76-.66-1.54.22-3.08 1.75-3.74zm180.25-41.13l4.39-.88c1.76-.44 3.3.88 3.74 2.42.44 1.75-.88 3.29-2.42 3.73l-4.39.88c-1.76.44-3.29-.66-3.73-2.42-.44-1.54.66-3.29 2.41-3.73zm14.93-3.08l4.17-.88c1.76-.44 3.3.66 3.74 2.42.43 1.76-.66 3.29-2.42 3.73l-4.39 1.1c-1.76.44-3.29-.66-3.73-2.41 0-1.76.88-3.52 2.63-3.96zm14.93-3.52l4.17-1.1c1.54-.44 3.3.44 3.74 2.2.43 1.54-.44 3.3-2.2 3.74l-4.17 1.1c-1.54.44-3.3-.44-3.73-2.2a3.01 3.01 0 012.19-3.74zm14.49-4.4l4.17-1.32c1.54-.44 3.3.22 3.95 1.98.44 1.54-.21 3.3-1.97 3.74l-4.17 1.54c-1.54.44-3.3-.22-3.95-1.98-.44-1.54.43-3.3 1.97-3.96zm14.27-5.06l3.95-1.76c1.54-.66 3.3 0 3.96 1.54.65 1.54 0 3.3-1.54 3.96l-4.17 1.76c-1.54.66-3.3 0-3.95-1.54-.66-1.54.22-3.3 1.75-3.96zm13.61-6.38l3.74-1.98c1.53-.88 3.29-.22 3.95 1.1.88 1.54.22 3.3-1.1 3.96l-3.95 2.2c-1.54.88-3.29.22-3.95-1.1-.66-1.54-.22-3.52 1.31-4.18zm12.96-7.7l3.51-2.42c1.32-.88 3.07-.66 3.95.66.88 1.32.66 3.08-.66 3.96l-3.73 2.64c-1.32.88-3.07.66-4.17-.66-.66-1.54-.22-3.3 1.1-4.18zm12.07-9.24l3.3-2.86c1.09-1.1 3.07-.88 4.17.22 1.09 1.1.88 3.08-.22 3.96l-3.3 3.08c-1.09 1.1-3.07.88-4.17-.22-1.09-1.1-1.09-3.08.22-4.18zm10.76-10.56l2.85-3.3c1.1-1.1 2.86-1.32 3.96-.22 1.09 1.1 1.31 2.86.22 3.96l-2.86 3.3c-1.1 1.1-2.85 1.32-3.95.22-1.32-.88-1.32-2.64-.22-3.96zm9.44-11.66l2.42-3.52c.87-1.32 2.63-1.54 3.95-.66 1.32.88 1.53 2.64.66 3.96l-2.64 3.74c-.88 1.32-2.63 1.54-3.95.66-1.1-1.1-1.32-2.86-.44-4.18zm8.12-12.75l2.2-3.74c.66-1.32 2.41-1.76 3.73-1.1 1.32.66 1.76 2.42 1.1 3.74l-2.2 3.96c-.65 1.32-2.41 1.76-3.73 1.1-1.32-.88-1.97-2.42-1.1-3.96 0 .22 0 .22 0 0zm7.03-13.42l1.76-3.96c.65-1.32 2.19-1.98 3.51-1.32 1.32.66 1.97 2.2 1.32 3.52l-1.76 4.18c-.66 1.32-2.2 1.98-3.51 1.32-1.32-.66-1.98-2.2-1.32-3.74z"/></g><g opacity=".3" clip-path="url(#clip5_45:503)" fill="#4E7D96"><path d="M1469 378.828v-4.399c0-.44.44-.88.88-.88s.88.44.88.88l-.22 4.399c0 .44-.44.88-.88.88-.22 0-.66-.44-.66-.88zm.44-15.398l.22-4.399c0-.66.66-1.1 1.1-1.1.65 0 1.09.66 1.09 1.1l-.22 4.399c0 .66-.65 1.1-1.09.88-.88.22-1.32-.44-1.1-.88zm.88-15.397l.44-4.4c0-.66.65-1.32 1.53-1.1.66 0 1.32.66 1.1 1.54l-.44 4.4c0 .659-.66 1.099-1.32 1.099-.87-.22-1.31-.879-1.31-1.539zm1.75-15.398l.66-4.4c.22-.88.88-1.32 1.76-1.32.88.22 1.32.88 1.32 1.76l-.66 4.399c-.22.88-.88 1.32-1.76 1.1-.88 0-1.54-.88-1.32-1.539zm2.42-15.398l.88-4.399c.22-.88 1.09-1.54 1.97-1.32.88.22 1.54 1.1 1.32 1.979l-.88 4.18c-.22.88-1.1 1.54-1.97 1.32-.88 0-1.54-.88-1.32-1.76zm3.07-15.178l1.1-4.399c.22-.88 1.32-1.54 2.2-1.32.87.22 1.53 1.32 1.31 2.199l-1.09 4.4c-.22.88-1.32 1.54-2.2 1.32-.88-.22-1.54-1.1-1.32-2.2zm4.17-14.958l1.32-4.18c.22-1.099 1.32-1.539 2.42-1.319 1.09.22 1.53 1.319 1.31 2.419l-1.31 4.18c-.22 1.1-1.32 1.539-2.42 1.319-1.1-.439-1.76-1.319-1.32-2.419zm4.83-14.738l1.54-4.18c.44-1.099 1.54-1.539 2.64-1.099 1.09.44 1.53 1.539 1.09 2.639l-1.53 3.96c-.44 1.1-1.54 1.54-2.64 1.1-1.1-.22-1.54-1.32-1.1-2.42zm5.71-14.518l1.76-3.959c.44-1.1 1.75-1.54 2.85-1.1 1.1.44 1.54 1.76 1.1 2.859l-1.76 3.96c-.44 1.1-1.75 1.54-2.85 1.1-1.1-.44-1.54-1.76-1.1-2.86zm6.81-13.858l2.19-3.959c.66-1.1 1.98-1.54 3.08-.88 1.09.66 1.53 1.979.88 3.079l-2.2 3.74c-.66 1.1-1.98 1.54-3.07.88-1.1-.44-1.54-1.76-.88-2.86zm7.68-13.638l2.42-3.74c.66-1.099 2.19-1.539 3.29-.659 1.1.659 1.54 2.199.66 3.299l-2.42 3.52c-.65 1.099-2.19 1.319-3.29.659-1.1-.439-1.32-1.979-.66-3.079zm8.78-12.759l2.64-3.519c.88-1.1 2.41-1.32 3.51-.44 1.1.88 1.32 2.42.44 3.52l-2.63 3.519c-.88 1.1-2.42 1.32-3.52.44-1.09-1.1-1.31-2.64-.44-3.52zm9.66-12.318l3.08-3.299c.88-1.1 2.63-1.1 3.73-.22 1.1.88 1.1 2.639.22 3.739l-2.85 3.08c-.88 1.1-2.64 1.1-3.74.22-1.31-.88-1.31-2.42-.44-3.52zm10.98-11.218l3.29-3.08c1.1-1.1 2.86-.88 3.96.22 1.09 1.1.87 2.86-.22 3.96l-3.3 2.859c-1.09 1.1-2.85.88-3.73-.22-1.32-1.099-1.1-2.639 0-3.739zm11.86-10.119l3.51-2.639c1.32-.88 3.07-.66 3.95.44.88 1.319.66 3.079-.44 3.959l-3.51 2.64c-1.32.88-3.07.66-3.95-.66-1.1-1.1-.88-2.86.44-3.74zm12.73-9.239l3.73-2.419c1.32-.88 3.08-.44 3.96.88.87 1.32.43 3.079-.88 3.959l-3.74 2.2c-1.31.88-3.07.44-3.95-.88-.88-1.1-.44-2.86.88-3.74zm13.39-7.698l3.96-1.98c1.31-.66 3.07-.22 3.95 1.32.66 1.32.22 3.08-1.32 3.959l-3.95 1.98c-1.32.66-3.08.22-3.95-1.32-.66-1.539 0-3.299 1.31-3.959zm14.27-6.819l4.18-1.76c1.53-.66 3.29.22 3.73 1.54.66 1.54-.22 3.299-1.54 3.739l-3.95 1.54c-1.54.66-3.29-.22-3.73-1.54-.88-1.1-.22-2.859 1.31-3.519zm14.49-5.5l4.18-1.539c1.53-.66 3.29.22 3.73 1.759.66 1.54-.22 3.3-1.76 3.74l-4.17 1.54c-1.54.44-3.29-.22-3.73-1.76-.66-1.54.22-3.08 1.75-3.74zm14.49-5.059l4.18-1.32c1.53-.44 3.29.44 3.73 1.98.44 1.54-.44 3.3-1.98 3.739l-4.17 1.32c-1.54.44-3.29-.44-3.73-1.979-.44-1.54.44-3.3 1.97-3.74zm14.71-4.619l4.18-1.32c1.53-.44 3.29.44 3.73 1.98.44 1.54-.44 3.299-1.98 3.739l-4.17 1.32c-1.54.44-3.29-.44-3.73-1.98-.44-1.539.44-3.299 1.97-3.739zm14.93-4.4l4.17-1.1c1.54-.44 3.3.44 3.74 2.2.44 1.76-.44 3.3-2.2 3.739l-4.17 1.1c-1.54.44-3.29-.44-3.73-2.199-.44-1.54.66-3.3 2.19-3.74zm14.93-3.739l4.39-1.1c1.76-.44 3.3.66 3.74 2.2.43 1.54-.66 3.299-2.2 3.739l-4.17 1.1c-1.76.44-3.29-.66-3.73-2.2-.66-1.759.44-3.519 1.97-3.739zm15.15-3.74l4.39-.879c1.76-.44 3.3.659 3.73 2.419.44 1.76-.65 3.3-2.41 3.74l-4.39.88c-1.76.439-3.29-.66-3.73-2.42-.44-1.54.65-3.3 2.41-3.74zm15.15-3.079l4.39-.88c1.76-.44 3.51.66 3.73 2.42.44 1.759-.66 3.519-2.41 3.739l-4.39.88c-1.76.44-3.3-.88-3.73-2.42-.44-1.759.65-3.519 2.41-3.739zm15.15-3.08l4.39-.88c1.76-.44 3.51.88 3.73 2.64.44 1.76-.88 3.519-2.63 3.739l-4.39.88c-1.76.22-3.52-.88-3.74-2.639-.22-1.76.88-3.3 2.64-3.74zm15.15-2.859l4.39-.88c1.75-.22 3.51.88 3.73 2.64.22 1.759-.88 3.519-2.63 3.739l-4.39.66c-1.76.22-3.52-.88-3.74-2.64-.44-1.539.88-3.079 2.64-3.519zm15.15-2.64l4.39-.66c1.75-.22 3.51.88 3.73 2.64.22 1.759-.88 3.519-2.63 3.739l-4.4.66c-1.75.22-3.51-.88-3.73-2.64-.44-1.539.88-3.299 2.64-3.739zm15.15-2.42l4.39-.659c1.75-.22 3.51.879 3.73 2.639.22 1.76-.88 3.52-2.64 3.74l-4.39.66c-1.75.22-3.51-.88-3.73-2.64-.22-1.76.88-3.52 2.64-3.74zm15.14-2.639l4.39-.66c1.76-.22 3.3.88 3.74 2.639.22 1.76-.88 3.3-2.64 3.74l-4.39.88c-1.75.22-3.51-.88-3.73-2.64-.22-1.98.88-3.739 2.63-3.959zm15.15-2.86l4.39-.88c1.76-.44 3.3.88 3.74 2.42.44 1.76-.88 3.299-2.42 3.739l-4.39.88c-1.76.44-3.29-.66-3.73-2.42-.44-1.539.66-3.299 2.41-3.739zm14.93-3.079l4.17-.88c1.76-.44 3.3.66 3.74 2.419.43 1.76-.66 3.3-2.42 3.74l-4.39 1.1c-1.76.44-3.29-.66-3.73-2.42 0-1.76.88-3.519 2.63-3.959zm14.93-3.52l4.17-1.1c1.54-.44 3.3.44 3.74 2.2a3.023 3.023 0 01-2.2 3.739l-4.17 1.1c-1.54.44-3.3-.44-3.73-2.199a3.01 3.01 0 012.19-3.74zm14.49-4.399l4.17-1.32c1.54-.44 3.3.22 3.95 1.98.44 1.539-.21 3.299-1.97 3.739l-4.17 1.54c-1.54.44-3.3-.22-3.95-1.98-.44-1.54.43-3.299 1.97-3.959zm14.27-5.06l3.95-1.76c1.54-.66 3.3 0 3.96 1.54.65 1.54 0 3.3-1.54 3.96l-4.17 1.759c-1.54.66-3.3 0-3.95-1.539-.66-1.54.22-3.3 1.75-3.96zm13.61-6.379l3.74-1.98c1.53-.88 3.29-.22 3.95 1.1.88 1.54.22 3.3-1.1 3.96l-3.95 2.2c-1.54.88-3.29.22-3.95-1.1-.66-1.54-.22-3.52 1.31-4.18zm12.96-7.698l3.51-2.42c1.32-.88 3.07-.66 3.95.66.88 1.32.66 3.08-.66 3.96l-3.73 2.639c-1.32.88-3.07.66-4.17-.66-.66-1.54-.22-3.3 1.1-4.18zm12.07-9.24l3.3-2.859c1.09-1.1 3.07-.88 4.17.22 1.09 1.1.88 3.08-.22 3.96l-3.3 3.079c-1.09 1.1-3.07.88-4.17-.22-1.09-1.1-1.09-3.08.22-4.18zm10.76-10.558l2.85-3.3c1.1-1.1 2.86-1.32 3.96-.22 1.09 1.1 1.31 2.86.22 3.96l-2.86 3.3c-1.1 1.1-2.85 1.32-3.95.22-1.32-.88-1.32-2.64-.22-3.96zm9.44-11.658l2.42-3.52c.87-1.32 2.63-1.54 3.95-.66 1.32.88 1.53 2.64.66 3.96l-2.64 3.74c-.88 1.319-2.63 1.539-3.95.66-1.1-1.1-1.32-2.86-.44-4.18zm8.12-12.758l2.2-3.74c.66-1.32 2.41-1.76 3.73-1.1 1.32.66 1.76 2.42 1.1 3.74l-2.2 3.96c-.65 1.319-2.41 1.759-3.73 1.099-1.32-.88-1.97-2.42-1.1-3.96 0 .22 0 .22 0 0zm7.03-13.419l1.76-3.959c.65-1.32 2.19-1.98 3.51-1.32 1.32.66 1.97 2.2 1.32 3.52l-1.76 4.18c-.66 1.319-2.2 1.979-3.51 1.319-1.32-.66-1.98-2.2-1.32-3.74z"/></g><g opacity=".2" clip-path="url(#clip6_45:503)" fill="#4E7D96"><path d="M1470 990.828v-4.399c0-.44.44-.88.88-.88s.88.44.88.88l-.22 4.399c0 .44-.44.88-.88.88-.22 0-.66-.44-.66-.88zm.44-15.398l.22-4.399c0-.66.66-1.1 1.1-1.1.65 0 1.09.66 1.09 1.1l-.22 4.399c0 .66-.65 1.1-1.09.88-.88.22-1.32-.44-1.1-.88zm.88-15.397l.44-4.4c0-.66.65-1.32 1.53-1.1.66 0 1.32.66 1.1 1.54l-.44 4.4c0 .659-.66 1.099-1.32 1.099-.87-.22-1.31-.879-1.31-1.539zm1.75-15.398l.66-4.4c.22-.88.88-1.32 1.76-1.32.88.22 1.32.88 1.32 1.76l-.66 4.399c-.22.88-.88 1.32-1.76 1.1-.88 0-1.54-.88-1.32-1.539zm2.42-15.398l.88-4.399c.22-.88 1.09-1.54 1.97-1.32.88.22 1.54 1.1 1.32 1.979l-.88 4.18c-.22.88-1.1 1.54-1.97 1.32-.88 0-1.54-.88-1.32-1.76zm3.07-15.178l1.1-4.399c.22-.88 1.32-1.54 2.2-1.32.87.22 1.53 1.32 1.31 2.199l-1.09 4.4c-.22.88-1.32 1.54-2.2 1.32-.88-.22-1.54-1.1-1.32-2.2zm4.17-14.958l1.32-4.18c.22-1.099 1.32-1.539 2.42-1.319 1.09.22 1.53 1.319 1.31 2.419l-1.31 4.18c-.22 1.1-1.32 1.539-2.42 1.319-1.1-.439-1.76-1.319-1.32-2.419zm4.83-14.738l1.54-4.18c.44-1.099 1.54-1.539 2.64-1.099 1.09.44 1.53 1.539 1.09 2.639l-1.53 3.96c-.44 1.1-1.54 1.54-2.64 1.1-1.1-.22-1.54-1.32-1.1-2.42zm5.71-14.518l1.76-3.959c.44-1.1 1.75-1.54 2.85-1.1 1.1.44 1.54 1.76 1.1 2.859l-1.76 3.96c-.44 1.1-1.75 1.54-2.85 1.1-1.1-.44-1.54-1.76-1.1-2.86zm6.81-13.858l2.19-3.959c.66-1.1 1.98-1.54 3.08-.88 1.09.66 1.53 1.979.88 3.079l-2.2 3.74c-.66 1.1-1.98 1.54-3.07.88-1.1-.44-1.54-1.76-.88-2.86zm7.68-13.638l2.42-3.74c.66-1.099 2.19-1.539 3.29-.659 1.1.659 1.54 2.199.66 3.299l-2.42 3.52c-.65 1.099-2.19 1.319-3.29.659-1.1-.439-1.32-1.979-.66-3.079zm8.78-12.759l2.64-3.519c.88-1.1 2.41-1.32 3.51-.44 1.1.88 1.32 2.42.44 3.52l-2.63 3.519c-.88 1.1-2.42 1.32-3.52.44-1.09-1.1-1.31-2.64-.44-3.52zm9.66-12.318l3.08-3.299c.88-1.1 2.63-1.1 3.73-.22 1.1.88 1.1 2.639.22 3.739l-2.85 3.08c-.88 1.1-2.64 1.1-3.74.22-1.31-.88-1.31-2.42-.44-3.52zm10.98-11.218l3.29-3.08c1.1-1.1 2.86-.88 3.96.22 1.09 1.1.87 2.86-.22 3.96l-3.3 2.859c-1.09 1.1-2.85.88-3.73-.22-1.32-1.099-1.1-2.639 0-3.739zm11.86-10.119l3.51-2.639c1.32-.88 3.07-.66 3.95.44.88 1.319.66 3.079-.44 3.959l-3.51 2.64c-1.32.88-3.07.66-3.95-.66-1.1-1.1-.88-2.86.44-3.74zm12.73-9.239l3.73-2.419c1.32-.88 3.08-.44 3.96.88.87 1.32.43 3.079-.88 3.959l-3.74 2.2c-1.31.88-3.07.44-3.95-.88-.88-1.1-.44-2.86.88-3.74zm13.39-7.698l3.96-1.98c1.31-.66 3.07-.22 3.95 1.32.66 1.32.22 3.08-1.32 3.959l-3.95 1.98c-1.32.66-3.08.22-3.95-1.32-.66-1.539 0-3.299 1.31-3.959zm14.27-6.819l4.18-1.76c1.53-.66 3.29.22 3.73 1.54.66 1.54-.22 3.299-1.54 3.739l-3.95 1.54c-1.54.66-3.29-.22-3.73-1.54-.88-1.1-.22-2.859 1.31-3.519zm14.49-5.5l4.18-1.539c1.53-.66 3.29.22 3.73 1.759.66 1.54-.22 3.3-1.76 3.74l-4.17 1.54c-1.54.44-3.29-.22-3.73-1.76-.66-1.54.22-3.08 1.75-3.74zm14.49-5.059l4.18-1.32c1.53-.44 3.29.44 3.73 1.98.44 1.54-.44 3.3-1.98 3.739l-4.17 1.32c-1.54.44-3.29-.44-3.73-1.979-.44-1.54.44-3.3 1.97-3.74zm14.71-4.619l4.18-1.32c1.53-.44 3.29.44 3.73 1.98.44 1.54-.44 3.299-1.98 3.739l-4.17 1.32c-1.54.44-3.29-.44-3.73-1.98-.44-1.539.44-3.299 1.97-3.739zm14.93-4.4l4.17-1.1c1.54-.44 3.3.44 3.74 2.2.44 1.76-.44 3.3-2.2 3.739l-4.17 1.1c-1.54.44-3.29-.44-3.73-2.199-.44-1.54.66-3.3 2.19-3.74zm14.93-3.739l4.39-1.1c1.76-.44 3.3.66 3.74 2.2.43 1.54-.66 3.299-2.2 3.739l-4.17 1.1c-1.76.44-3.29-.66-3.73-2.2-.66-1.759.44-3.519 1.97-3.739zm15.15-3.74l4.39-.879c1.76-.44 3.3.659 3.73 2.419.44 1.76-.65 3.3-2.41 3.74l-4.39.88c-1.76.439-3.29-.66-3.73-2.42-.44-1.54.65-3.3 2.41-3.74zm15.15-3.079l4.39-.88c1.76-.44 3.51.66 3.73 2.42.44 1.759-.66 3.519-2.41 3.739l-4.39.88c-1.76.44-3.3-.88-3.73-2.42-.44-1.759.65-3.519 2.41-3.739zm15.15-3.08l4.39-.88c1.76-.44 3.51.88 3.73 2.64.44 1.76-.88 3.519-2.63 3.739l-4.39.88c-1.76.22-3.52-.88-3.74-2.639-.22-1.76.88-3.3 2.64-3.74zm15.15-2.859l4.39-.88c1.75-.22 3.51.88 3.73 2.64.22 1.759-.88 3.519-2.63 3.739l-4.39.66c-1.76.22-3.52-.88-3.74-2.64-.44-1.539.88-3.079 2.64-3.519zm15.15-2.64l4.39-.66c1.75-.22 3.51.88 3.73 2.64.22 1.759-.88 3.519-2.63 3.739l-4.4.66c-1.75.22-3.51-.88-3.73-2.64-.44-1.539.88-3.299 2.64-3.739zm15.15-2.42l4.39-.659c1.75-.22 3.51.879 3.73 2.639.22 1.76-.88 3.52-2.64 3.74l-4.39.66c-1.75.22-3.51-.88-3.73-2.64-.22-1.76.88-3.52 2.64-3.74zm15.14-2.639l4.39-.66c1.76-.22 3.3.88 3.74 2.639.22 1.76-.88 3.3-2.64 3.74l-4.39.88c-1.75.22-3.51-.88-3.73-2.64-.22-1.98.88-3.739 2.63-3.959zm15.15-2.86l4.39-.88c1.76-.44 3.3.88 3.74 2.42.44 1.76-.88 3.299-2.42 3.739l-4.39.88c-1.76.44-3.29-.66-3.73-2.42-.44-1.539.66-3.299 2.41-3.739zm14.93-3.079l4.17-.88c1.76-.44 3.3.66 3.74 2.419.43 1.76-.66 3.3-2.42 3.74l-4.39 1.1c-1.76.44-3.29-.66-3.73-2.42 0-1.76.88-3.519 2.63-3.959zm14.93-3.52l4.17-1.1c1.54-.44 3.3.44 3.74 2.2a3.023 3.023 0 01-2.2 3.739l-4.17 1.1c-1.54.44-3.3-.44-3.73-2.199a3.01 3.01 0 012.19-3.74zm14.49-4.399l4.17-1.32c1.54-.44 3.3.22 3.95 1.98.44 1.539-.21 3.299-1.97 3.739l-4.17 1.54c-1.54.44-3.3-.22-3.95-1.98-.44-1.54.43-3.299 1.97-3.959zm14.27-5.06l3.95-1.76c1.54-.659 3.3 0 3.96 1.54.65 1.54 0 3.3-1.54 3.96l-4.17 1.759c-1.54.66-3.3 0-3.95-1.539-.66-1.54.22-3.3 1.75-3.96zm13.61-6.379l3.74-1.979c1.53-.88 3.29-.22 3.95 1.1.88 1.539.22 3.299-1.1 3.959l-3.95 2.2c-1.54.88-3.29.22-3.95-1.1-.66-1.54-.22-3.52 1.31-4.18zm12.96-7.698l3.51-2.42c1.32-.88 3.07-.66 3.95.66.88 1.32.66 3.079-.66 3.959l-3.73 2.64c-1.32.88-3.07.66-4.17-.66-.66-1.54-.22-3.3 1.1-4.179zm12.07-9.239l3.3-2.86c1.09-1.1 3.07-.88 4.17.22 1.09 1.1.88 3.08-.22 3.959l-3.3 3.08c-1.09 1.1-3.07.88-4.17-.22-1.09-1.1-1.09-3.08.22-4.179zm10.76-10.559l2.85-3.3c1.1-1.099 2.86-1.319 3.96-.22 1.09 1.1 1.31 2.86.22 3.96l-2.86 3.299c-1.1 1.1-2.85 1.32-3.95.22-1.32-.879-1.32-2.639-.22-3.959zm9.44-11.658l2.42-3.52c.87-1.32 2.63-1.54 3.95-.66 1.32.88 1.53 2.64.66 3.96l-2.64 3.739c-.88 1.32-2.63 1.54-3.95.66-1.1-1.1-1.32-2.86-.44-4.179zm8.12-12.759l2.2-3.739c.66-1.32 2.41-1.76 3.73-1.1 1.32.66 1.76 2.42 1.1 3.74l-2.2 3.959c-.65 1.32-2.41 1.76-3.73 1.1-1.32-.88-1.97-2.42-1.1-3.96 0 .22 0 .22 0 0zm7.03-13.418l1.76-3.959c.65-1.32 2.19-1.98 3.51-1.32 1.32.66 1.97 2.2 1.32 3.52l-1.76 4.179c-.66 1.32-2.2 1.98-3.51 1.32-1.32-.66-1.98-2.2-1.32-3.74z"/></g><g opacity=".15" clip-path="url(#clip7_45:503)" fill="#4E7D96"><path d="M1701.49 1368.34l-42.86-74.83 2.07-.88-2.07.88-1.63-2.39 51.19-21.79 24.84 85.58-31.54 13.43zm1.84-5.71l24.3-10.35-22.32-76.8-41.88 17.84 39.9 69.31z"/><path d="M1697.79 1292.25l-.52.22c-1.25-.09-2.73-.69-2.66-1.95l-5.28-35.36s-.22-.52.3-.74c-.23-.52.51-4.53 3.9-6.59 2.07-.89 4.88-1.46 7.84-.26 4.95 1.59 12.86 4.39 12.86 4.39l-1.25 4.23s-7.91-2.8-12.86-4.39c-2-.38-3.26-.46-4.29-.02-1.55.66-1.62 1.92-1.92 2.67l5.28 35.35c-.07 1.26-.36 2.01-1.4 2.45z"/><path d="M1668.25 1306.06l-1.78-4.17 42.91-18.28 1.78 4.17-42.91 18.28z"/></g><g opacity=".25" clip-path="url(#clip8_45:503)"><path d="M1700.53 1392.07c47.25 0 85.54-38.3 85.54-85.54 0-47.24-38.29-85.54-85.54-85.54-47.24 0-85.54 38.3-85.54 85.54 0 47.24 38.3 85.54 85.54 85.54z" stroke="#4E7D96" stroke-width="3" stroke-linecap="round" stroke-dasharray="10 10"/></g><g opacity=".3" clip-path="url(#clip9_45:503)" fill="#4E7D96"><path d="M749 1118l1.5.2-1.5-.2zm13.4 2.3l2.9.6c.1 0 .1.1.1.1 0 .1-.1.1-.1.1l-2.9-.7c-.1 0-.1-.1-.1-.1h.1zm14.6 3.5l2.9.8c.1 0 .2.2.2.3 0 .1-.2.2-.3.2l-2.9-.9c-.1 0-.2-.2-.1-.3-.1 0 .1-.1.2-.1zm14.4 4.6l2.8 1c.2.1.3.3.2.4-.1.2-.3.3-.4.2l-2.8-1c-.2-.1-.3-.2-.2-.4 0-.2.2-.3.4-.2zm14 5.3l2.8 1.2c.2.1.3.3.2.6-.1.2-.3.3-.6.2l-2.8-1.2c-.2-.1-.3-.3-.2-.5.2-.3.4-.3.6-.3zm13.8 6.2l2.7 1.3c.3.1.4.4.2.7-.1.3-.4.4-.7.2l-2.7-1.4c-.2-.1-.3-.4-.2-.7.1-.1.4-.2.7-.1zm13.3 7l2.6 1.5c.3.2.4.5.2.8-.2.3-.5.4-.8.2l-2.6-1.5c-.3-.2-.4-.5-.2-.8.2-.2.6-.3.8-.2zm12.9 7.9l2.5 1.7c.3.2.4.6.2.9-.2.3-.6.4-.9.2l-2.5-1.7c-.3-.2-.4-.6-.2-.9.2-.3.6-.4.9-.2zm12.4 8.7l2.4 1.9c.3.3.4.7.1 1.1-.3.3-.7.4-1.1.1l-2.3-1.9c-.3-.3-.4-.7-.1-1.1.2-.3.6-.3 1-.1zm11.6 9.7l2.2 2.1c.3.3.4.9 0 1.2-.4.3-.9.4-1.2 0l-2.2-2.1c-.3-.3-.4-.8 0-1.2.3-.3.8-.3 1.2 0zm10.7 10.7l2 2.3c.3.4.3 1-.1 1.3-.4.3-1 .3-1.3-.1l-2-2.3c-.3-.4-.3-1 .1-1.3.4-.3.9-.3 1.3.1zm9.5 11.8l1.7 2.5c.3.5.2 1.1-.3 1.4-.5.3-1.1.2-1.4-.3l-1.7-2.5c-.3-.5-.2-1.1.3-1.4.5-.3 1.1-.2 1.4.3zm8.1 12.8l1.4 2.7c.3.5.1 1.2-.5 1.4-.5.3-1.2.1-1.4-.5l-1.4-2.7c-.3-.5-.1-1.2.5-1.4.5-.2 1.1 0 1.4.5zm6.2 13.9l1 2.9c.2.6-.1 1.2-.7 1.4-.6.2-1.2-.1-1.4-.7l-1-2.8c-.2-.6.1-1.2.7-1.4.6-.3 1.2 0 1.4.6zm4 14.7l.5 3c.1.6-.3 1.2-.9 1.4-.6.1-1.2-.3-1.4-.9l-.5-2.9c-.1-.6.3-1.2.9-1.3.7-.4 1.3 0 1.4.7zm1.8 15.1l.1 3c0 .7-.5 1.2-1.2 1.2s-1.2-.5-1.2-1.2v-3c0-.7.5-1.2 1.2-1.2.5 0 1 .5 1.1 1.2zm-.7 15.2l-.4 3c-.1.7-.7 1.2-1.4 1.1-.7-.1-1.2-.7-1.1-1.4l.4-2.9c.1-.7.7-1.2 1.4-1.1.7 0 1.2.6 1.1 1.3zm-2.9 14.9l-.8 2.9c-.2.7-.9 1.1-1.6.9-.7-.2-1.1-.9-.9-1.6l.8-2.9c.2-.7.9-1.1 1.6-.9.7.2 1.1.9.9 1.6zm-4.7 14.5l-1.1 2.8c-.3.7-1.1 1-1.8.8-.7-.2-1-1.1-.8-1.8l1.1-2.8c.3-.7 1.1-1 1.8-.7.8.2 1.1 1 .8 1.7zm-6.2 13.8l-1.4 2.7c-.4.7-1.2 1-1.9.6s-1-1.2-.6-1.9l1.4-2.6c.4-.7 1.2-1 1.9-.6.7.3.9 1.1.6 1.8zm-7.5 13.2l-1.6 2.6c-.4.7-1.4.9-2 .5-.7-.4-.9-1.4-.5-2l1.6-2.5c.4-.7 1.4-.9 2-.4.7.2.9 1.2.5 1.8zm-8.5 12.6l-1.8 2.4c-.5.7-1.5.8-2.1.3-.7-.5-.8-1.5-.3-2.1l1.8-2.4c.5-.7 1.5-.8 2.1-.3.7.5.8 1.4.3 2.1zm-9.2 12l-1.9 2.2c-.6.7-1.6.8-2.2.2-.7-.6-.8-1.6-.2-2.2l1.8-2.2c.6-.7 1.6-.8 2.2-.2.7.5.8 1.5.3 2.2zm-9.8 11.4l-2 2.2c-.6.7-1.7.7-2.3.1-.7-.6-.7-1.7-.1-2.3l2-2.2c.6-.7 1.6-.7 2.3-.1.6.6.7 1.6.1 2.3zm-10.5 10.9l-2.2 2.1c-.7.6-1.7.6-2.4 0s-.6-1.7 0-2.4l2.2-2.1c.7-.6 1.7-.6 2.4 0s.6 1.7 0 2.4zm-11.2 10.2l-2.3 2c-.7.6-1.8.5-2.4-.2-.6-.7-.5-1.8.2-2.4l2.3-1.9c.7-.6 1.8-.5 2.4.2.6.7.5 1.7-.2 2.3zm-11.8 9.5l-2.4 1.8c-.8.6-1.8.4-2.4-.4-.6-.8-.4-1.8.4-2.4l2.4-1.8c.8-.6 1.8-.4 2.4.4.6.8.3 1.9-.4 2.4zm-12.5 8.6l-2.6 1.6c-.8.5-1.9.3-2.4-.6-.5-.9-.3-1.9.6-2.4l2.5-1.6c.8-.5 1.9-.3 2.4.6.5.9.3 1.9-.5 2.4zm-13.2 7.6l-2.7 1.4c-.9.4-1.9.1-2.4-.8-.4-.9-.1-1.9.8-2.4l2.7-1.4c.9-.4 1.9-.1 2.4.8.4.9.1 2-.8 2.4zm-13.7 6.6l-2.8 1.2c-.9.4-1.9 0-2.3-.9-.4-.9 0-1.9.9-2.3l2.7-1.2c.9-.4 1.9 0 2.3.9.4.9.1 1.9-.8 2.3zm-14.1 5.5l-2.9 1c-.9.3-2-.2-2.3-1.1-.3-.9.2-2 1.1-2.3l2.8-1c.9-.3 2 .2 2.3 1.1.4 1-.1 2-1 2.3zm-14.5 4.6l-2.9.8c-1 .3-2-.3-2.2-1.3-.3-1 .3-2 1.3-2.2l2.9-.8c1-.3 2 .3 2.2 1.3.2 1-.3 1.9-1.3 2.2zm-14.6 3.7l-3 .7c-1 .2-2-.4-2.2-1.4-.2-1 .4-2 1.4-2.2l2.9-.6c1-.2 2 .4 2.2 1.4.2 1-.4 1.9-1.3 2.1zm-14.8 3l-3 .5c-1 .2-2-.5-2.1-1.5-.2-1 .5-2 1.5-2.1l2.9-.5c1-.2 2 .5 2.1 1.5.2 1-.4 2-1.4 2.1zm-14.9 2.6l-3 .5c-1 .2-2-.5-2.1-1.5-.2-1 .5-2 1.5-2.1l3-.5c1-.2 2 .5 2.1 1.5.2 1-.5 2-1.5 2.1zm-14.9 2.3l-3 .4c-1 .1-2-.6-2.1-1.6-.1-1 .6-2 1.6-2.1l3-.4c1-.1 2 .6 2.1 1.6.1 1-.6 1.9-1.6 2.1zm-14.9 2.1l-3 .4c-1 .1-2-.6-2.1-1.6-.1-1 .6-2 1.6-2.1l3-.4c1-.1 2 .6 2.1 1.6.1 1-.6 2-1.6 2.1zm-14.9 2.1l-3 .4c-1 .2-2-.6-2.2-1.6-.2-1 .6-2 1.6-2.2l3-.4c1-.2 2 .6 2.2 1.6.1 1.1-.6 2.1-1.6 2.2zm-14.9 2.3l-3 .5c-1.1.2-2-.5-2.2-1.6-.2-1.1.5-2 1.6-2.2l3-.5c1.1-.2 2 .6 2.2 1.6.2 1-.5 2-1.6 2.2zm-14.8 2.5l-3 .5c-1.1.2-2.1-.5-2.3-1.6-.2-1.1.5-2.1 1.6-2.3l3-.5c1.1-.2 2.1.5 2.3 1.6.2 1.1-.5 2.1-1.6 2.3zm-14.7 2.7l-2.9.6c-1.1.2-2.1-.5-2.3-1.5-.2-1 .5-2.1 1.5-2.3l3-.6c1.1-.2 2.1.5 2.3 1.5.1 1.1-.6 2.1-1.6 2.3zm-14.7 3.1l-2.9.7c-1.1.2-2.1-.4-2.4-1.5-.2-1.1.4-2.1 1.5-2.4l2.9-.7c1.1-.2 2.1.4 2.4 1.5.2 1.1-.4 2.2-1.5 2.4zm-14.6 3.5l-2.9.8c-1.1.3-2.2-.4-2.4-1.4-.3-1.1.4-2.2 1.4-2.4l2.9-.8c1.1-.3 2.2.4 2.4 1.4.2 1-.3 2.2-1.4 2.4zm-14.5 3.9l-2.9.8c-1.1.3-2.2-.3-2.5-1.4-.3-1.1.3-2.2 1.4-2.5l2.9-.8c1.1-.3 2.2.3 2.5 1.4.3 1.1-.3 2.2-1.4 2.5zm-14.3 4.4l-2.9.9c-1 .3-2.1-.2-2.5-1.3-.4-1.1.2-2.1 1.3-2.5l2.9-.9c1-.3 2.1.2 2.5 1.3.3 1-.3 2.1-1.3 2.5zm-14.2 4.8l-2.8 1c-1 .4-2.1-.2-2.5-1.2-.4-1 .2-2.1 1.2-2.5l2.8-1c1-.4 2.1.2 2.5 1.2.3 1-.2 2.1-1.2 2.5zm-14.1 5.2l-2.8 1.1c-1 .4-2.1-.1-2.5-1.1-.4-1 .1-2.1 1.1-2.5l2.8-1.1c1-.4 2.1.1 2.5 1.1.4 1-.1 2.1-1.1 2.5zm-13.9 5.6l-2.8 1.2c-1 .4-2.1 0-2.5-1-.4-1 0-2.1 1-2.5l2.8-1.2c1-.4 2.1 0 2.5 1 .5.9 0 2.1-1 2.5zm-13.7 6l-2.7 1.3c-1 .4-2.1 0-2.5-.9-.4-1 0-2.1.9-2.5l2.7-1.3c1-.4 2.1 0 2.5.9.4.9.1 2.1-.9 2.5zm-13.6 6.5l-2.7 1.3c-.9.5-2.1.1-2.5-.9-.5-.9-.1-2.1.8-2.5l2.7-1.3c.9-.5 2.1-.1 2.5.8.6 1 .2 2.1-.8 2.6zm-13.3 6.8l-2.7 1.4c-.9.5-2 .1-2.5-.8s-.1-2 .8-2.5l2.7-1.4c.9-.5 2-.1 2.5.8.4.8.1 2-.8 2.5zm-13.2 7.1l-2.6 1.5c-.9.5-2 .2-2.5-.7-.5-.9-.2-2 .7-2.5l2.6-1.5c.9-.5 2-.2 2.5.7.5.9.2 2-.7 2.5zm-13 7.5l-2.6 1.5c-.9.5-2 .2-2.5-.6-.5-.9-.2-2 .6-2.5l2.6-1.5c.9-.5 2-.2 2.5.6s.3 2-.6 2.5zm-12.9 7.8l-2.5 1.6c-.8.5-2 .3-2.5-.6-.5-.8-.3-2 .6-2.5l2.6-1.6c.8-.5 2-.3 2.5.6.5.8.2 1.9-.7 2.5zm-12.6 8.1l-2.5 1.6c-.8.5-1.9.3-2.5-.5-.5-.8-.3-1.9.5-2.5l2.5-1.7c.8-.5 1.9-.3 2.5.5.6.9.3 2-.5 2.6zm-12.5 8.3l-2.5 1.7c-.8.6-1.9.3-2.5-.5-.6-.8-.4-1.9.5-2.5l2.5-1.7c.8-.6 1.9-.4 2.5.5.5.8.3 1.9-.5 2.5zm-12.3 8.6l-2.4 1.7c-.8.6-1.9.4-2.5-.4-.6-.8-.4-1.9.4-2.5l2.5-1.8c.8-.6 1.9-.4 2.5.4.6.8.3 2-.5 2.6zm-12.3 8.7l-2.5 1.7c-.8.5-1.9.3-2.4-.4-.5-.8-.3-1.9.4-2.4l2.5-1.7c.8-.5 1.9-.4 2.4.4.6.8.4 1.9-.4 2.4zm-12.5 8.5l-2.5 1.6c-.8.5-1.9.3-2.4-.5s-.3-1.9.5-2.4l2.5-1.6c.8-.5 1.9-.3 2.4.5s.3 1.9-.5 2.4zm-12.8 8.1l-2.6 1.6c-.8.5-1.9.2-2.3-.6-.5-.8-.2-1.9.6-2.3l2.6-1.6c.8-.5 1.9-.2 2.3.6.5.7.2 1.8-.6 2.3zm-13 7.6l-2.6 1.5c-.8.5-1.8.2-2.3-.6-.5-.8-.2-1.8.6-2.3l2.6-1.5c.8-.5 1.8-.2 2.3.6.5.8.2 1.8-.6 2.3zm-13.3 7.2l-2.7 1.4c-.8.4-1.8.1-2.2-.7-.4-.8-.1-1.8.7-2.2l2.7-1.4c.8-.4 1.8-.1 2.2.7.4.7.1 1.7-.7 2.2zm-13.6 6.6l-2.7 1.3c-.8.4-1.7 0-2.1-.8-.4-.8 0-1.7.8-2.1l2.7-1.3c.8-.4 1.7 0 2.1.8.3.8 0 1.7-.8 2.1zm-13.8 6.1l-2.8 1.2c-.8.3-1.7-.1-2-.8-.3-.8 0-1.7.8-2l2.8-1.2c.8-.3 1.7 0 2 .8.3.8-.1 1.7-.8 2zm-14.1 5.5l-2.8 1c-.8.3-1.6-.1-1.9-.9-.3-.8.1-1.6.9-1.9l2.8-1c.8-.3 1.6.1 1.9.9.2.8-.2 1.7-.9 1.9zm-14.4 4.9l-2.9.9c-.8.2-1.6-.2-1.8-.9-.2-.8.2-1.5.9-1.8l2.9-.9c.8-.2 1.6.2 1.8.9.3.8-.1 1.6-.9 1.8zm-14.5 4.2l-2.9.7c-.7.2-1.5-.3-1.7-1-.2-.7.3-1.5 1-1.7l2.9-.8c.7-.2 1.5.3 1.7 1 .2.7-.3 1.6-1 1.8zm-14.8 3.4l-3 .6c-.7.1-1.4-.3-1.6-1-.1-.7.3-1.4 1-1.6l2.9-.6c.7-.1 1.4.3 1.6 1 .3.7-.1 1.4-.9 1.6zm-14.9 2.5l-3 .4c-.7.1-1.3-.4-1.4-1.1-.1-.7.4-1.3 1.1-1.4l3-.4c.7-.1 1.4.4 1.5 1.1 0 .7-.5 1.3-1.2 1.4zm-15 1.8l-3 .2c-.7.1-1.3-.5-1.3-1.1-.1-.7.4-1.3 1.1-1.3l3-.3c.7-.1 1.3.4 1.3 1.1.1.7-.4 1.3-1.1 1.4zm-15.1.7h-3c-.6 0-1.2-.5-1.2-1.1 0-.6.5-1.2 1.1-1.2l3-.1c.6 0 1.2.5 1.2 1.2.1.7-.5 1.2-1.1 1.2zm-15.1-.1l-3-.2c-.6 0-1.1-.6-1.1-1.2s.5-1.1 1.2-1.1l3 .1c.6 0 1.1.6 1.1 1.2s-.6 1.2-1.2 1.2zm-15.1-1.2l-3-.4c-.6-.1-1-.6-.9-1.2.1-.6.6-1 1.2-.9l3 .3c.6.1 1 .6.9 1.2-.1.7-.6 1.1-1.2 1zm-15-2.1l-3-.6c-.5-.1-.9-.6-.8-1.2.1-.5.6-.9 1.2-.8l3 .5c.6.1.9.6.8 1.2-.1.6-.6 1-1.2.9zm-14.8-3.2l-2.9-.8c-.5-.1-.8-.6-.7-1.1.1-.5.6-.8 1.1-.7l2.9.7c.5.1.8.6.7 1.1-.1.5-.6.9-1.1.8zm-14.5-4.2l-2.9-1c-.4-.1-.7-.6-.5-1.1.1-.4.6-.7 1.1-.5l2.9.9c.5.1.7.6.6 1.1-.3.5-.7.7-1.2.6zm-14.2-5.2l-2.8-1.2c-.4-.2-.6-.6-.4-1 .2-.4.6-.6 1-.4l2.8 1.1c.4.2.6.6.4 1-.2.4-.6.7-1 .5zm-13.8-6.1l-2.7-1.3c-.3-.2-.5-.6-.3-.9.2-.3.6-.5.9-.3l2.7 1.3c.3.2.5.6.3.9-.1.3-.6.4-.9.3zm-13.4-7.1l-2.6-1.5c-.3-.2-.4-.5-.2-.8.2-.3.5-.4.8-.2l2.6 1.5c.3.2.4.5.2.8-.1.3-.5.4-.8.2zm-12.8-7.9l-2.5-1.7c-.2-.2-.3-.5-.1-.7.2-.2.5-.3.7-.1l2.5 1.6c.2.2.3.5.1.7-.2.2-.5.4-.7.2zm-12.3-8.7l-2.4-1.8c-.2-.1-.2-.4-.1-.6.1-.2.4-.2.6-.1l2.4 1.8c.2.1.2.4.1.6-.2.2-.4.3-.6.1zm-11.8-9.5l-2.3-2c-.1-.1-.1-.3 0-.5.1-.1.3-.1.5 0l2.3 2c.1.1.2.3 0 .5s-.3.1-.5 0c.1 0 0 0 0 0zm-11-10.2l-2.1-2.1c-.1-.1-.1-.2 0-.3.1-.1.2-.1.3 0l2.2 2.1c.1.1.1.2 0 .3-.2.1-.3.1-.4 0zm-10.3-11l-2-2.3v-.1h.1l2 2.2v.2c0 .1-.1.1-.1 0zm-9.8-11.9l-.9-1.2.9 1.2z"/></g><defs><clipPath id="clip0_45:503"><path fill="#fff" transform="translate(190 565)" d="M0 0h1479.5v365.4H0z"/></clipPath><clipPath id="clip1_45:503"><path fill="#fff" transform="rotate(-30.022 2760.62 647.603)" d="M0 0h116.347v104.448H0z"/></clipPath><clipPath id="clip2_45:503"><path fill="#fff" transform="translate(0 860)" d="M0 0h548v575H0z"/></clipPath><clipPath id="clip3_45:503"><path fill="#fff" transform="rotate(-18.603 880.56 -1917.99)" d="M0 0h115v115H0z"/></clipPath><clipPath id="clip4_45:503"><path fill="#fff" transform="translate(1470 1023)" d="M0 0h451v522H0z"/></clipPath><clipPath id="clip5_45:503"><path fill="#fff" transform="translate(1469)" d="M0 0h451v385H0z"/></clipPath><clipPath id="clip6_45:503"><path fill="#fff" transform="translate(1470 475)" d="M0 0h451v522H0z"/></clipPath><clipPath id="clip7_45:503"><path fill="#fff" transform="rotate(-23.066 3929.666 -3401.913)" d="M0 0h68v114H0z"/></clipPath><clipPath id="clip8_45:503"><path fill="#fff" transform="translate(1614 1220)" d="M0 0h173v173H0z"/></clipPath><clipPath id="clip9_45:503"><path fill="#fff" transform="translate(29 1118)" d="M0 0h880.7v501.7H0z"/></clipPath></defs></svg>