<svg width="828" height="844" fill="none" xmlns="http://www.w3.org/2000/svg"><g filter="url(#filter0_f_31:15)"><rect x="200" y="200" width="428" height="444" rx="20" fill="#4E7D96" fill-opacity=".5"/></g><g filter="url(#filter1_d_31:15)"><rect x="145" y="142" width="538" height="560" rx="20" fill="url(#paint0_linear_31:15)"/></g><path d="M587.922 645.195L583.316 662h-3.152l-3.199-11.754a8.006 8.006 0 01-.246-1.641h-.047a7.998 7.998 0 01-.281 1.618L573.18 662h-3.223l-4.699-16.805h3.058l3.047 12.305c.125.516.203 1.055.235 1.617h.058c.032-.398.141-.937.328-1.617l3.446-12.305h2.871l3.187 12.399c.11.422.192.922.246 1.5h.047c.024-.391.114-.906.27-1.547l2.988-12.352h2.883zM603.191 662h-3.058l-1.512-4.277h-6.609L590.559 662h-3.047l6.293-16.805h3.14L603.191 662zm-5.308-6.551l-2.332-6.703c-.071-.219-.145-.57-.223-1.055h-.047c-.07.446-.148.797-.234 1.055l-2.309 6.703h5.145zm16.699-7.887h-4.828V662h-2.789v-14.438h-4.817v-2.367h12.434v2.367zM626.477 662h-9.434v-16.805h9.059v2.367h-6.27v4.758h5.777v2.356h-5.777v4.969h6.645V662zm15.972 0h-3.258l-2.683-4.5a8.503 8.503 0 00-.715-1.055 3.906 3.906 0 00-.703-.726 2.301 2.301 0 00-.774-.41 3.237 3.237 0 00-.949-.129h-1.125V662h-2.777v-16.805h5.531c.789 0 1.516.094 2.18.282a4.99 4.99 0 011.734.855c.492.375.875.848 1.149 1.418.281.562.421 1.223.421 1.98 0 .594-.089 1.141-.269 1.641a4.184 4.184 0 01-.75 1.324c-.32.383-.711.711-1.172.985a5.762 5.762 0 01-1.535.632v.047c.305.172.57.364.797.575.226.203.441.414.644.632.203.219.403.469.598.75.203.274.426.594.668.961l2.988 4.723zm-10.207-14.543v5.461h2.32c.43 0 .825-.066 1.184-.199a2.586 2.586 0 001.57-1.489 3.12 3.12 0 00.223-1.207c0-.804-.254-1.433-.762-1.886-.507-.453-1.238-.68-2.191-.68h-2.344zm-177.097.105h-6.282v5.051h5.789v2.356h-5.789V662h-2.789v-16.805h9.071v2.367zm9.925 14.719c-2.422 0-4.363-.785-5.824-2.355-1.453-1.571-2.18-3.614-2.18-6.129 0-2.703.743-4.859 2.227-6.469 1.484-1.609 3.5-2.414 6.047-2.414 2.359 0 4.258.781 5.695 2.344 1.445 1.562 2.168 3.605 2.168 6.129 0 2.742-.738 4.91-2.215 6.504-1.476 1.593-3.449 2.39-5.918 2.39zm.129-14.918c-1.539 0-2.793.575-3.761 1.723-.961 1.148-1.442 2.66-1.442 4.535 0 1.867.469 3.371 1.406 4.512.938 1.14 2.164 1.711 3.68 1.711 1.609 0 2.879-.543 3.809-1.629.929-1.086 1.394-2.606 1.394-4.559 0-2.008-.453-3.558-1.359-4.652-.899-1.094-2.141-1.641-3.727-1.641zm18.012 14.918c-2.422 0-4.363-.785-5.824-2.355-1.453-1.571-2.18-3.614-2.18-6.129 0-2.703.742-4.859 2.227-6.469 1.484-1.609 3.5-2.414 6.046-2.414 2.36 0 4.258.781 5.696 2.344 1.445 1.562 2.168 3.605 2.168 6.129 0 2.742-.739 4.91-2.215 6.504-1.477 1.593-3.449 2.39-5.918 2.39zm.129-14.918c-1.539 0-2.793.575-3.762 1.723-.961 1.148-1.441 2.66-1.441 4.535 0 1.867.468 3.371 1.406 4.512.937 1.14 2.164 1.711 3.68 1.711 1.609 0 2.879-.543 3.808-1.629.93-1.086 1.395-2.606 1.395-4.559 0-2.008-.453-3.558-1.36-4.652-.898-1.094-2.14-1.641-3.726-1.641zM494.426 662v-16.805h4.851c6.196 0 9.293 2.731 9.293 8.192 0 2.593-.859 4.679-2.578 6.258-1.719 1.57-4.023 2.355-6.914 2.355h-4.652zm2.777-14.438v12.083h2.227c1.961 0 3.484-.54 4.57-1.618 1.094-1.078 1.641-2.601 1.641-4.57 0-3.93-2.036-5.895-6.106-5.895h-2.332zm-174.609 8.415c0 1.992-.492 3.543-1.477 4.652-.984 1.101-2.297 1.652-3.937 1.652-.766 0-1.395-.09-1.887-.269v-2.625c.445.304 1.019.457 1.723.457 1.859 0 2.789-1.438 2.789-4.313v-10.336h2.789v10.782zm16.922-.774c0 4.719-2.235 7.078-6.704 7.078-4.281 0-6.421-2.269-6.421-6.808v-10.278h2.789v9.703c0 3.297 1.281 4.946 3.843 4.946 2.469 0 3.704-1.59 3.704-4.77v-9.879h2.789v10.008zm6.808 6.797h-2.871v-16.805h2.871V662zm15.867-.703c-1.265.656-2.839.984-4.722.984-2.438 0-4.391-.769-5.86-2.308-1.468-1.539-2.203-3.559-2.203-6.059 0-2.687.824-4.859 2.473-6.516 1.656-1.656 3.746-2.484 6.269-2.484 1.625 0 2.973.231 4.043.691v2.766c-1.132-.672-2.382-1.008-3.75-1.008-1.82 0-3.296.582-4.429 1.746-1.125 1.164-1.688 2.719-1.688 4.664 0 1.852.528 3.329 1.582 4.43 1.055 1.094 2.442 1.641 4.16 1.641 1.586 0 2.961-.375 4.125-1.125v2.578zm12.621.703h-9.433v-16.805h9.059v2.367h-6.27v4.758h5.777v2.356h-5.777v4.969h6.644V662zm2.215-.668v-2.871c.258.234.563.445.914.633.36.187.739.347 1.137.48.399.125.797.223 1.195.293.399.071.766.106 1.102.106 1.172 0 2.043-.196 2.613-.586.578-.391.867-.957.867-1.699 0-.399-.097-.743-.293-1.032a2.886 2.886 0 00-.796-.808 7.925 7.925 0 00-1.219-.692 58.431 58.431 0 00-1.488-.703 24.3 24.3 0 01-1.594-.926 7.154 7.154 0 01-1.289-1.031 4.564 4.564 0 01-.856-1.289c-.203-.477-.304-1.035-.304-1.676 0-.789.175-1.472.527-2.051a4.51 4.51 0 011.406-1.441 6.34 6.34 0 011.992-.844 9.276 9.276 0 012.274-.281c1.758 0 3.039.199 3.844.598v2.754c-.954-.688-2.18-1.032-3.68-1.032-.414 0-.828.039-1.242.118a3.763 3.763 0 00-1.102.386 2.4 2.4 0 00-.785.692c-.203.281-.305.621-.305 1.019 0 .375.078.699.235.973.156.273.382.523.679.75.305.226.672.449 1.102.668.437.211.941.441 1.512.691.586.305 1.136.625 1.652.961.523.336.98.707 1.371 1.113.399.407.711.86.938 1.36.234.492.351 1.055.351 1.687 0 .852-.172 1.571-.515 2.157a4.137 4.137 0 01-1.395 1.429 6.118 6.118 0 01-2.004.797c-.758.164-1.559.246-2.402.246-.281 0-.629-.023-1.043-.07a12.49 12.49 0 01-1.254-.188 10.51 10.51 0 01-1.219-.293 3.88 3.88 0 01-.926-.398zm-190.726 0v-2.871c.258.234.562.445.914.633.359.187.738.347 1.137.48.398.125.796.223 1.195.293.398.071.765.106 1.101.106 1.172 0 2.043-.196 2.614-.586.578-.391.867-.957.867-1.699 0-.399-.098-.743-.293-1.032a2.89 2.89 0 00-.797-.808 7.925 7.925 0 00-1.219-.692 58.431 58.431 0 00-1.488-.703 24.565 24.565 0 01-1.594-.926 7.154 7.154 0 01-1.289-1.031 4.582 4.582 0 01-.855-1.289c-.203-.477-.305-1.035-.305-1.676 0-.789.176-1.472.527-2.051a4.524 4.524 0 011.407-1.441 6.34 6.34 0 011.992-.844 9.268 9.268 0 012.273-.281c1.758 0 3.039.199 3.844.598v2.754c-.953-.688-2.18-1.032-3.68-1.032-.414 0-.828.039-1.242.118a3.766 3.766 0 00-1.101.386c-.321.18-.582.41-.786.692-.203.281-.304.621-.304 1.019 0 .375.078.699.234.973.156.273.383.523.68.75.305.226.672.449 1.101.668.438.211.942.441 1.512.691.586.305 1.137.625 1.652.961.524.336.981.707 1.372 1.113.398.407.71.86.937 1.36.234.492.352 1.055.352 1.687 0 .852-.172 1.571-.516 2.157a4.137 4.137 0 01-1.395 1.429 6.121 6.121 0 01-2.003.797c-.758.164-1.559.246-2.403.246-.281 0-.629-.023-1.043-.07a12.49 12.49 0 01-1.254-.188 10.491 10.491 0 01-1.218-.293 3.861 3.861 0 01-.926-.398zm27.656.668h-3.059l-1.511-4.277h-6.61L201.324 662h-3.047l6.293-16.805h3.141L213.957 662zm-5.309-6.551l-2.332-6.703c-.07-.219-.144-.57-.222-1.055h-.047c-.07.446-.149.797-.235 1.055l-2.308 6.703h5.144zM225.582 662h-9.305v-16.805h2.789v14.45h6.516V662zm16.875 0h-3.059l-1.511-4.277h-6.61L229.824 662h-3.047l6.293-16.805h3.141L242.457 662zm-5.309-6.551l-2.332-6.703c-.07-.219-.144-.57-.222-1.055h-.047c-.07.446-.149.797-.235 1.055l-2.308 6.703h5.144zm7.629 6.551v-16.805h4.852c6.195 0 9.293 2.731 9.293 8.192 0 2.593-.86 4.679-2.578 6.258-1.719 1.57-4.024 2.355-6.914 2.355h-4.653zm2.778-14.438v12.083h2.226c1.961 0 3.485-.54 4.571-1.618 1.093-1.078 1.64-2.601 1.64-4.57 0-3.93-2.035-5.895-6.105-5.895h-2.332z" fill="#fff"/><g filter="url(#filter2_f_31:15)"><path d="M145 476.958c9.75 0 16.214 5.002 21.15 12.823 4.993 7.912 8.294 18.519 11.667 29.392 3.339 10.762 6.749 21.791 11.996 30.105 5.305 8.406 12.61 14.222 23.687 14.222v-3c-9.75 0-16.214-5.002-21.15-12.823-4.993-7.912-8.294-18.519-11.667-29.392-3.339-10.762-6.749-21.791-11.996-30.105-5.305-8.406-12.61-14.222-23.687-14.222v3zm68.5 86.542c11.015 0 18.894-5.501 25.098-13.483 6.154-7.918 10.779-18.428 15.31-28.704 4.573-10.37 9.053-20.506 14.934-28.073 5.832-7.503 12.919-12.324 22.73-12.324v-3c-11.016 0-18.894 5.501-25.098 13.483-6.154 7.917-10.779 18.428-15.311 28.704-4.573 10.37-9.052 20.506-14.934 28.073-5.831 7.502-12.918 12.324-22.729 12.324v3zm78.072-82.584c10.166 0 17.341 2.284 23.05 5.657 5.751 3.398 10.088 7.937 14.578 12.649 4.454 4.673 9.06 9.52 15.224 13.161 6.205 3.667 13.915 6.075 24.576 6.075v-3c-10.166 0-17.341-2.285-23.05-5.657-5.751-3.398-10.088-7.937-14.578-12.649-4.454-4.674-9.061-9.52-15.224-13.162-6.206-3.666-13.915-6.074-24.576-6.074v3zM369 518.458c11.213 0 19.801-7.889 26.959-18.96 7.181-11.107 13.215-25.871 19.179-40.451 5.998-14.66 11.925-29.135 18.922-39.958 7.02-10.858 14.826-17.589 24.44-17.589v-3c-11.213 0-19.801 7.889-26.959 18.96-7.181 11.107-13.215 25.871-19.179 40.451-5.998 14.66-11.925 29.135-18.922 39.958-7.02 10.858-14.826 17.589-24.44 17.589v3zM458.5 401.5c9.691 0 17.906 6.299 25.519 16.358 7.598 10.04 14.328 23.465 21.14 37.064 6.775 13.526 13.631 27.226 21.43 37.53C534.373 502.737 543.365 510 554.5 510v-3c-9.691 0-17.906-6.299-25.519-16.358-7.598-10.04-14.328-23.465-21.14-37.064-6.775-13.526-13.631-27.226-21.43-37.53-7.784-10.285-16.776-17.548-27.911-17.548v3zm96 108.5c10.907 0 18.116-4.396 23.356-10.961 5.154-6.457 8.399-15.015 11.546-23.276 3.19-8.374 6.281-16.452 11.087-22.472 4.718-5.912 11.091-9.833 21.011-9.833v-3c-10.907 0-18.116 4.396-23.356 10.961-5.154 6.457-8.399 15.015-11.546 23.276-3.19 8.374-6.281 16.452-11.087 22.472C570.793 503.079 564.42 507 554.5 507v3zm67-66.542c10.074 0 16.107 2.974 20.243 7.274 4.226 4.393 6.611 10.29 9.115 16.534 2.458 6.131 5.034 12.609 9.737 17.498 4.791 4.98 11.653 8.194 22.405 8.194v-3c-10.074 0-16.107-2.974-20.243-7.274-4.226-4.393-6.611-10.29-9.115-16.534-2.458-6.131-5.034-12.609-9.737-17.497-4.791-4.981-11.653-8.195-22.405-8.195v3z" fill="url(#paint1_linear_31:15)" fill-opacity=".3"/></g><path d="M145 476.958c9.75 0 16.214 5.002 21.15 12.823 4.993 7.912 8.294 18.519 11.667 29.392 3.339 10.762 6.749 21.791 11.996 30.105 5.305 8.406 12.61 14.222 23.687 14.222v-3c-9.75 0-16.214-5.002-21.15-12.823-4.993-7.912-8.294-18.519-11.667-29.392-3.339-10.762-6.749-21.791-11.996-30.105-5.305-8.406-12.61-14.222-23.687-14.222v3zm68.5 86.542c11.015 0 18.894-5.501 25.098-13.483 6.154-7.918 10.779-18.428 15.31-28.704 4.573-10.37 9.053-20.506 14.934-28.073 5.832-7.503 12.919-12.324 22.73-12.324v-3c-11.016 0-18.894 5.501-25.098 13.483-6.154 7.917-10.779 18.428-15.311 28.704-4.573 10.37-9.052 20.506-14.934 28.073-5.831 7.502-12.918 12.324-22.729 12.324v3zm78.072-82.584c10.166 0 17.341 2.284 23.05 5.657 5.751 3.398 10.088 7.937 14.578 12.649 4.454 4.673 9.06 9.52 15.224 13.161 6.205 3.667 13.915 6.075 24.576 6.075v-3c-10.166 0-17.341-2.285-23.05-5.657-5.751-3.398-10.088-7.937-14.578-12.649-4.454-4.674-9.061-9.52-15.224-13.162-6.206-3.666-13.915-6.074-24.576-6.074v3zM369 518.458c11.213 0 19.801-7.889 26.959-18.96 7.181-11.107 13.215-25.871 19.179-40.451 5.998-14.66 11.925-29.135 18.922-39.958 7.02-10.858 14.826-17.589 24.44-17.589v-3c-11.213 0-19.801 7.889-26.959 18.96-7.181 11.107-13.215 25.871-19.179 40.451-5.998 14.66-11.925 29.135-18.922 39.958-7.02 10.858-14.826 17.589-24.44 17.589v3zM458.5 401.5c9.691 0 17.906 6.299 25.519 16.358 7.598 10.04 14.328 23.465 21.14 37.064 6.775 13.526 13.631 27.226 21.43 37.53C534.373 502.737 543.365 510 554.5 510v-3c-9.691 0-17.906-6.299-25.519-16.358-7.598-10.04-14.328-23.465-21.14-37.064-6.775-13.526-13.631-27.226-21.43-37.53-7.784-10.285-16.776-17.548-27.911-17.548v3zm96 108.5c10.907 0 18.116-4.396 23.356-10.961 5.154-6.457 8.399-15.015 11.546-23.276 3.19-8.374 6.281-16.452 11.087-22.472 4.718-5.912 11.091-9.833 21.011-9.833v-3c-10.907 0-18.116 4.396-23.356 10.961-5.154 6.457-8.399 15.015-11.546 23.276-3.19 8.374-6.281 16.452-11.087 22.472C570.793 503.079 564.42 507 554.5 507v3zm67-66.542c10.074 0 16.107 2.974 20.243 7.274 4.226 4.393 6.611 10.29 9.115 16.534 2.458 6.131 5.034 12.609 9.737 17.498 4.791 4.98 11.653 8.194 22.405 8.194v-3c-10.074 0-16.107-2.974-20.243-7.274-4.226-4.393-6.611-10.29-9.115-16.534-2.458-6.131-5.034-12.609-9.737-17.497-4.791-4.981-11.653-8.195-22.405-8.195v3z" fill="url(#paint2_linear_31:15)"/><circle cx="458.5" cy="400.5" r="10.5" fill="#fff"/><circle cx="458.5" cy="400.5" r="4.5" fill="url(#paint3_linear_31:15)"/><path d="M179.084 282.24v-7.238c3.099 2.457 6.596 3.686 10.492 3.686 3.166 0 5.689-.72 7.57-2.159 1.904-1.439 2.856-3.386 2.856-5.843 0-5.401-4.128-8.102-12.385-8.102h-3.685v-6.176h3.519c7.327 0 10.99-2.545 10.99-7.637 0-4.692-2.855-7.039-8.566-7.039-3.187 0-6.187 1.14-8.998 3.42v-6.84c3.232-1.815 7.05-2.722 11.455-2.722 4.228 0 7.615 1.062 10.16 3.187 2.546 2.125 3.819 4.848 3.819 8.168 0 6.265-3.188 10.293-9.563 12.086v.133c3.431.332 6.143 1.538 8.135 3.619 1.992 2.059 2.988 4.638 2.988 7.737 0 4.272-1.605 7.725-4.814 10.359-3.21 2.612-7.438 3.918-12.684 3.918-4.715 0-8.478-.852-11.289-2.557zm52.062 2.557c-4.958 0-8.832-2.026-11.621-6.076-2.767-4.051-4.15-9.906-4.15-17.565 0-8.411 1.45-14.775 4.35-19.092 2.899-4.316 7.083-6.474 12.55-6.474 10.47 0 15.705 8.135 15.705 24.404 0 8.057-1.483 14.211-4.449 18.461-2.944 4.228-7.072 6.342-12.385 6.342zm.764-43.065c-5.777 0-8.666 6.364-8.666 19.092 0 11.909 2.833 17.864 8.5 17.864 5.578 0 8.367-6.055 8.367-18.163 0-12.528-2.733-18.793-8.201-18.793zm37.022 43.065c-4.959 0-8.832-2.026-11.621-6.076-2.767-4.051-4.151-9.906-4.151-17.565 0-8.411 1.45-14.775 4.35-19.092 2.9-4.316 7.083-6.474 12.551-6.474 10.47 0 15.705 8.135 15.705 24.404 0 8.057-1.483 14.211-4.45 18.461-2.944 4.228-7.072 6.342-12.384 6.342zm.763-43.065c-5.777 0-8.666 6.364-8.666 19.092 0 11.909 2.834 17.864 8.5 17.864 5.578 0 8.367-6.055 8.367-18.163 0-12.528-2.733-18.793-8.201-18.793zM329.266 284h-5.45l-8.771-11.531c-.328-.434-.527-.727-.598-.879h-.07V284h-4.184v-25.207h4.184v11.848h.07c.141-.258.34-.545.598-.862l8.455-10.986h5.01l-9.897 12.094L329.266 284zm14.941-.826c-1.441.832-3.146 1.248-5.115 1.248-2.672 0-4.828-.832-6.469-2.496-1.641-1.676-2.461-3.844-2.461-6.504 0-2.965.879-5.344 2.637-7.137 1.769-1.805 4.131-2.707 7.084-2.707 1.64 0 3.088.287 4.342.861v3.797c-1.254-.937-2.59-1.406-4.008-1.406-1.723 0-3.135.586-4.237 1.758-1.101 1.16-1.652 2.683-1.652 4.57 0 1.863.516 3.334 1.547 4.412 1.043 1.078 2.437 1.618 4.184 1.618 1.464 0 2.847-.522 4.148-1.565v3.551zm17.877.826h-3.955v-2.812h-.07c-1.243 2.156-3.065 3.234-5.467 3.234-1.77 0-3.158-.481-4.166-1.442-.996-.96-1.494-2.232-1.494-3.814 0-3.398 1.957-5.379 5.871-5.941l5.343-.756c0-2.567-1.218-3.85-3.656-3.85-2.144 0-4.078.738-5.801 2.215v-3.568c1.899-1.125 4.09-1.688 6.575-1.688 4.547 0 6.82 2.238 6.82 6.715V284zm-3.938-8.842l-3.779.528c-1.172.152-2.056.439-2.654.861-.586.41-.879 1.137-.879 2.18 0 .761.27 1.388.809 1.88.55.481 1.283.721 2.197.721 1.242 0 2.267-.433 3.076-1.301.82-.879 1.23-1.98 1.23-3.304v-1.565zM371.172 284h-4.096v-26.648h4.096V284z" fill="#fff"/><path opacity=".5" d="M575.855 187.562h-4.828V202h-2.789v-14.438h-4.816v-2.367h12.433v2.367zm5.133 14.719c-1.851 0-3.332-.558-4.441-1.676-1.102-1.125-1.652-2.613-1.652-4.464 0-2.016.574-3.59 1.722-4.723 1.156-1.133 2.711-1.699 4.664-1.699 1.875 0 3.336.551 4.383 1.652 1.047 1.102 1.57 2.629 1.57 4.582 0 1.914-.566 3.449-1.699 4.606-1.125 1.148-2.64 1.722-4.547 1.722zm.129-10.394c-1.062 0-1.902.371-2.519 1.113-.618.742-.926 1.766-.926 3.07 0 1.258.312 2.25.937 2.977.625.719 1.461 1.078 2.508 1.078 1.071 0 1.891-.355 2.461-1.066.578-.711.867-1.723.867-3.036 0-1.32-.289-2.339-.867-3.058-.57-.719-1.39-1.078-2.461-1.078zM600.922 202h-2.719v-2.039h-.047c-.875 1.547-2.222 2.32-4.043 2.32-1.476 0-2.66-.535-3.551-1.605-.882-1.078-1.324-2.543-1.324-4.395 0-1.984.489-3.574 1.465-4.769.985-1.196 2.293-1.793 3.926-1.793 1.617 0 2.793.648 3.527 1.945h.047v-7.43h2.719V202zm-2.684-5.484v-1.571c0-.851-.277-1.574-.832-2.168-.554-.593-1.261-.89-2.121-.89-1.015 0-1.816.379-2.402 1.136-.578.758-.867 1.809-.867 3.153 0 1.219.277 2.183.832 2.894.562.703 1.316 1.055 2.261 1.055.93 0 1.684-.34 2.262-1.02.578-.687.867-1.55.867-2.589zM613.684 202h-2.637v-1.875H611c-.828 1.437-2.043 2.156-3.645 2.156-1.179 0-2.105-.32-2.777-.961-.664-.64-.996-1.488-.996-2.543 0-2.265 1.305-3.586 3.914-3.961l3.563-.504c0-1.71-.813-2.566-2.438-2.566-1.43 0-2.719.492-3.867 1.477v-2.379c1.266-.75 2.726-1.125 4.383-1.125 3.031 0 4.547 1.492 4.547 4.476V202zm-2.625-5.895l-2.52.352c-.781.102-1.371.293-1.769.574-.391.274-.586.758-.586 1.453 0 .508.179.926.539 1.254.367.321.855.481 1.465.481.828 0 1.511-.289 2.05-.867.547-.586.821-1.321.821-2.204v-1.043zM627.406 190l-5.414 13.922c-1.125 2.484-2.703 3.726-4.734 3.726-.57 0-1.047-.05-1.43-.152v-2.262c.43.141.82.211 1.172.211 1.016 0 1.773-.5 2.273-1.5l.809-1.968-4.77-11.977h3.012l2.86 8.719c.031.109.101.398.211.867h.058c.039-.18.109-.461.211-.844l3-8.742h2.742zm25.223.371a1.203 1.203 0 00-.879-.371h-17.5c-.339 0-.632.124-.879.371a1.205 1.205 0 00-.371.879c0 .339.124.632.371.879l8.75 8.75c.248.247.541.371.879.371.338 0 .632-.124.879-.371l8.75-8.75c.247-.247.371-.54.371-.879 0-.338-.124-.631-.371-.879z" fill="#fff"/><path d="M201.828 205h-3.687v-14.5c0-1.188.073-2.641.218-4.359h-.062c-.229.979-.432 1.682-.609 2.109L191 205h-2.562l-6.704-16.625c-.187-.49-.385-1.234-.593-2.234h-.063c.083.895.125 2.359.125 4.39V205h-3.437v-22.406H183l5.891 14.922c.448 1.145.739 2 .875 2.562h.078c.385-1.177.698-2.052.937-2.625l6-14.859h5.047V205zm18.672-7.016h-10.906c.041 1.48.495 2.62 1.359 3.422.875.802 2.073 1.203 3.594 1.203 1.708 0 3.276-.51 4.703-1.531V204c-1.458.917-3.385 1.375-5.781 1.375-2.354 0-4.203-.724-5.547-2.172-1.333-1.458-2-3.505-2-6.141 0-2.489.734-4.515 2.203-6.078 1.479-1.573 3.313-2.359 5.5-2.359s3.88.703 5.078 2.109c1.198 1.407 1.797 3.36 1.797 5.86v1.39zm-3.5-2.562c-.01-1.302-.318-2.313-.922-3.031-.604-.73-1.437-1.094-2.5-1.094-1.042 0-1.927.38-2.656 1.141-.719.76-1.162 1.755-1.328 2.984H217zM236.234 205h-3.515v-2.5h-.063c-1.104 1.917-2.724 2.875-4.859 2.875-1.573 0-2.807-.427-3.703-1.281-.886-.854-1.328-1.985-1.328-3.391 0-3.021 1.739-4.781 5.218-5.281l4.75-.672c0-2.281-1.083-3.422-3.25-3.422-1.906 0-3.625.656-5.156 1.969v-3.172c1.688-1 3.636-1.5 5.844-1.5 4.042 0 6.062 1.99 6.062 5.969V205zm-3.5-7.859l-3.359.468c-1.042.136-1.828.391-2.359.766-.521.365-.782 1.01-.782 1.937 0 .678.24 1.235.719 1.672.49.427 1.141.641 1.953.641 1.104 0 2.016-.385 2.735-1.156.729-.781 1.093-1.761 1.093-2.938v-1.39zM244.312 205h-3.64v-23.688h3.64V205zm3.735-.5v-3.359c1.354 1.031 2.849 1.547 4.484 1.547 2.188 0 3.281-.646 3.281-1.938 0-.365-.093-.672-.281-.922a2.593 2.593 0 00-.765-.687 5.73 5.73 0 00-1.125-.532c-.427-.156-.907-.333-1.438-.531-.656-.26-1.25-.536-1.781-.828a5.73 5.73 0 01-1.313-.984 3.905 3.905 0 01-.781-1.266c-.177-.469-.266-1.016-.266-1.641 0-.77.183-1.448.547-2.031a4.654 4.654 0 011.469-1.484 6.778 6.778 0 012.094-.906 9.326 9.326 0 012.422-.313c1.479 0 2.802.224 3.968.672v3.172c-1.124-.771-2.416-1.157-3.874-1.157-.459 0-.876.047-1.25.141a3.206 3.206 0 00-.938.391c-.26.166-.464.37-.609.609a1.397 1.397 0 00-.219.766c0 .343.073.635.219.875.145.239.359.453.64.64.292.177.636.344 1.031.5.407.146.87.308 1.391.485a19.23 19.23 0 011.844.859 6.057 6.057 0 011.406 1c.386.365.682.792.891 1.281.208.48.312 1.052.312 1.719 0 .813-.187 1.521-.562 2.125a4.692 4.692 0 01-1.5 1.5c-.625.396-1.349.688-2.172.875a10.86 10.86 0 01-2.578.297c-1.75 0-3.266-.292-4.547-.875z" fill="#fff"/><defs><linearGradient id="paint0_linear_31:15" x1="414" y1="81" x2="619.666" y2="1389.17" gradientUnits="userSpaceOnUse"><stop stop-color="#4E7D96"/><stop offset="1" stop-opacity=".6"/></linearGradient><linearGradient id="paint1_linear_31:15" x1="725" y1="471" x2="117.5" y2="471" gradientUnits="userSpaceOnUse"><stop stop-color="#fff" stop-opacity=".25"/><stop offset=".457" stop-color="#fff"/><stop offset="1" stop-color="#fff" stop-opacity=".25"/></linearGradient><linearGradient id="paint2_linear_31:15" x1="725" y1="471" x2="117.5" y2="471" gradientUnits="userSpaceOnUse"><stop stop-color="#fff" stop-opacity=".25"/><stop offset=".457" stop-color="#fff"/><stop offset="1" stop-color="#fff" stop-opacity=".25"/></linearGradient><linearGradient id="paint3_linear_31:15" x1="458.488" y1="397.554" x2="466.17" y2="415.877" gradientUnits="userSpaceOnUse"><stop stop-color="#4E7D96"/><stop offset="1"/></linearGradient><filter id="filter0_f_31:15" x="0" y="0" width="828" height="844" filterUnits="userSpaceOnUse" color-interpolation-filters="sRGB"><feFlood flood-opacity="0" result="BackgroundImageFix"/><feBlend in="SourceGraphic" in2="BackgroundImageFix" result="shape"/><feGaussianBlur stdDeviation="100" result="effect1_foregroundBlur_31:15"/></filter><filter id="filter1_d_31:15" x="145" y="142" width="538" height="560" filterUnits="userSpaceOnUse" color-interpolation-filters="sRGB"><feFlood flood-opacity="0" result="BackgroundImageFix"/><feColorMatrix in="SourceAlpha" values="0 0 0 0 0 0 0 0 0 0 0 0 0 0 0 0 0 0 127 0" result="hardAlpha"/><feOffset/><feColorMatrix values="0 0 0 0 0.223529 0 0 0 0 0.427451 0 0 0 0 0.537255 0 0 0 1 0"/><feBlend in2="BackgroundImageFix" result="effect1_dropShadow_31:15"/><feBlend in="SourceGraphic" in2="effect1_dropShadow_31:15" result="shape"/></filter><filter id="filter2_f_31:15" x="125" y="378.5" width="578" height="205" filterUnits="userSpaceOnUse" color-interpolation-filters="sRGB"><feFlood flood-opacity="0" result="BackgroundImageFix"/><feBlend in="SourceGraphic" in2="BackgroundImageFix" result="shape"/><feGaussianBlur stdDeviation="10" result="effect1_foregroundBlur_31:15"/></filter></defs></svg>