<svg width="778" height="525" fill="none" xmlns="http://www.w3.org/2000/svg"><g filter="url(#filter0_dd_45:142)"><rect x="35" y="30" width="708" height="440" rx="20" fill="#F1F6FA"/><rect x="37.5" y="32.5" width="703" height="435" rx="17.5" stroke="url(#paint0_linear_45:142)" stroke-opacity=".7" stroke-width="5"/></g><path d="M594.536 445v-16.805h4.852c6.195 0 9.293 2.731 9.293 8.192 0 2.593-.86 4.679-2.578 6.258-1.719 1.57-4.024 2.355-6.915 2.355h-4.652zm2.777-14.438v12.083h2.227c1.961 0 3.484-.54 4.57-1.618 1.094-1.078 1.641-2.601 1.641-4.57 0-3.93-2.035-5.895-6.105-5.895h-2.333zM620.669 445h-2.637v-1.875h-.047c-.828 1.437-2.043 2.156-3.644 2.156-1.18 0-2.106-.32-2.778-.961-.664-.64-.996-1.488-.996-2.543 0-2.265 1.305-3.586 3.914-3.961l3.563-.504c0-1.71-.813-2.566-2.438-2.566-1.429 0-2.718.492-3.867 1.477v-2.379c1.266-.75 2.727-1.125 4.383-1.125 3.031 0 4.547 1.492 4.547 4.476V445zm-2.625-5.895l-2.52.352c-.781.102-1.371.293-1.769.574-.391.274-.586.758-.586 1.453 0 .508.18.926.539 1.254.367.321.855.481 1.465.481.828 0 1.512-.289 2.051-.867.547-.586.82-1.321.82-2.204v-1.043zm7.324-8.625c-.445 0-.828-.144-1.148-.433a1.433 1.433 0 01-.469-1.102c0-.445.156-.816.469-1.113a1.63 1.63 0 011.148-.445c.461 0 .852.148 1.172.445.32.297.481.668.481 1.113 0 .422-.161.785-.481 1.09a1.66 1.66 0 01-1.172.445zm1.348 14.52h-2.719v-12h2.719v12zm6.293 0h-2.731v-17.766h2.731V445zm13.945-12l-5.414 13.922c-1.125 2.484-2.703 3.726-4.734 3.726-.571 0-1.047-.05-1.43-.152v-2.262c.43.141.82.211 1.172.211 1.015 0 1.773-.5 2.273-1.5l.809-1.968L634.86 433h3.012l2.859 8.719c.032.109.102.398.211.867h.059c.039-.18.109-.461.211-.844l3-8.742h2.742zm21.844 10.852c-1.75.953-3.699 1.429-5.848 1.429-2.484 0-4.496-.773-6.035-2.32-1.539-1.547-2.309-3.594-2.309-6.141 0-2.601.84-4.734 2.52-6.398 1.687-1.672 3.828-2.508 6.422-2.508 1.867 0 3.437.274 4.711.82v2.871c-1.289-.859-2.824-1.289-4.606-1.289-1.789 0-3.257.59-4.406 1.77-1.141 1.18-1.711 2.707-1.711 4.582 0 1.93.492 3.449 1.477 4.559.984 1.101 2.32 1.652 4.008 1.652 1.156 0 2.156-.223 3-.668v-3.996h-3.54v-2.344h6.317v7.981zm8.637 1.429c-1.852 0-3.332-.558-4.442-1.676-1.101-1.125-1.652-2.613-1.652-4.464 0-2.016.574-3.59 1.722-4.723 1.157-1.133 2.711-1.699 4.665-1.699 1.875 0 3.335.551 4.382 1.652 1.047 1.102 1.571 2.629 1.571 4.582 0 1.914-.567 3.449-1.7 4.606-1.125 1.148-2.64 1.722-4.546 1.722zm.128-10.394c-1.062 0-1.902.371-2.519 1.113-.617.742-.926 1.766-.926 3.07 0 1.258.313 2.25.938 2.977.625.719 1.461 1.078 2.507 1.078 1.071 0 1.891-.355 2.461-1.066.579-.711.868-1.723.868-3.036 0-1.32-.289-2.339-.868-3.058-.57-.719-1.39-1.078-2.461-1.078zM695.388 445h-2.637v-1.875h-.047c-.828 1.437-2.043 2.156-3.644 2.156-1.18 0-2.106-.32-2.778-.961-.664-.64-.996-1.488-.996-2.543 0-2.265 1.305-3.586 3.914-3.961l3.563-.504c0-1.71-.813-2.566-2.438-2.566-1.429 0-2.719.492-3.867 1.477v-2.379c1.266-.75 2.727-1.125 4.383-1.125 3.031 0 4.547 1.492 4.547 4.476V445zm-2.625-5.895l-2.52.352c-.781.102-1.371.293-1.769.574-.391.274-.586.758-.586 1.453 0 .508.179.926.539 1.254.367.321.855.481 1.465.481.828 0 1.511-.289 2.05-.867.547-.586.821-1.321.821-2.204v-1.043zm8.683 5.895h-2.73v-17.766h2.73V445z" fill="#4E7D96"/><circle opacity=".2" cx="577.5" cy="435.5" r="7.5" fill="#25B6ED"/><path d="M363.521 445h-3.258l-2.684-4.5a8.394 8.394 0 00-.715-1.055 3.875 3.875 0 00-.703-.726 2.297 2.297 0 00-.773-.41 3.249 3.249 0 00-.95-.129h-1.125V445h-2.777v-16.805h5.531c.789 0 1.516.094 2.18.282a4.99 4.99 0 011.734.855c.493.375.875.848 1.149 1.418.281.562.422 1.223.422 1.98 0 .594-.09 1.141-.27 1.641a4.184 4.184 0 01-.75 1.324c-.32.383-.711.711-1.172.985a5.748 5.748 0 01-1.535.632v.047c.305.172.571.364.797.575.227.203.441.414.645.632.203.219.402.469.597.75.203.274.426.594.668.961l2.989 4.723zm-10.208-14.543v5.461h2.321c.429 0 .824-.066 1.183-.199.368-.133.684-.324.95-.574.265-.25.472-.555.621-.915.148-.359.222-.761.222-1.207 0-.804-.254-1.433-.761-1.886-.508-.453-1.239-.68-2.192-.68h-2.344zm21.399 9.281h-8.18c.031 1.11.371 1.965 1.02 2.567.656.601 1.554.902 2.695.902 1.281 0 2.457-.383 3.527-1.148v2.191c-1.093.688-2.539 1.031-4.336 1.031-1.765 0-3.152-.543-4.16-1.629-1-1.093-1.5-2.629-1.5-4.605 0-1.867.551-3.387 1.653-4.559 1.109-1.179 2.484-1.769 4.125-1.769 1.64 0 2.91.527 3.808 1.582.899 1.054 1.348 2.519 1.348 4.394v1.043zm-2.625-1.922c-.008-.976-.238-1.734-.691-2.273-.454-.547-1.079-.82-1.875-.82-.782 0-1.446.285-1.993.855-.539.57-.871 1.317-.996 2.238h5.555zm4.465 6.809v-2.52c1.015.774 2.136 1.161 3.363 1.161 1.641 0 2.461-.485 2.461-1.454 0-.273-.07-.503-.211-.691a1.967 1.967 0 00-.574-.516 4.286 4.286 0 00-.844-.398c-.32-.117-.68-.25-1.078-.398a12.138 12.138 0 01-1.336-.621 4.234 4.234 0 01-.984-.739 2.913 2.913 0 01-.586-.949 3.47 3.47 0 01-.2-1.23c0-.579.137-1.086.411-1.524a3.48 3.48 0 011.101-1.113 5.1 5.1 0 011.571-.68 7.021 7.021 0 011.816-.234c1.109 0 2.101.168 2.976.504v2.379c-.843-.579-1.812-.868-2.906-.868-.344 0-.656.036-.937.106-.274.07-.508.168-.703.293a1.405 1.405 0 00-.457.457c-.11.172-.164.363-.164.574 0 .258.054.477.164.656.109.18.269.34.48.481.219.133.477.258.773.375.305.109.653.23 1.043.363.516.211.977.426 1.383.645a4.5 4.5 0 011.055.75c.289.273.512.593.668.961.156.359.234.789.234 1.289 0 .609-.14 1.14-.422 1.593a3.514 3.514 0 01-1.125 1.125 5.158 5.158 0 01-1.628.657 8.175 8.175 0 01-1.934.222c-1.313 0-2.449-.219-3.41-.656zm17.437.246c-.531.266-1.23.399-2.097.399-2.329 0-3.493-1.118-3.493-3.352v-6.785h-2.003V433h2.003v-2.777l2.719-.774V433h2.871v2.133h-2.871v6c0 .711.129 1.219.387 1.523.258.305.687.457 1.289.457.461 0 .859-.133 1.195-.398v2.156z" fill="#4E7D96"/><circle cx="333.5" cy="435.5" r="7.5" fill="#396D89" fill-opacity=".5"/><path d="M111.243 428.195l-5.508 10.7V445h-2.789v-6.047l-5.367-10.758h3.176l3.305 7.207c.039.086.156.41.351.973h.035c.071-.25.2-.574.387-.973l3.457-7.207h2.953zm5.028 17.086c-1.852 0-3.333-.558-4.442-1.676-1.101-1.125-1.652-2.613-1.652-4.464 0-2.016.574-3.59 1.722-4.723 1.157-1.133 2.711-1.699 4.664-1.699 1.875 0 3.336.551 4.383 1.652 1.047 1.102 1.571 2.629 1.571 4.582 0 1.914-.567 3.449-1.7 4.606-1.125 1.148-2.64 1.722-4.546 1.722zm.128-10.394c-1.062 0-1.902.371-2.519 1.113-.617.742-.926 1.766-.926 3.07 0 1.258.313 2.25.938 2.977.625.719 1.461 1.078 2.507 1.078 1.071 0 1.891-.355 2.461-1.066.578-.711.868-1.723.868-3.036 0-1.32-.29-2.339-.868-3.058-.57-.719-1.39-1.078-2.461-1.078zm19.817 9.152c0 4.406-2.215 6.609-6.645 6.609-1.562 0-2.925-.261-4.09-.785v-2.484c1.313.75 2.559 1.125 3.739 1.125 2.851 0 4.277-1.402 4.277-4.207v-1.313h-.047c-.898 1.532-2.25 2.297-4.054 2.297-1.461 0-2.641-.531-3.54-1.593-.89-1.071-1.335-2.504-1.335-4.301 0-2.039.48-3.66 1.441-4.864.961-1.203 2.281-1.804 3.961-1.804 1.586 0 2.762.648 3.527 1.945h.047V433h2.719v11.039zm-2.695-4.535v-1.559c0-.843-.282-1.562-.844-2.156-.555-.601-1.25-.902-2.086-.902-1.031 0-1.84.383-2.426 1.148-.578.758-.867 1.82-.867 3.188 0 1.179.277 2.125.832 2.836.562.703 1.305 1.054 2.226 1.054.938 0 1.7-.336 2.286-1.008.586-.679.879-1.546.879-2.601zM148.966 445h-2.637v-1.875h-.047c-.828 1.437-2.043 2.156-3.644 2.156-1.18 0-2.106-.32-2.778-.961-.664-.64-.996-1.488-.996-2.543 0-2.265 1.305-3.586 3.914-3.961l3.563-.504c0-1.71-.813-2.566-2.438-2.566-1.429 0-2.718.492-3.867 1.477v-2.379c1.266-.75 2.727-1.125 4.383-1.125 3.031 0 4.547 1.492 4.547 4.476V445zm-2.625-5.895l-2.52.352c-.781.102-1.371.293-1.769.574-.391.274-.586.758-.586 1.453 0 .508.18.926.539 1.254.367.321.855.481 1.465.481.828 0 1.511-.289 2.051-.867.546-.586.82-1.321.82-2.204v-1.043z" fill="#4E7D96"/><circle cx="82.5" cy="435.5" r="7.5" fill="url(#paint1_linear_45:142)"/><path opacity=".5" d="M634.301 119.591v-2.871c.258.234.562.445.914.633.359.187.738.347 1.137.48.398.125.796.223 1.195.293.398.07.765.105 1.101.105 1.172 0 2.043-.195 2.614-.585.578-.391.867-.958.867-1.7a1.8 1.8 0 00-.293-1.031 2.906 2.906 0 00-.797-.809 8.01 8.01 0 00-1.219-.691 55.199 55.199 0 00-1.488-.703 24.565 24.565 0 01-1.594-.926 7.154 7.154 0 01-1.289-1.031 4.597 4.597 0 01-.855-1.289c-.203-.477-.305-1.035-.305-1.676 0-.789.176-1.473.527-2.051a4.513 4.513 0 011.407-1.441 6.34 6.34 0 011.992-.844 9.268 9.268 0 012.273-.281c1.758 0 3.039.199 3.844.598v2.753c-.953-.687-2.18-1.031-3.68-1.031-.414 0-.828.039-1.242.117a3.739 3.739 0 00-1.101.387c-.321.18-.582.41-.786.691-.203.282-.304.622-.304 1.02 0 .375.078.699.234.973.156.273.383.523.68.75.305.226.672.449 1.101.668.438.211.942.441 1.512.691.586.305 1.137.625 1.652.961.524.336.981.707 1.372 1.113.398.407.71.86.937 1.36.234.492.352 1.054.352 1.687 0 .852-.172 1.57-.516 2.156a4.14 4.14 0 01-1.395 1.43 6.121 6.121 0 01-2.003.797c-.758.164-1.559.246-2.403.246-.281 0-.629-.023-1.043-.07a12.49 12.49 0 01-1.254-.188 10.7 10.7 0 01-1.218-.293 3.861 3.861 0 01-.926-.398zm26.777-6.129c0 4.719-2.234 7.078-6.703 7.078-4.281 0-6.422-2.269-6.422-6.809v-10.277h2.789v9.703c0 3.297 1.281 4.946 3.844 4.946 2.469 0 3.703-1.59 3.703-4.77v-9.879h2.789v10.008zm18.199 6.797h-3.047l-8.027-12.352a5.473 5.473 0 01-.504-.972h-.07c.062.359.094 1.128.094 2.308v11.016h-2.696v-16.805h3.246l7.758 12.059c.328.5.539.843.633 1.031h.047c-.078-.445-.117-1.199-.117-2.262v-10.828h2.683v16.805z" fill="#4E7D96"/><rect opacity=".2" x="653" y="138" width="8" height="269" rx="4" fill="#25B6ED"/><rect x="653" y="308" width="8" height="99" rx="4" fill="url(#paint2_linear_45:142)"/><rect x="653" y="240" width="8" height="68" rx="4" fill="#396D89" fill-opacity=".5"/><path opacity=".5" d="M550.301 119.591v-2.871c.258.234.562.445.914.633.359.187.738.347 1.137.48.398.125.796.223 1.195.293.398.07.765.105 1.101.105 1.172 0 2.043-.195 2.614-.585.578-.391.867-.958.867-1.7a1.8 1.8 0 00-.293-1.031 2.906 2.906 0 00-.797-.809 8.01 8.01 0 00-1.219-.691 55.199 55.199 0 00-1.488-.703 24.565 24.565 0 01-1.594-.926 7.154 7.154 0 01-1.289-1.031 4.597 4.597 0 01-.855-1.289c-.203-.477-.305-1.035-.305-1.676 0-.789.176-1.473.527-2.051a4.513 4.513 0 011.407-1.441 6.34 6.34 0 011.992-.844 9.268 9.268 0 012.273-.281c1.758 0 3.039.199 3.844.598v2.753c-.953-.687-2.18-1.031-3.68-1.031-.414 0-.828.039-1.242.117a3.739 3.739 0 00-1.101.387c-.321.18-.582.41-.786.691-.203.282-.304.622-.304 1.02 0 .375.078.699.234.973.156.273.383.523.68.75.305.226.672.449 1.101.668.438.211.942.441 1.512.691.586.305 1.137.625 1.652.961.524.336.981.707 1.372 1.113.398.407.71.86.937 1.36.234.492.352 1.054.352 1.687 0 .852-.172 1.57-.516 2.156a4.14 4.14 0 01-1.395 1.43 6.121 6.121 0 01-2.003.797c-.758.164-1.559.246-2.403.246-.281 0-.629-.023-1.043-.07a12.49 12.49 0 01-1.254-.188 10.7 10.7 0 01-1.218-.293 3.861 3.861 0 01-.926-.398zm27.656.668h-3.059l-1.511-4.278h-6.61l-1.453 4.278h-3.047l6.293-16.805h3.141l6.246 16.805zm-5.309-6.551l-2.332-6.703c-.07-.219-.144-.57-.222-1.055h-.047c-.07.446-.149.797-.235 1.055l-2.308 6.703h5.144zm16.7-7.887h-4.828v14.438h-2.79v-14.438h-4.816v-2.367h12.434v2.367z" fill="#4E7D96"/><rect opacity=".2" x="566" y="138" width="8" height="269" rx="4" fill="#25B6ED"/><rect x="566" y="225" width="8" height="182" rx="4" fill="url(#paint3_linear_45:142)"/><rect x="566" y="191" width="8" height="34" rx="4" fill="#396D89" fill-opacity=".5"/><path opacity=".5" d="M482.145 105.821h-6.282v5.051h5.789v2.356h-5.789v7.031h-2.789v-16.805h9.071v2.367zm15.984 14.438h-3.258l-2.683-4.5a8.615 8.615 0 00-.715-1.055 3.906 3.906 0 00-.703-.726 2.314 2.314 0 00-.774-.411 3.242 3.242 0 00-.949-.129h-1.125v6.821h-2.777v-16.805h5.531c.789 0 1.515.094 2.179.281a5.006 5.006 0 011.735.856c.492.375.875.847 1.148 1.418.282.562.422 1.222.422 1.98 0 .594-.09 1.141-.269 1.641a4.195 4.195 0 01-.75 1.324 4.51 4.51 0 01-1.172.984 5.73 5.73 0 01-1.535.633v.047c.304.172.57.363.796.574.227.204.442.414.645.633.203.219.402.469.598.75.203.274.425.594.668.961l2.988 4.723zm-10.207-14.543v5.461h2.32c.43 0 .824-.067 1.184-.199a2.72 2.72 0 00.949-.575c.266-.25.473-.554.621-.914a3.12 3.12 0 00.223-1.207c0-.804-.254-1.433-.762-1.886-.508-.454-1.238-.68-2.191-.68h-2.344zm15.035 14.543h-2.871v-16.805h2.871v16.805z" fill="#4E7D96"/><rect opacity=".2" x="485" y="138" width="8" height="269" rx="4" fill="#25B6ED"/><rect x="485" y="285" width="8" height="122" rx="4" fill="url(#paint4_linear_45:142)"/><rect x="485" y="199" width="8" height="86" rx="4" fill="#396D89" fill-opacity=".5"/><path opacity=".5" d="M392.855 105.821h-4.828v14.438h-2.789v-14.438h-4.816v-2.367h12.433v2.367zm15.961 14.438h-2.8v-7.289h-7.911v7.289h-2.789v-16.805h2.789v7.067h7.911v-7.067h2.8v16.805zm17.075-6.797c0 4.719-2.235 7.078-6.703 7.078-4.282 0-6.422-2.269-6.422-6.809v-10.277h2.789v9.703c0 3.297 1.281 4.946 3.843 4.946 2.469 0 3.704-1.59 3.704-4.77v-9.879h2.789v10.008z" fill="#4E7D96"/><rect opacity=".2" x="400" y="138" width="8" height="269" rx="4" fill="#25B6ED"/><rect x="400" y="347" width="8" height="29" rx="4" fill="#396D89" fill-opacity=".5"/><rect x="400" y="376" width="8" height="31" rx="4" fill="url(#paint5_linear_45:142)"/><path opacity=".5" d="M306.922 103.454l-4.606 16.805h-3.152l-3.199-11.754a8.006 8.006 0 01-.246-1.641h-.047a7.976 7.976 0 01-.281 1.617l-3.211 11.778h-3.223l-4.699-16.805h3.058l3.047 12.305c.125.515.203 1.054.235 1.617h.058c.032-.398.141-.938.328-1.617l3.446-12.305h2.871l3.187 12.399c.11.421.192.921.246 1.5h.047c.024-.391.114-.907.27-1.547l2.988-12.352h2.883zm11.766 16.805h-9.434v-16.805h9.058v2.367h-6.269v4.758h5.777v2.356h-5.777v4.968h6.645v2.356zm2.988 0v-16.805h4.851c6.196 0 9.293 2.731 9.293 8.192 0 2.593-.859 4.679-2.578 6.257-1.719 1.571-4.023 2.356-6.914 2.356h-4.652zm2.777-14.438v12.082h2.227c1.961 0 3.484-.539 4.57-1.617 1.094-1.078 1.641-2.601 1.641-4.57 0-3.93-2.036-5.895-6.106-5.895h-2.332z" fill="#4E7D96"/><rect opacity=".2" x="307" y="138" width="8" height="269" rx="4" fill="#25B6ED"/><rect x="307" y="266" width="8" height="141" rx="4" fill="url(#paint6_linear_45:142)"/><rect x="307" y="187" width="8" height="79" rx="4" fill="#396D89" fill-opacity=".5"/><path opacity=".5" d="M210.855 105.821h-4.828v14.438h-2.789v-14.438h-4.816v-2.367h12.433v2.367zm15.387 7.641c0 4.719-2.234 7.078-6.703 7.078-4.281 0-6.422-2.269-6.422-6.809v-10.277h2.789v9.703c0 3.297 1.282 4.946 3.844 4.946 2.469 0 3.703-1.59 3.703-4.77v-9.879h2.789v10.008zm13.383 6.797h-9.434v-16.805h9.059v2.367h-6.27v4.758h5.778v2.356h-5.778v4.968h6.645v2.356z" fill="#4E7D96"/><rect opacity=".2" x="216" y="138" width="8" height="269" rx="4" fill="#25B6ED"/><rect x="216" y="317" width="8" height="90" rx="4" fill="url(#paint7_linear_45:142)"/><rect x="216" y="253" width="8" height="64" rx="4" fill="#396D89" fill-opacity=".5"/><path opacity=".5" d="M116.121 120.259h-2.766v-10.875c0-.891.055-1.981.165-3.27h-.047c-.172.735-.325 1.262-.457 1.582L108 120.259h-1.922l-5.027-12.469c-.141-.367-.289-.926-.446-1.676h-.046c.062.672.093 1.77.093 3.293v10.852h-2.578v-16.805H102l4.418 11.192c.336.859.555 1.5.656 1.921h.059c.289-.882.523-1.539.703-1.968l4.5-11.145h3.785v16.805zm11.074.281c-2.422 0-4.363-.785-5.824-2.355-1.453-1.571-2.18-3.614-2.18-6.129 0-2.703.743-4.86 2.227-6.469s3.5-2.414 6.047-2.414c2.359 0 4.258.781 5.695 2.344 1.445 1.562 2.168 3.605 2.168 6.129 0 2.742-.738 4.91-2.215 6.503-1.476 1.594-3.449 2.391-5.918 2.391zm.129-14.918c-1.539 0-2.793.574-3.762 1.723-.96 1.148-1.441 2.66-1.441 4.535 0 1.867.469 3.371 1.406 4.512.938 1.14 2.164 1.711 3.68 1.711 1.609 0 2.879-.543 3.809-1.629.929-1.086 1.394-2.606 1.394-4.559 0-2.008-.453-3.559-1.359-4.652-.899-1.094-2.141-1.641-3.727-1.641zm25.336 14.637h-3.047l-8.027-12.352a5.473 5.473 0 01-.504-.972h-.07c.062.359.093 1.128.093 2.308v11.016h-2.695v-16.805h3.246l7.758 12.059c.328.5.539.843.633 1.031h.047c-.078-.445-.117-1.199-.117-2.262v-10.828h2.683v16.805z" fill="#4E7D96"/><rect opacity=".2" x="121" y="138" width="8" height="269" rx="4" fill="#25B6ED"/><rect x="121" y="285" width="8" height="122" rx="4" fill="url(#paint8_linear_45:142)"/><rect x="121" y="199" width="8" height="86" rx="4" fill="#396D89" fill-opacity=".5"/><path opacity=".5" d="M582.879 80h-9.305V63.195h2.789v14.45h6.516V80zm11.344 0h-2.637v-1.875h-.047c-.828 1.438-2.043 2.156-3.644 2.156-1.18 0-2.106-.32-2.778-.96-.664-.641-.996-1.489-.996-2.544 0-2.265 1.305-3.586 3.914-3.96l3.563-.504c0-1.711-.813-2.567-2.438-2.567-1.43 0-2.719.492-3.867 1.477v-2.38c1.266-.75 2.727-1.124 4.383-1.124 3.031 0 4.547 1.492 4.547 4.476V80zm-2.625-5.894l-2.52.351c-.781.102-1.371.293-1.769.574-.391.274-.586.758-.586 1.453 0 .508.179.926.539 1.254.367.32.855.48 1.465.48.828 0 1.511-.288 2.05-.866.547-.586.821-1.32.821-2.204v-1.042zm5.203 5.519v-2.52c1.015.774 2.137 1.16 3.363 1.16 1.641 0 2.461-.484 2.461-1.453 0-.273-.07-.503-.211-.69a1.954 1.954 0 00-.574-.516 4.269 4.269 0 00-.844-.399c-.32-.117-.68-.25-1.078-.398a11.885 11.885 0 01-1.336-.621 4.238 4.238 0 01-.984-.739 2.92 2.92 0 01-.586-.949 3.469 3.469 0 01-.2-1.23c0-.579.137-1.086.411-1.524a3.48 3.48 0 011.101-1.113 5.094 5.094 0 011.571-.68 7.013 7.013 0 011.816-.234c1.109 0 2.101.168 2.977.504v2.379c-.844-.579-1.813-.868-2.907-.868-.343 0-.656.035-.937.106-.274.07-.508.168-.703.293a1.408 1.408 0 00-.457.457c-.11.172-.164.363-.164.574 0 .258.054.477.164.656.109.18.269.34.48.48.219.134.477.259.774.376.304.11.652.23 1.042.363.516.211.977.426 1.383.645a4.54 4.54 0 011.055.75c.289.273.512.593.668.96.156.36.234.79.234 1.29 0 .609-.14 1.14-.422 1.593a3.51 3.51 0 01-1.125 1.125 5.15 5.15 0 01-1.628.657 8.154 8.154 0 01-1.934.222c-1.313 0-2.449-.219-3.41-.656zm17.437.246c-.531.266-1.23.398-2.097.398-2.329 0-3.493-1.117-3.493-3.351v-6.785h-2.003V68h2.003v-2.777l2.719-.774V68h2.871v2.133h-2.871v6c0 .71.129 1.219.387 1.523.258.305.687.457 1.289.457.461 0 .859-.132 1.195-.398v2.156zm30.106-16.676L639.738 80h-3.152l-3.199-11.754a8.005 8.005 0 01-.246-1.64h-.047a7.92 7.92 0 01-.282 1.617L629.602 80h-3.223l-4.699-16.805h3.058l3.047 12.305c.125.516.203 1.055.235 1.617h.058c.031-.398.141-.937.328-1.617l3.446-12.305h2.871l3.187 12.399c.11.422.192.922.246 1.5h.047c.024-.39.113-.906.27-1.547l2.988-12.352h2.883zm11.578 11.543h-8.18c.031 1.11.371 1.965 1.02 2.567.656.601 1.554.902 2.695.902 1.281 0 2.457-.383 3.527-1.148v2.191c-1.093.688-2.539 1.031-4.336 1.031-1.765 0-3.152-.543-4.16-1.629-1-1.093-1.5-2.629-1.5-4.605 0-1.867.551-3.387 1.653-4.559 1.109-1.18 2.484-1.77 4.125-1.77 1.64 0 2.91.528 3.808 1.583.899 1.055 1.348 2.52 1.348 4.394v1.043zm-2.625-1.922c-.008-.976-.238-1.734-.692-2.273-.453-.547-1.078-.82-1.875-.82-.781 0-1.445.285-1.992.855-.539.57-.871 1.316-.996 2.238h5.555zm15.375 1.922h-8.18c.031 1.11.371 1.965 1.02 2.567.656.601 1.554.902 2.695.902 1.281 0 2.457-.383 3.527-1.148v2.191c-1.093.688-2.539 1.031-4.336 1.031-1.765 0-3.152-.543-4.16-1.629-1-1.093-1.5-2.629-1.5-4.605 0-1.867.551-3.387 1.653-4.559 1.109-1.18 2.484-1.77 4.125-1.77 1.64 0 2.91.528 3.808 1.583.899 1.055 1.348 2.52 1.348 4.394v1.043zm-2.625-1.922c-.008-.976-.238-1.734-.692-2.273-.453-.547-1.078-.82-1.875-.82-.781 0-1.445.285-1.992.855-.539.57-.871 1.316-.996 2.238h5.555zM682.148 80h-3.445l-4.664-5.766h-.047V80h-2.73V62.234h2.73v11.262h.047L678.445 68h3.27l-4.957 5.79 5.39 6.21z" fill="#4E7D96"/><g opacity=".5" clip-path="url(#clip0_45:142)"><path d="M702.714 66.102a.918.918 0 00-.671-.283h-13.365a.916.916 0 00-.671.283.918.918 0 00-.284.671c0 .259.095.483.284.672l6.682 6.682a.918.918 0 00.671.284.918.918 0 00.672-.284l6.682-6.682a.918.918 0 00.284-.672.918.918 0 00-.284-.671z" fill="#4E7D96"/></g><path d="M93.375 60.594l-7.344 14.265V83h-3.719v-8.063l-7.156-14.343h4.235l4.406 9.61c.052.114.208.546.469 1.296h.046c.094-.333.266-.766.516-1.297l4.61-9.61h3.937zm6.703 22.781c-2.469 0-4.443-.745-5.922-2.234-1.469-1.5-2.203-3.485-2.203-5.954 0-2.687.766-4.786 2.297-6.296 1.542-1.51 3.615-2.266 6.219-2.266 2.5 0 4.448.734 5.843 2.203 1.396 1.469 2.094 3.505 2.094 6.11 0 2.552-.755 4.599-2.265 6.14-1.5 1.531-3.521 2.297-6.063 2.297zm.172-13.86c-1.417 0-2.537.495-3.36 1.485-.822.99-1.234 2.354-1.234 4.094 0 1.677.417 3 1.25 3.969.834.958 1.948 1.437 3.344 1.437 1.427 0 2.521-.474 3.281-1.422.771-.948 1.157-2.297 1.157-4.047 0-1.76-.386-3.12-1.157-4.078-.76-.958-1.854-1.437-3.281-1.437zm26.422 12.204c0 5.875-2.953 8.812-8.86 8.812-2.083 0-3.901-.349-5.453-1.047v-3.312c1.75 1 3.412 1.5 4.985 1.5 3.802 0 5.703-1.87 5.703-5.61v-1.75h-.063c-1.198 2.042-3 3.063-5.406 3.063-1.948 0-3.521-.708-4.719-2.125-1.187-1.427-1.781-3.338-1.781-5.734 0-2.72.641-4.88 1.922-6.485 1.281-1.604 3.042-2.406 5.281-2.406 2.115 0 3.683.865 4.703 2.594h.063V67h3.625v14.719zm-3.594-6.047v-2.078c0-1.125-.375-2.084-1.125-2.875-.739-.802-1.667-1.203-2.781-1.203-1.375 0-2.453.51-3.234 1.53-.771 1.011-1.157 2.428-1.157 4.25 0 1.574.37 2.834 1.11 3.782.75.938 1.739 1.406 2.968 1.406 1.25 0 2.266-.447 3.047-1.343.782-.907 1.172-2.063 1.172-3.47zM143.672 83h-3.516v-2.5h-.062c-1.104 1.917-2.724 2.875-4.86 2.875-1.573 0-2.807-.427-3.703-1.281-.885-.854-1.328-1.985-1.328-3.39 0-3.022 1.74-4.782 5.219-5.282l4.75-.672c0-2.281-1.083-3.422-3.25-3.422-1.906 0-3.625.656-5.156 1.969v-3.172c1.687-1 3.635-1.5 5.843-1.5 4.042 0 6.063 1.99 6.063 5.969V83zm-3.5-7.86l-3.36.47c-1.041.135-1.828.39-2.359.765-.521.365-.781 1.01-.781 1.938 0 .677.239 1.234.719 1.671.489.428 1.14.641 1.953.641 1.104 0 2.015-.385 2.734-1.156.729-.781 1.094-1.76 1.094-2.938v-1.39zM175.734 83h-4.078l-2.015-5.703h-8.813L158.891 83h-4.063l8.391-22.406h4.187L175.734 83zm-7.078-8.734l-3.109-8.938c-.094-.291-.193-.76-.297-1.406h-.062c-.094.594-.198 1.062-.313 1.406l-3.078 8.938h6.859zm21.219 8c-1.281.74-2.797 1.109-4.547 1.109-2.375 0-4.292-.74-5.75-2.219-1.458-1.49-2.187-3.416-2.187-5.781 0-2.635.781-4.75 2.343-6.344 1.573-1.604 3.672-2.406 6.297-2.406 1.459 0 2.745.255 3.86.766v3.375c-1.115-.834-2.302-1.25-3.563-1.25-1.531 0-2.786.52-3.766 1.562-.979 1.031-1.468 2.385-1.468 4.063 0 1.656.458 2.963 1.375 3.921.927.959 2.166 1.438 3.719 1.438 1.302 0 2.531-.463 3.687-1.39v3.156zm12.047.562c-.708.354-1.641.531-2.797.531-3.104 0-4.656-1.49-4.656-4.468v-9.047h-2.672V67h2.672v-3.703l3.625-1.031V67h3.828v2.844h-3.828v8c0 .948.172 1.625.515 2.031.344.406.917.61 1.719.61.615 0 1.146-.178 1.594-.532v2.875zm4.953-19.187a2.206 2.206 0 01-1.531-.578c-.417-.386-.625-.876-.625-1.47 0-.593.208-1.088.625-1.484a2.173 2.173 0 011.531-.593c.615 0 1.135.198 1.563.593.427.396.64.891.64 1.485 0 .562-.213 1.047-.64 1.453-.428.396-.948.594-1.563.594zM208.672 83h-3.625V67h3.625v16zm18.531-16l-6.187 16h-3.922l-5.891-16h3.938l3.547 11.188c.27.822.437 1.541.5 2.156h.046c.094-.771.24-1.469.438-2.094L223.391 67h3.812zm4.297-3.36a2.206 2.206 0 01-1.531-.578c-.417-.385-.625-.874-.625-1.468s.208-1.089.625-1.485a2.173 2.173 0 011.531-.593c.615 0 1.135.198 1.562.593.428.396.641.891.641 1.485 0 .562-.213 1.047-.641 1.453-.427.396-.947.594-1.562.594zM233.297 83h-3.625V67h3.625v16zm13.187-.172c-.708.354-1.64.531-2.796.531-3.105 0-4.657-1.49-4.657-4.468v-9.047h-2.672V67h2.672v-3.703l3.625-1.031V67h3.828v2.844h-3.828v8c0 .948.172 1.625.516 2.031.344.406.917.61 1.719.61.614 0 1.145-.178 1.593-.532v2.875zM263.469 67l-7.219 18.563c-1.5 3.312-3.604 4.968-6.312 4.968-.761 0-1.396-.068-1.907-.203v-3.016c.573.188 1.094.282 1.563.282 1.354 0 2.364-.667 3.031-2l1.078-2.625L247.344 67h4.015l3.813 11.625c.042.146.135.531.281 1.156h.078c.052-.24.146-.614.281-1.125l4-11.656h3.657z" fill="#4E7D96"/><defs><linearGradient id="paint0_linear_45:142" x1="389" y1="30" x2="389" y2="470" gradientUnits="userSpaceOnUse"><stop stop-color="#4E7D96"/><stop offset="1" stop-color="#396D89"/></linearGradient><linearGradient id="paint1_linear_45:142" x1="82.5" y1="428" x2="82.5" y2="443" gradientUnits="userSpaceOnUse"><stop stop-color="#4E7D96"/><stop offset="1" stop-color="#396D89"/></linearGradient><linearGradient id="paint2_linear_45:142" x1="657" y1="308" x2="657" y2="407" gradientUnits="userSpaceOnUse"><stop stop-color="#4E7D96"/><stop offset="1" stop-color="#396D89"/></linearGradient><linearGradient id="paint3_linear_45:142" x1="570" y1="225" x2="570" y2="407" gradientUnits="userSpaceOnUse"><stop stop-color="#4E7D96"/><stop offset="1" stop-color="#396D89"/></linearGradient><linearGradient id="paint4_linear_45:142" x1="489" y1="285" x2="489" y2="407" gradientUnits="userSpaceOnUse"><stop stop-color="#4E7D96"/><stop offset="1" stop-color="#396D89"/></linearGradient><linearGradient id="paint5_linear_45:142" x1="404" y1="376" x2="404" y2="407" gradientUnits="userSpaceOnUse"><stop stop-color="#4E7D96"/><stop offset="1" stop-color="#396D89"/></linearGradient><linearGradient id="paint6_linear_45:142" x1="311" y1="266" x2="311" y2="407" gradientUnits="userSpaceOnUse"><stop stop-color="#4E7D96"/><stop offset="1" stop-color="#396D89"/></linearGradient><linearGradient id="paint7_linear_45:142" x1="220" y1="317" x2="220" y2="407" gradientUnits="userSpaceOnUse"><stop stop-color="#4E7D96"/><stop offset="1" stop-color="#396D89"/></linearGradient><linearGradient id="paint8_linear_45:142" x1="125" y1="285" x2="125" y2="407" gradientUnits="userSpaceOnUse"><stop stop-color="#4E7D96"/><stop offset="1" stop-color="#396D89"/></linearGradient><clipPath id="clip0_45:142"><path fill="#fff" transform="translate(687.723 62)" d="M0 0h15.274v15.274H0z"/></clipPath><filter id="filter0_dd_45:142" x="0" y="0" width="778" height="525" filterUnits="userSpaceOnUse" color-interpolation-filters="sRGB"><feFlood flood-opacity="0" result="BackgroundImageFix"/><feColorMatrix in="SourceAlpha" values="0 0 0 0 0 0 0 0 0 0 0 0 0 0 0 0 0 0 127 0" result="hardAlpha"/><feOffset dy="20"/><feGaussianBlur stdDeviation="17.5"/><feColorMatrix values="0 0 0 0 0.223529 0 0 0 0 0.427451 0 0 0 0 0.537255 0 0 0 0.3 0"/><feBlend in2="BackgroundImageFix" result="effect1_dropShadow_45:142"/><feColorMatrix in="SourceAlpha" values="0 0 0 0 0 0 0 0 0 0 0 0 0 0 0 0 0 0 127 0" result="hardAlpha"/><feOffset dx="-5" dy="-1"/><feGaussianBlur stdDeviation="14.5"/><feColorMatrix values="0 0 0 0 0.223529 0 0 0 0 0.427451 0 0 0 0 0.537255 0 0 0 0.2 0"/><feBlend in2="effect1_dropShadow_45:142" result="effect2_dropShadow_45:142"/><feBlend in="SourceGraphic" in2="effect2_dropShadow_45:142" result="shape"/></filter></defs></svg>