<svg width="80" height="80" fill="none" xmlns="http://www.w3.org/2000/svg"><path d="M29 37.75l5 12.5 1.25 11.25H44V59l-2.5-1.25L40.25 49 36.5 39 29 37.75z" fill="#B53F92"/><path d="M40.25 62.75h-22.5a1.248 1.248 0 01-1.238-1.416c.032-.238.13-.46.284-.642l13.75-16.25a1.26 1.26 0 011.084-.436 1.26 1.26 0 01.97.652l8.75 16.25a1.242 1.242 0 01-.026 1.234 1.282 1.282 0 01-.456.446c-.19.106-.402.162-.618.162zm-19.804-2.5h17.712L31.27 47.458 20.446 60.25z" fill="#667447"/><path d="M17.75 47.75a13.745 13.745 0 00-12.704 8.488 13.76 13.76 0 00-.782 7.944 13.732 13.732 0 003.764 7.04 13.732 13.732 0 007.04 3.764 13.76 13.76 0 007.944-.782 13.745 13.745 0 004.46-22.426 13.741 13.741 0 00-9.722-4.028zm0 23.75a9.99 9.99 0 01-5.556-1.686 9.987 9.987 0 01-3.682-4.488 9.984 9.984 0 01-.57-5.776 10.014 10.014 0 012.736-5.122 10.014 10.014 0 015.122-2.736 9.984 9.984 0 015.776.57 9.987 9.987 0 014.488 3.682A9.99 9.99 0 0127.75 61.5c0 2.652-1.054 5.196-2.928 7.072A10.008 10.008 0 0117.75 71.5zm45-23.75a13.745 13.745 0 00-12.704 8.488 13.76 13.76 0 00-.782 7.944 13.732 13.732 0 003.764 7.04 13.732 13.732 0 007.04 3.764 13.76 13.76 0 007.944-.782 13.745 13.745 0 004.46-22.426 13.743 13.743 0 00-9.722-4.028zm0 23.75a9.99 9.99 0 01-5.556-1.686 9.987 9.987 0 01-3.682-4.488 9.984 9.984 0 01-.57-5.776 10.014 10.014 0 012.736-5.122 10.014 10.014 0 015.122-2.736 9.984 9.984 0 015.776.57 9.987 9.987 0 014.488 3.682A9.99 9.99 0 0172.75 61.5c0 2.652-1.054 5.196-2.928 7.072A10.008 10.008 0 0162.75 71.5z" fill="#CDCCC8"/><path d="M31.5 46.5a1.249 1.249 0 01-1.248-1.166l-.396-5.946a1.252 1.252 0 011.164-1.33 1.252 1.252 0 011.33 1.164l.302 4.508 22.34-4.702a1.253 1.253 0 011.482.964 1.253 1.253 0 01-.518 1.29 1.258 1.258 0 01-.448.192l-23.75 5a1.241 1.241 0 01-.258.026z" fill="#667447"/><path d="M62.75 62.75a1.24 1.24 0 01-.738-.242 1.238 1.238 0 01-.452-.63l-8.75-27.5a1.245 1.245 0 01.306-1.262l1.25-1.25a1.25 1.25 0 01.884-.366h6.25c.994 0 1.948.396 2.652 1.098a3.758 3.758 0 011.098 2.652c0 .994-.396 1.948-1.098 2.652A3.758 3.758 0 0161.5 39H59a1.25 1.25 0 110-2.5h2.5a1.25 1.25 0 100-2.5h-5.732l-.346.346 8.52 26.774a1.248 1.248 0 01-1.192 1.63z" fill="#667447"/><path d="M40.248 62.75c-.228 0-.452-.064-.648-.182a1.257 1.257 0 01-.598-1.154c.016-.228.094-.448.226-.634l15-21.25a1.265 1.265 0 01.81-.516 1.253 1.253 0 011.434 1.51 1.285 1.285 0 01-.2.446l-15 21.25a1.256 1.256 0 01-1.024.53z" fill="#667447"/><path d="M29 31.5l8.75-15L41.5 19l1.25 3.75-5 11.25L29 31.5z" fill="#C378CB"/><path d="M49 32.75h2.5L54 34l1.25-2.5L54 29h-3.75L49 32.75z" fill="#B53F92"/><path d="M46.5 10.25v4.424c0 .484-.192.948-.534 1.292a1.832 1.832 0 01-1.292.534H42.75L41.5 19l-3.75-2.5L39 14v-3.75h7.5z" fill="#FEB784"/><path d="M40.25 10.25a9.034 9.034 0 01-.69 3.464 8.995 8.995 0 01-1.962 2.938l-.426.426a2.315 2.315 0 01-.744.498c-.28.114-.578.174-.88.174h-1.142a2.293 2.293 0 01-2.292-2.46c.022-.302.102-.596.238-.864a2.293 2.293 0 011.328-1.154 4.013 4.013 0 001.356-.772c.396-.344.72-.762.956-1.232l.508-1.018h3.75z" fill="#6E3C26"/><path d="M36.684 29.534c-.952.476-1.962.822-3.006 1.03-3.1.62-6.278.758-9.42.41l-5.118-.57a1.562 1.562 0 01-1.392-1.552V25.77c0-.222.048-.44.138-.642.092-.202.226-.382.392-.53a1.54 1.54 0 01.572-.32 1.55 1.55 0 01.656-.058l6.89.86a5.999 5.999 0 004.746-1.478 6.013 6.013 0 001.448-1.95l.562-1.21a4.65 4.65 0 014.222-2.692 4.652 4.652 0 014.162 2.572l1.214 2.428-.716 1.432a11.973 11.973 0 01-5.35 5.352z" fill="#C378CB"/><path d="M42.478 23.292l-.446.89a11.901 11.901 0 01-2.888 3.712l-3.872-3.872a3.081 3.081 0 01-.928-2.194 3.087 3.087 0 011.916-2.876 3.089 3.089 0 013.386.694l2.832 3.646z" fill="#C378CB"/><path d="M39.626 66.5A4.374 4.374 0 0044 62.124a4.374 4.374 0 00-4.374-4.374 4.374 4.374 0 100 8.75z" fill="#BBBAB6"/><path d="M42.75 52.75l4.346-10.866a5.447 5.447 0 00-1.27-5.936 5.448 5.448 0 00-2.644-1.41L29 31.5l-.696 4.178c-.072.426-.054.86.052 1.276a3.111 3.111 0 001.526 1.978c.378.208.792.334 1.222.372l10.396.946-3.75 12.5h5z" fill="#B53F92"/><path d="M37.75 52.75v5h7.5v-2.204a2.505 2.505 0 00-1.382-2.236l-1.118-.56h-5zM17.75 64a2.5 2.5 0 000-5 2.5 2.5 0 000 5zm45 0a2.5 2.5 0 000-5 2.5 2.5 0 000 5z" fill="#CDCCC8"/><path d="M50.25 29L44 24l-4.352-5.602a3.1 3.1 0 00-1.97-.9 3.1 3.1 0 00-2.934 1.606c-.212.39-.338.82-.37 1.262-.032.442.032.886.188 1.3.154.416.396.792.71 1.106l4.978 4.978 8.75 5L50.25 29z" fill="#C378CB"/><path d="M46.5 10.25h-10V6.188c0-.58.23-1.138.64-1.548.41-.41.968-.64 1.548-.64h5.624c.58 0 1.138.23 1.548.64.41.41.64.968.64 1.548v4.062z" fill="#B53F92"/><path d="M50.25 11.5h-12.5a1.25 1.25 0 110-2.5h12.5a1.25 1.25 0 110 2.5z" fill="#B53F92"/></svg>