<svg width="65" height="73" fill="none" xmlns="http://www.w3.org/2000/svg"><path d="M41.25 0h5v8.75h-5V0zM65 8.75h-5V0h5v8.75z" fill="#CDCCC8"/><path d="M46.25 2.5H60v3.75H46.25V2.5z" fill="gray"/><path d="M0 0h5v8.75H0V0zm23.75 8.75h-5V0h5v8.75z" fill="#CDCCC8"/><path d="M5 2.5h13.75v3.75H5V2.5z" fill="gray"/><path d="M56.25 7.5l-4.394 10.983a4.997 4.997 0 01-1.992 2.383L46.45 23l-5.2 3.25v7.5l2.074 13.475L46.25 66.25l-5 3.75-6.354-19.966L32.5 42.5l-2.474 7.777L23.75 70l-5-3.75 2.932-19.052L23.75 33.75v-7.5L18.55 23l-3.414-2.134a4.997 4.997 0 01-1.992-2.383L8.75 7.5l1.25-5h5v6.25L18.75 15l2.726.681L32.5 18.438l11.024-2.757L46.25 15 50 8.75V2.5h5l1.25 5z" fill="#FEB784"/><path d="M43.324 47.225l-8.428 2.81L32.5 42.5l-2.474 7.777-8.344-3.079L23.75 33.75h17.5l2.074 13.475z" fill="#B53F92"/><path d="M18.75 66.25l5 3.75v2.5H12.5V70l6.25-3.75zM41.25 70v2.5H52.5V70l-6.25-3.75-5 3.75z" fill="#D1E4FF"/><path d="M46.45 23l-5.2 3.25v7.5h-17.5v-7.5L18.55 23l2.926-7.319L32.5 18.438l11.024-2.757L46.45 23z" fill="#C378CB"/><path d="M28.75 12.5h7.5v3.75a3.753 3.753 0 01-6.402 2.652 3.755 3.755 0 01-1.098-2.652V12.5z" fill="#FEB784"/><path d="M28.75 12.5V10l3.024-2.017a2.886 2.886 0 012.7-.264 2.87 2.87 0 011.556 1.558c.146.35.22.723.22 1.101V12.5h-7.5z" fill="#6E3C26"/></svg>