<svg width="412" height="3" fill="none" xmlns="http://www.w3.org/2000/svg"><path d="M7.5 1.4l5-.1c.1 0 .2.1.2.2s-.1.2-.2.2l-5-.1c-.1 0-.1-.1-.1-.1 0-.1.1-.1.1-.1zm10.1-.2l5-.1c.2 0 .4.2.4.3 0 .2-.2.4-.3.4l-5-.1c-.2 0-.3-.1-.3-.3-.1-.1 0-.2.2-.2zm10-.1l5-.1c.3 0 .5.2.5.5s-.2.5-.5.5l-5-.1c-.2 0-.4-.2-.4-.4s.2-.4.4-.4zM37.7.9l5-.1c.3 0 .6.3.6.6s-.3.6-.6.6l-5-.1c-.3 0-.5-.3-.5-.6-.1-.1.2-.4.5-.4zm10-.1l5-.1c.4 0 .8.3.8.7 0 .4-.3.8-.7.8l-5-.1c-.4 0-.7-.3-.7-.7-.1-.3.2-.6.6-.6zm10-.1h5c.5 0 .8.4.8.8 0 .5-.4.8-.8.8h-5c-.4 0-.8-.4-.8-.8.1-.4.4-.8.8-.8zM67.8.6h5c.5 0 .9.4.9.9s-.4.9-.9.9h-5c-.5 0-.9-.4-.9-.9s.4-.9.9-.9zm10-.1h5c.5 0 1 .4 1 1 0 .5-.4 1-1 1h-5c-.5 0-.9-.4-.9-1 0-.5.4-.9.9-1zm10.1 0h5c.6 0 1.1.5 1.1 1.1 0 .6-.5 1.1-1.1 1.1h-5c-.6 0-1-.5-1-1 0-.8.4-1.2 1-1.2zm10-.1h5c.6 0 1.2.5 1.2 1.1 0 .6-.5 1.2-1.1 1.2h-5c-.6 0-1.1-.5-1.1-1.1-.1-.7.4-1.2 1-1.2zM108 .3h5c.7 0 1.2.5 1.2 1.2s-.5 1.2-1.2 1.2h-5c-.7 0-1.2-.5-1.2-1.2s.5-1.2 1.2-1.2zm10-.1h5c.7 0 1.3.6 1.3 1.3 0 .7-.6 1.3-1.3 1.3h-5c-.7 0-1.3-.6-1.3-1.3 0-.7.6-1.3 1.3-1.3zm10 0h5c.7 0 1.3.6 1.3 1.3 0 .7-.6 1.3-1.3 1.3h-5c-.7 0-1.3-.6-1.3-1.3.1-.7.6-1.3 1.3-1.3zm10.1 0h5c.7 0 1.3.6 1.3 1.3 0 .7-.6 1.3-1.3 1.3h-5c-.7 0-1.3-.6-1.3-1.3 0-.7.6-1.3 1.3-1.3zm10-.1h5c.8 0 1.4.6 1.4 1.4 0 .8-.6 1.4-1.4 1.4h-5c-.7 0-1.3-.6-1.3-1.3 0-.8.6-1.4 1.3-1.5zm10.1 0h5c.8 0 1.4.6 1.4 1.4 0 .8-.6 1.4-1.4 1.4h-5c-.8 0-1.4-.6-1.4-1.4 0-.8.6-1.4 1.4-1.4zm10 0h5c.8 0 1.4.6 1.4 1.4 0 .8-.6 1.4-1.4 1.4h-5c-.8 0-1.4-.6-1.4-1.4 0-.8.6-1.4 1.4-1.4zm10.1 0h5c.8 0 1.4.6 1.4 1.4 0 .8-.6 1.4-1.4 1.4h-5c-.8 0-1.4-.6-1.4-1.4-.1-.8.6-1.4 1.4-1.4zm10-.1h5c.8 0 1.5.7 1.5 1.5s-.7 1.5-1.5 1.5h-5c-.8 0-1.5-.7-1.4-1.5 0-.8.6-1.5 1.4-1.5zm10 0h5c.8 0 1.5.7 1.5 1.5s-.6 1.5-1.4 1.5h-5c-.8 0-1.5-.7-1.5-1.5s.6-1.5 1.4-1.5zm10.1 0h5c.8 0 1.5.7 1.5 1.5s-.7 1.5-1.5 1.5h-5c-.8 0-1.5-.7-1.5-1.5s.7-1.5 1.5-1.5zm10 0h5c.8 0 1.5.7 1.5 1.5s-.7 1.4-1.5 1.5h-5c-.8 0-1.5-.7-1.5-1.5.1-.8.7-1.5 1.5-1.5zm10.1.1h5c.8 0 1.4.6 1.4 1.4 0 .8-.6 1.4-1.4 1.4h-5c-.8 0-1.4-.6-1.4-1.4-.1-.8.6-1.4 1.4-1.4zm10 0h5c.8 0 1.4.6 1.4 1.4 0 .8-.6 1.4-1.4 1.4h-5c-.8 0-1.4-.6-1.4-1.4 0-.8.6-1.4 1.4-1.4zm10.1 0h5c.8 0 1.4.6 1.4 1.4 0 .8-.6 1.4-1.4 1.4h-5c-.8 0-1.4-.6-1.4-1.4 0-.8.6-1.4 1.4-1.4zm10 0h5c.7 0 1.3.6 1.3 1.4 0 .7-.6 1.3-1.3 1.3h-5c-.8 0-1.4-.6-1.4-1.4 0-.7.7-1.3 1.4-1.3zm10.1.1h5c.7 0 1.3.6 1.3 1.3 0 .7-.6 1.3-1.3 1.3h-5c-.7 0-1.3-.6-1.3-1.3 0-.7.5-1.3 1.3-1.3zm10 0h5c.7 0 1.3.6 1.3 1.3 0 .7-.6 1.3-1.3 1.3h-5c-.7 0-1.3-.6-1.3-1.3 0-.7.6-1.3 1.3-1.3zm10 0h5c.7 0 1.3.6 1.3 1.3 0 .7-.6 1.3-1.3 1.3h-5c-.7 0-1.3-.6-1.3-1.3 0-.7.6-1.3 1.3-1.3zm10.1.1h5c.7 0 1.2.5 1.2 1.2s-.5 1.2-1.2 1.2h-5c-.7 0-1.2-.5-1.2-1.2-.1-.7.5-1.2 1.2-1.2zm10 0h5c.6 0 1.1.5 1.1 1.1 0 .6-.5 1.1-1.1 1.1h-5c-.6 0-1.2-.5-1.2-1.1 0-.6.6-1.1 1.2-1.1zm10.1.1h5c.6 0 1 .5 1 1 0 .6-.5 1-1 1h-5c-.6 0-1.1-.5-1.1-1.1 0-.4.5-.9 1.1-.9zm10 .1h5c.5 0 .9.4.9 1 0 .5-.4.9-.9.9h-5c-.5 0-1-.4-1-1s.5-.9 1-.9zm10.1.1h5c.5 0 .9.4.9.9s-.4.9-.9.9h-5c-.5 0-.9-.4-.9-.9-.1-.5.3-.9.9-.9-.1 0 0 0 0 0zm10 .1h5c.4 0 .8.4.8.8s-.4.8-.8.8h-5c-.5 0-.8-.4-.8-.8 0-.5.3-.8.8-.8zm10 0l5 .1c.4 0 .7.3.7.7 0 .4-.3.7-.7.7l-5 .1c-.4 0-.8-.3-.8-.7.1-.5.4-.9.8-.9zm10.1.2l5 .1c.3 0 .6.3.5.6 0 .3-.2.5-.5.5l-5 .1c-.3 0-.6-.3-.6-.6 0-.4.2-.7.6-.7zm10 .1l5 .1c.2 0 .4.2.4.4s-.2.4-.4.4l-5 .1c-.3 0-.5-.2-.5-.5s.3-.5.5-.5zm10.1.1l5 .1c.2 0 .3.1.3.3 0 .2-.1.3-.3.3l-5 .1c-.2 0-.4-.2-.4-.4s.2-.4.4-.4zm10 .2l5 .1c.1 0 .1.1.1.1 0 .1-.1.1-.1.1l-5 .1c-.1 0-.2-.1-.2-.2s.1-.2.2-.2z" fill="#4E7D96" fill-opacity=".5"/></svg>