<svg width="80" height="80" fill="none" xmlns="http://www.w3.org/2000/svg"><path d="M34.75 16.5l8.75 6.25L37.25 29l-2.5-12.5zm0 0L31 20.25 29.75 14h-2.5L26 11.5h-1.25L26 7.75c0-.492.096-.98.286-1.435a3.74 3.74 0 011.306-1.63A3.732 3.732 0 0129.75 4h.822a3.754 3.754 0 013.638 2.84 6.02 6.02 0 01-.456 4.15l-.254.51 1.25 5z" fill="#FEB784"/><path d="M34.39 8.302c0 .933-.218 1.854-.636 2.689l-.254.509a16.955 16.955 0 01-5.766-6.531l-.142-.285A3.732 3.732 0 0129.75 4h.822a3.754 3.754 0 013.638 2.84c.118.478.18.969.18 1.462z" fill="#6E3C26"/><path d="M35.634 4.717a2.81 2.81 0 012.19.352 2.839 2.839 0 011.256 1.828 11.287 11.287 0 003.088 5.77L43.5 14l-5.058-1.011a6.158 6.158 0 01-2.204-.914l-.408-.272A5.232 5.232 0 0133.5 7.45a2.82 2.82 0 012.134-2.733z" fill="#6E3C26"/><path d="M56 65.25l-2.5 1.25-11.25-10-4.558-8.466-2.07-3.845-2.238 1.119L26 49l3.75 3.75L31 61.5l-2.5 1.25L19.75 49a42.967 42.967 0 019.35-10.916L31 36.5v-3.75h7.5l.332.133A7.65 7.65 0 0143.5 41.5a41.728 41.728 0 013.596 10.481l.154.769a13.168 13.168 0 017.882 9.03L56 65.25z" fill="#B53F92"/><path d="M35.622 44.189l-2.238 1.119-.9-1.67a2.508 2.508 0 01-.194-1.905 2.495 2.495 0 011.21-1.483l2.122 3.939z" fill="#923B78"/><path d="M61 67.75l-5 8.75h-6.25a4.054 4.054 0 012.236-3.619l.264-.131.5-2.5.75-3.75 2.5-1.25 2.76 1.38L61 67.75z" fill="#683B0D"/><path d="M56 72.75h-3.75l.5-2.5h.75a2.493 2.493 0 011.768.732A2.509 2.509 0 0156 72.75zM36 66.5l-11.25 6.25a4.818 4.818 0 01.3-4.825l3.45-5.175L31 61.5l5 5z" fill="#683B0D"/><path d="M29.75 26.5l-2.162-1.622a3.753 3.753 0 01-.87-5.08l1.708-2.564a4.456 4.456 0 018.12 1.842L38.5 32.75H31l-1.25-6.25z" fill="#C378CB"/><path d="M29.75 22.75l.874-5.238a2.704 2.704 0 015.17-.59A2.7 2.7 0 0136 17.957v.71c0 .221-.028.442-.08.656L33.5 29h-3.75L21 26.5h-1.25L16 25.25l1.25-5 5 1.25v1.25h7.5L31 24l-1.25-1.25z" fill="#FEB784"/><path d="M61 67.75l-5 8.75h-6.25c0-.907.304-1.788.866-2.5h3.932l.714-1.25.548-.956 2.95-5.164L61 67.75zM36 66.5l-11.25 6.25a4.79 4.79 0 01-.488-2.59l9.898-5.5L36 66.5z" fill="#D4E4F0"/></svg>