<svg width="80" height="80" fill="none" xmlns="http://www.w3.org/2000/svg"><path d="M17.75 34a63.105 63.105 0 01-6.335-3.604C9.23 29.33 8.398 26.16 9.464 23.974a4.405 4.405 0 014.227-2.464 4.372 4.372 0 011.661.438l.978.54 2.926-.432.21 1.598 1.718 1.32a1.253 1.253 0 01.446 1.316 1.244 1.244 0 01-.216.436l-1.32 1.72 7.228 5.548-3.469 4.518L17.75 34z" fill="#FEB784"/><path d="M76.5 76.5H69V74l1.25-1.25-7.806-4.592L49 60.25l-6.25-3.75h-25l-.478 7.66L16.5 76.5H9.203a1.456 1.456 0 01-.46-2.832l1.763-.586a1.461 1.461 0 00.994-1.378V52.75A3.753 3.753 0 0115.25 49H31.5v-6.25H24l-5-6.25.827-.964 3.698-4.458L25.25 29 24 26.5 10.25 12.75 4 9V6.5L7.75 4l12.5 11.25 3.69 3.228A42.649 42.649 0 0134 31.5l2.5 3.75 7.5 7.5 3.75 5 12.5 10 5.91 5.454 7.585 7.002A8.575 8.575 0 0176.5 76.5z" fill="#FEB784"/><path d="M66.16 63.204l-3.41 4.546-.306.408L49 60.25l-6.25-3.75h-25l-.478 7.66L16.5 64h-5V52.75A3.755 3.755 0 0115.25 49H31.5v-2.5L44 42.75l3.75 5 12.5 10 5.91 5.454z" fill="#B53F92"/><path d="M19 36.5l-3.215 4.286a2.501 2.501 0 00-.498 1.604L16.5 71.5l-3.75 5h3.75l2.5-1.25.991.992a.89.89 0 00.963.19.876.876 0 00.546-.816V44l2.5-1.25-5-6.25z" fill="#FEC093"/><path d="M5.042 34.208v8.334L4 44.626l2.689-.898a5.2 5.2 0 003.561-4.94V29a5.203 5.203 0 00-3.683 1.526 5.204 5.204 0 00-1.525 3.682z" fill="#6E3C26"/><path d="M15.43 30.102l-1.275.438a1.55 1.55 0 01-1.07-.022 1.546 1.546 0 01-.36-2.676l.302-.226-2.554-4.984c-1.66 1.3-3.665 4.04-2.234 7.394C10.252 34.746 17.75 34 17.75 34l-2.32-3.898z" fill="#6E3C26"/><path d="M30.25 42.75l6.25-7.5L34 31.5s-5 1.25-8.75-2.5c0 0 2.5 5 0 7.5s-6.25 0-6.25 0l2.68 4.468a5.62 5.62 0 006.597 2.44l1.973-.658z" fill="#C378CB"/></svg>