<svg width="516" height="200" fill="none" xmlns="http://www.w3.org/2000/svg"><rect width="516" height="200" rx="20" fill="url(#paint0_linear_37:43)"/><g clip-path="url(#clip0_37:43)"><path d="M69.279 51.347c-.516-6.711-3.64-10.917-6.397-14.628-2.552-3.436-4.757-6.403-4.757-10.78a.939.939 0 00-1.483-.762c-4.14 2.962-7.594 7.955-8.801 12.719-.838 3.317-.949 7.045-.964 9.508-3.823-.817-4.69-6.536-4.699-6.598a.942.942 0 00-.488-.696.933.933 0 00-.85-.015c-.2.097-4.92 2.495-5.195 12.072-.02.319-.02.638-.02.958 0 9.304 7.57 16.874 16.875 16.874.013 0 .026.002.038 0h.011c9.282-.027 16.826-7.587 16.826-16.874 0-.468-.096-1.778-.096-1.778zM52.5 68.124c-3.102 0-5.625-2.688-5.625-5.992 0-.113 0-.226.007-.365.038-1.394.303-2.345.593-2.977.544 1.168 1.516 2.242 3.095 2.242.518 0 .938-.42.938-.938 0-1.334.027-2.874.36-4.264.295-1.232 1.002-2.543 1.897-3.594.399 1.364 1.175 2.468 1.933 3.545 1.085 1.542 2.206 3.136 2.403 5.854.012.161.024.323.024.497 0 3.304-2.523 5.992-5.625 5.992z" fill="#fff"/></g><path d="M103.391 60.063c-1.688.874-3.787 1.312-6.297 1.312-3.25 0-5.854-1.026-7.813-3.078-1.958-2.052-2.937-4.745-2.937-8.078 0-3.584 1.099-6.48 3.297-8.688 2.208-2.208 4.994-3.312 8.359-3.312 2.167 0 3.964.307 5.391.922v3.687c-1.511-.896-3.177-1.344-5-1.344-2.428 0-4.396.776-5.907 2.328-1.5 1.553-2.25 3.626-2.25 6.22 0 2.468.704 4.437 2.11 5.906 1.406 1.458 3.255 2.187 5.547 2.187 2.114 0 3.948-.5 5.5-1.5v3.438zm16.125.937H116v-2.5h-.062c-1.105 1.917-2.724 2.875-4.86 2.875-1.573 0-2.807-.427-3.703-1.281-.885-.854-1.328-1.985-1.328-3.39 0-3.022 1.739-4.782 5.219-5.282l4.75-.672c0-2.281-1.084-3.422-3.25-3.422-1.907 0-3.625.656-5.157 1.969v-3.172c1.688-1 3.636-1.5 5.844-1.5 4.042 0 6.063 1.99 6.063 5.969V61zm-3.5-7.86l-3.36.47c-1.041.135-1.828.39-2.359.765-.521.365-.781 1.01-.781 1.938 0 .677.239 1.234.718 1.671.49.427 1.141.641 1.954.641 1.104 0 2.015-.385 2.734-1.156.729-.782 1.094-1.76 1.094-2.938v-1.39zM127.594 61h-3.641V37.312h3.641V61zm11.828.375c-2.469 0-4.443-.745-5.922-2.234-1.469-1.5-2.203-3.485-2.203-5.953 0-2.688.765-4.787 2.297-6.297 1.541-1.51 3.614-2.266 6.218-2.266 2.5 0 4.448.734 5.844 2.203 1.396 1.469 2.094 3.505 2.094 6.11 0 2.552-.755 4.598-2.266 6.14-1.5 1.531-3.52 2.297-6.062 2.297zm.172-13.86c-1.417 0-2.537.495-3.36 1.485-.823.99-1.234 2.354-1.234 4.094 0 1.677.417 3 1.25 3.968.833.959 1.948 1.438 3.344 1.438 1.427 0 2.521-.474 3.281-1.422.771-.948 1.156-2.297 1.156-4.047 0-1.76-.385-3.12-1.156-4.078-.76-.958-1.854-1.437-3.281-1.437zm21.14.938c-.437-.344-1.067-.516-1.89-.516-1.073 0-1.969.485-2.688 1.454-.718.968-1.078 2.286-1.078 3.953V61h-3.625V45h3.625v3.297h.063c.354-1.125.895-2 1.625-2.625.739-.636 1.562-.953 2.468-.953.657 0 1.157.099 1.5.297v3.437zm4.391-6.812a2.206 2.206 0 01-1.531-.578c-.417-.386-.625-.876-.625-1.47 0-.593.208-1.088.625-1.484a2.173 2.173 0 011.531-.593c.615 0 1.135.198 1.563.593.427.396.64.891.64 1.485 0 .562-.213 1.047-.64 1.453-.428.396-.948.594-1.563.594zM166.922 61h-3.625V45h3.625v16zm18.297-7.016h-10.907c.042 1.48.495 2.62 1.36 3.422.875.802 2.073 1.203 3.594 1.203 1.708 0 3.276-.51 4.703-1.53V60c-1.459.917-3.386 1.375-5.781 1.375-2.355 0-4.204-.724-5.547-2.172-1.334-1.458-2-3.505-2-6.14 0-2.49.734-4.516 2.203-6.079 1.479-1.573 3.312-2.359 5.5-2.359 2.187 0 3.88.703 5.078 2.11 1.198 1.406 1.797 3.359 1.797 5.859v1.39zm-3.5-2.562c-.011-1.302-.318-2.313-.922-3.031-.604-.73-1.438-1.094-2.5-1.094-1.042 0-1.927.38-2.656 1.14-.719.76-1.162 1.756-1.329 2.985h7.407zm5.953 9.078v-3.36c1.354 1.032 2.849 1.547 4.484 1.547 2.188 0 3.282-.645 3.282-1.937 0-.365-.094-.672-.282-.922a2.588 2.588 0 00-.765-.687 5.69 5.69 0 00-1.125-.532c-.427-.156-.907-.333-1.438-.53a15.85 15.85 0 01-1.781-.829 5.705 5.705 0 01-1.313-.984 3.905 3.905 0 01-.781-1.266c-.177-.469-.265-1.016-.265-1.64 0-.771.182-1.449.546-2.032a4.656 4.656 0 011.469-1.484 6.792 6.792 0 012.094-.907 9.356 9.356 0 012.422-.312c1.479 0 2.802.224 3.969.672v3.172c-1.126-.771-2.417-1.157-3.876-1.157-.458 0-.874.047-1.25.141a3.214 3.214 0 00-.937.39c-.26.167-.464.37-.609.61-.146.23-.219.484-.219.766 0 .343.073.635.219.875.145.24.359.453.64.64.292.177.636.344 1.032.5.406.146.869.308 1.39.485.688.281 1.302.567 1.844.86a6.048 6.048 0 011.406 1c.386.364.682.79.891 1.28.208.48.312 1.052.312 1.72 0 .812-.187 1.52-.562 2.124a4.688 4.688 0 01-1.5 1.5c-.625.396-1.349.688-2.172.875a10.86 10.86 0 01-2.578.297c-1.75 0-3.266-.292-4.547-.875zM51.703 137.391v21.703h4.992v4.523h-4.992V171H46.43v-7.383H31.219v-4.57a126.557 126.557 0 004.218-5.016 116.252 116.252 0 004.172-5.531 90.465 90.465 0 003.727-5.672c1.14-1.89 2.102-3.703 2.883-5.437h5.484zm-5.273 21.703v-14.11c-1.703 3.063-3.39 5.735-5.063 8.016a137.99 137.99 0 01-4.664 6.094h9.727zm14.86 11.133V165c2.202 1.484 4.437 2.227 6.702 2.227 2.281 0 4.117-.579 5.508-1.735 1.39-1.172 2.086-2.726 2.086-4.664 0-1.906-.711-3.39-2.133-4.453-1.406-1.063-3.43-1.594-6.07-1.594-.906 0-2.742.094-5.508.281l1.195-17.671h16.547v4.64H67.594l-.563 8.414a51.45 51.45 0 012.93-.093c3.562 0 6.312.914 8.25 2.742 1.953 1.828 2.93 4.328 2.93 7.5 0 3.328-1.118 6-3.352 8.015-2.219 2-5.273 3-9.164 3-3.281 0-5.727-.461-7.336-1.382zm36 1.335c-3.5 0-6.235-1.429-8.204-4.289-1.953-2.859-2.93-6.992-2.93-12.398 0-5.937 1.024-10.43 3.07-13.477 2.047-3.046 5-4.57 8.86-4.57 7.391 0 11.086 5.742 11.086 17.227 0 5.687-1.047 10.031-3.141 13.031-2.078 2.984-4.992 4.476-8.742 4.476zm.538-30.398c-4.078 0-6.117 4.492-6.117 13.477 0 8.406 2 12.609 6 12.609 3.937 0 5.906-4.273 5.906-12.82 0-8.844-1.929-13.266-5.789-13.266zM135.703 171h-3.633l-5.847-7.688c-.219-.289-.352-.484-.399-.585h-.047V171h-2.789v-16.805h2.789v7.899h.047c.094-.172.227-.364.399-.574l5.636-7.325h3.34l-6.597 8.063 7.101 8.742zm9.961-.551c-.961.555-2.098.832-3.41.832-1.781 0-3.219-.554-4.313-1.664-1.093-1.117-1.64-2.562-1.64-4.336 0-1.976.586-3.562 1.758-4.758 1.179-1.203 2.753-1.804 4.722-1.804 1.094 0 2.059.191 2.895.574v2.531c-.836-.625-1.727-.937-2.672-.937-1.149 0-2.09.39-2.824 1.172-.735.773-1.102 1.789-1.102 3.046 0 1.243.344 2.223 1.031 2.942.696.719 1.625 1.078 2.789 1.078.977 0 1.899-.348 2.766-1.043v2.367zm11.918.551h-2.637v-1.875h-.047c-.828 1.437-2.043 2.156-3.644 2.156-1.18 0-2.106-.32-2.777-.961-.665-.64-.997-1.488-.997-2.543 0-2.265 1.305-3.586 3.915-3.961l3.562-.504c0-1.71-.812-2.566-2.437-2.566-1.43 0-2.719.492-3.868 1.477v-2.379c1.266-.75 2.727-1.125 4.383-1.125 3.031 0 4.547 1.492 4.547 4.476V171zm-2.625-5.895l-2.519.352c-.782.102-1.372.293-1.77.574-.391.274-.586.758-.586 1.453 0 .508.18.926.539 1.254.367.321.856.481 1.465.481.828 0 1.512-.289 2.051-.867.547-.586.82-1.321.82-2.204v-1.043zm8.684 5.895h-2.731v-17.766h2.731V171z" fill="#fff"/><path opacity=".5" d="M420.48 50.281c-1.75 0-3.117-.715-4.101-2.144-.977-1.43-1.465-3.496-1.465-6.2 0-2.968.512-5.214 1.535-6.738 1.024-1.523 2.5-2.285 4.43-2.285 3.695 0 5.543 2.871 5.543 8.613 0 2.844-.524 5.016-1.57 6.516-1.04 1.492-2.497 2.238-4.372 2.238zm.27-15.199c-2.039 0-3.059 2.246-3.059 6.738 0 4.203 1 6.305 3 6.305 1.969 0 2.954-2.137 2.954-6.41 0-4.422-.965-6.633-2.895-6.633zm18.855 5.602c0 1.68-.183 3.125-.55 4.336-.36 1.21-.86 2.207-1.5 2.988-.633.781-1.379 1.36-2.239 1.734a6.876 6.876 0 01-2.754.551c-.32 0-.644-.02-.972-.059a10.947 10.947 0 01-1.723-.351 6.484 6.484 0 01-.586-.223v-2.45a5.3 5.3 0 00.61.317c.242.102.504.196.785.282.289.078.586.144.89.199.313.047.614.07.903.07.664 0 1.265-.129 1.804-.387a3.716 3.716 0 001.395-1.148c.383-.508.676-1.137.879-1.887.211-.758.316-1.633.316-2.625h-.047a3.12 3.12 0 01-.562.715 4.038 4.038 0 01-.785.586 4.577 4.577 0 01-.996.398c-.36.102-.746.153-1.161.153a5.277 5.277 0 01-1.968-.364 4.716 4.716 0 01-1.571-1.054 4.92 4.92 0 01-1.054-1.653c-.25-.648-.375-1.37-.375-2.167 0-.876.144-1.665.433-2.368a5.204 5.204 0 012.989-2.953 5.998 5.998 0 012.238-.41c.758 0 1.473.145 2.144.434.68.28 1.274.734 1.782 1.359.515.617.922 1.418 1.218 2.402.305.985.457 2.176.457 3.575zm-2.835-1.793c0-.563-.075-1.075-.223-1.535a3.592 3.592 0 00-.598-1.184 2.703 2.703 0 00-.926-.762 2.509 2.509 0 00-1.16-.27c-.375 0-.734.079-1.078.235a2.644 2.644 0 00-.89.645c-.25.28-.45.62-.598 1.02a3.748 3.748 0 00-.223 1.323c0 .532.071 1 .211 1.407.149.406.352.75.61 1.03.257.274.566.485.925.634.368.14.77.21 1.207.21.391 0 .75-.07 1.078-.21a2.714 2.714 0 001.454-1.465c.14-.336.211-.696.211-1.078zm8.847 2.742c-1.187 0-2.133-.38-2.836-1.137-.703-.766-1.054-1.785-1.054-3.059 0-1.39.371-2.484 1.113-3.28.75-.805 1.758-1.208 3.023-1.208 1.227 0 2.176.371 2.848 1.114.68.742 1.019 1.785 1.019 3.128 0 1.344-.378 2.422-1.136 3.235-.758.804-1.75 1.207-2.977 1.207zm.164-7.043c-.64 0-1.148.246-1.523.738-.367.492-.551 1.168-.551 2.027 0 .844.18 1.5.539 1.97.367.468.867.702 1.5.702s1.129-.242 1.488-.726c.36-.492.539-1.172.539-2.04 0-.843-.179-1.5-.539-1.968-.351-.469-.836-.703-1.453-.703zm11.215-1.395l-10.781 16.922h-1.676l10.77-16.922h1.687zm-1.512 17.063c-1.187 0-2.132-.38-2.836-1.137-.703-.766-1.054-1.785-1.054-3.059 0-1.39.371-2.484 1.113-3.28.75-.805 1.758-1.208 3.023-1.208 1.227 0 2.176.371 2.848 1.114.68.742 1.02 1.785 1.02 3.128 0 1.344-.379 2.422-1.137 3.235-.758.804-1.75 1.207-2.977 1.207zm.164-7.043c-.64 0-1.148.246-1.523.738-.367.492-.551 1.168-.551 2.027 0 .844.18 1.5.539 1.97.367.468.867.702 1.5.702s1.129-.242 1.489-.726c.359-.492.539-1.172.539-2.04 0-.843-.18-1.5-.539-1.968-.352-.469-.836-.703-1.454-.703zm29.981 1.414a1.202 1.202 0 01-.879.371h-17.5a1.2 1.2 0 01-.879-.371 1.204 1.204 0 01-.371-.88c0-.338.124-.63.371-.878l8.75-8.75c.248-.247.541-.371.879-.371.338 0 .632.124.879.371l8.75 8.75c.247.247.371.54.371.879 0 .338-.124.631-.371.879z" fill="#fff"/><path d="M227.5 153.5c27.463 0 11.963 21.609 39.3 21.609 27.463 0 28.863-66.109 56.2-66.109 27.463 0 26.663 40.891 54 40.891 27.463 0 24.663-15.891 52-15.891s29.663 41.109 57 41.109" stroke="url(#paint1_linear_37:43)" stroke-width="3" stroke-miterlimit="10"/><circle cx="324.5" cy="108.5" r="10.5" fill="#fff"/><circle cx="324.5" cy="108.5" r="4.5" fill="url(#paint2_linear_37:43)"/><defs><linearGradient id="paint0_linear_37:43" x1="258" y1="0" x2="258" y2="200" gradientUnits="userSpaceOnUse"><stop stop-color="#4E7D96"/><stop offset="1" stop-color="#396D89"/></linearGradient><linearGradient id="paint1_linear_37:43" x1="212" y1="158.5" x2="486" y2="162" gradientUnits="userSpaceOnUse"><stop stop-color="#fff" stop-opacity=".25"/><stop offset=".526" stop-color="#fff"/><stop offset="1" stop-color="#fff" stop-opacity=".25"/></linearGradient><linearGradient id="paint2_linear_37:43" x1="324.488" y1="105.554" x2="332.17" y2="123.877" gradientUnits="userSpaceOnUse"><stop stop-color="#4E7D96"/><stop offset="1"/></linearGradient><clipPath id="clip0_37:43"><path fill="#fff" transform="translate(30 25)" d="M0 0h45v45H0z"/></clipPath></defs></svg>