<svg width="516" height="200" fill="none" xmlns="http://www.w3.org/2000/svg"><rect width="516" height="200" rx="20" fill="url(#paint0_linear_37:44)"/><path d="M63.047 27.9c-5.331 0-8.754 3.693-10.547 7.018-1.793-3.325-5.215-7.018-10.547-7.018C35.19 27.9 30 33.39 30 40.668c0 1.9.38 3.653 1.08 5.338h10.058l2.273-4.545c.448-.893 1.91-.893 2.358 0l4.094 8.189 1.458-2.915c.448-.894 1.91-.894 2.358 0l1.458 2.915 4.094-8.189c.448-.893 1.91-.893 2.358 0l2.273 4.545h10.057A13.7 13.7 0 0075 40.668c0-7.28-5.189-12.768-11.953-12.768z" fill="#fff"/><path d="M63.047 48.642c-.5 0-.955-.281-1.18-.728l-1.457-2.915-4.094 8.188a1.319 1.319 0 01-2.359 0L52.5 50.273l-1.457 2.914c-.449.894-1.911.894-2.36 0L44.59 45l-1.458 2.915c-.224.447-.68.728-1.179.728h-9.489c2.714 4.27 7.6 8.325 13.713 13.484a527.145 527.145 0 015.459 4.652 1.317 1.317 0 001.728 0 528.383 528.383 0 015.459-4.652c6.113-5.16 11-9.214 13.713-13.483h-9.49zM105.766 61h-3.735v-9.719H91.484V61h-3.718V38.594h3.718v9.422h10.547v-9.422h3.735V61zm18.672-7.016h-10.907c.042 1.48.495 2.62 1.36 3.422.875.802 2.073 1.203 3.593 1.203 1.709 0 3.276-.51 4.704-1.53V60c-1.459.917-3.386 1.375-5.782 1.375-2.354 0-4.203-.724-5.547-2.172-1.333-1.458-2-3.505-2-6.14 0-2.49.735-4.516 2.203-6.079 1.48-1.573 3.313-2.359 5.5-2.359 2.188 0 3.881.703 5.079 2.11 1.198 1.406 1.797 3.359 1.797 5.859v1.39zm-3.5-2.562c-.011-1.302-.318-2.313-.922-3.031-.605-.73-1.438-1.094-2.5-1.094-1.042 0-1.927.38-2.657 1.14-.718.76-1.161 1.756-1.328 2.985h7.407zM140.172 61h-3.516v-2.5h-.062c-1.104 1.917-2.724 2.875-4.86 2.875-1.573 0-2.807-.427-3.703-1.281-.885-.854-1.328-1.985-1.328-3.39 0-3.022 1.74-4.782 5.219-5.282l4.75-.672c0-2.281-1.083-3.422-3.25-3.422-1.906 0-3.625.656-5.156 1.969v-3.172c1.687-1 3.635-1.5 5.843-1.5 4.042 0 6.063 1.99 6.063 5.969V61zm-3.5-7.86l-3.36.47c-1.041.135-1.828.39-2.359.765-.521.365-.781 1.01-.781 1.938 0 .677.239 1.234.719 1.671.489.427 1.14.641 1.953.641 1.104 0 2.015-.385 2.734-1.156.729-.782 1.094-1.76 1.094-2.938v-1.39zm17.219-4.687c-.438-.344-1.068-.516-1.891-.516-1.073 0-1.969.485-2.688 1.454-.718.968-1.078 2.286-1.078 3.953V61h-3.625V45h3.625v3.297h.063c.354-1.125.896-2 1.625-2.625.739-.636 1.562-.953 2.469-.953.656 0 1.156.099 1.5.297v3.437zm11.937 12.375c-.708.354-1.64.531-2.797.531-3.104 0-4.656-1.49-4.656-4.468v-9.047h-2.672V45h2.672v-3.703L162 40.266V45h3.828v2.844H162v8c0 .948.172 1.625.516 2.031.343.406.916.61 1.718.61.615 0 1.146-.178 1.594-.532v2.875zm29.656.172h-4.343l-3.579-6c-.322-.552-.64-1.02-.953-1.406a5.205 5.205 0 00-.937-.969 3.082 3.082 0 00-1.031-.547 4.326 4.326 0 00-1.266-.172h-1.5V61h-3.703V38.594h7.375c1.052 0 2.021.125 2.906.375.886.25 1.656.63 2.313 1.14.656.5 1.166 1.13 1.531 1.891.375.75.562 1.63.562 2.64 0 .792-.119 1.521-.359 2.188a5.568 5.568 0 01-1 1.766c-.427.51-.948.948-1.562 1.312a7.7 7.7 0 01-2.047.844v.063c.406.229.76.484 1.062.765.302.271.589.552.859.844.271.292.537.625.797 1 .271.364.568.792.891 1.281L195.484 61zm-13.609-19.39v7.28h3.094a4.52 4.52 0 001.578-.265 3.618 3.618 0 001.265-.766c.355-.333.631-.74.829-1.218.198-.48.297-1.016.297-1.61 0-1.073-.339-1.911-1.016-2.515-.677-.605-1.651-.907-2.922-.907h-3.125zM209.984 61h-3.515v-2.5h-.063c-1.104 1.917-2.724 2.875-4.859 2.875-1.573 0-2.807-.427-3.703-1.281-.886-.854-1.328-1.985-1.328-3.39 0-3.022 1.739-4.782 5.218-5.282l4.75-.672c0-2.281-1.083-3.422-3.25-3.422-1.906 0-3.625.656-5.156 1.969v-3.172c1.688-1 3.636-1.5 5.844-1.5 4.042 0 6.062 1.99 6.062 5.969V61zm-3.5-7.86l-3.359.47c-1.042.135-1.828.39-2.359.765-.521.365-.782 1.01-.782 1.938 0 .677.24 1.234.719 1.671.49.427 1.141.641 1.953.641 1.104 0 2.016-.385 2.735-1.156.729-.782 1.093-1.76 1.093-2.938v-1.39zm16.375 7.688c-.708.354-1.64.531-2.797.531-3.104 0-4.656-1.49-4.656-4.468v-9.047h-2.672V45h2.672v-3.703l3.625-1.031V45h3.828v2.844h-3.828v8c0 .948.172 1.625.516 2.031.344.406.917.61 1.719.61.614 0 1.145-.178 1.593-.532v2.875zm16.485-6.844h-10.906c.041 1.48.494 2.62 1.359 3.422.875.802 2.073 1.203 3.594 1.203 1.708 0 3.276-.51 4.703-1.53V60c-1.459.917-3.386 1.375-5.782 1.375-2.354 0-4.203-.724-5.546-2.172-1.334-1.458-2-3.505-2-6.14 0-2.49.734-4.516 2.203-6.079 1.479-1.573 3.312-2.359 5.5-2.359 2.187 0 3.88.703 5.078 2.11 1.198 1.406 1.797 3.359 1.797 5.859v1.39zm-3.5-2.562c-.011-1.302-.318-2.313-.922-3.031-.604-.73-1.438-1.094-2.5-1.094-1.042 0-1.927.38-2.656 1.14-.719.76-1.162 1.756-1.328 2.985h7.406zm-181.75 88.687a213.415 213.415 0 00-3.985 7.664 101.895 101.895 0 00-3.398 7.594 83.204 83.204 0 00-2.648 7.711A60.545 60.545 0 0042.328 171h-5.695a58.724 58.724 0 011.594-7.195 84.984 84.984 0 012.46-7.196c.938-2.406 1.985-4.82 3.141-7.242a216.861 216.861 0 013.727-7.336H31.64v-4.64h22.453v2.718zm3.773 21.516c0-.969.117-1.906.352-2.813a9.262 9.262 0 011.101-2.507 8.771 8.771 0 011.828-2.063 9.044 9.044 0 012.579-1.476c-1.454-.813-2.61-1.852-3.47-3.118a7.452 7.452 0 01-1.288-4.242c0-1.234.25-2.375.75-3.422a8.509 8.509 0 012.11-2.718c.905-.766 1.968-1.36 3.187-1.782 1.218-.437 2.546-.656 3.984-.656 1.453 0 2.79.219 4.008.656 1.234.438 2.297 1.039 3.187 1.805a8.095 8.095 0 012.11 2.719c.5 1.047.75 2.18.75 3.398 0 1.547-.43 2.961-1.29 4.242-.859 1.266-2 2.305-3.421 3.118.969.375 1.82.867 2.554 1.476a8.587 8.587 0 013 4.547c.25.906.375 1.852.375 2.836 0 1.469-.273 2.813-.82 4.031a9.179 9.179 0 01-2.297 3.141c-.984.859-2.164 1.531-3.539 2.015-1.375.485-2.89.727-4.547.727-1.64 0-3.148-.242-4.523-.727-1.36-.484-2.54-1.156-3.54-2.015a9.45 9.45 0 01-2.32-3.141c-.546-1.218-.82-2.562-.82-4.031zm5.297-.469c0 .953.14 1.813.422 2.578.281.766.68 1.414 1.195 1.946a5.17 5.17 0 001.852 1.218c.734.282 1.547.422 2.437.422.86 0 1.649-.14 2.368-.422a5.418 5.418 0 001.851-1.242 5.843 5.843 0 001.242-1.945c.297-.766.446-1.617.446-2.555 0-.859-.141-1.664-.422-2.414a5.947 5.947 0 00-1.196-1.992 5.623 5.623 0 00-1.875-1.336c-.718-.328-1.523-.492-2.414-.492-.843 0-1.632.156-2.367.469a5.365 5.365 0 00-1.875 1.289 5.991 5.991 0 00-1.219 1.968 6.882 6.882 0 00-.445 2.508zm1.148-15.187c0 .703.126 1.359.376 1.969.25.593.585 1.117 1.007 1.57.422.437.914.781 1.477 1.031.578.25 1.195.375 1.851.375a4.45 4.45 0 001.829-.375 4.905 4.905 0 001.5-1.055 5.067 5.067 0 001.03-1.57c.25-.609.376-1.258.376-1.945 0-.703-.125-1.36-.375-1.969a4.62 4.62 0 00-.985-1.57 4.583 4.583 0 00-1.5-1.032 4.673 4.673 0 00-1.875-.375 4.54 4.54 0 00-1.921.399 4.413 4.413 0 00-1.5 1.055 5.106 5.106 0 00-.961 1.593 5.453 5.453 0 00-.329 1.899zM94.394 171v-16.805h5.333c1.625 0 2.91.356 3.855 1.067.953.711 1.43 1.636 1.43 2.777 0 .953-.27 1.781-.809 2.484-.539.704-1.285 1.204-2.238 1.5v.047c1.156.133 2.078.563 2.765 1.289.696.719 1.043 1.657 1.043 2.813 0 1.437-.566 2.601-1.699 3.492S101.512 171 99.785 171h-5.39zm2.778-14.566v4.781h1.805c.968 0 1.726-.227 2.273-.68.555-.461.832-1.109.832-1.945 0-1.438-.961-2.156-2.883-2.156h-2.027zm0 7.019v5.32h2.379c1.039 0 1.84-.238 2.402-.714.57-.485.856-1.149.856-1.993 0-1.742-1.207-2.613-3.621-2.613h-2.016zm14.508 1.453V171h-2.778v-16.805H114c1.93 0 3.426.45 4.488 1.348 1.063.898 1.594 2.164 1.594 3.797s-.555 2.969-1.664 4.008c-1.109 1.039-2.609 1.558-4.5 1.558h-2.238zm0-8.414v6.141h1.804c1.196 0 2.106-.278 2.731-.832.625-.555.937-1.336.937-2.344 0-1.977-1.148-2.965-3.445-2.965h-2.027zM140.988 171h-2.765v-10.875c0-.891.054-1.98.164-3.27h-.047c-.172.735-.324 1.262-.457 1.583L132.867 171h-1.922l-5.027-12.469c-.141-.367-.289-.926-.445-1.676h-.047c.062.672.094 1.77.094 3.293V171h-2.579v-16.805h3.926l4.418 11.192c.336.859.555 1.5.656 1.922H132c.289-.883.523-1.539.703-1.969l4.5-11.145h3.785V171z" fill="#fff"/><path opacity=".5" d="M420.48 50.281c-1.75 0-3.117-.715-4.101-2.144-.977-1.43-1.465-3.496-1.465-6.2 0-2.968.512-5.214 1.535-6.738 1.024-1.523 2.5-2.285 4.43-2.285 3.695 0 5.543 2.871 5.543 8.613 0 2.844-.524 5.016-1.57 6.516-1.04 1.492-2.497 2.238-4.372 2.238zm.27-15.199c-2.039 0-3.059 2.246-3.059 6.738 0 4.203 1 6.305 3 6.305 1.969 0 2.954-2.137 2.954-6.41 0-4.422-.965-6.633-2.895-6.633zM439.031 50h-10.547v-1.3c0-.532.075-1.028.223-1.49.148-.468.348-.905.598-1.312.25-.414.543-.8.879-1.16a13.78 13.78 0 011.078-1.054 22.8 22.8 0 011.172-.985c.398-.32.789-.64 1.171-.96.36-.305.688-.602.985-.891.297-.297.551-.602.762-.914.21-.313.375-.641.492-.985.117-.351.176-.73.176-1.136 0-.446-.071-.833-.211-1.16a2.123 2.123 0 00-.575-.833 2.285 2.285 0 00-.867-.504 3.322 3.322 0 00-1.101-.175c-.688 0-1.387.16-2.098.48-.711.32-1.395.8-2.051 1.441V34.45a8.14 8.14 0 011.043-.668 6.44 6.44 0 011.09-.48c.375-.133.77-.23 1.184-.293a8.873 8.873 0 011.324-.094c.758 0 1.445.102 2.062.305a4.266 4.266 0 011.582.879c.438.383.774.863 1.008 1.441.242.578.363 1.242.363 1.992a6.12 6.12 0 01-.257 1.84 5.718 5.718 0 01-.715 1.512 7.69 7.69 0 01-1.113 1.336c-.438.422-.926.855-1.465 1.3a80.15 80.15 0 01-1.36 1.079c-.445.343-.847.683-1.207 1.02-.359.327-.652.66-.879.995-.218.328-.328.66-.328.996v.059h7.582V50zm6.516-8.367c-1.188 0-2.133-.38-2.836-1.137-.703-.766-1.055-1.785-1.055-3.059 0-1.39.371-2.484 1.114-3.28.75-.805 1.757-1.208 3.023-1.208 1.227 0 2.176.371 2.848 1.114.679.742 1.019 1.785 1.019 3.128 0 1.344-.379 2.422-1.137 3.235-.757.804-1.75 1.207-2.976 1.207zm.164-7.043c-.641 0-1.149.246-1.523.738-.368.492-.551 1.168-.551 2.027 0 .844.179 1.5.539 1.97.367.468.867.702 1.5.702s1.129-.242 1.488-.726c.359-.492.539-1.172.539-2.04 0-.843-.18-1.5-.539-1.968-.352-.469-.836-.703-1.453-.703zm11.215-1.395l-10.781 16.922h-1.676l10.769-16.922h1.688zm-1.512 17.063c-1.187 0-2.133-.38-2.836-1.137-.703-.766-1.055-1.785-1.055-3.059 0-1.39.372-2.484 1.114-3.28.75-.805 1.758-1.208 3.023-1.208 1.227 0 2.176.371 2.848 1.114.68.742 1.019 1.785 1.019 3.128 0 1.344-.379 2.422-1.136 3.235-.758.804-1.75 1.207-2.977 1.207zm.164-7.043c-.64 0-1.148.246-1.523.738-.367.492-.551 1.168-.551 2.027 0 .844.18 1.5.539 1.97.367.468.867.702 1.5.702s1.129-.242 1.488-.726c.36-.492.539-1.172.539-2.04 0-.843-.179-1.5-.539-1.968-.351-.469-.836-.703-1.453-.703zm30.051-7.844a1.202 1.202 0 00-.879-.371h-17.5a1.2 1.2 0 00-.879.371c-.247.248-.371.54-.371.88 0 .338.124.63.371.878l8.75 8.75c.248.247.541.371.879.371.338 0 .632-.124.879-.371l8.75-8.75c.247-.247.371-.54.371-.879 0-.338-.124-.631-.371-.879z" fill="#fff"/><path d="M233.5 109c23-14.5 22.954 65.5 43.934 65.5 20.979 0 16.436-54.119 37.416-54.119 20.979 0 20.445 42.092 41.424 42.092 20.98 0 17.105-48.774 38.084-48.774 20.98 0 26.459 38.752 47.438 38.752 20.98 0 20.98-53.451 41.96-53.451" stroke="url(#paint1_linear_37:44)" stroke-width="3" stroke-miterlimit="10"/><circle cx="475.5" cy="100.5" r="10.5" fill="#fff"/><circle cx="475.5" cy="100.5" r="4.5" fill="url(#paint2_linear_37:44)"/><defs><linearGradient id="paint0_linear_37:44" x1="258" y1="0" x2="258" y2="200" gradientUnits="userSpaceOnUse"><stop stop-color="#4E7D96"/><stop offset="1" stop-color="#396D89"/></linearGradient><linearGradient id="paint1_linear_37:44" x1="266.594" y1="125.726" x2="449.256" y2="125.726" gradientUnits="userSpaceOnUse"><stop stop-color="#fff" stop-opacity=".25"/><stop offset="1" stop-color="#fff"/></linearGradient><linearGradient id="paint2_linear_37:44" x1="475.488" y1="97.554" x2="483.17" y2="115.877" gradientUnits="userSpaceOnUse"><stop stop-color="#4E7D96"/><stop offset="1"/></linearGradient></defs></svg>