<svg width="516" height="200" fill="none" xmlns="http://www.w3.org/2000/svg"><rect width="516" height="200" rx="20" fill="url(#paint0_linear_37:42)"/><path d="M59.19 68.061a3.042 3.042 0 003.24-2.828l.133-1.97-5.917-2.645-.285 4.204a3.044 3.044 0 002.829 3.24zm-2.134-12.093l6.267 2.95 2.029-7.265c1.452-6.683.554-11.677-2.464-13.702-1.77-1.188-3.686-.946-4.8-.179a.538.538 0 01-.039.025c-.009.005-1.008.59-1.885 1.886-1.169 1.727-1.583 3.842-1.23 6.287l2.122 9.998zm-8.73-5.541l-5.922 2.635.13 1.97a3.04 3.04 0 004.38 2.527 3.043 3.043 0 001.689-2.927l-.277-4.205zm-6.673-1.712l6.272-2.938 2.142-9.994c.356-2.445-.054-4.56-1.22-6.29-.874-1.297-1.872-1.884-1.882-1.89a.656.656 0 01-.038-.024c-1.112-.769-3.027-1.015-4.8.17-3.022 2.02-3.93 7.012-2.49 13.698l2.016 7.268zM86.734 60.11v-3.83c.344.313.75.594 1.22.844.478.25.984.464 1.515.64.531.167 1.062.297 1.594.391.53.094 1.02.14 1.468.14 1.563 0 2.724-.26 3.485-.78.77-.521 1.156-1.276 1.156-2.266 0-.531-.13-.99-.39-1.375-.25-.396-.605-.755-1.063-1.078-.459-.323-1-.63-1.625-.922a75.596 75.596 0 00-1.985-.938 32.813 32.813 0 01-2.125-1.234 9.566 9.566 0 01-1.718-1.375 6.105 6.105 0 01-1.141-1.719c-.27-.635-.406-1.38-.406-2.234 0-1.052.234-1.964.703-2.734a6.006 6.006 0 011.875-1.922 8.442 8.442 0 012.656-1.125c.99-.25 2-.375 3.031-.375 2.344 0 4.053.265 5.125.797v3.672c-1.27-.917-2.906-1.376-4.906-1.376-.552 0-1.104.053-1.656.157a5.002 5.002 0 00-1.469.515c-.427.24-.776.547-1.047.922-.27.375-.406.828-.406 1.36 0 .5.104.932.313 1.297.208.364.51.697.906 1 .406.302.896.598 1.469.89.583.281 1.255.589 2.015.922.781.406 1.516.833 2.203 1.281.698.448 1.307.943 1.828 1.485a6.272 6.272 0 011.25 1.812c.313.656.469 1.406.469 2.25 0 1.136-.229 2.094-.687 2.875a5.521 5.521 0 01-1.86 1.906c-.77.49-1.661.844-2.672 1.063-1.01.219-2.078.328-3.203.328a12.7 12.7 0 01-1.39-.094 16.633 16.633 0 01-1.672-.25 14.245 14.245 0 01-1.625-.39c-.51-.157-.922-.334-1.235-.532zm25.563.718c-.708.354-1.641.531-2.797.531-3.104 0-4.656-1.49-4.656-4.468v-9.047h-2.672V45h2.672v-3.703l3.625-1.031V45h3.828v2.844h-3.828v8c0 .948.172 1.625.515 2.031.344.406.917.61 1.719.61.615 0 1.146-.178 1.594-.532v2.875zm16.484-6.844h-10.906c.042 1.48.495 2.62 1.359 3.422.875.802 2.073 1.203 3.594 1.203 1.708 0 3.276-.51 4.703-1.53V60c-1.458.917-3.385 1.375-5.781 1.375-2.354 0-4.203-.724-5.547-2.172-1.333-1.458-2-3.505-2-6.14 0-2.49.735-4.516 2.203-6.079 1.479-1.573 3.313-2.359 5.5-2.359 2.188 0 3.88.703 5.078 2.11 1.198 1.406 1.797 3.359 1.797 5.859v1.39zm-3.5-2.562c-.01-1.302-.317-2.313-.922-3.031-.604-.73-1.437-1.094-2.5-1.094-1.041 0-1.927.38-2.656 1.14-.719.76-1.161 1.756-1.328 2.985h7.406zm10.641 7.219h-.063v9.718h-3.625V45h3.625v2.813h.063c1.239-2.126 3.052-3.188 5.437-3.188 2.032 0 3.615.714 4.75 2.14 1.136 1.428 1.703 3.344 1.703 5.75 0 2.667-.64 4.803-1.921 6.407-1.282 1.604-3.032 2.406-5.25 2.406-2.042 0-3.615-.896-4.719-2.687zm-.094-6.313v1.984c0 1.167.37 2.157 1.11 2.97.75.812 1.697 1.218 2.843 1.218 1.344 0 2.396-.52 3.157-1.563.77-1.052 1.156-2.515 1.156-4.39 0-1.573-.36-2.802-1.078-3.688-.709-.895-1.672-1.343-2.891-1.343-1.292 0-2.333.458-3.125 1.375-.781.916-1.172 2.062-1.172 3.437zm14.688 8.172v-3.36c1.354 1.032 2.849 1.547 4.484 1.547 2.188 0 3.281-.645 3.281-1.937 0-.365-.093-.672-.281-.922a2.605 2.605 0 00-.766-.687 5.637 5.637 0 00-1.125-.532 314.48 314.48 0 01-1.437-.53 15.85 15.85 0 01-1.781-.829 5.684 5.684 0 01-1.313-.984 3.888 3.888 0 01-.781-1.266c-.177-.469-.266-1.016-.266-1.64 0-.771.183-1.449.547-2.032a4.646 4.646 0 011.469-1.484 6.771 6.771 0 012.094-.907 9.354 9.354 0 012.421-.312c1.48 0 2.803.224 3.969.672v3.172c-1.125-.771-2.416-1.157-3.875-1.157a5.16 5.16 0 00-1.25.141 3.214 3.214 0 00-.937.39 1.89 1.89 0 00-.61.61c-.145.23-.218.484-.218.766 0 .343.073.635.218.875.146.24.36.453.641.64a6.82 6.82 0 001.031.5c.407.146.87.308 1.391.485.687.281 1.302.567 1.844.86a6.07 6.07 0 011.406 1c.385.364.682.79.89 1.28.209.48.313 1.052.313 1.72 0 .812-.187 1.52-.563 2.124a4.668 4.668 0 01-1.5 1.5c-.624.396-1.348.688-2.171.875-.813.198-1.672.297-2.579.297-1.75 0-3.265-.292-4.546-.875zM44.414 136.641V171h-5.437v-27.703a17.683 17.683 0 01-3.188 1.805c-1.125.484-2.414.914-3.867 1.289v-4.641a50.658 50.658 0 002.625-.938 29.32 29.32 0 002.484-1.101 32.405 32.405 0 002.485-1.359c.843-.5 1.71-1.071 2.601-1.711h2.297zM72.704 171H51.608v-2.602c0-1.062.149-2.054.446-2.976.297-.938.695-1.813 1.195-2.625a13.92 13.92 0 011.758-2.32 27.443 27.443 0 012.156-2.11 46.212 46.212 0 012.344-1.969 154.78 154.78 0 002.344-1.921 39.04 39.04 0 001.968-1.782 12.394 12.394 0 001.524-1.828c.422-.625.75-1.281.984-1.969a7.14 7.14 0 00.352-2.273c0-.891-.14-1.664-.422-2.32a4.234 4.234 0 00-1.149-1.664 4.578 4.578 0 00-1.734-1.008 6.632 6.632 0 00-2.203-.352c-1.375 0-2.774.321-4.195.961-1.422.641-2.79 1.602-4.102 2.883v-5.227a16.32 16.32 0 012.086-1.336c.703-.39 1.43-.71 2.18-.96.75-.266 1.539-.461 2.367-.586a17.755 17.755 0 012.648-.188c1.516 0 2.89.203 4.125.61 1.235.39 2.29.976 3.164 1.757.875.766 1.547 1.727 2.016 2.883.484 1.156.727 2.484.727 3.984 0 1.36-.172 2.586-.516 3.68a11.423 11.423 0 01-1.43 3.024 15.341 15.341 0 01-2.226 2.672 51.626 51.626 0 01-2.93 2.601c-.906.734-1.813 1.453-2.719 2.156a33.727 33.727 0 00-2.414 2.039c-.719.657-1.305 1.321-1.758 1.993-.437.656-.656 1.32-.656 1.992v.117h15.164V171zm6.913-.773V165c2.203 1.484 4.438 2.227 6.703 2.227 2.282 0 4.118-.579 5.508-1.735 1.39-1.172 2.086-2.726 2.086-4.664 0-1.906-.71-3.39-2.133-4.453-1.406-1.063-3.43-1.594-6.07-1.594-.906 0-2.742.094-5.508.281l1.195-17.671h16.547v4.64H85.922l-.563 8.414a51.448 51.448 0 012.93-.093c3.563 0 6.313.914 8.25 2.742 1.953 1.828 2.93 4.328 2.93 7.5 0 3.328-1.117 6-3.352 8.015-2.219 2-5.273 3-9.164 3-3.281 0-5.726-.461-7.336-1.382zm36 1.335c-3.5 0-6.234-1.429-8.203-4.289-1.953-2.859-2.93-6.992-2.93-12.398 0-5.937 1.024-10.43 3.071-13.477 2.047-3.046 5-4.57 8.859-4.57 7.391 0 11.086 5.742 11.086 17.227 0 5.687-1.047 10.031-3.141 13.031-2.078 2.984-4.992 4.476-8.742 4.476zm.539-30.398c-4.078 0-6.117 4.492-6.117 13.477 0 8.406 2 12.609 6 12.609 3.938 0 5.906-4.273 5.906-12.82 0-8.844-1.929-13.266-5.789-13.266zm27.41 29.461v-2.52c1.016.774 2.137 1.161 3.364 1.161 1.64 0 2.461-.485 2.461-1.454 0-.273-.071-.503-.211-.691a1.96 1.96 0 00-.575-.516 4.248 4.248 0 00-.843-.398c-.321-.117-.68-.25-1.078-.398a12.053 12.053 0 01-1.336-.621 4.262 4.262 0 01-.985-.739 2.913 2.913 0 01-.586-.949 3.494 3.494 0 01-.199-1.23c0-.579.137-1.086.41-1.524a3.494 3.494 0 011.102-1.113 5.094 5.094 0 011.57-.68 7.035 7.035 0 011.817-.234c1.109 0 2.101.168 2.976.504v2.379c-.844-.579-1.812-.868-2.906-.868-.344 0-.656.036-.938.106-.273.07-.507.168-.703.293a1.424 1.424 0 00-.457.457 1.05 1.05 0 00-.164.574c0 .258.055.477.164.656.11.18.27.34.481.481.218.133.476.258.773.375.305.109.652.23 1.043.363.516.211.977.426 1.383.645a4.5 4.5 0 011.055.75c.289.273.511.593.668.961.156.359.234.789.234 1.289 0 .609-.141 1.14-.422 1.593a3.514 3.514 0 01-1.125 1.125 5.173 5.173 0 01-1.629.657 8.166 8.166 0 01-1.933.222c-1.313 0-2.45-.219-3.411-.656zm17.438.246c-.531.266-1.231.399-2.098.399-2.328 0-3.492-1.118-3.492-3.352v-6.785h-2.004V159h2.004v-2.777l2.719-.774V159h2.871v2.133h-2.871v6c0 .711.129 1.219.387 1.523.257.305.687.457 1.289.457.461 0 .859-.133 1.195-.398v2.156zm12.363-5.133h-8.179c.031 1.11.371 1.965 1.019 2.567.656.601 1.555.902 2.695.902 1.282 0 2.457-.383 3.528-1.148v2.191c-1.094.688-2.539 1.031-4.336 1.031-1.766 0-3.153-.543-4.16-1.629-1-1.093-1.5-2.629-1.5-4.605 0-1.867.55-3.387 1.652-4.559 1.109-1.179 2.484-1.769 4.125-1.769s2.91.527 3.809 1.582c.898 1.054 1.347 2.519 1.347 4.394v1.043zm-2.625-1.922c-.008-.976-.238-1.734-.691-2.273-.453-.547-1.078-.82-1.875-.82-.781 0-1.446.285-1.992.855-.539.57-.872 1.317-.996 2.238h5.554zm7.981 5.414h-.047v7.29h-2.719V159h2.719v2.109h.047c.929-1.593 2.289-2.39 4.078-2.39 1.523 0 2.711.535 3.562 1.605.852 1.071 1.278 2.508 1.278 4.313 0 2-.481 3.601-1.442 4.804-.961 1.204-2.273 1.805-3.937 1.805-1.532 0-2.711-.672-3.539-2.016zm-.071-4.734v1.488c0 .875.278 1.618.832 2.227.563.609 1.274.914 2.133.914 1.008 0 1.797-.391 2.367-1.172.578-.789.868-1.887.868-3.293 0-1.18-.27-2.101-.809-2.765-.531-.672-1.254-1.008-2.168-1.008-.969 0-1.75.343-2.344 1.031-.586.687-.879 1.547-.879 2.578zm11.016 6.129v-2.52c1.016.774 2.137 1.161 3.363 1.161 1.641 0 2.461-.485 2.461-1.454 0-.273-.07-.503-.211-.691a1.955 1.955 0 00-.574-.516 4.259 4.259 0 00-.844-.398c-.32-.117-.679-.25-1.078-.398a12.225 12.225 0 01-1.336-.621 4.256 4.256 0 01-.984-.739 2.913 2.913 0 01-.586-.949c-.133-.352-.199-.762-.199-1.23 0-.579.136-1.086.41-1.524a3.48 3.48 0 011.101-1.113 5.1 5.1 0 011.571-.68 7.027 7.027 0 011.816-.234c1.11 0 2.102.168 2.977.504v2.379c-.844-.579-1.813-.868-2.907-.868a3.88 3.88 0 00-.937.106c-.273.07-.508.168-.703.293a1.405 1.405 0 00-.457.457c-.11.172-.164.363-.164.574 0 .258.054.477.164.656.109.18.269.34.48.481.219.133.477.258.774.375.304.109.652.23 1.043.363.515.211.976.426 1.382.645a4.48 4.48 0 011.055.75c.289.273.512.593.668.961.156.359.235.789.235 1.289 0 .609-.141 1.14-.422 1.593a3.534 3.534 0 01-1.125 1.125 5.173 5.173 0 01-1.629.657 8.175 8.175 0 01-1.934.222c-1.312 0-2.449-.219-3.41-.656z" fill="#fff"/><path opacity=".5" d="M420.48 50.281c-1.75 0-3.117-.715-4.101-2.144-.977-1.43-1.465-3.496-1.465-6.2 0-2.968.512-5.214 1.535-6.738 1.024-1.523 2.5-2.285 4.43-2.285 3.695 0 5.543 2.871 5.543 8.613 0 2.844-.524 5.016-1.57 6.516-1.04 1.492-2.497 2.238-4.372 2.238zm.27-15.199c-2.039 0-3.059 2.246-3.059 6.738 0 4.203 1 6.305 3 6.305 1.969 0 2.954-2.137 2.954-6.41 0-4.422-.965-6.633-2.895-6.633zm8.027 14.297v-2.555c1.094.867 2.328 1.301 3.703 1.301 1.118 0 2.008-.254 2.672-.762.672-.508 1.008-1.195 1.008-2.062 0-1.907-1.457-2.86-4.371-2.86h-1.301v-2.18h1.242c2.586 0 3.879-.898 3.879-2.695 0-1.656-1.007-2.484-3.023-2.484-1.125 0-2.184.402-3.176 1.207v-2.414c1.141-.64 2.488-.96 4.043-.96 1.492 0 2.688.374 3.586 1.124.899.75 1.348 1.711 1.348 2.883 0 2.21-1.125 3.633-3.375 4.266v.046c1.211.118 2.168.543 2.871 1.278.703.726 1.055 1.636 1.055 2.73 0 1.508-.567 2.727-1.7 3.656-1.133.922-2.625 1.383-4.476 1.383-1.664 0-2.992-.3-3.985-.902zm16.77-7.746c-1.188 0-2.133-.38-2.836-1.137-.703-.766-1.055-1.785-1.055-3.059 0-1.39.371-2.484 1.114-3.28.75-.805 1.757-1.208 3.023-1.208 1.227 0 2.176.371 2.848 1.114.679.742 1.019 1.785 1.019 3.128 0 1.344-.379 2.422-1.137 3.235-.757.804-1.75 1.207-2.976 1.207zm.164-7.043c-.641 0-1.149.246-1.523.738-.368.492-.551 1.168-.551 2.027 0 .844.179 1.5.539 1.97.367.468.867.702 1.5.702s1.129-.242 1.488-.726c.359-.492.539-1.172.539-2.04 0-.843-.18-1.5-.539-1.968-.352-.469-.836-.703-1.453-.703zm11.215-1.395l-10.781 16.922h-1.676l10.769-16.922h1.688zm-1.512 17.063c-1.187 0-2.133-.38-2.836-1.137-.703-.766-1.055-1.785-1.055-3.059 0-1.39.372-2.484 1.114-3.28.75-.805 1.758-1.208 3.023-1.208 1.227 0 2.176.371 2.848 1.114.68.742 1.019 1.785 1.019 3.128 0 1.344-.379 2.422-1.136 3.235-.758.804-1.75 1.207-2.977 1.207zm.164-7.043c-.64 0-1.148.246-1.523.738-.367.492-.551 1.168-.551 2.027 0 .844.18 1.5.539 1.97.367.468.867.702 1.5.702s1.129-.242 1.488-.726c.36-.492.539-1.172.539-2.04 0-.843-.179-1.5-.539-1.968-.351-.469-.836-.703-1.453-.703zm30.051 1.414a1.202 1.202 0 01-.879.371h-17.5a1.2 1.2 0 01-.879-.371 1.204 1.204 0 01-.371-.88c0-.338.124-.63.371-.878l8.75-8.75c.248-.247.541-.371.879-.371.338 0 .632.124.879.371l8.75 8.75c.247.247.371.54.371.879 0 .338-.124.631-.371.879z" fill="#fff"/><path d="M239.5 166c27.463 0 20.163-26.5 47.5-26.5 27.463 0 18.163 26.5 45.5 26.5 27.463 0 25.163-46 52.5-46 27.463 0 20.663 38.5 48 38.5s16.163-52 43.5-52" stroke="url(#paint1_linear_37:42)" stroke-width="3" stroke-miterlimit="10"/><circle cx="478.5" cy="106.5" r="10.5" fill="#fff"/><circle cx="478.5" cy="106.5" r="4.5" fill="url(#paint2_linear_37:42)"/><defs><linearGradient id="paint0_linear_37:42" x1="258" y1="0" x2="258" y2="200" gradientUnits="userSpaceOnUse"><stop stop-color="#4E7D96"/><stop offset="1" stop-color="#396D89"/></linearGradient><linearGradient id="paint1_linear_37:42" x1="212" y1="158.5" x2="486" y2="162" gradientUnits="userSpaceOnUse"><stop stop-color="#fff" stop-opacity=".25"/><stop offset=".526" stop-color="#fff"/><stop offset="1" stop-color="#fff" stop-opacity=".25"/></linearGradient><linearGradient id="paint2_linear_37:42" x1="478.488" y1="103.554" x2="486.17" y2="121.877" gradientUnits="userSpaceOnUse"><stop stop-color="#4E7D96"/><stop offset="1"/></linearGradient></defs></svg>