<svg width="842" height="719" fill="none" xmlns="http://www.w3.org/2000/svg"><g clip-path="url(#clip0_16:595)"><g opacity=".2" fill="#4E7D96"><path d="M135.9 257.409l-.2-11.6c2.9 0 5.8-.8 8.3-2.3l5.8 10c-4.2 2.5-9 3.9-13.9 3.9zm-14.7-3.7c-4.2-2.4-7.8-5.9-10.3-10.1l9.9-6c1.5 2.5 3.6 4.6 6.2 6l-5.8 10.1zm39.3-11l-10.1-5.6c1.4-2.5 2.1-5.4 2.1-8.3h11.6c0 4.9-1.3 9.7-3.6 13.9zm-42.1-13.8h-11.6c0-5 1.3-9.8 3.6-14.1l10.1 5.6c-1.4 2.6-2.1 5.5-2.1 8.5zm31.7-8.8c-1.5-2.5-3.6-4.6-6.2-6l5.8-10c4.2 2.4 7.8 5.9 10.3 10.1l-9.9 5.9zm-23.2-6.1l-5.8-10c4.2-2.4 9-3.8 13.9-3.8l.2 11.6c-2.9 0-5.8.8-8.3 2.2z"/><path d="M135.4 206.01c-12.6 0-22.9 10.2-22.9 22.9s10.2 22.9 22.9 22.9 22.9-10.2 22.9-22.9-10.2-22.9-22.9-22.9zm0 37.4c-8 0-14.6-6.5-14.6-14.6s6.5-14.6 14.6-14.6c8 0 14.6 6.5 14.6 14.6s-6.5 14.6-14.6 14.6z"/></g><path opacity=".5" d="M339.1 52.61h-152c-2.8 0-5 2.2-5 5v102.399c0 3.301 2.6 5.9 5.9 5.9h150.2c3.2 0 5.9-2.7 5.9-5.9v-102.4c-.1-2.8-2.3-5-5-5z" fill="#2B7EA3"/><path d="M339.3 158.41c0 1.2-.9 2.2-2 2.2H188.9c-1.1 0-2-1-2-2.2v-98.3c0-1.2.9-2.2 2-2.2h148.4c1.1 0 2 1 2 2.2v98.3z" fill="#fff"/><path d="M205.9 68.51h-.9v81.4h.9v-81.4zm23.3 0h-.9v81.4h.9v-81.4zm23.2 0h-.9v81.4h.9v-81.4zm23.3 0h-.9v81.4h.9v-81.4zm23.3 0h-.9v81.4h.9v-81.4zm23.2 0h-.9v81.4h.9v-81.4z" fill="#DFE5F7"/><path d="M333.8 76.51H192.4v.6h141.4v-.6zm0 15.6H192.4v.6h141.4v-.6zm0 15.599H192.4v.6h141.4v-.6zm0 15.601H192.4v.6h141.4v-.6zm0 15.5H192.4v.6h141.4v-.6z" fill="#DFE5F7"/><g opacity=".4"><path opacity=".6" d="M220.1 127.41c-2.7 0-4.9-2.201-4.9-4.901v-26.5c0-2.7 2.2-4.9 4.9-4.9s4.9 2.2 4.9 4.9v26.401c0 2.799-2.2 5-4.9 5zm11.3 9.799c-2.7 0-4.9-2.2-4.9-4.9v-46.1c0-2.7 2.2-4.9 4.9-4.9s4.9 2.2 4.9 4.9v46.1c0 2.7-2.2 4.9-4.9 4.9zm-18-32.9c-2.7 0-4.9 2.2-4.9 4.9s2.2 4.9 4.9 4.9v-9.8zm92.7-13.199c2.7 0 4.9 2.2 4.9 4.9v26.4c0 2.7-2.2 4.9-4.9 4.9s-4.9-2.2-4.9-4.9v-26.4c0-2.7 2.2-4.9 4.9-4.9zm-11.3-9.8c2.7 0 4.9 2.2 4.9 4.9v46.099c0 2.7-2.2 4.9-4.9 4.9s-4.9-2.2-4.9-4.9v-46.1c0-2.7 2.2-4.9 4.9-4.9zm-6.392 32.846v-9.8h-50.6v9.8h50.6zm24.292.053c2.7 0 4.9-2.2 4.9-4.9s-2.2-4.9-4.9-4.9v9.8z" fill="#4E7D96"/></g><path opacity=".2" d="M421 652.01c75.994 0 137.6-3.493 137.6-7.8 0-4.308-61.606-7.8-137.6-7.8s-137.6 3.492-137.6 7.8c0 4.307 61.606 7.8 137.6 7.8z" fill="#4E7D96"/><path opacity=".5" d="M653.5 417.51c0 102.2-65.9 189-157.6 220.2-23.5 8-48.7 12.3-75 12.3-26.2 0-51.4-4.3-74.9-12.3-91.6-31.2-157.6-118-157.6-220.2v-1.5c.7-106.4 72.8-195.9 170.8-222.8 5.1-1.4 10.2-2.6 15.4-3.7 3.5-.7 7-1.3 10.5-1.9.7-.1 1.3-.2 2-.3.4-.1.9-.1 1.3-.2s.9-.1 1.3-.2.7-.1 1.1-.1c.4-.1.9-.1 1.3-.2l2.7-.3c.4 0 .9-.1 1.3-.1 2.4-.3 4.8-.5 7.2-.7.6 0 1.3-.1 2-.1 1.9-.1 3.8-.2 5.8-.3 1.9-.1 3.7-.1 5.6-.2h4.3c4.6 0 9.1.1 13.6.4 1.7.1 3.4.2 5 .3 1.7.1 3.4.3 5.1.5 1.1.1 2.1.2 3.1.3 2 .2 4.1.5 6.1.8 4 .6 7.9 1.2 11.8 2 5.7 1.1 11.3 2.4 16.9 4 98.5 27 170.9 117.2 170.9 224.3z" fill="#04273A"/><path opacity=".5" d="M647.8 414.61c0 107.1-73.3 197-172.4 222.4-18.3 4.7-37.5 7.2-57.3 7.2-19.6 0-38.6-2.5-56.7-7.101-98.9-25.1-172.2-114.499-172.9-221.099v-1.4c0-105.6 71.3-194.6 168.5-221.4 5.7-1.6 11.4-2.9 17.3-4h.2c2.9-.6 5.8-1.1 8.7-1.5 1.3-.2 2.7-.4 4-.6.5-.1.9-.1 1.3-.2.8-.1 1.6-.2 2.5-.3.4-.1.9-.1 1.3-.1l2.7-.3c.4 0 .9-.1 1.3-.1 2.4-.2 4.8-.4 7.3-.6.6 0 1.3-.1 1.9-.1 1.9-.1 3.8-.2 5.8-.3 1.8-.1 3.6-.1 5.5-.1h2.9c4.9 0 9.7.2 14.5.5 1.4.1 2.8.2 4.3.3 2.2.2 4.4.4 6.6.7.9.1 1.9.2 2.8.3 1 .1 2.1.3 3.1.4 4.2.6 8.4 1.3 12.5 2.2 5.5 1.1 10.9 2.4 16.3 3.9 96.8 26.9 168 115.8 168 221.3z" fill="#0F3854"/><path opacity=".5" d="M423.5 627.509c114.654 0 207.6-92.945 207.6-207.6 0-114.654-92.946-207.6-207.6-207.6s-207.6 92.946-207.6 207.6c0 114.655 92.946 207.6 207.6 207.6z" fill="#04273A"/><path d="M567.804 564.311c81.072-81.072 81.072-212.516 0-293.588-81.072-81.072-212.516-81.072-293.588 0-81.072 81.072-81.072 212.516 0 293.588 81.072 81.072 212.516 81.072 293.588 0z" fill="#fff"/><path opacity=".3" d="M417.8 210.01l3.2 207.5 181.3 101.1c16.7-29.9 26.3-64.4 26.3-101.1 0-114.6-92.9-207.6-207.6-207.6-1.1 0-2.1 0-3.2.1z" fill="#4E7D96"/><path d="M432 224.909c-3.7-.2-7.3-.3-11.2-.3-1.5 0-2.7 1.2-2.7 2.8 0 1.5 1.3 2.8 2.8 2.8 3.6 0 7.2.1 10.9.3 1.5 0 2.7-1.1 2.8-2.6.1-1.6-1-2.9-2.6-3zm-30.5 3.5c-.2-1.5-1.6-2.6-3.1-2.4-3.7.4-7.4 1-11.1 1.6-1.5.3-2.5 1.7-2.2 3.2.2 1.3 1.4 2.3 2.7 2.3h.5c3.6-.6 7.1-1.2 10.8-1.6 1.5-.2 2.6-1.6 2.4-3.1zm63.8 1.3c-3.6-.8-7.3-1.6-11-2.2-1.5-.3-2.9.7-3.2 2.2-.3 1.5.7 2.9 2.2 3.2 3.6.6 7.1 1.4 10.7 2.2.2 0 .4.1.6.1 1.3 0 2.4-.9 2.7-2.1.4-1.5-.5-3-2-3.4zm-96.3 4.9c-.4-1.5-2-2.3-3.4-1.9-3.6 1.1-7.1 2.3-10.6 3.5-1.4.5-2.2 2.1-1.7 3.5.4 1.1 1.5 1.8 2.6 1.8.3 0 .6 0 .9-.2 3.4-1.2 6.9-2.4 10.3-3.4 1.5-.3 2.3-1.9 1.9-3.3zm128.2 5.7c-3.4-1.5-6.9-2.9-10.4-4.1-1.5-.5-3 .2-3.5 1.7-.5 1.4.2 3 1.6 3.5 3.4 1.2 6.8 2.6 10.1 4 .4.2.7.2 1.1.2 1.1 0 2.1-.6 2.5-1.7.7-1.4 0-3-1.4-3.6zm-159.2 6.1c-.7-1.4-2.4-1.9-3.7-1.2-3.3 1.7-6.6 3.5-9.8 5.3-1.3.8-1.8 2.5-1 3.8.5.9 1.4 1.4 2.4 1.4.5 0 1-.1 1.4-.4 3.1-1.8 6.3-3.5 9.6-5.2 1.3-.7 1.8-2.4 1.1-3.7zm188.8 9.801c-3.1-2.1-6.3-4.001-9.6-5.901-1.3-.8-3-.3-3.8 1-.8 1.3-.3 3 1 3.8 3.1 1.8 6.2 3.7 9.3 5.7.5.3 1 .5 1.5.5.9 0 1.8-.4 2.3-1.2.9-1.3.6-2.999-.7-3.899zm-217.1 7.199c-.9-1.2-2.6-1.5-3.9-.6-3 2.2-5.9 4.6-8.8 7-1.2 1-1.3 2.701-.3 3.901.5.6 1.3 1 2.1 1 .6 0 1.3-.201 1.8-.601 2.8-2.3 5.6-4.6 8.5-6.8 1.2-1 1.5-2.7.6-3.9zm243.5 13.7c-2.7-2.6-5.5-4.999-8.4-7.399-1.2-1-2.9-.801-3.9.299-1 1.2-.8 2.9.3 3.9 2.8 2.3 5.5 4.7 8.1 7.2.5.5 1.2.7 1.9.7s1.5-.3 2-.9c1.2-1.1 1.1-2.8 0-3.8zm-268.6 8c-1.1-1-2.9-.999-3.9.101-2.6 2.7-5 5.499-7.4 8.399-1 1.2-.8 2.9.3 3.9.5.4 1.2.6 1.8.6.8 0 1.6-.3 2.1-1 2.3-2.8 4.8-5.5 7.3-8.1 1-1.1.9-2.9-.2-3.9zm290.9 17c-2.2-3-4.6-5.9-7-8.8-1-1.2-2.7-1.3-3.9-.3-1.2 1-1.3 2.7-.3 3.9 2.3 2.8 4.6 5.6 6.8 8.5.5.7 1.4 1.1 2.2 1.1.6 0 1.2-.2 1.7-.6 1.2-.8 1.5-2.6.5-3.8zm-311.8 8.601c-1.3-.8-3-.501-3.8.799-2.1 3.1-4 6.3-5.9 9.6-.8 1.301-.3 3 1 3.8.4.2.9.4 1.4.4.9 0 1.9-.5 2.4-1.4 1.8-3.1 3.7-6.2 5.7-9.3.8-1.3.5-2.999-.8-3.899zm329.6 20c-1.7-3.3-3.5-6.601-5.3-9.901-.8-1.3-2.5-1.8-3.8-1-1.3.8-1.8 2.5-1 3.8 1.8 3.1 3.5 6.301 5.2 9.601.5 1 1.5 1.5 2.5 1.5.4 0 .8-.101 1.2-.301 1.3-.7 1.8-2.399 1.2-3.699zm-345.8 9c-1.4-.6-3-.001-3.6 1.399-1.5 3.4-2.9 6.9-4.1 10.4-.5 1.4.2 3 1.7 3.5.3.1.6.201.9.201 1.1 0 2.2-.701 2.6-1.801 1.2-3.4 2.6-6.8 4-10.1.6-1.4-.1-2.999-1.5-3.599zm358.2 22.199c-1.1-3.6-2.3-7.099-3.5-10.699-.5-1.4-2.1-2.201-3.5-1.601-1.4.5-2.2 2.101-1.6 3.601 1.2 3.399 2.4 6.799 3.4 10.299.4 1.2 1.5 2 2.6 2 .3 0 .5 0 .8-.1 1.4-.5 2.3-2.1 1.8-3.5zm-369.1 9.1c-1.5-.3-3 .6-3.3 2.1-.9 3.601-1.6 7.301-2.2 11-.3 1.5.7 2.9 2.2 3.2h.5c1.3 0 2.5-.9 2.7-2.3.6-3.6 1.4-7.1 2.2-10.7.3-1.5-.6-3-2.1-3.3zm375.9 23.8c-.4-3.7-1-7.399-1.6-11.099-.3-1.5-1.7-2.501-3.2-2.201-1.5.3-2.5 1.701-2.2 3.201.6 3.6 1.2 7.099 1.6 10.799.2 1.4 1.4 2.5 2.7 2.5h.3c1.5-.4 2.6-1.7 2.4-3.2zm-381.1 8.901c-1.7-.101-2.8 1.099-2.9 2.599-.2 3.7-.3 7.4-.3 11.2v.701c0 1.5 1.2 2.799 2.8 2.799 1.5 0 2.8-1.199 2.8-2.799v-.701c0-3.7.1-7.299.3-10.9 0-1.5-1.2-2.799-2.7-2.899zm379.7 10.799c-1.5 0-2.8 1.4-2.8 2.9 0 3.5-.1 7-.3 10.5-.1 1.5 1.1 2.8 2.8 2.9 1.5 0 2.7-1.099 2.8-2.599.2-3.601.3-7.201.3-10.801v-.4c0-1.4-1.3-2.5-2.8-2.5zM236.6 450.71c-.6-3.601-1.2-7.101-1.6-10.801-.2-1.5-1.5-2.6-3.1-2.4-1.5.2-2.6 1.5-2.4 3.1.4 3.7 1 7.401 1.6 11.101.2 1.3 1.4 2.299 2.7 2.299h.5c1.6-.4 2.6-1.799 2.3-3.299zm372.2-3.301c-1.5-.3-2.9.7-3.2 2.2-.6 3.601-1.3 7.2-2.2 10.7-.3 1.5.6 3 2.1 3.3.2 0 .4.101.6.101 1.3 0 2.4-.901 2.7-2.101.9-3.6 1.6-7.3 2.2-11 .3-1.5-.7-2.9-2.2-3.2zM245.2 482.21c-1.2-3.4-2.4-6.801-3.5-10.301-.4-1.5-2-2.3-3.4-1.8-1.5.4-2.3 2-1.8 3.4 1.1 3.6 2.3 7.1 3.6 10.6.4 1.101 1.5 1.8 2.6 1.8.3 0 .6.001 1-.199 1.3-.5 2-2.101 1.5-3.5zm355.6-2.701c-1.4-.5-3 .201-3.5 1.701-1.2 3.399-2.6 6.799-4 10.099-.6 1.4 0 3 1.5 3.6.4.1.7.2 1.1.2 1.1 0 2.1-.6 2.5-1.7 1.5-3.4 2.8-6.9 4.1-10.4.4-1.4-.3-2.9-1.7-3.5zM259.1 511.71c-1.8-3.101-3.6-6.301-5.2-9.601-.7-1.399-2.4-1.9-3.7-1.2-1.4.7-1.9 2.301-1.2 3.7 1.7 3.3 3.5 6.601 5.4 9.801.5.9 1.4 1.399 2.4 1.399.5 0 .9-.099 1.4-.399 1.2-.7 1.6-2.401.9-3.7zm328.1-1.901c-1.3-.8-3-.3-3.8 1-1.8 3.1-3.7 6.2-5.7 9.3-.8 1.3-.5 3.001.8 3.801.5.3 1 .5 1.5.5.9 0 1.8-.401 2.3-1.2 2.1-3.101 4-6.301 5.9-9.601.8-1.3.4-3-1-3.8zm-309.3 28.5c-2.3-2.8-4.6-5.6-6.8-8.5-.9-1.2-2.7-1.499-3.9-.599-1.2.899-1.5 2.699-.6 3.899 2.2 3 4.6 5.901 7 8.801.5.6 1.3 1 2.1 1 .6 0 1.3-.201 1.8-.601 1.2-1 1.4-2.8.4-4zm290.8-1.099c-1.2-1-2.9-.801-3.9.299-2.3 2.8-4.7 5.5-7.2 8.1-1.1 1.1-1 2.9.1 3.9.5.5 1.2.701 1.9.701s1.5-.301 2-.901c2.6-2.7 5-5.499 7.4-8.399 1-.9.8-2.7-.3-3.7zM301 561.41c-2.8-2.3-5.5-4.7-8.2-7.2-1.1-1-2.9-1.001-3.9.099-1 1.1-1 2.901.1 3.901 2.7 2.6 5.5 4.999 8.4 7.399.5.4 1.1.601 1.8.601.8 0 1.6-.3 2.1-1 1.1-1.101.9-2.9-.3-3.8zm244.6-.301c-1-1.2-2.7-1.3-3.9-.3-2.8 2.3-5.6 4.6-8.5 6.8-1.2.9-1.5 2.601-.6 3.9.5.701 1.4 1.1 2.2 1.1.6 0 1.2-.2 1.7-.6 3-2.2 5.9-4.6 8.8-7 1.2-1 1.3-2.8.3-3.9zm-217.8 18.9c-3.1-1.799-6.2-3.7-9.3-5.7-1.3-.8-3-.5-3.8.8-.8 1.3-.5 3.001.8 3.801 3.1 2.1 6.3 3.999 9.6 5.899.4.3.9.401 1.4.401 1 0 1.9-.501 2.4-1.401.7-1.3.2-3-1.1-3.8zm191.1.5c-.8-1.299-2.5-1.799-3.8-1-3.1 1.8-6.3 3.6-9.6 5.201-1.4.7-1.9 2.4-1.2 3.7.5 1 1.5 1.5 2.5 1.5.4 0 .8-.101 1.2-.301 3.3-1.7 6.6-3.5 9.8-5.3 1.4-.8 1.8-2.5 1.1-3.8zm-161.4 13.3c-3.4-1.2-6.8-2.6-10.1-4-1.4-.6-3 .001-3.6 1.401-.6 1.399 0 2.999 1.5 3.599 3.4 1.5 6.9 2.801 10.5 4.101.3.1.6.199.9.199 1.1 0 2.2-.7 2.6-1.8.3-1.4-.4-3-1.8-3.5zm131.6 1.2c-.5-1.4-2.1-2.199-3.6-1.599-3.4 1.2-6.8 2.399-10.3 3.399-1.5.4-2.3 2.001-1.8 3.401.4 1.2 1.5 2 2.6 2 .3 0 .5-.001.8-.101 3.6-1.1 7.1-2.3 10.6-3.6 1.5-.4 2.2-2 1.7-3.5zm-100.1 7.1c-3.6-.6-7.1-1.299-10.7-2.199-1.5-.4-3 .599-3.3 2.099-.3 1.5.6 3 2.1 3.3 3.6.8 7.3 1.6 11 2.2h.5c1.3 0 2.5-.9 2.7-2.299.2-1.4-.8-2.901-2.3-3.101zm68.3 2c-.3-1.5-1.7-2.499-3.2-2.199-3.6.6-7.1 1.199-10.8 1.599-1.5.201-2.6 1.6-2.4 3.1.2 1.4 1.4 2.4 2.7 2.4h.3c3.7-.4 7.4-.999 11.1-1.599 1.5-.3 2.5-1.801 2.3-3.301zm-36.3.7c-3.5 0-6.9-.099-10.4-.3-1.7 0-2.8 1.1-2.9 2.6-.1 1.5 1.1 2.8 2.6 2.9 3.5.201 7.1.3 10.7.3h.5c1.5 0 2.5-1.2 2.5-2.8.1-1.5-1.5-2.7-3-2.7z" fill="#7C85B3" opacity=".2"/><g opacity=".4" fill="#7C85B3"><path opacity=".4" d="M420.6 240.309l-.1 36.1c-1.6 0-3.2 0-4.7.1l-1.1-36.1c2-.1 3.9-.1 5.9-.1zm88.7 23.5l-18 31c-1.4-.8-2.8-1.5-4.2-2.3l17-31.7c1.7 1.1 3.5 2 5.2 3zm65 64.8l-31 17.8c-.8-1.4-1.6-2.7-2.5-4l30.4-18.9c1.1 1.6 2.1 3.3 3.1 5.1zm23.9 88.5l-35.7-.1c0-1.6 0-3.2-.1-4.7l35.7-1.1c.1 1.9.1 3.9.1 5.9zm-20.6 83.5c-.9 1.7-1.9 3.5-2.9 5.2l-30.9-17.9c.8-1.4 1.6-2.8 2.3-4.2l31.5 16.9zm-62.5 67.1c-1.7 1-3.4 2.1-5.1 3l-17.9-31.1c1.4-.8 2.7-1.6 4.1-2.5l18.9 30.6zm-87.8 26.9c-2 .1-4 .101-5.9.101l.1-36.101c1.6 0 3.2.001 4.7-.099l1.1 36.099zm-72.2-52.6l-17.2 32c-1.7-.9-3.5-1.9-5.2-2.9l18.2-31.4c1.4.8 2.8 1.6 4.2 2.3zm-53.3-49.7l-31 19.2c-1-1.7-2.1-3.4-3-5.1l31.6-18.1c.7 1.3 1.5 2.7 2.4 4zm-21.4-69.6l-36.5 1.1c-.1-2-.1-4-.1-5.9l36.5.1c0 1.5 0 3.1.1 4.7zm18.5-75.2c-.8 1.4-1.5 2.7-2.3 4.1l-32.1-17.2c.9-1.8 1.9-3.5 2.9-5.2l31.5 18.3zm51.3-51.8c-1.4.8-2.7 1.6-4 2.5l-19.2-30.9c1.7-1 3.4-2.1 5.1-3l18.1 31.4z"/><path opacity=".4" d="M420.6 240.309l-.1 36.1c-1.6 0-3.2 0-4.7.1l-1.1-36.1c2-.1 3.9-.1 5.9-.1z"/></g><path opacity=".5" d="M265.3 512.309c.1-.8.5-1.7 1.3-2.1l153-95c1.3-.8 3-.4 3.7.9.8 1.3.4 3-.9 3.8l-153 95c-1.3.8-3 .4-3.7-.9-.3-.6-.4-1.2-.4-1.7z" fill="#2B7EA3"/><path d="M415.6 416.909c.1-.7.3-1.4.6-2.1 1.4-2.6 4.8-3.6 7.4-2.2l129.4 71c2.6 1.4 3.6 4.8 2.2 7.4-1.4 2.6-4.8 3.6-7.4 2.2l-129.4-70.8c-2-1.2-3-3.4-2.8-5.5z" fill="#2B7EA3"/><path d="M417.4 421.609c-1.1-1-1.8-2.4-1.9-4l-2.8-103.9c-.1-3 2.3-5.5 5.3-5.6 3-.1 5.5 2.3 5.6 5.3l2.8 103.9c.1 3-2.3 5.5-5.3 5.6-1.4.1-2.7-.4-3.7-1.3z" fill="#2B7EA3"/><path d="M408.1 411.709c3.2-7.1 11.5-10.3 18.7-7.1 7.1 3.2 10.3 11.5 7.1 18.7-3.2 7.1-11.5 10.3-18.7 7.1-7.1-3.2-10.3-11.6-7.1-18.7z" fill="#3E4A74"/><path d="M480.8 389.509h-25l.7-5.3 13.3-14.3c1.9-2.2 3.3-4 4.2-5.6.9-1.6 1.5-3 1.6-4.3.3-1.8.1-3.3-.4-4.3s-1.5-1.5-3-1.5c-1.4 0-2.6.7-3.7 2-1 1.3-1.7 3-1.9 5h-7.8l-.1-.2c.4-3.8 2-6.9 4.6-9.4 2.6-2.5 5.8-3.7 9.7-3.7 3.7 0 6.5 1.1 8.4 3.2 1.9 2.2 2.6 5.1 2.1 8.7-.4 2.6-1.3 4.9-2.7 6.8-1.4 2-3.9 4.8-7.4 8.4l-6.5 7.9.1.1h14.5l-.7 6.5zm31.9-14.8c-.7 5-2.5 8.8-5.1 11.4-2.7 2.6-5.9 4-9.7 4-3.7 0-6.5-1.4-8.5-4.1-2-2.8-2.6-6.5-1.9-11.2l1.7-11.2c.7-4.9 2.5-8.8 5.1-11.4 2.7-2.7 5.9-4 9.8-4 3.6 0 6.4 1.4 8.4 4.2 2 2.8 2.6 6.5 1.9 11.2l-1.7 11.1zm-6.1-11.9c.4-2.8.3-4.9-.3-6.4-.6-1.4-1.6-2.2-3.1-2.2-1.4 0-2.7.8-3.7 2.3-1.1 1.5-1.8 3.6-2.2 6.3l-1.9 12.5c-.4 2.9-.3 5 .3 6.4.6 1.4 1.7 2.1 3.2 2.1 1.4 0 2.6-.7 3.7-2.2 1.1-1.5 1.8-3.6 2.2-6.3l1.8-12.5zm-45.5 40.6c.5-.7 1.1-1.2 1.7-1.5.7-.4 1.4-.5 2.2-.5.7 0 1.3.2 1.8.6.5.4.9 1 1 1.8.5-.8 1.1-1.4 1.8-1.8.7-.4 1.4-.6 2.3-.6 1.2 0 2.1.5 2.6 1.6.6 1 .7 2.6.4 4.7l-1.3 8.7h-3.8l1.3-8.7c.2-1.3.2-2.1 0-2.6-.2-.4-.6-.7-1.1-.7-.4 0-.8.1-1.1.4-.3.2-.6.6-.9 1v.5c0 .2 0 .4-.1.5l-1.4 9.6h-3.8l1.3-8.7c.2-1.3.2-2.1 0-2.6s-.6-.7-1.1-.7c-.4 0-.7.1-1 .3-.3.2-.6.5-.9.8l-1.6 10.8h-3.8l2.2-14.7h3.6l-.3 1.8zm19.1 12.9h-3.8l2.2-14.7h3.8l-2.2 14.7zm2.7-18.2h-3.8l.4-2.9h3.8l-.4 2.9zm5.6 5.5c.5-.7 1.1-1.3 1.8-1.7.7-.4 1.4-.6 2.1-.6 1.2 0 2.1.5 2.7 1.5.6 1 .7 2.5.4 4.6l-1.3 8.9h-3.8l1.3-8.9c.2-1.1.1-1.9 0-2.4s-.6-.7-1.1-.7c-.4 0-.8.1-1.2.3-.4.2-.7.5-1 .9l-1.6 10.7H483l2.2-14.7h3.6l-.3 2.1z" fill="#fff"/><path opacity=".5" d="M144.1 412.509H14.2c-7.9 0-14.2-6.4-14.2-14.2v-79.5c0-7.9 6.4-14.2 14.2-14.2h129.9c7.9 0 14.2 6.4 14.2 14.2v79.5c.1 7.9-6.3 14.2-14.2 14.2z" fill="#2B7EA3"/><path d="M143.8 407.309H14.6c-5.2 0-9.4-4.2-9.4-9.4v-78.8c0-5.2 4.2-9.4 9.4-9.4h129.1c5.2 0 9.4 4.2 9.4 9.4v78.9c0 5.1-4.2 9.3-9.3 9.3z" fill="#fff"/><path d="M23.3 312.51h-.9v92.1h.9v-92.1zm22.7 0h-.9v92.1h.9v-92.1zm22.8 0h-.9v92.1h.9v-92.1zm22.8 0h-.9v92.1h.9v-92.1zm22.7 0h-.9v92.1h.9v-92.1zm22.8 0h-.9v92.1h.9v-92.1z" fill="#DFE5F7"/><path d="M148.4 321.609H9.9v.7h138.5v-.7zm0 17.6H9.9v.7h138.5v-.7zm0 17.601H9.9v.7h138.5v-.7zm0 17.7H9.9v.7h138.5v-.7zm0 17.599H9.9v.7h138.5v-.7z" fill="#DFE5F7"/><path opacity=".4" d="M43.5 356.909c1.2 0 2.5 2.4 8.1 13l10.5-15.7c.6-1 2.1-.9 2.7.1l6.8 18.1 11.8-33.6c.3-.5.8-.9 1.4-.9.6 0 1.2.4 1.4.9l11.6 28.6 5.8-10c.3-.5.9-.8 1.4-.8 6.9.4 9-.1 19.9-.1.1-.7.1-1.5.1-2.3 0-15.6-12.1-28.3-26.9-28.3-7.8 0-14.9 3.5-19.8 9.1-4.9-5.6-12-9.1-19.8-9.1-14.9 0-26.9 12.7-26.9 28.3 0 1.2.1 2.3.2 3.4 6.1-.2 11.7-.7 11.7-.7z" fill="#4E7D96"/><path opacity=".4" d="M105.3 360.609l-6.4 11c-.4.7-1 .8-1.3.8h-.1c-.6 0-1.1-.4-1.3-.9l-11.4-28.4-11.6 35.4c-.3.5-.8.9-1.4.9-.6 0-1.1-.3-1.4-.8l-7.4-20.3-10.2 15.5c-.4.6-1 .7-1.4.7-.5 0-1.1-.3-1.3-.8l-7.2-12.8-10.7-.4c1.5 7.2 5.6 13.4 11.2 17.4l34.9 22.5 34.9-22.5c6-4.3 10.2-11 11.4-18.8l-19.3 1.5z" fill="#4E7D96"/><path opacity=".5" d="M842 166.21c0 30.5-19.6 56.3-47 65.6-7 2.4-14.5 3.7-22.3 3.7-7.8 0-15.3-1.3-22.3-3.7-27.3-9.3-47-35.2-47-65.6v-.4c.2-31.7 21.7-58.4 50.9-66.4 1.5-.4 3.1-.8 4.6-1.1 1-.2 2.1-.4 3.1-.6.2 0 .4-.1.6-.1.1 0 .3 0 .4-.1.1 0 .3 0 .4-.1h.3c.1 0 .3 0 .4-.1.3 0 .5-.1.8-.1h.4c.7-.1 1.4-.1 2.1-.2h.6c.6 0 1.1-.1 1.7-.1h2.9c1.4 0 2.7 0 4 .1.5 0 1 .1 1.5.1s1 .1 1.5.1c.3 0 .6.1.9.1.6.1 1.2.1 1.8.2 1.2.2 2.4.4 3.5.6 1.7.3 3.4.7 5 1.2 29.7 8.1 51.2 35 51.2 66.9z" fill="#04273A"/><path opacity=".5" d="M840.3 165.41c0 31.9-21.8 58.7-51.4 66.3-5.5 1.4-11.2 2.1-17.1 2.1-5.8 0-11.5-.7-16.9-2.1-29.5-7.5-51.3-34.1-51.5-65.9v-.4c0-31.5 21.3-58 50.2-66 1.7-.5 3.4-.9 5.1-1.2h.1c.9-.2 1.7-.3 2.6-.4.4-.1.8-.1 1.2-.2.1 0 .3 0 .4-.1.2 0 .5-.1.7-.1h.4c.3 0 .5-.1.8-.1h.4c.7-.1 1.4-.1 2.2-.2h.6c.6 0 1.1-.1 1.7-.1h2.4c1.4 0 2.9.1 4.3.2.4 0 .8.1 1.3.1.7.1 1.3.1 2 .2.3 0 .6.1.8.1.3 0 .6.1.9.1 1.3.2 2.5.4 3.7.6 1.6.3 3.3.7 4.9 1.2 29 7.9 50.2 34.4 50.2 65.9z" fill="#0F3854"/><path opacity=".5" d="M773.5 228.909c34.186 0 61.9-27.713 61.9-61.9 0-34.186-27.714-61.9-61.9-61.9s-61.9 27.714-61.9 61.9c0 34.187 27.714 61.9 61.9 61.9z" fill="#04273A"/><path d="M772.7 228.11c34.186 0 61.9-27.714 61.9-61.9 0-34.187-27.714-61.9-61.9-61.9s-61.9 27.713-61.9 61.9c0 34.186 27.714 61.9 61.9 61.9z" fill="#fff"/><path opacity=".3" d="M772.7 104.41v61.9l53-31.9c-10.8-18-30.5-30-53-30z" fill="#4E7D96"/><path d="M789.9 130.81h-10l.3-2.1 5.3-5.7c.8-.9 1.3-1.6 1.7-2.2.4-.6.6-1.2.7-1.7.1-.7.1-1.3-.2-1.7-.2-.4-.6-.6-1.2-.6s-1.1.3-1.5.8c-.4.5-.7 1.2-.8 2h-3.1v-.1c.2-1.5.8-2.8 1.8-3.7 1-1 2.3-1.5 3.9-1.5 1.5 0 2.6.4 3.4 1.3.8.9 1 2 .8 3.5-.1 1-.5 1.9-1.1 2.7-.6.8-1.6 1.9-3 3.4l-2.6 3.2v.1h5.8l-.2 2.3zm-7.9 5.5c.2-.3.4-.4.6-.6.2-.1.5-.2.8-.2.5 0 .9.2 1.1.6.2.4.3 1 .2 1.9l-.5 3.4h-1.5l.5-3.5c.1-.5.1-.8 0-1-.1-.2-.2-.3-.5-.3-.2 0-.3 0-.5.1-.1.1-.3.2-.4.3l-.6 4.3h-1.5l1.3-8.4h1.5l-.5 3.4zm3.4 2.2c.1-.9.4-1.6.9-2.2.5-.5 1.1-.8 1.9-.8.7 0 1.3.3 1.6.8.4.6.5 1.3.3 2.1v.1c-.1.9-.5 1.6-1 2.2-.5.5-1.1.8-1.9.8-.7 0-1.3-.3-1.6-.8-.4-.6-.5-1.3-.3-2.1l.1-.1zm1.5.1c-.1.6-.1 1 0 1.3.1.3.3.5.6.5s.5-.2.7-.5c.2-.3.3-.8.4-1.3v-.1c.1-.6.1-1 0-1.3-.1-.3-.3-.5-.6-.5s-.6.2-.7.5c-.2.3-.3.8-.4 1.3v.1zm6.9 2.1c-.2.3-.4.5-.7.7-.3.2-.5.2-.8.2-.5 0-.9-.2-1.1-.6-.2-.4-.3-1.1-.2-2l.5-3.4h1.5l-.5 3.4c-.1.5-.1.9 0 1.1.1.2.2.3.4.3s.3 0 .5-.1c.1-.1.3-.2.4-.3l.6-4.4h1.5l-.9 5.8h-1.2v-.7zm5.7-3.8h-.5c-.2 0-.3 0-.4.1-.1.1-.2.2-.3.4l-.6 4h-1.5l.9-5.8h1.4l-.1.8c.2-.3.3-.5.5-.6.2-.2.4-.2.6-.2h.4l-.4 1.3zm2.9 3.1c0-.2 0-.3-.1-.4-.1-.1-.4-.3-.7-.4-.6-.2-1-.5-1.2-.7-.3-.3-.4-.6-.3-1.1.1-.5.3-.9.7-1.2.4-.3.9-.5 1.6-.5.6 0 1.1.2 1.5.5.4.4.5.8.4 1.3h-1.5c0-.3 0-.5-.1-.6-.1-.1-.2-.2-.5-.2-.2 0-.3.1-.5.2-.1.1-.2.3-.2.4 0 .2 0 .3.1.4.1.1.3.2.7.4.6.2 1 .5 1.3.7.3.3.4.7.3 1.1-.1.5-.3.9-.8 1.2-.4.3-1 .5-1.6.5-.7 0-1.2-.2-1.5-.6-.4-.4-.5-.8-.4-1.3h1.4c0 .3 0 .5.1.7.1.1.3.2.6.2.2 0 .4-.1.5-.2.1-.1.1-.3.2-.4z" fill="#fff"/><path opacity=".5" d="M783.2 221.81c-.2-.1-.4-.3-.5-.6l-10.9-55c-.1-.5.2-.9.7-1 .5-.1.9.2 1 .7l10.9 55c.1.5-.2.9-.7 1-.1 0-.3 0-.5-.1z" fill="#2B7EA3"/><path d="M771.6 167.81c-.2-.1-.4-.3-.5-.6-.6-.9-.3-2.1.7-2.7l45.2-27.2c.9-.6 2.1-.3 2.7.7.6.9.3 2.1-.7 2.7l-45.2 27.2c-.7.4-1.6.4-2.2-.1z" fill="#2B7EA3"/><path d="M771.4 167.71c-.4-.4-.6-.9-.6-1.4v-37.2c0-1.1.9-1.9 1.9-1.9 1.1 0 1.9.9 1.9 1.9v37.2c0 1.1-.9 1.9-1.9 1.9-.5 0-.9-.2-1.3-.5z" fill="#2B7EA3"/><path d="M768.1 164.21c1.1-2.5 4.1-3.7 6.7-2.5 2.5 1.1 3.7 4.1 2.5 6.7-1.1 2.5-4.1 3.7-6.7 2.5-2.5-1.2-3.6-4.2-2.5-6.7z" fill="#3E4A74"/><path opacity=".6" d="M827.4 166.11h-11v-1.5l11-.3v1.8zm-6.3 25.799c-.3.5-.6 1.1-.9 1.6l-9.5-5.5c.2-.4.5-.9.7-1.3l9.7 5.2zm-19.3 20.7c-.5.3-1 .6-1.6.9l-5.5-9.6c.4-.2.8-.5 1.3-.8l5.8 9.5zm-27.1 8.301h-1.8v-11.1h1.5l.3 11.1zm-22.3-16.2l-5.3 9.9c-.5-.3-1.1-.6-1.6-.9l5.6-9.7c.4.2.9.5 1.3.7zm-16.5-15.4l-9.6 5.9c-.3-.5-.6-1-.9-1.6l9.7-5.6c.3.5.6.9.8 1.3zm-6.6-21.5l-11.3.4v-1.8h11.3v1.4zm5.7-23.2c-.2.4-.5.8-.7 1.3l-9.9-5.3c.3-.5.6-1.1.9-1.6l9.7 5.6zm15.9-16c-.4.2-.8.5-1.2.8l-5.9-9.5c.5-.3 1-.6 1.6-.9l5.5 9.6z" fill="#7C85B3"/><path opacity=".1" d="M686.9 672.809c-4.8.5-93.7 4.6-53.4 32.5 40.3 27.9 167.9 6.901 168.5-11.899.7-18.6-34.6-29.401-115.1-20.601z" fill="#4E7D96"/><path d="M689.4 663.009c.3 2.1.9 5.4 2.2 9.2 1.3 3.6 2.1 4.6 1.8 5.9-.5 2.1-4 4.5-18 5.1.8-1.8 1.5-3.8 2-6.1 2.2-8.7 1.2-16.3 0-21.3 4 2.3 8 4.7 12 7.2z" fill="#FFA285"/><path d="M703.2 689.609s1.4 2.5 1.3 5.3c0 2.8-12.4 6.8-18.2 2.9 0 0-11.8 11.2-31.4 5.4-2.2-.7-3.8-2.6-4-4.8-.1-.8.1-1.6.5-2.1 1.8-1.8 51.8-6.7 51.8-6.7z" fill="#ECE3EA"/><path d="M655 703.11c17.3 5.1 28.5-3.1 30.9-5 .3-.2.7-.3 1-.1 5.6 3.2 16.2 0 17.5-2.7 0 .3.1.7.1 1.1 0 2.8-12.2 6.8-17.9 2.8 0 0-11.5 11.2-30.9 5.3-1.7-.5-3.1-1.8-3.6-3.5.7 1.1 1.7 1.8 2.9 2.1z" fill="#424866"/><path d="M702.9 692.31c-.6 1.4-2.1 2-3.6 2.5-2.3.7-6.2 1.6-12 1.5 0 0-.5.2-6.1 3.6s-23.7 4.1-28.5-1c0 0-.8-1.4-.3-3 .4-1.3 1.5-2 2-2.4 5.7-3.6 12.3-3.8 14.5-7.9 2.2-4.1 2.5-5.4 2.5-5.4.1-.5.4-1.5 1.2-2 .7-.4 1.4-.3 1.8-.2 3.2.6 5.1 2.8 8.1 3.3 1.7.3 3-.1 5.6-.9 1.5-.5 3.3-1 5.2-2.4 1.3-.9 1.4-1.2 2-1.3 2.1-.2 4.1 3.7 5.1 5.7.7 1.5 1.2 2.9 2 5.7.8 2.7.9 3.5.5 4.2z" fill="#6A787E"/><path d="M662.9 696.109c1.3 3.5 11.4-.7 14.2-3.7 2.8-3 3.5-8.9 3.5-8.9l17.1-5.3c1.1 1.3 2 3.1 2.6 4.3.7 1.5 1.2 2.9 2 5.7.8 2.6.8 3.4.5 4.2-.6 1.4-2.1 2-3.6 2.5-2.3.7-6.2 1.6-12 1.5 0 0-.5.2-6.1 3.6s-23.7 4.1-28.5-1c0 0-.8-1.4-.3-3 .4-1.3 1.5-2 2-2.4 1.1-.7 2.3-1.3 3.4-1.8.1-.1 3.9.8 5.2 4.3z" fill="#505A5F"/><path opacity=".3" d="M652.7 698.909s-.8-1.4-.3-3c.4-1.3 1.5-2 2-2.4 0 0-4.1 5.1 4.8 5.9 8.9.8 21.4-1.4 25.8-7 0 0 11 5.4 17.5-3.8.6 2.2.6 2.9.3 3.6-.6 1.4-2.1 2-3.6 2.5-2.3.7-6.2 1.6-12 1.5 0 0-.5.2-6.1 3.6-5.4 3.5-23.6 4.2-28.4-.9z" fill="#E1E1DF"/><path d="M678.9 679.81s-1.6 4.1-9.9 5.8c0 0 6.7 2.7 9.9-5.8z" fill="#E1E1DF"/><path d="M668.1 685.109l3.7 2.901-.8 1.2-3.7-3.101c-.2-.2-.3-.5-.1-.8.2-.4.6-.5.9-.2zm-2.5 1.9l3.7 2.9-.8 1.2-3.7-3.1c-.2-.2-.3-.5-.1-.8.2-.4.6-.5.9-.2zm12.3-5s.4-.8.8-2.2c1.2.7 2.4 1.3 3.9 1.5 1.7.3 3-.1 5.6-.9 1.5-.5 3.3-1 5.2-2.4 1.3-.9 1.4-1.2 2-1.3 1.2-.1 2.4 1.1 3.4 2.6-2.8 2.1-12.6 8.5-20.9 2.7z" fill="#EBEBEA"/><path d="M755.4 662.91c.3 2.1.8 5.399 2.1 9.199 1.2 3.6 2 4.601 1.7 5.901-.5 2.1-4.1 4.4-18 4.9.8-1.8 1.5-3.8 2.1-6 2.3-8.6 1.4-16.301.3-21.301 3.9 2.3 7.9 4.801 11.8 7.301z" fill="#FFA285"/><path d="M769 689.609s1.3 2.5 1.3 5.3c-.1 2.8-12.4 6.7-18.2 2.7 0 0-11.9 11.1-31.4 5.1-2.2-.7-3.8-2.6-3.9-4.9-.1-.8.1-1.6.6-2.1 1.5-1.6 51.6-6.1 51.6-6.1z" fill="#ECE3EA"/><path d="M720.6 702.709c17.3 5.3 28.6-2.7 31-4.7.3-.2.7-.3 1-.1 5.6 3.2 16.2.2 17.5-2.5v1.1c-.1 2.8-12.2 6.6-17.9 2.6 0 0-11.7 11.1-30.9 5-1.7-.5-3-1.9-3.6-3.5.7 1 1.7 1.7 2.9 2.1z" fill="#424866"/><path d="M768.7 692.41c-.6 1.3-2.1 1.9-3.6 2.4-2.3.7-6.2 1.6-12.1 1.3 0 0-.5.2-6.1 3.6s-23.8 3.9-28.5-1.3c0 0-.8-1.4-.3-3 .4-1.3 1.5-2 2.1-2.4 5.7-3.6 12.4-3.7 14.6-7.7 2.2-4.1 2.6-5.3 2.6-5.3.1-.5.4-1.5 1.2-2 .7-.4 1.4-.2 1.8-.2 3.2.7 5.1 2.9 8.1 3.4 1.7.3 3-.1 5.6-.9 1.5-.5 3.3-1 5.2-2.3 1.3-.9 1.4-1.2 2-1.3 2.1-.2 4.1 3.7 5.1 5.8.7 1.5 1.1 2.9 1.9 5.8.7 2.6.7 3.4.4 4.1z" fill="#6A787E"/><path d="M728.6 695.71c1.3 3.5 11.4-.6 14.3-3.5 2.9-3 3.6-8.8 3.6-8.8l17.2-5.1c1.1 1.3 2 3.1 2.6 4.3.7 1.5 1.1 2.9 1.9 5.8.7 2.6.8 3.4.4 4.2-.6 1.3-2.1 1.9-3.6 2.4-2.3.7-6.2 1.6-12.1 1.3 0 0-.5.2-6.1 3.6s-23.8 3.9-28.5-1.3c0 0-.8-1.4-.3-3 .4-1.3 1.5-2 2.1-2.4 1.1-.7 2.3-1.3 3.4-1.8.1-.1 3.9.8 5.1 4.3z" fill="#505A5F"/><path opacity=".3" d="M718.4 698.409s-.8-1.4-.3-3c.4-1.3 1.5-2 2.1-2.4 0 0-4.1 5 4.8 6 8.9.9 21.4-1.2 25.9-6.7 0 0 11 5.5 17.6-3.6.6 2.2.6 3 .3 3.6-.6 1.3-2.1 1.9-3.6 2.4-2.3.7-6.2 1.6-12.1 1.3 0 0-.5.2-6.1 3.6-5.7 3.5-23.9 4-28.6-1.2z" fill="#E1E1DF"/><path d="M744.7 679.609s-1.6 4.1-10 5.7c.1 0 6.8 2.8 10-5.7z" fill="#E1E1DF"/><path d="M733.9 684.71l3.6 2.9-.8 1.2-3.6-3.2c-.2-.2-.3-.5-.1-.8.2-.2.6-.3.9-.1zm-2.5 1.9l3.6 2.9-.8 1.2-3.6-3.2c-.2-.2-.3-.5-.1-.8.2-.3.6-.3.9-.1zm12.3-4.901s.4-.8.9-2.2c1.2.7 2.4 1.3 3.8 1.6 1.7.3 3-.1 5.6-.9 1.5-.5 3.3-1 5.2-2.3 1.3-.9 1.4-1.2 2-1.3 1.2-.1 2.4 1.2 3.4 2.6-2.8 2.2-12.6 8.5-20.9 2.5z" fill="#EBEBEA"/><path d="M693.2 350.309c.5 1.7-2 3.9-1.8 6.5.1 1.3 2.9 7.2-2.6 13.4-8.2 9.3-17.2 14-17.2 14-30.7 15.9-40.3 14.7-44.3 13.6-1.4-.4-3.1-1-4.2-2.5-4.3-5.7 3.7-18.2 5.5-21.1 2.2-3.5 4.2-5.6 5-6.3 1.9-1.9 4.8-4.8 9.7-6.7 2-.8 5.9-2.3 11-1.7 4 .5 7 2 8.7 3 1-2.6 4-9.1 11-12.6 8.1-4.2 18.4-2.4 19.2.4z" fill="#FFA285"/><path d="M686.9 345.909s-16.8-.8-26.6 9.5c0 0-11.6 1.6-20 7.3 0 0 7.7 13 8.4 31.9l19.3-6.6s20.8-24.4 21.8-24.4c.8 0-2.9-17.7-2.9-17.7z" fill="url(#paint0_linear_16:595)"/><path d="M667.9 388.009l3-3.5-5.9-12.9-4.4 13.5-7.7-16.5c3.3 8.4 0 19.2 0 19.2-3.3-22-12.7-25.2-12.7-25.2s7.7 13 8.4 31.9l19.3-6.5z" fill="#396D89"/><path d="M643.5 389.709c-4.3-8.7-8.7-18.4-12.7-29.1-5.4-14.5-9.3-28.1-12-40.2l-10.5 1.8s6.1 44.4 7.8 53.4c1.1 6.1 4 13 5.6 16.7.8 1.8 2 3.3 3.6 4.4l2.1 1.5 16.1-8.5z" fill="#FFA285"/><path d="M637.4 315.609l.1-10.1c0-1.6-.8-3.1-2.2-3.9l-8.7-5.1c-1.4-.8-3.1-.8-4.5 0l-8.8 5c-1.4.8-2.3 2.3-2.3 3.9l-.1 10.1c0 1.6.8 3.1 2.2 3.9l8.7 5.1c1.4.8 3.1.8 4.5 0l8.8-5c1.4-.9 2.3-2.3 2.3-3.9z" fill="#606376"/><path d="M636.3 316.109l.1-10.1c0-1.6-.8-3.1-2.2-3.9l-8.7-5.1c-1.4-.8-3.1-.8-4.5 0l-8.8 5c-1.4.8-2.3 2.3-2.3 3.9l-.1 10.1c0 1.6.8 3.1 2.2 3.9l8.7 5.1c1.4.8 3.1.8 4.5 0l8.8-5c1.5-.8 2.3-2.3 2.3-3.9z" fill="#383C54"/><path d="M611.9 327.31c-.9-1.7-3.2-6.9-1.6-12.8 1.8-6.5 7.9-12.5 11.4-11.3 3.5 1.2 4.7 9.9 2.1 16.3-.9 2.1-2.1 3.7-3.1 4.8l-8.8 3z" fill="#FFA285"/><path d="M621.8 308.309c-.8 1.4-.4 3.2 1.1 4.1 1.4.8 3.2.4 4.1-1.1.8-1.4.4-3.2-1.1-4.1-1.5-.8-3.3-.4-4.1 1.1z" fill="#888A98"/><path d="M623.7 306.909l-15.2 4.7 1.5 5.8 14.6-4.7-.9-5.8z" fill="#888A98"/><path d="M621.6 303.109s7.1 4.001 7.8 5.601c.7 1.7-3.2 8.199-3.8 8.099-.6 0-2.1.6-1.7-1.4.4-2 1.9-4.5 1.8-4.9-.1-.4-4.8-3.1-5.1-3.6-.3-.5 1-3.8 1-3.8z" fill="#FFA285"/><path d="M621.6 303.109s7.1 4.001 7.8 5.601c.7 1.7-3.2 8.199-3.8 8.099-.6 0-2.1.6-1.7-1.4.4-2 1.9-4.5 1.8-4.9-.1-.4-4.8-3.1-5.1-3.6-.3-.5 1-3.8 1-3.8z" fill="#FFA285"/><path opacity=".2" d="M627.9 309.51c.8 1.1-.3 3.8-1.7 5.9-.8 1.3-.6 1.5-.4 1.4-.1.1-.2.1-.2.1-.3 0-.9.2-1.3 0l1.5-2.9-.8-1.6c.4-.9.7-1.6.7-1.7 0-.2-1.2-1-2.4-1.7l-1.7-3.5c.1-.1 5.5 2.9 6.3 4z" fill="#BA937F"/><path d="M619.7 304.309s7.1 4 7.8 5.6c.7 1.7-3.2 8.2-3.8 8.1-.6 0-1.6.3-1.7-1.4 0-2 1.9-4.5 1.8-4.9-.1-.4-4.8-3.1-5.1-3.6-.2-.3 1-3.8 1-3.8z" fill="#FFA285"/><path opacity=".2" d="M619.4 308.71l.5-2.101s3.5 1.1 5.2 3c1.7 1.9-1 5.1-2 6.9-.7 1.3 0 1.6.5 1.6-.6 0-1.3.101-1.4-1.399 0-2 1.9-4.501 1.8-4.901-.2-.3-3.4-2.199-4.6-3.099z" fill="#BA937F"/><path d="M616.8 304.709s7.1 4 7.9 5.6c.8 1.6-2.8 7.4-3.4 7.4-.6 0-2 .5-1.7-1.3.3-1.8 1.7-4.1 1.6-4.4-.1-.4-4.8-3.1-5.1-3.5-.4-.6.7-3.8.7-3.8z" fill="#FFA285"/><path d="M624.9 319.309l.1-10.3c0-1.6-.8-3.2-2.3-4l-8.9-5.2c-1.4-.8-3.2-.8-4.6 0l-9 5.1c-1.4.8-2.3 2.3-2.3 4l-.1 10.3c0 1.6.8 3.2 2.3 4l8.9 5.2c1.4.8 3.2.8 4.6 0l9-5.1c1.4-.9 2.3-2.4 2.3-4z" fill="#888A98"/><path d="M623.5 320.11l.1-10.3c0-1.6-.8-3.2-2.3-4l-8.9-5.2c-1.4-.8-3.2-.8-4.6 0l-9 5.1c-1.4.8-2.3 2.3-2.3 4l-.1 10.3c0 1.6.8 3.2 2.3 4l8.9 5.2c1.4.8 3.2.8 4.6 0l9-5.1c1.4-.9 2.2-2.4 2.3-4z" fill="#383C54"/><path d="M668.8 462.909s-.4 5.8-1 13.6c-1.4 20.1 22.5 30.3 28.8 33.5 5.7 3 28.4 15.5 31.3 5.3 11.8-41.7-9.2-54.9-9.2-54.9l-49.9 2.5z" fill="#125A82"/><path d="M703.9 349.509c2.2.8 8 1.7 13.1 3.4s6.2 3.3 8 5.6c2.9 3.7 3.8 6.7 3.8 8.9-1.3 31.1-10.7 70.6-10.1 93-7 2.2-17 4.5-29 4.5-8.2 0-15.2-.4-20.9-1.6-3.4-27.2-10.6-49-11.3-66.9-.5-12.9-2.8-25.1 5.4-33.8 6-6.4 26.2-15.1 27.3-13.7 0 0 0 .101.1.301 0 0 .6 1.699 2.3 3.299 1.4 1.2 4 2.3 11.3-3z" fill="url(#paint1_linear_16:595)"/><path d="M720 377.809s-.7 68.4-5.9 75.6c-5.2 7.2-45.3 9.5-45.3 9.5v.3c5.6 1.2 12.7 1.6 20.9 1.6 12 0 22-2.3 29-4.5-.4-16.2 4.4-41.3 7.6-65.8l-6.3-16.7z" fill="#396D89"/><path d="M712.3 310.01c-1.9 11.6-12.8 19.4-24.3 17.6-11.6-1.9-19.4-12.8-17.6-24.3 1.9-11.6 12.8-19.4 24.3-17.6 11.6 1.8 19.5 12.7 17.6 24.3z" fill="#FFA285"/><path d="M706.3 326.61c-1 2.4-2 5.699-2.3 9.8-.5 6.299 1.9 11.3 3 14.3-1.5 1.7-7.9 6.3-14.8 6.3 0 0-4.7-2.6-5.8-3.5l-.2-12.4c-.1 0-3-44.7 20.1-14.5z" fill="#FFA285"/><path opacity=".2" d="M704.9 329.909l-10.6-5-8.2 6.7c-.3 5.1 0 9.5 0 9.5l.1 6.8c10.7 1.5 18.7-18 18.7-18z" fill="#BA937F"/><path d="M712.1 311.509s-5.7 28.6-24.7 32.6c-5.4 1.2-11-1.3-13.7-6.1-3.3-5.8-5.9-16.599-3-36.8 0 0 23.2-12.1 41.4 10.3z" fill="#FFA285"/><path d="M712.1 311.509s-5.7 28.6-24.7 32.6c-5.4 1.2-11-1.3-13.7-6.1-3.3-5.8-5.9-16.599-3-36.8 0 0 23.2-12.1 41.4 10.3z" fill="#FFA285"/><path opacity=".2" d="M687.4 344.209c19-4.1 24.7-32.6 24.7-32.6 0-.1-.1-.1-.1-.2-2.3 2.1-4.6 5.9-6.9 12.1-11.2 29.8-31.3 14.6-31.3 14.6 2.6 4.7 8.2 7.2 13.6 6.1z" fill="#BA937F"/><path d="M676.1 315.01c-.3 1.6-1.4 2.8-2.6 2.6-1.2-.2-1.9-1.6-1.6-3.3.3-1.6 1.4-2.8 2.6-2.6 1.1.3 1.8 1.7 1.6 3.3zm15.7.199c-.1 1.6-1.2 2.9-2.3 2.8-2.8-.2-2.4-6.1.4-5.9 1.1.1 2 1.5 1.9 3.1z" fill="#380E13"/><path d="M679.8 310.01c1.4 2.4 2.4 8-1.1 11.5-.6.6-2 1.7-2 2.6 0 1.4 5.2 2 6.7 2.2-6.1.7-10.1-1.2-6.3-4.8 1.3-1.3 4.6-3.9 2.7-11.5z" fill="#C7785C"/><path d="M672 297.909s3.7-2.9 5.5-1.7c1.7 1.2 7.3 1.3 12.2-.3.9-.3 13.6 3 15.3 10.6 1 4.3-2 8.1.2 10.2 1 1 2.6 1 3.5.9-1.3 4.1-2.5 8.1-3.8 12.2 0 0 9.2-14.3 11.1-18.6 1.9-4.2-8.7-33.4-31.2-25 .1.1-9.6 1.4-12.8 11.7z" fill="#802A10"/><path d="M705 321.409c.9-4.4 3.8-7 5.8-6.6 2.1.3 3.8 3.8 3.2 6.6-.6 2.6-3.2 5.4-5.7 4.7-1.8-.5-3.1-2.4-3.3-4.7z" fill="#FFA285"/><path d="M689.4 305.209c1.1-.1 3.8-.1 7.5 3.1.5.4.6 1.1.3 1.4l-.2.2c-.3.2-.8.2-1.2-.1-1.1-.8-3.4-2.1-5.7-2.6-.7-.2-1.3-.8-1.2-1.4 0-.4.2-.5.5-.6zm-20.1.401c.9-.6 3.3-1.9 8-1 .7.1 1.1.6.9 1l-.1.199c-.1.3-.6.5-1.1.5-1.3-.1-4-.1-6.2.5-.7.2-1.5-.099-1.7-.599-.1-.2 0-.4.2-.6z" fill="#701C25"/><path opacity=".2" d="M708.3 319.41s.5-2.4 3.2-1.2c2.6 1.2-6 10.3-3.2 1.2z" fill="#BA937F"/><path d="M678.8 330.009c1.9.9 5.1 1.7 8.6-.7.8-.5 1.7.3 1.4 1.1-1.2 2.8-3.3 6.2-6.3 5.5-2.9-.7-4.3-3-4.9-4.7-.4-.9.4-1.6 1.2-1.2z" fill="#F0F1F2"/><path opacity=".2" d="M705.8 323.909c.6 1.1 1.5 1.8 2.5 2.1 2.6.7 5.2-2.1 5.7-4.7.3-1.4 0-2.9-.5-4.1-.4 9.9-5.7 7.9-7.7 6.7z" fill="#BA937F"/><path d="M717.8 358.61c1-2.8 4.6-3.5 6.6-1.4 8.5 8.8 23.5 24.8 33.1 37.8 2.3 3.2 6 8.4 4.3 13.1-1.2 3.4-5.1 5.9-8.7 6.2-3.3.2-6-1.4-15.4-11-8.2-8.4-13-13.9-20.7-21.9-2.3-2.4-4.2-4.3-5.5-5.6 2.5-5.8 4.2-11.5 6.3-17.2z" fill="#FFA285"/><path d="M707.4 350.409s15.1-.3 22.4 11.2c0 0 27.9 17.5 31.8 40.2l-18 5s-15.2-10.1-21.3-24c-6.1-13.9-14.9-32.4-14.9-32.4zm23.6 96.9c-2.3 3.3-5.1 6.4-8.4 9-3.9-.2-7.7-.4-11.6-.6 0 0-5.1-.4-6.3.4-1.1.8-5.4 4.8-5.6 5.4-.3.6.5 2.9 4.2 0l2.4-1.8s3.8-1.2 4.4-.4c.6.8-9.9 5.2-10.1 6.4-.3 1.2.6 2 1.9 2 1.4 0 9.6-5.9 10.9-5.6 1.3.3-8.9 6.1-9.5 6.6-.6.6-.3 3.4 2 2.4 2.2-1 9.1-5.6 9.1-5.6s.8.4.4 1c-.5.6-7.2 5.5-6.6 6.7.6 1.2 6-2.1 8.7-4.2 6.5.6 8.8-.1 10.6-2.4.2-.3.3-.4.5-.7 0 0 .1-.2.4-.6 1.4-2 3.3-3.6 3.3-3.6 1.1-1 3.6-3.7 9.3-10.5-3.3-1.3-6.7-2.6-10-3.9z" fill="#FFA285"/><path d="M762.1 407.11s3.6 18.9-34.6 59.6c0 0-2.3-6.6-2.7-12.3 0 0 11.8-13.2 18.6-44.9 6-28 18.7-2.4 18.7-2.4z" fill="#FFA285"/><path d="M692.1 498.409c4.6 14.1 7 48.4 32.6 90.6 0 0 15.6 10.3 15.7.8.3-30.2 2-44.1-8.4-88.5-1.3-5.4.9-16-2.9-14.9-12.3 4.1-24.7 8.1-37 12z" fill="#125A82"/><path d="M667.9 476.51s-8.8 72.7 3.3 108.4c0 0 5.5 10.9 17.7.4 0 0 16.1-41.5 7.8-80.5-4.4-20.3-28.8-28.3-28.8-28.3z" fill="#125A82"/><path opacity=".2" d="M704.8 456.11c-1.1.8-5.4 4.8-5.6 5.4-.3.6.5 2.9 4.2 0l2.4-1.8s3.8-1.2 4.4-.4c.6.8-9.9 5.2-10.1 6.4-.3 1.2.6 2 1.9 2 1.4 0 9.6-5.9 10.9-5.6 1.3.3-8.9 6.1-9.5 6.6-.6.6-.3 3.4 2 2.4 2.2-1 9.1-5.6 9.1-5.6s.8.4.4 1c-.5.6-7.2 5.5-6.6 6.7.6 1.2 6-2.1 8.7-4.2l3.1-3.2c.1-2.5-1.4-3.1-1.4-3.1-.1-2.6-1.7-3.3-1.7-3.3-.3-2.2-1.7-2.2-1.7-2.2 0-.7-.2-1.1-.5-1.4-1.2-.1-2.5-.1-3.7-.2-.1.1-5.2-.4-6.3.5z" fill="#796B80"/><path d="M706.9 350.909c-5 4.3-11.5 10.2-16.3 16.6-1.6 2.2-5.1 1.1-5.2-1.6v-.6c-.1-4.8.7-10.5 1.5-13.3 1-1.2 2.6-.8 4.8-1.8 3.1-1.5 8.6-2.2 15.2.7z" fill="#FFA285"/><path d="M677.4 296.21c0 .1.3.199.5.099.9-.7-5.6-7.1-4.2-11.5 1.2-3.8 7.8-5.5 12.6-6.2 2.6-.4 7.9-.9 14.3 1.2 2 .7 6 2.4 9.6 5.8 9.7 9.1 7.1 24.2 5.3 26.8-.1.1-.2.301-.4.301-2.4.6-8.9-18.5-8.9-18.5-21.5 1.1-28.8 1.7-28.8 2z" fill="#802A10"/><path opacity=".2" d="M705.2 316.809c.4.4.9.6 1.4.8.2-.4.5-.7.8-1-.4-1.6.4-4.9.4-10.9 0-8.5-10.6-13.3-14.6-13.3-3.5 0-3.5 0-10.5 1.5-6.9 1.5-8.9-9.1-8.9-9.1-.7 2.1.5 4.7 1.7 6.9-1.4 1.6-2.6 3.6-3.5 6.3 0 0 3.7-2.9 5.5-1.7 0 0 .1.1.2.1 1.9 1.1 7.3 1.2 12.1-.4.9-.3 13.6 3 15.3 10.6.9 4.2-2.1 8.1.1 10.2z" fill="#BA937F"/><path d="M674 286.51c-1.2.7-3.9 2.5-5.2 6-.4 1-1.9 5 .2 7.4.6.7 1.3 1.1 1.8 1.3 0 0 2-5.1 4.9-5.2.4 0 .4-.1.5-.2 1.1-.7-.4-5.1-2.2-9.3z" fill="#802A10"/><path d="M679.4 471.109a1.5 1.5 0 100-3 1.5 1.5 0 000 3zm12.4 0a1.5 1.5 0 100-3 1.5 1.5 0 000 3z" fill="#767275"/><path d="M679.4 504.31c-.1 0-.3 0-.4-.1-.3-.3-.4-.8-.2-1.2 0 0 2.2-4.5-.1-18-2.3-13.9-.2-15.9.5-16.1.4-.1.8.1.9.6.1.4-.1.9-.4 1.1-.1.2-1.6 2.2.4 14.1 2.4 14.4 0 19.1-.1 19.3-.1.1-.3.3-.6.3zm12.4-6.201c-.3 0-.5-.2-.6-.6-.1-.2-1.3-4.8 0-12.3 1.2-7.1 0-15.3 0-15.4-.1-.5.2-.9.5-1 .4-.1.7.2.8.7.1.4 1.3 8.7 0 16.2-1.2 6.9 0 11.2 0 11.2.1.5 0 1-.4 1.1-.2 0-.2.1-.3.1z" fill="#C8C7C8"/><path d="M729.8 360.91c-11.5-15-20.9-13.3-24.4-13.9.3.9 1.1 2.4 1.4 3.2l.6.3c-1 .9-2.1 1.8-3.3 2.9l4.1 23.4 26.3 23.5c2.2-5.3 3.4-7.9 4.7-11.3 2.9-7.5 4.7-13.5 5.3-15.8-4.5-4-6.5-6-14.7-12.3z" fill="url(#paint2_linear_16:595)"/><path d="M734.8 573.109s.9.801 2.3 2.201c4.4 4.3 11.7 14.699 12.3 23.299.8 11.6 8.3 53.9 9.7 75-.4.801-2.3 4.5-6.9 6-5.1 1.7-9.4-.699-10-1.099-2.1-11-4.4-22.2-6.8-33.6-4.9-23.2-15.6-63.6-15.6-63.6l15-8.201zm-48.8-.5s.8 1.001 1.9 2.601c3.6 5 9.2 16.4 8.3 25-1.1 11.6-.6 54.5-2.6 75.6-.5.7-3 3.999-7.8 4.799-5.3.9-9.2-2.199-9.7-2.699-.3-11.2-.7-22.601-1.2-34.301-1-23.7-5-65.199-5-65.199l16.1-5.801z" fill="#125A82"/><path opacity=".2" d="M749.6 669.709c-.6-9.3-18.4-75.5-24.8-92.7-6.4-17.2-28.2-72.2-28.2-72.2s-3.4 1-8.8.6c2.6 1.5 5.1 2.7 6.9 3.6 3.5 16 8.5 41.7 25.5 72.2l-.2.1s10.7 40.3 15.6 63.6c2.4 11.4 4.7 22.6 6.8 33.6.6.4 4.9 2.8 10 1.1 4.5-1.5 6.5-5.3 6.9-6-.1 0-9.1 5.4-9.7-3.9zm-79.3-87.499c1 10.8 3.8 42 4.6 61.399.5 11.601 1 23.101 1.2 34.301.6.5 4.4 3.599 9.7 2.699 4.7-.8 7.3-4.099 7.8-4.799.1-1.1.2-2.2.3-3.4-1.3 1-3.9 4.899-8.6-1.301-5.1-6.8 1.8-76.199-7-95.699-10.3-22.7-9.1-75.4-9.4-112.1v-.3c-.1.7-.5 6.3-1 13.6 0-.1-8.4 69.2 2.4 105.6z" fill="#0F3854"/><path d="M761.1 400.109s6.2 4.8.7 10.4c-5.5 5.7-.7-10.4-.7-10.4z" fill="#FFA285"/><path opacity=".1" d="M299.3 655.01c4.2.6 61.2 14.5 26.7 33-34.4 18.5-51.2 13.7-80.4 26.5-29.2 12.9-65.2-4.8-67.8-22.1-2.5-17.4 53.3-46.7 121.5-37.4z" fill="#4E7D96"/><path d="M241.1 289.309S231 272.51 218 285.41c-13 13-12.5 73 0 98.2l9.6-2.8s-12.8-22-9.6-69.8c3.3-47.8 40.5 9 40.5 9l-17.4-30.701z" fill="url(#paint3_linear_16:595)"/><path d="M252.3 354.61c-3.2.6-3.6-4.1-5.4-.6-1.3 2.6-2.1 5.7-1 9.8 1.5 5.5 4.4 12.7 10.2 20.7 8.4 11.5 22.7 26.8 32 34.8.5.4 4.2-.3 6.4-2.9 2.9-3.5.3-10.2-8.6-28.1-8.7-17.5-22.3-35.7-33.6-33.7z" fill="#FFA285"/><path d="M282.7 382.209c-3.9 3.2-7.8 3-11.7 6.2l-31.5-22.4.8-16.9h6.2c3.2-.7 9.8-1.6 16.1 1.8 1.8 1 4.7 2.9 10 11.2 3 4.6 6.8 11.3 10.1 20.1z" fill="url(#paint4_linear_16:595)"/><path d="M279 400.71c25.3-9.2 54.2-24.4 67.7-33.4 2.2 2.9 3.4 3.9 5.6 6.8-40.9 33.9-46.8 38.7-58.9 43.7-1.8.7-3.8 1-5.7.7l-8.7-17.8z" fill="#FFA285"/><path d="M338.7 350.81l4.3-7.2c.7-1.1 1.9-1.8 3.3-1.8l8.4.1c1.3 0 2.6.7 3.2 1.9l4.1 7.3c.7 1.2.6 2.6 0 3.7l-4.3 7.2c-.7 1.1-1.9 1.8-3.3 1.8l-8.4-.1c-1.3 0-2.6-.7-3.2-1.9l-4.1-7.3c-.7-1.1-.7-2.6 0-3.7z" fill="#606376"/><path d="M339.2 351.709l4.3-7.2c.7-1.1 1.9-1.8 3.3-1.8l8.4.1c1.3 0 2.6.7 3.2 1.9l4.1 7.3c.7 1.2.6 2.6 0 3.7l-4.3 7.2c-.7 1.1-1.9 1.8-3.3 1.8l-8.4-.1c-1.3 0-2.6-.7-3.2-1.9l-4.1-7.3c-.7-1.2-.7-2.6 0-3.7z" fill="#383C54"/><path d="M352.2 374.11c1.6-1 6-4 7.7-9.6 1.8-6.2-.3-14.1-3.7-14.9-3.5-.8-8.7 5.8-9.7 12.2-.3 2.2-.1 4.1.1 5.5l5.6 6.8z" fill="#FFA285"/><path d="M353.6 353.71c0 1.6-1.3 2.8-2.9 2.8-1.6 0-2.8-1.3-2.8-2.9 0-1.6 1.3-2.8 2.9-2.8 1.6.1 2.8 1.3 2.8 2.9z" fill="#888A98"/><path d="M352.7 351.709l10.1 11.3-4.2 4-9.5-11 3.6-4.3z" fill="#888A98"/><path d="M356.2 349.61s-7.8-.3-9.2.7c-1.4 1-1.4 8.2-.9 8.5.5.3 1.4 1.5 2-.3.7-1.8.7-4.6.9-4.9.3-.3 5.4-.2 5.9-.4.6-.2 1.3-3.6 1.3-3.6z" fill="#FFA285"/><path d="M356.2 349.61s-7.8-.3-9.2.7c-1.4 1-1.4 8.2-.9 8.5.5.3 1.4 1.5 2-.3.7-1.8.7-4.6.9-4.9.3-.3 5.4-.2 5.9-.4.6-.2 1.3-3.6 1.3-3.6z" fill="#FFA285"/><path opacity=".2" d="M348 351.61c-1.2.5-1.6 3.3-1.5 5.6 0 1.5-.2 1.5-.4 1.4 0 .1.1.199.1.199.3.1.6.6 1 .7l.2-3.1 1.5-.9c.1-.9.2-1.599.3-1.799.1-.1 1.5-.201 2.8-.201l3.1-2c0-.1-5.9-.399-7.1.101z" fill="#BA937F"/><path d="M357.2 351.509s-7.8-.3-9.2.7c-1.4 1-1.4 8.2-.9 8.5.5.3 1.2 1.1 2-.3 1-1.6.7-4.6.9-4.9.3-.3 5.4-.2 5.9-.4.6-.2 1.3-3.6 1.3-3.6z" fill="#FFA285"/><path opacity=".2" d="M355.4 355.21l.6-2s-3.4-.8-5.7-.1c-2.3.8-1.7 4.6-1.8 6.6-.1 1.5-.8 1.3-1.2 1.1.5.3 1.1.7 1.8-.5 1-1.6.7-4.6.9-4.9.3-.1 3.9-.1 5.4-.2z" fill="#BA937F"/><path d="M359.4 353.309s-7.8-.3-9.2.6c-1.4.9-1.4 7.4-.9 7.7.5.2 1.4 1.4 2-.3.7-1.6.7-4.1.9-4.4.3-.2 5.4-.2 5.9-.4.6-.1 1.3-3.2 1.3-3.2z" fill="#FFA285"/><path d="M347.7 361.609l4.3-7.2c.7-1.1 1.9-1.8 3.3-1.8l8.4.101c1.3 0 2.6.699 3.2 1.899l4.1 7.3c.7 1.2.6 2.6 0 3.7l-4.3 7.2c-.7 1.1-1.9 1.8-3.3 1.8l-8.4-.1c-1.3 0-2.6-.7-3.2-1.9l-4.1-7.3c-.7-1.1-.7-2.6 0-3.7z" fill="#888A98"/><path d="M348.3 362.81l4.3-7.2c.7-1.1 1.9-1.8 3.3-1.8l8.4.1c1.3 0 2.6.7 3.2 1.9l4.1 7.3c.7 1.2.6 2.6 0 3.7l-4.3 7.2c-.7 1.1-1.9 1.8-3.3 1.8l-8.4-.1c-1.3 0-2.6-.7-3.2-1.9l-4.1-7.3c-.7-1.2-.7-2.6 0-3.7z" fill="#383C54"/><path d="M277.4 470.91c1.5 17.6 1.3 32.7.2 44.2-1.9 19.6-3.9 14.3-5.7 33-1 10.1-1.1 19.1-7.3 22.9-.8.5-6.1 3.8-9.9 1.8-1.4-.7-2-1.8-2-1.8-1.6-20-7.9-40.1-7.7-62.6.1-10.9.4-21.5.9-31.8 8.9-1.5 22.6-4.2 31.5-5.7z" fill="#0F3854"/><path d="M271.9 440.41c-13.3.1-26.7.3-40 .4-.3 1.8-1 4.6-2.5 7.5-1.4 2.8-3 4.6-3.6 5.3v-.1s-13.4 8.2-9.1 35.1c.2 1 .3 1.9.5 2.9.4 2.9.9 7.7.2 12.5-.5 3.4 3.2 5.6 7.5 7 2.7 2.8 5.4 2.9 7.8 1.9 2.8.5 4.8.6 4.8.6l-.8-3.5c2-2 3.3-4 3.3-4l-3.2-11.8c12.9-3.9 28.8-11.6 32.6-13.8 1.2-.7 3.3-1.7 6.1-3.9 1.5-1.2 1.9-1.2 2.2-1.6-.4-13.3-5.8-34.5-5.8-34.5z" fill="#0F3854"/><path d="M255.2 649.81c-.1 2.2-.3 5.5-1.2 9.4-.9 3.7-1.6 4.8-1.1 6.1.7 2.1 4.5 4 18.5 3.1-1-1.7-1.9-3.7-2.7-5.8-3.2-8.4-3-16.2-2.4-21.3-3.7 2.7-7.4 5.6-11.1 8.5z" fill="#FFA285"/><path d="M244.2 677.91s-1.1 2.6-.7 5.4c.4 2.8 13.1 5.4 18.5.8 0 0 13 9.9 32 1.9 2.1-.9 3.5-3 3.5-5.3 0-.8-.2-1.6-.8-2-1.8-1.4-52.5-.8-52.5-.8z" fill="#F4EEF2"/><path d="M262.5 684.51c-.3-.2-.7-.2-1 0-5.3 3.8-16.2 1.8-17.8-.7 0 .4 0 .7.1 1.1.3 2.8 12.9 5.4 18.2.8 0 0 12.8 9.9 31.5 1.9 1.7-.7 2.9-2.2 3.3-3.9-3 4.9-21.9 9-34.3.8z" fill="#424866"/><path d="M244.8 680.61c1.8 3.3 12.2 2.7 16.1 2.2 0 0 .5.1 6.5 3 7.3 3.5 31.7.5 28.4-7.2-.5-1.2-1.7-1.9-2.3-2.2-6.1-3-12.8-2.4-15.4-6.3-2.7-3.9-3.1-5.1-3.1-5.1-.2-.5-.5-1.5-1.4-1.9-.7-.3-1.4-.1-1.8 0-3.2 1-4.8 3.4-7.7 4.2-1.6.4-3 .2-5.7-.3-1.6-.3-3.4-.6-5.5-1.8-1.4-.7-1.5-1.1-2.1-1.1-2.2 0-3.7 4.1-4.5 6.3-.6 1.5-.8 3-1.4 6-.5 2.7-.5 3.5-.1 4.2z" fill="#D6CCD5"/><path d="M267.3 675.11s-3.8 2.4-8.2 2c-4.4-.4-6.5-2.6-8.9-2.1-2.4.5-5.6 4.3-5.6 4.3-.2 1.1-.1 1.5.3 1.9.6.7 1.8 1.1 3.1 1.4.7-2.9 3.5-3.8 3.5-3.8 14.6 3.4 16.7-.7 16.7-.7 10.6 1.3 20 7.7 20 7.7l2.8-.6c-6.3-6-23.7-10.1-23.7-10.1z" fill="#2D2F3F"/><path opacity=".3" d="M295.8 678.61c-.5-1.2-1.7-1.9-2.3-2.2 8.1 8.1-22.8 10.4-30.8 2.3 0 0-10.4 6.6-18-1.8-.4 2.3-.3 3 .1 3.7 1.8 3.3 12.2 2.7 16.1 2.2 0 0 .5.1 6.5 3 7.3 3.4 31.7.4 28.4-7.2z" fill="#E1E1DF"/><path d="M268.8 665.51s-.1 4.4 7.1 9.1c0-.1-7.4-.1-7.1-9.1z" fill="#E1E1DF"/><path d="M278.9 669.51l-3.4 3.3.9 1.1 3.3-3.5c.2-.2.2-.5.1-.8-.2-.3-.6-.4-.9-.1zm2.7 1.6l-3.4 3.3.9 1.1 3.3-3.5c.2-.2.2-.5.1-.8-.2-.3-.6-.4-.9-.1zm3.8 1.5l-3.4 3.3.9 1.1 3.3-3.5c.2-.2.2-.5.1-.8-.2-.3-.7-.3-.9-.1zm-16.6-5.1s-.5-.7-1.1-2.1c-1.1.8-2.3 1.6-3.7 2-1.6.4-3 .2-5.7-.3-1.6-.3-3.4-.6-5.5-1.8-1.4-.7-1.5-1.1-2.1-1.1-1.2 0-2.3 1.4-3.1 3 3 1.7 13.5 7 21.2.3z" fill="#EBEBEA"/><path d="M253.9 551.81c-6 9.1-8.3 20-8.7 30.9-1 25.6 10.6 49.9 7.7 79.2 1.1.8 2.9 2.6 7.3 2.6 4.7 0 7.5-2.2 8.6-3-.2-10.7-1.1-21.6-1.1-32.6.1-24.8 2-49 3.1-72.4-5.6-1.5-11.3-3.1-16.9-4.7z" fill="#0F3854"/><path opacity=".2" d="M264.6 661.81c-2.1-1.1-2.5-4.1-2.7-5.3-6.4-48.1-14.3-58.9-10.5-80.8 1.3-7.2 3.8-12.5 5.3-15 .7-1.2.9-2.6.5-3.9-1.2-4.8-4.1-17-4.1-25.7 0-9.1-1.2-23.3.6-39.7 2.5-.2 8.9-1 11.4-4.6 0 0-9.2 2.9-11.8 2.2-.2-.1-.4.1-.5.3-.7 3.2-5 22.4-7.4 31.2 1.1 12.6 3.6 24.6 5.5 36.4-2 4.1-5.2 12.5-5.8 25.8-1 25.6 10.6 49.9 7.7 79.2 1.1.8 2.9 2.6 7.3 2.6 4.7 0 7.5-2.2 8.6-3 0 .1-2.2 1.3-4.1.3z" fill="#626B94"/><path d="M253.1 484.41c-.8 17.6-3.4 32.4-6.1 43.6-4.5 19.2-5.8 13.7-10 31.9-2.3 9.9-3.6 18.7-10.3 21.7-.9.4-6.6 2.9-10 .5-1.3-.9-1.7-2-1.7-2 1-20.1-2.5-40.8.7-63.1 1.5-10.8 2.8-21.7 4.7-31.8 8.9-.3 23.7-.6 32.7-.8z" fill="#0F3854"/><path d="M203.8 682.01c.9-1.4 2.1-3.4 3-6 1.6-4.8 10.3-4.2 17 2.4 1.7 3.5 3.3 7 5.1 10.7 2.6 5.5 5.2 11.3 5.5 12.6 3.8 8.2-7.9 14.6-20.1 5.8-4.2-3.1-3.9-6.1-9.9-19.7-.8-1.5-.6-5.8-.6-5.8z" fill="#D6CCD5"/><path d="M203.8 682.009s4.5-5.2 5.6-4.2c1.1.9-.3 8.7 4 11.6 0 0 2.4 9.9 2.3 16.7l-1.5-1.1s-1.6-13.3-2.9-15.5c-1.1-1.8-2.9-4.2-2.9-8.1 0-.7-.9-1-1.4-.5l-3.2 3.6v-2.5z" fill="#2D2F3F"/><path d="M220.3 670.01c1.1.4 2.2.9 2.9 1.4 0 0-.1 1.3.2 4.8.2 2.6 2 10.099 4.1 15.399.2.8.6 2.2.8 3 .7 5.3-2.4 5.901-7.2 1.801-5.4-4.6-6-21.6-6-21.6l5.2-4.8z" fill="#E1E1DF"/><path d="M212.5 703.01c3.3 4.5 9.7 5.999 14.4 5.599 3.7-.3 6.5-2.499 8-3.399.3.6.5 2.2.3 3-.7 3.2-7.3 4.7-12.3 4-4.7-.7-7.8-3.301-9.2-4.601-5.7-4.8-5.1-7.499-7.4-11.599-1.8-3.2-5.6-5.2-2.5-14-.1 1.9 0 4.699 1.4 7.599.9 1.8 1.7 2.401 3 4.301 3.2 4.6 2.3 6.2 4.3 9.1z" fill="#F4EEF2"/><path d="M235.2 706.809c-.7 3.2-7.3 4.7-12.3 4-4.7-.7-7.8-3.3-9.2-4.6-5.7-4.8-5.1-7.5-7.4-11.6-1.3-2.4-2-2.7-2.7-4-.4-.8-.8-1.9-.9-3.4-.3 4.7 1.9 5.8 3.6 8.8 2.3 4 1.7 6.7 7.4 11.6 1.5 1.2 4.6 3.9 9.2 4.6 5 .7 11.6-.9 12.3-4 .1-.4.1-.9 0-1.4 0-.1 0 0 0 0z" fill="#424866"/><path d="M209.7 672.31l-1-14.8 13.6-1-.6 16.7c-2.4 1.7-6.6 3.3-12-.9z" fill="#FFA78A"/><path d="M221.5 670.009c.1.3.2.9.1 1.6-.1.9-.4 1.3-.2 1.5.5.6 2.1 3.9 2.1 3.9l-.1-.8c0 .1 1.7-6.3-1.9-6.2zm-12-.3s-1.9 2.2-1.7 4.2c.1 2 3.2 4.2 8 3.2 4.9-1-.6-2.2-.6-2.2s-6.2-1.7-5.7-5.2z" fill="#EBEBEA"/><path d="M225.6 686.709c-.4-3.1-.5-6.3-.2-9.4.3-2.4-.3-5.3-4.5-4.8-2.5.3-3.9 1-4.7 1.9-1.1 1.3-1.3 2.8-.3 7.2 0 0 2.4 10.3 7.6 15 1.7 1.5 2.6 1.5 3 1.4h.2c.8-.2 1.3-1.1 1.1-1.9-.8-3.1-1.5-6.3-2.2-9.4z" fill="#D6CCD5"/><path d="M215.8 684.81h.1l9.4-1.4c.3 0 .5-.3.4-.6 0-.3-.3-.5-.6-.5l-9.4 1.4c-.3 0-.5.3-.4.6 0 .3.2.5.5.5zm.9 3.499h.1l9.8-1.5c.3 0 .5-.3.4-.6 0-.3-.3-.5-.6-.5l-9.8 1.5c-.3 0-.5.3-.4.6 0 .3.2.5.5.5zm1.2 3.901h.1l9.3-1.8c.3-.1.5-.3.4-.6 0-.3-.3-.5-.6-.5l-9.3 1.8c-.3.1-.5.3-.4.6.1.3.3.5.5.5z" fill="#E8EFF3"/><path d="M218.7 561.41s-.9.999-2.2 2.699c-4.1 5.2-9.8 17.401-9.8 26.901-.1 12.7 4 56.2.2 77.5.8 1 2.3 2.6 4.8 3.4 2.9 1 5.4.4 6.9 0 2.1-.5 3.6-1.4 4.6-2-.1-21.1 2.2-38.701 3.3-50.801 1.5-16.8 3.7-32.499 7.8-50.299-5.3-2.5-10.5-5-15.6-7.4z" fill="#0F3854"/><path opacity=".2" d="M225.7 453.41s-13.4 8.2-9.1 35.1c.2 1 .3 1.9.5 2.9.4 2.9.9 7.7.2 12.5-.6 4.3-1.2 8.7-1.8 13-2.4 17.1-.9 33.4-.5 49.1-3.9 5.9-8.4 16.5-8.4 25-.1 12.7 4 56.2.2 77.5 7.7-30.6 3.3-58.3 3-73.1-.3-14.8 9.8-29.6 9.8-29.6s-5.3-26.4-.7-48.3c4.7-21.9 3.6-23.8 3.6-23.8-6.3-23.8 3.4-40.2 3.4-40.2-.1 0-.1.1-.2.1v-.2z" fill="#626B94"/><path d="M250.1 345.81c6.2 6.1 11.4 10.9 15.1 14.2 6 5.4 7.8 6.7 10.1 10.1 1.8 2.7 6.3 9.2 5.9 17.4-.2 4.3-1.5 4.6-3.8 13.6 0 0-1.3 5.1-2.4 12.5-2.4 16-.6 36-.2 39.5-3.9 2.3-11.7 6.2-22.4 6.7-12.9.6-22.5-4-26.4-6.3 4.1-21.1 4.8-37 2.1-47.5-5-19.6-14.1-30-9.7-41.9 2.3-6.2 5.6-12.8 20.3-17.6l11.4-.7z" fill="url(#paint5_linear_16:595)"/><path opacity=".3" d="M258.1 384.309c11.9-2.5 15.6-9.1 5.6-25.6-3.3-3-7.7-7-12.7-11.9l-7-.6-1.7.1c-4 .7-7.1 1.6-9.6 2.7 2.7 8.2 13.4 37.8 25.4 35.3z" fill="#0F3854"/><path d="M237.5 330.91s-1.8 13.8-3.3 19.1c0 0 9.7 6.9 18.1 4.7 0 0-.4-13.9-.4-17 .1-3.3-14.4-6.8-14.4-6.8z" fill="#FFA285"/><path d="M234.2 349.91s14.6 27.7 23.7 21.5c9.1-6.3-7.8-26-7.8-26l-15.9 4.5z" fill="#FFA285"/><path opacity=".2" d="M237.5 330.91s1.3 12.9 14.6 19.1c-.1-2.4-.1-5.3-.2-7.8-6.4-5.6-14.4-11.3-14.4-11.3z" fill="#BA937F"/><path d="M272.2 309.51c-1.1-10.9-10.9-18.8-22.1-17.7-11.1 1.1-19.3 10.8-18.2 21.6.1 5.2 1.2 15.5 8.3 24.3 2.1 2.5 4.9 5.9 9.9 7.6 1 .3 9.1 3 16-1.8 4.1-2.8 5.6-6.9 6.2-8.4 1.7-4.5 1.2-8.8 1-11.3-.4-3.6-1.2-5.6-1.3-10.3 0-1.6.1-3 .2-4z" fill="#FFA285"/><path opacity=".2" d="M272.3 335.209c1.7-4.5 1.2-8.8 1-11.3.3 7.7-3 14.6-8.8 17.7-6.3 3.4-13 .8-14.5.2-12.1-4.6-17.2-20-17-19 1.1 4.7 3.2 10.1 7.2 15 2.1 2.5 4.9 5.9 9.9 7.6 1 .3 9.1 3 16-1.8 4-2.8 5.6-6.9 6.2-8.4z" fill="#BA937F"/><path d="M266.1 319.309c.1 1.6 1.2 2.7 2.4 2.6 1.2-.1 2-1.5 1.9-3.1-.3-3.7-4.6-3.2-4.3.5z" fill="#402A22"/><path d="M267.7 316.91c.4 0 1.3-.7 1.5-1.5v-.2c.2-.7.2-1.2.1-1.9.6 1.7.5 3.4-1 4.5-.1.1-.2.1-.2.1 0 .1-.4-1-.4-1z" fill="#402A22"/><path d="M267.3 317.21c.8-1.4.6-2.9-.3-4.2 1.3 1.1 1.8 2.8 1.4 4.6l-1.1-.4z" fill="#402A22"/><path d="M266.5 317.71c.3-1.6-.3-3-1.5-3.9.2.1.4.2.7.4 1.2.8 1.9 2 2 3.6l-1.2-.1zm-16.4 4.8c.1 1.6 1.2 2.7 2.4 2.6 1.2-.1 2-1.5 1.9-3.1-.4-3.8-4.7-3.3-4.3.5z" fill="#402A22"/><path d="M251.6 320.11c.8-.1 1.9-1.3 1.7-3.6.8 2.3 0 4.1-1.3 4.7l-.4-1.1z" fill="#402A22"/><path d="M251.2 320.309c.8-1.4.6-2.9-.3-4.2 1.3 1.1 1.5 2.601 1.5 2.601.1.8.1 1.3-.1 2l-1.1-.401z" fill="#402A22"/><path d="M250.4 320.91c.3-1.6-.3-3-1.5-3.9 1.5.7 2.6 2 2.7 4l-1.2-.1z" fill="#402A22"/><path opacity=".2" d="M241 461.31c.9 1 4.1 5.7 4.2 6.3.1.6-1.1 2.6-4-.9l-1.9-2.2s-3.3-1.9-4.1-1.3c-.8.7 8.2 7 8.2 8.3 0 1.2-1 1.8-2.3 1.5-1.3-.3-7.8-7.7-9.1-7.6-1.3 0 7.1 7.7 7.6 8.3.5.7-.5 3.2-2.4 1.8-1.9-1.4-7.5-7.2-7.5-7.2s-.9.2-.6.9c.3.7 5.6 6.7 4.8 7.8-.8 1.1-5.3-3.3-7.3-5.9l-2.3-3.7c.4-2.4 2-2.7 2-2.7.7-2.5 2.3-2.7 2.3-2.7.7-2 2.1-1.7 2.1-1.7.2-.7.5-1 .8-1.3 1.2.2 2.4.4 3.5.6.1 0 5.1.7 6 1.7z" fill="#796B80"/><path opacity=".3" d="M231.3 375.509c.3-.3.4-.6.5-.8 0 0-.2.2-.5.8zm-5 17.401c-2.6-4.5 3.2-14.5 5-17.4-3.7 4.7-24.2 19.4-24.2 19.4l14.5-7.7c2.1 5.3 4.6 11.4 6.4 18.8 2.7 10.5 2 26.4-2.1 47.5 12.1-10.1 3.4-55.3.4-60.6z" fill="#7CD3F4"/><path d="M234.8 364.11c-.7-3.2-1.5-4.3-5.1-5.9-2.7-1.2-4.8-.4-8.8.9-5.4 1.8-12.5 5-20.1 11.2-11.1 8.9-26.7 22.5-34.2 32.1-.4.5.5 4.2 3.2 6.3 3.6 2.8 10.2-.2 27.6-9.9 17-9.5 40-23.5 37.4-34.7z" fill="#FFA285"/><path d="M186.3 391.31c10.4 24.8 26.9 53 36.6 66-2.8 2.3-3.8 3.6-6.5 5.9-38.6-41.7-40.3-43.6-46.4-56.8-.8-1.8-1.2-3.7-1-5.7l17.3-9.4z" fill="#FFA285"/><path d="M227.4 351.709c-5.6 2.9-22.5 13.8-35.6 23.6l15.4 19.6 27.9-15.5s10-9.6-3.2-24.9c-2.2-2.4-1.6-4.3-4.5-2.8z" fill="url(#paint6_linear_16:595)"/><path d="M267.7 332.61c-.8 3.9-7.6 5.5-9.8 1.5 3.7 1.9 7 1.3 9.8-1.5z" fill="#701C25"/><path opacity=".3" d="M275.3 370.01c4.3 12.5 2.8 15.9-1.7 24.8s-30.3 11-30.3 11c29.6-1.3 30.3-5.8 30.3-5.8s-2.6 37.4-5.8 49.2c-3.2 11.8-41.8 4.2-41.8 4.2 4 2.2 13.5 6.9 26.4 6.3 10.6-.5 18.5-4.4 22.4-6.7-.3-3.5-2.2-23.5.2-39.5 1.1-7.4 2.4-12.5 2.4-12.5 2.3-8.9 3.6-9.3 3.8-13.6.4-8.2-4.1-14.7-5.9-17.4z" fill="#396D89"/><path d="M261.6 313.109c-.6.1-.2 3.001-.1 3.601.6 3.5 2.2 7.599 5.2 9.599l.3.2c1.7 1.5-2.3 3.2-4.4 4.1l-.2.101h.3c3.7-.6 7.8-2.601 5.2-5.101-1.3-1.1-1.8-1.199-3.3-3.899-.8-1.2-3.8-8.101-3-8.601z" fill="#C7785C"/><path d="M268.5 293.509c-.7-1.2-2.9-4.3-6.9-6.6-4.4-2.6-8.6-2.8-10.7-2.9-8.7-.3-15 3.9-16.2 4.7-7.1 4.9-9.5 11.9-10.3 14.3-.6 1.8-4.4 13.8 2.8 25.1 1.6 2.5 5.6 6.6 9.4 10 .5-3 .8-5.6 1-6.7.1-.4.1-.6.1-.6s.1 0 .4.1c-.9-2.9-1.1-5.2-1.1-6.7 0-.9 0-1.8.1-2.1.1-2.9.4-7.9 2.4-12.5 1.3-2.9 2.7-6.3 6.2-8.1 2.4-1.2 5-1.3 6-1.3 3.7-.1 4.3 1.3 7.1 1 4-.3 4.9-3.2 7.3-2.7 3 .6 4.8 4.7 5.8 7.9 0-1.9.1-7.4-3.4-12.9z" fill="url(#paint7_linear_16:595)"/><path d="M271.8 306.51s-16.5-10.9-35 17.8l-5.8-5.9c.8-2.9 4.2-13.7 14.7-19.6 1.6-.9 9.7-5.2 18.4-3.1 2.2.5 5.3 1.3 7 4.2 1.6 2.6 1 5.6.7 6.6z" fill="#EDF9FD"/><path opacity=".3" d="M272.1 302.71s-23-12.2-37.1 18.5c-.1.3-.3.6-.4.9l2.2 2.2c18.5-28.7 35-17.8 35-17.8.2-.7.5-2.1.3-3.8z" fill="#7CD3F4"/><path d="M236.3 339.71c.7-4.6 1.3-8.8 1.3-8.8s2.5-16.1-6.5-12.4c-1.6 5.7-1.3 9.999-.9 12.299.5 3.2 1.3 4.501 1.7 5.101 1.4 2 4.4 3.8 4.4 3.8z" fill="#EDF9FD"/><path opacity=".3" d="M232.3 336.51c1.6 1.8 3.9 3.2 3.9 3.2.7-4.6 1.3-8.8 1.3-8.8s1.4-8.7-1.5-11.9c-.3.7-.7 1.4-1 2.2-2.5 5.4-3.2 10.5-2.7 15.3z" fill="#7CD3F4"/><path d="M239.4 322.71s-6-6-8-1.2c-2 4.9 3.9 11.5 7.2 10.6 3.4-.9.8-9.4.8-9.4z" fill="#FFA285"/><path opacity=".2" d="M236.8 324.31s-3.5-4-3.8-1.5c-.3 2.5 1.3 5.6 2.7 5.3 1.4-.3 1.1-3.8 1.1-3.8z" fill="#BA937F"/><path d="M253.6 312.71s-4.8.8-8.8 5.7c-.3.4-.9.1-.8-.3.1-.7.4-1.5.8-2.4 1.2-2.5 9.8-4.7 8.8-3zm10.2-2.2s3.6-1.5 8.8.9c.4.2.7-.3.4-.6-.4-.5-1-1.1-1.8-1.7-2.1-1.5-8.9.5-7.4 1.4z" fill="#402A22"/><path d="M217 449.31c2.1 2.8 4 5.4 7 8.4 3.7.6 7.4 1.3 11.1 1.9 0 0 5 .7 5.9 1.7.9 1 4.1 5.7 4.2 6.3.1.6-1.1 2.6-4-.9l-1.9-2.2s-3.3-1.9-4.1-1.3c-.8.7 8.2 7 8.2 8.3 0 1.2-1 1.8-2.3 1.5-1.3-.3-7.8-7.7-9.1-7.6-1.3 0 7.1 7.7 7.6 8.3.5.7-.5 3.2-2.4 1.8-1.9-1.4-7.5-7.2-7.5-7.2s-.9.2-.6.9c.3.7 5.6 6.7 4.8 7.8-.8 1.1-5.3-3.3-7.3-5.9-6.3-.8-8.3-2-9.6-4.5-.2-.5-.2-.5-.6-1.4-1.7-4-3.8-6-5.5-8.3-1.2-1.6-2.6-4-3.7-7.6 3.7-.1 6.3 0 9.8 0z" fill="#FFA285"/><path opacity=".2" d="M628.2 123.41v-10.9c0-6.7-5.4-12.1-12.1-12.1H603c-6.7 0-12.1 5.4-12.1 12.1v10.8c-6.8 5.5-11.1 13.8-11.1 23.2 0 3.5.6 6.9 1.8 10.1.8 2.3 3 3.8 5.5 3.8h45.1c2.5 0 4.6-1.5 5.5-3.8 1.3-3.6 1.9-7.4 1.7-11.5-.5-8.7-4.8-16.5-11.2-21.7zm-7.7-4.5c-2.9-1.2-6.1-1.9-9.4-2.1-4.4-.2-8.7.5-12.5 2v-6.3c0-2.4 2-4.4 4.4-4.4h13.1c2.4 0 4.4 2 4.4 4.4v6.4z" fill="#4E7D96"/><path d="M602.2 148.309h-3.8l2.4-16.2-3.6.1.4-2.9 7.5-.7-2.9 19.7zm18.7-7.1c-.4 2.4-1.2 4.2-2.4 5.5-1.3 1.3-2.8 1.9-4.6 1.9-1.8 0-3.1-.7-4-2-.9-1.3-1.2-3.1-.9-5.4l.8-5.3c.4-2.4 1.2-4.2 2.4-5.4 1.3-1.3 2.8-1.9 4.7-1.9 1.7 0 3.1.7 4 2 .9 1.3 1.2 3.1.9 5.4l-.9 5.2zm-2.9-5.6c.2-1.3.1-2.3-.1-3-.3-.7-.8-1-1.5-1s-1.3.4-1.8 1.1c-.5.7-.9 1.7-1 3l-.9 6c-.2 1.4-.2 2.4.1 3.1.3.7.8 1 1.5 1s1.2-.4 1.7-1.1c.5-.7.9-1.7 1.1-3l.9-6.1z" fill="#fff"/></g><defs><linearGradient id="paint0_linear_16:595" x1="665.039" y1="354.308" x2="641.761" y2="473.693" gradientUnits="userSpaceOnUse"><stop stop-color="#4E7D96"/><stop offset="1"/></linearGradient><linearGradient id="paint1_linear_16:595" x1="692.713" y1="368.819" x2="816.404" y2="525.688" gradientUnits="userSpaceOnUse"><stop stop-color="#4E7D96"/><stop offset="1"/></linearGradient><linearGradient id="paint2_linear_16:595" x1="724.245" y1="356.215" x2="799.061" y2="465.475" gradientUnits="userSpaceOnUse"><stop stop-color="#4E7D96"/><stop offset="1"/></linearGradient><linearGradient id="paint3_linear_16:595" x1="78.73" y1="393.801" x2="321.664" y2="179.349" gradientUnits="userSpaceOnUse"><stop/><stop offset="1" stop-color="#C4C4C4"/></linearGradient><linearGradient id="paint4_linear_16:595" x1="261.041" y1="355.353" x2="286.757" y2="411.534" gradientUnits="userSpaceOnUse"><stop stop-color="#4E7D96"/><stop offset="1"/></linearGradient><linearGradient id="paint5_linear_16:595" x1="249.141" y1="365.507" x2="478.021" y2="604.349" gradientUnits="userSpaceOnUse"><stop stop-color="#4E7D96"/><stop offset="1"/></linearGradient><linearGradient id="paint6_linear_16:595" x1="215.2" y1="358.729" x2="243.485" y2="420.058" gradientUnits="userSpaceOnUse"><stop stop-color="#4E7D96"/><stop offset="1"/></linearGradient><linearGradient id="paint7_linear_16:595" x1="95.817" y1="343.46" x2="209.866" y2="155.633" gradientUnits="userSpaceOnUse"><stop/><stop offset="1" stop-color="#C4C4C4"/></linearGradient><clipPath id="clip0_16:595"><path fill="#fff" d="M0 0h842v718.9H0z"/></clipPath></defs></svg>