<svg width="321" height="155" fill="none" xmlns="http://www.w3.org/2000/svg"><path d="M8.495 117.719s14.375 1.749 19.194 1.743c4.435 0 11.032.186 21.2-7.439 0 0 1.492 8.562 10.068 14.58 0 0 2.814 5.423 6.03 11.083h55.969c.054-4.419-.207-9.013-.951-13.69 0 0 12.151-23.089 5.135-38.015 0 0 20.951-5.703 29.991-27.858 0 0 9.531-8.325 4.3-13.57 0 0-5.707-10.235-21.908-17.14 0 0-10.711-6.18-12.373-8.325 0 0-4.522-7.142-20.952 4.99 0 0-2.851 9.294 2.616 13.34 0 0 8.334 1.434 12.138-5.956 0 0 .71-.936-.697-1.42 0 0 3.079.236 4.754-2.858 0 0 7.147 2.858 10.463 11.43 3.332 8.58 2.85 9.275 4.759 10.719 0 0-14.752 4.054-18.089 15.23 0 0-15.957 2.616-18.573 12.621 0 0-12.615 1.898-9.99-10.005 0 0 2.143-2.615 7.928-2.293 0 0 2.893.161.793-5.405-.195-.52.494-1.135.874-2.071.359-.856.012-1.01-1.576-2.368-.52-.428.422-1.401.819-2.455.249-.633-.82-2.945-.82-2.945s2.481-1.94 2.37-2.857c-.248-2.17-6.025-3.285-6.981-5.233-.382-.775.967-2.503.793-3.322-.656-3.106-3.855-9.43-8.14-11.896-5.87-3.373-21.896-4.446-28.88 9.682-1.885 3.812-.375 13.05 1.267 16.986 1.538 3.73 8.45 13.78 8.45 13.78.325.954 2.53 14.933-9.521 18.41 0 0-10.957-.637-18.892 6.67 0 0-13.49-1.116-17.136 6.82 0 0-.94-13.812 7.788-22.217 0 0 5.07 1.264 7.136 0 0 0 1.587 5.157 5.075 3.173 0 0 2.472.708 2.864-1.598 0 0 3.64-.23 2.932-3.806 0 0 1.821-5.071-1.11-6.496 0 0 .14-4.443-3.823-4.29 0 0-7.211.534-9.598.323-3.109-.26-8.582.794-11.909 6.675L10.708 86.631s-8.094 10.792-9.203 21.423c.014-.005-3.325 7.93 6.99 9.665z" fill="url(#paint0_linear_37:669)"/><path d="M193.289 44.125h-12.562v10.102h11.578v4.71h-11.578V73h-5.579V39.39h18.141v4.735zm8.133-.164c-.891 0-1.656-.29-2.297-.867-.625-.578-.937-1.313-.937-2.203 0-.891.312-1.633.937-2.227.641-.594 1.406-.89 2.297-.89.922 0 1.703.296 2.344.89.64.594.961 1.336.961 2.227 0 .843-.321 1.57-.961 2.18-.641.593-1.422.89-2.344.89zM204.117 73h-5.437V49h5.437v24zm19.781-.258c-1.062.531-2.46.797-4.195.797-4.656 0-6.984-2.234-6.984-6.703v-13.57h-4.008V49h4.008v-5.555l5.437-1.547V49h5.742v4.266h-5.742v12c0 1.421.258 2.437.774 3.046.515.61 1.375.915 2.578.915.922 0 1.719-.266 2.39-.797v4.312zm26.063.258h-5.438V59.477c0-4.485-1.585-6.727-4.757-6.727-1.657 0-3.024.625-4.102 1.875-1.078 1.234-1.617 2.797-1.617 4.688V73h-5.461V49h5.461v3.984h.094c1.797-3.03 4.39-4.547 7.781-4.547 2.609 0 4.601.852 5.976 2.555 1.375 1.688 2.063 4.133 2.063 7.336V73zm26.977-10.523h-16.36c.063 2.218.742 3.93 2.039 5.132 1.313 1.204 3.11 1.805 5.391 1.805 2.562 0 4.914-.766 7.054-2.297V71.5c-2.187 1.375-5.078 2.063-8.671 2.063-3.532 0-6.305-1.086-8.321-3.258-2-2.188-3-5.258-3-9.211 0-3.735 1.102-6.774 3.305-9.117 2.219-2.36 4.969-3.54 8.25-3.54 3.281 0 5.82 1.055 7.617 3.165 1.797 2.109 2.696 5.039 2.696 8.789v2.086zm-5.25-3.844c-.016-1.953-.477-3.469-1.383-4.547-.907-1.094-2.157-1.64-3.75-1.64-1.563 0-2.891.57-3.985 1.71-1.078 1.14-1.742 2.633-1.992 4.477h11.11zm8.929 13.617v-5.04c2.031 1.548 4.274 2.321 6.727 2.321 3.281 0 4.922-.969 4.922-2.906 0-.547-.141-1.008-.422-1.383-.282-.39-.664-.734-1.149-1.031a8.48 8.48 0 00-1.687-.797c-.641-.234-1.36-.5-2.156-.797a23.753 23.753 0 01-2.672-1.242c-.782-.438-1.438-.93-1.969-1.477A5.843 5.843 0 01281.039 58c-.266-.703-.398-1.523-.398-2.46 0-1.157.273-2.173.82-3.048a6.968 6.968 0 012.203-2.226c.922-.61 1.969-1.063 3.141-1.36a14.045 14.045 0 013.633-.468c2.218 0 4.203.335 5.953 1.007v4.758c-1.688-1.156-3.625-1.734-5.813-1.734-.687 0-1.312.07-1.875.21a4.822 4.822 0 00-1.406.587c-.391.25-.695.554-.914.914a2.092 2.092 0 00-.328 1.148c0 .516.109.953.328 1.313.219.359.539.68.961.96.437.266.953.516 1.547.75.609.22 1.304.462 2.086.727 1.031.422 1.953.852 2.765 1.29.828.437 1.531.937 2.11 1.5a5.687 5.687 0 011.336 1.921c.312.719.468 1.578.468 2.578 0 1.219-.281 2.281-.844 3.188a7.024 7.024 0 01-2.25 2.25c-.937.593-2.023 1.03-3.257 1.312a16.294 16.294 0 01-3.867.445c-2.626 0-4.899-.437-6.821-1.312zm20.719 0v-5.04c2.031 1.548 4.273 2.321 6.726 2.321 3.282 0 4.922-.969 4.922-2.906 0-.547-.14-1.008-.422-1.383-.281-.39-.664-.734-1.148-1.031a8.506 8.506 0 00-1.687-.797 349.6 349.6 0 01-2.157-.797 23.836 23.836 0 01-2.672-1.242c-.781-.438-1.437-.93-1.968-1.477A5.826 5.826 0 01301.758 58c-.266-.703-.399-1.523-.399-2.46 0-1.157.274-2.173.821-3.048a6.968 6.968 0 012.203-2.226c.922-.61 1.969-1.063 3.14-1.36a14.045 14.045 0 013.633-.468c2.219 0 4.203.335 5.953 1.007v4.758c-1.687-1.156-3.625-1.734-5.812-1.734a7.73 7.73 0 00-1.875.21 4.81 4.81 0 00-1.406.587c-.391.25-.696.554-.914.914a2.093 2.093 0 00-.329 1.148c0 .516.11.953.329 1.313.218.359.539.68.96.96.438.266.954.516 1.547.75.61.22 1.305.462 2.086.727 1.032.422 1.953.852 2.766 1.29.828.437 1.531.937 2.109 1.5a5.673 5.673 0 011.336 1.921c.313.719.469 1.578.469 2.578 0 1.219-.281 2.281-.844 3.188a7.024 7.024 0 01-2.25 2.25c-.937.593-2.023 1.03-3.258 1.312a16.281 16.281 0 01-3.867.445c-2.625 0-4.898-.437-6.82-1.312z" fill="#4E7D96"/><path d="M198.586 119.594c-2.531 1.312-5.68 1.968-9.445 1.968-4.875 0-8.782-1.539-11.719-4.617-2.938-3.078-4.406-7.117-4.406-12.117 0-5.375 1.648-9.719 4.945-13.031 3.312-3.313 7.492-4.969 12.539-4.969 3.25 0 5.945.461 8.086 1.383v5.531c-2.266-1.344-4.766-2.015-7.5-2.015-3.641 0-6.594 1.164-8.859 3.492-2.25 2.328-3.375 5.437-3.375 9.328 0 3.703 1.054 6.656 3.164 8.859 2.109 2.188 4.882 3.282 8.32 3.282 3.172 0 5.922-.75 8.25-2.25v5.156zM209.812 121h-5.46V85.469h5.46V121zm28.032 0h-5.438v-3.797h-.094c-1.578 2.906-4.031 4.359-7.359 4.359-5.672 0-8.508-3.406-8.508-10.218V97h5.438v13.781c0 4.313 1.664 6.469 4.992 6.469 1.609 0 2.93-.594 3.961-1.781 1.047-1.188 1.57-2.742 1.57-4.664V97h5.438v24zm12.633-3.469h-.094V121h-5.438V85.469h5.438v15.75h.094c1.859-3.188 4.578-4.781 8.156-4.781 3.031 0 5.398 1.078 7.101 3.234 1.719 2.14 2.578 5.016 2.578 8.625 0 4.015-.96 7.234-2.882 9.656-1.922 2.406-4.547 3.609-7.875 3.609-3.125 0-5.485-1.343-7.078-4.031zm-.141-9.539v2.977c0 1.75.555 3.234 1.664 4.453 1.125 1.219 2.547 1.828 4.266 1.828 2.015 0 3.593-.781 4.734-2.344 1.156-1.578 1.734-3.773 1.734-6.586 0-2.359-.539-4.203-1.617-5.531-1.062-1.344-2.508-2.016-4.336-2.016-1.937 0-3.5.688-4.687 2.063-1.172 1.375-1.758 3.094-1.758 5.156z" fill="#4E7D96" fill-opacity=".5"/><defs><linearGradient id="paint0_linear_37:669" x1="81" y1="17" x2="81" y2="137.686" gradientUnits="userSpaceOnUse"><stop stop-color="#4E7D96"/><stop offset=".615" stop-color="#4E7D96" stop-opacity=".7"/><stop offset=".813" stop-color="#4E7D96" stop-opacity=".43"/><stop offset="1" stop-color="#fff" stop-opacity=".66"/></linearGradient></defs></svg>